<svg id="Iconly_Broken_Notification" data-name="Iconly/Broken/Notification" xmlns="http://www.w3.org/2000/svg" width="12" height="15" viewBox="0 0 12 15">
  <g id="Notification" transform="translate(0)">
    <path id="Notification-2" data-name="Notification" d="M4.009,13.964a.591.591,0,0,1,.072-.8.521.521,0,0,1,.76.076,1.5,1.5,0,0,0,.295.31,1.344,1.344,0,0,0,1.041.275,1.39,1.39,0,0,0,.919-.585H7.1a.522.522,0,0,1,.761-.076.591.591,0,0,1,.072.8A2.462,2.462,0,0,1,5.969,15,2.463,2.463,0,0,1,4.009,13.964ZM2.851,11.879A3.345,3.345,0,0,1,.684,10.724,3.18,3.18,0,0,1,0,8.671V8.579A3.286,3.286,0,0,1,.515,7l.05-.066a2.946,2.946,0,0,0,.626-1.32V4.257A.537.537,0,0,1,1.75,3.9a.552.552,0,0,1,.474.476V5.735a.343.343,0,0,1,0,.072A4.043,4.043,0,0,1,1.36,7.642a1.983,1.983,0,0,0-.275.938v.145A2.009,2.009,0,0,0,1.5,10.011a2.289,2.289,0,0,0,1.466.739,26.616,26.616,0,0,0,6.062,0,2.3,2.3,0,0,0,1.5-.772,1.985,1.985,0,0,0,.395-1.247V8.579a2.061,2.061,0,0,0-.269-.944A4.037,4.037,0,0,1,9.733,5.8a.466.466,0,0,1,0-.073V4.362A3.731,3.731,0,0,0,6.026,1.135a3.88,3.88,0,0,0-1.992.547.515.515,0,0,1-.548,0A.582.582,0,0,1,3.508.693,4.876,4.876,0,0,1,10.848,4.23V5.59a2.881,2.881,0,0,0,.626,1.32.56.56,0,0,1,.05.073A3.172,3.172,0,0,1,12,8.52l-.019.138a3.231,3.231,0,0,1-.664,2.066,3.376,3.376,0,0,1-2.2,1.155,27.059,27.059,0,0,1-3.131.182A27.071,27.071,0,0,1,2.851,11.879Z" fill="#87d8ea"/>
  </g>
</svg>
