<svg id="Group_2744" data-name="Group 2744" xmlns="http://www.w3.org/2000/svg" width="55.52" height="51.349" viewBox="0 0 55.52 51.349">
  <path id="Path_13263" data-name="Path 13263" d="M241.007,303.792a8.229,8.229,0,1,1-8.229,8.229,8.229,8.229,0,0,1,8.229-8.229m0,2.114a6.115,6.115,0,1,0,6.115,6.115,6.115,6.115,0,0,0-6.115-6.115" transform="translate(-227.668 -268.901)" fill="#004" fill-rule="evenodd"/>
  <path id="Path_13264" data-name="Path 13264" d="M245.561,310.461a6.115,6.115,0,1,1-6.115,6.115,6.115,6.115,0,0,1,6.115-6.115m0,2.3a3.813,3.813,0,1,0,3.812,3.812,3.812,3.812,0,0,0-3.812-3.812" transform="translate(-232.222 -273.456)" fill="#a9c2c2" fill-rule="evenodd"/>
  <path id="Path_13265" data-name="Path 13265" d="M246.668,322.008a4.326,4.326,0,1,1,4.326-4.326,4.327,4.327,0,0,1-4.326,4.326m0-9.928a5.6,5.6,0,1,0,5.6,5.6,5.6,5.6,0,0,0-5.6-5.6" transform="translate(-233.328 -274.562)" fill="#7e9191"/>
  <path id="Path_13266" data-name="Path 13266" d="M249.045,319.449a1.532,1.532,0,0,1,.314-.13l.2-2.666h.453l.2,2.666a1.532,1.532,0,0,1,.314.13l2.03-1.74.16.16.16.16-1.74,2.03a1.553,1.553,0,0,1,.13.314l2.666.205v.453l-2.666.2a1.543,1.543,0,0,1-.13.314l1.74,2.03-.16.16-.16.16-2.03-1.74a1.547,1.547,0,0,1-.314.13l-.2,2.666h-.453l-.2-2.666a1.568,1.568,0,0,1-.314-.13l-2.03,1.74-.16-.16-.16-.16,1.74-2.03a1.539,1.539,0,0,1-.13-.314l-2.666-.2v-.453l2.666-.205a1.541,1.541,0,0,1,.13-.314l-1.74-2.03.16-.16.16-.16Z" transform="translate(-236.756 -277.685)" fill="#a9c2c2" fill-rule="evenodd"/>
  <path id="Path_13267" data-name="Path 13267" d="M366.951,327.607a1.858,1.858,0,1,0-1.858-1.859A1.862,1.862,0,0,0,366.951,327.607Z" transform="translate(-319.661 -282.628)" fill="#a9c2c2" fill-rule="evenodd"/>
  <path id="Path_13268" data-name="Path 13268" d="M368.266,324.435a1.858,1.858,0,1,1-2.628,0A1.858,1.858,0,0,1,368.266,324.435Z" transform="translate(-319.661 -282.628)" fill="#a9c2c2" fill-rule="evenodd"/>
  <path id="Path_13269" data-name="Path 13269" d="M368.81,325.748a1.858,1.858,0,1,1-1.859-1.858A1.859,1.859,0,0,1,368.81,325.748Z" transform="translate(-319.661 -282.628)" fill="#a9c2c2" fill-rule="evenodd"/>
  <path id="Path_13270" data-name="Path 13270" d="M368.266,327.063a1.858,1.858,0,1,1,0-2.628A1.858,1.858,0,0,1,368.266,327.063Z" transform="translate(-319.661 -282.628)" fill="#a9c2c2" fill-rule="evenodd"/>
  <path id="Path_13271" data-name="Path 13271" d="M366.951,327.607a1.858,1.858,0,1,1,1.858-1.858A1.858,1.858,0,0,1,366.951,327.607Z" transform="translate(-319.661 -282.628)" fill="#a9c2c2" fill-rule="evenodd"/>
  <path id="Path_13272" data-name="Path 13272" d="M365.637,327.063a1.858,1.858,0,1,1,2.628,0A1.858,1.858,0,0,1,365.637,327.063Z" transform="translate(-319.661 -282.628)" fill="#a9c2c2" fill-rule="evenodd"/>
  <path id="Path_13273" data-name="Path 13273" d="M365.093,325.748a1.858,1.858,0,1,1,1.858,1.859A1.858,1.858,0,0,1,365.093,325.748Z" transform="translate(-319.661 -282.628)" fill="#a9c2c2" fill-rule="evenodd"/>
  <path id="Path_13274" data-name="Path 13274" d="M353.225,303.792A8.229,8.229,0,1,1,345,312.021a8.229,8.229,0,0,1,8.229-8.229m0,2.114a6.115,6.115,0,1,0,6.115,6.115,6.115,6.115,0,0,0-6.115-6.115" transform="translate(-305.935 -268.901)" fill="#004" fill-rule="evenodd"/>
  <path id="Path_13275" data-name="Path 13275" d="M357.779,310.461a6.115,6.115,0,1,1-6.115,6.115,6.115,6.115,0,0,1,6.115-6.115m0,2.3a3.813,3.813,0,1,0,3.812,3.812,3.812,3.812,0,0,0-3.812-3.812" transform="translate(-310.489 -273.456)" fill="#a9c2c2" fill-rule="evenodd"/>
  <path id="Path_13276" data-name="Path 13276" d="M358.886,322.008a4.326,4.326,0,1,1,4.326-4.326,4.327,4.327,0,0,1-4.326,4.326m0-9.928a5.6,5.6,0,1,0,5.6,5.6,5.6,5.6,0,0,0-5.6-5.6" transform="translate(-311.595 -274.562)" fill="#7e9191"/>
  <path id="Path_13277" data-name="Path 13277" d="M361.262,319.449a1.544,1.544,0,0,1,.315-.13l.205-2.666h.453l.205,2.666a1.533,1.533,0,0,1,.314.13l2.03-1.74.16.16.16.16-1.74,2.03a1.537,1.537,0,0,1,.13.314l2.666.205v.453l-2.666.2a1.562,1.562,0,0,1-.13.314l1.74,2.03-.16.16-.16.16-2.03-1.74a1.547,1.547,0,0,1-.314.13l-.205,2.666h-.453l-.205-2.666a1.569,1.569,0,0,1-.314-.13l-2.03,1.74-.16-.16-.16-.16,1.74-2.03a1.542,1.542,0,0,1-.13-.314l-2.666-.2v-.453l2.666-.205a1.544,1.544,0,0,1,.13-.314l-1.74-2.03.16-.16.16-.16Z" transform="translate(-314.718 -277.685)" fill="#a9c2c2" fill-rule="evenodd"/>
  <path id="Path_13278" data-name="Path 13278" d="M348.79,295.1l1.492-.861,6.219,10.916a.973.973,0,0,1-.315,1.176c-.335.335-.942.1-1.176-.315Z" transform="translate(-308.526 -262.379)" fill-rule="evenodd"/>
  <path id="Path_13279" data-name="Path 13279" d="M348.285,296.559a10.526,10.526,0,0,1,2.77.369.754.754,0,0,1,.335,1.26l-12,12a.754.754,0,0,1-1.26-.335,10.53,10.53,0,0,1,10.153-13.292Z" transform="translate(-300.994 -263.961)" fill="#5897a5" fill-rule="evenodd"/>
  <path id="Path_13280" data-name="Path 13280" d="M233.552,289.562l16.325-.239c-3.082,6.053-3.218,10.429,0,14.08H242.4l-.529-.523H223.853a1.528,1.528,0,0,1-1.515-1.73c.821-6.148,4.576-10.711,10.549-11.028C233.6,290.083,233.688,289.722,233.552,289.562Z" transform="translate(-220.528 -259.019)" fill="#87d8ea" fill-rule="evenodd"/>
  <path id="Path_13281" data-name="Path 13281" d="M296.829,304.394h.825c-2.509-3.909-1.6-8.243.329-12.416l-.646.01a1.347,1.347,0,0,0-1.254.866c-1.427,3.609-2,7.279-.512,10.715A1.346,1.346,0,0,0,296.829,304.394Z" transform="translate(-270.703 -260.832)" fill="#5897a5" fill-rule="evenodd"/>
  <path id="Path_13282" data-name="Path 13282" d="M284.83,280.982h7.278c2.315,0,5.427.333,6.882-2.084l6.387-10.606c.812-1.349.821-2.379.381-4.214l-1.459-6.085c-.13-.541-.189-.967.329-.967h.67a1.357,1.357,0,0,1,1.332,1.047l1.292,5.315c.262,1.075,1.148,4.628.582,5.578l-7.815,13.112H284.68A10.653,10.653,0,0,0,284.83,280.982Z" transform="translate(-264.173 -236.961)" fill="#87d8ea" fill-rule="evenodd"/>
  <rect id="Rectangle_580" data-name="Rectangle 580" width="16.351" height="1.099" rx="0.55" transform="translate(20.397 45.028)" fill="#5897a5"/>
  <path id="Path_13283" data-name="Path 13283" d="M233.845,295.46a11.614,11.614,0,0,1,11.508,10.059,1.37,1.37,0,0,1-1.359,1.552H223.7a1.37,1.37,0,0,1-1.358-1.552A11.613,11.613,0,0,1,233.845,295.46Z" transform="translate(-220.528 -263.21)" fill="#69b9cb" fill-rule="evenodd"/>
  <path id="Path_13284" data-name="Path 13284" d="M237.594,299a9.859,9.859,0,0,1,9.77,8.54,1.127,1.127,0,0,1-.278.921c-.03.034-.061.066-.093.1a9.861,9.861,0,0,0-18.8,0,1.257,1.257,0,0,1-.093-.1,1.127,1.127,0,0,1-.278-.921A9.859,9.859,0,0,1,237.594,299Z" transform="translate(-224.276 -265.629)" fill="#5897a5" fill-rule="evenodd"/>
  <rect id="Rectangle_581" data-name="Rectangle 581" width="17.404" height="3.014" rx="1.144" transform="translate(11.868 27.529)"/>
  <path id="Rectangle_582" data-name="Rectangle 582" d="M2.144,0H18.432a2.145,2.145,0,0,1,2.145,2.145V16.076a2.145,2.145,0,0,1-2.145,2.145H2.145A2.145,2.145,0,0,1,0,16.076V2.144A2.144,2.144,0,0,1,2.144,0Z" transform="translate(0 9.27)" fill="#ff970b"/>
  <path id="Path_13285" data-name="Path 13285" d="M220.977,226.263h17.016a.6.6,0,0,1,.6.6v6.2c-6.074,2.463-13.96-3.278-18.22,4.8v-11A.6.6,0,0,1,220.977,226.263Z" transform="translate(-219.197 -215.95)" fill="#e68c13" fill-rule="evenodd"/>
  <path id="Path_13286" data-name="Path 13286" d="M238.533,236.126a4.94,4.94,0,0,1,4.94,4.94c0,.114,0,.228-.011.341l-2.447-.995,1.017-.969-6.193-2.519A4.916,4.916,0,0,1,238.533,236.126Zm4.1,7.693a4.94,4.94,0,0,1-9.013-2.212l3.106.617-1.242,1.183Z" transform="translate(-228.244 -222.686)" fill="#fff" fill-rule="evenodd"/>
  <path id="Path_13287" data-name="Path 13287" d="M229.386,239.682l-3.2,3.048,7.179,1.425-1.017.969,8.18.472-6.079-2.472,1.018-.969Z" transform="translate(-223.165 -225.115)" fill="#fff" fill-rule="evenodd"/>
  <path id="Path_13288" data-name="Path 13288" d="M360.377,264.213c.415-.035.827.825.92,1.921s-.169,2.013-.584,2.048-.828-.825-.92-1.921S359.961,264.248,360.377,264.213Z" transform="translate(-315.729 -241.868)" fill="#f1cf00" fill-rule="evenodd"/>
  <path id="Path_13289" data-name="Path 13289" d="M356.214,263.382h.01a.274.274,0,0,1,.3.241l.45,3.936a.275.275,0,0,1-.24.3h-.01a2.272,2.272,0,1,1-.512-4.481Z" transform="translate(-311.715 -241.3)" fill="#5897a5" fill-rule="evenodd"/>
  <path id="Path_13290" data-name="Path 13290" d="M359.755,263.468l.575,4.413a2.943,2.943,0,0,0,.379-.018h.01a.275.275,0,0,0,.24-.3l-.45-3.936a.274.274,0,0,0-.3-.241h-.01A2.888,2.888,0,0,0,359.755,263.468Z" transform="translate(-315.708 -241.3)" fill="#9dc6c6" fill-rule="evenodd"/>
  <path id="Rectangle_583" data-name="Rectangle 583" d="M.453,0h0A.453.453,0,0,1,.907.453v2.81a.453.453,0,0,1-.453.453h0A.453.453,0,0,1,0,3.263V.453A.453.453,0,0,1,.453,0Z" transform="matrix(0.249, -0.969, 0.969, 0.249, 37.193, 20.571)"/>
  <line id="Line_4" data-name="Line 4" x1="0.018" y2="0.019" transform="translate(41.155 20.032)" fill="#edb38c"/>
  <g id="Group_1967" data-name="Group 1967" transform="translate(18.649)">
    <path id="Path_13291" data-name="Path 13291" d="M308.807,319.79a4.174,4.174,0,0,0-.334.864,1.171,1.171,0,0,0,.13.895c.33.487,1.029.5,1.616.463l.866-.056c.37-.024.8-.083.984-.4a1.243,1.243,0,0,0-.043-.959,7.383,7.383,0,0,1-.309-2.208,1.689,1.689,0,0,0-.068-.656,1.023,1.023,0,0,0-.7-.559c-.674-.183-1.186-.167-1.369.481A14.567,14.567,0,0,1,308.807,319.79Z" transform="translate(-298.891 -277.968)" fill="#191213"/>
    <path id="Path_13292" data-name="Path 13292" d="M311.873,286.722a1.356,1.356,0,0,1,.359.555,1.165,1.165,0,0,1-.051.608,11.854,11.854,0,0,0-.877,2.566,6.158,6.158,0,0,1-.034.818,2.65,2.65,0,0,1-.374.835l-.618,1.038a1.268,1.268,0,0,0-.244.7c.03.47.541.739.988.888.259.086.583.15.773-.046a.761.761,0,0,0,.152-.3l2.328-6.908a2.022,2.022,0,0,0-1.315-3.046l-1.674-.821c-.488-.24-1.152-.45-1.51-.04-.5.572-.017,1.038.39,1.343A14.187,14.187,0,0,1,311.873,286.722Z" transform="translate(-299.658 -254.932)" fill="#2e4c5e"/>
    <path id="Path_13293" data-name="Path 13293" d="M312.484,321.59a3.256,3.256,0,0,0-.336,1.524.5.5,0,0,0,.122.313.572.572,0,0,0,.262.121,11.494,11.494,0,0,0,5.014.195,1.53,1.53,0,0,0,.68-.25.574.574,0,0,0,.214-.646c-.12-.275-.474-.34-.773-.374a4.058,4.058,0,0,1-1.55-.41,1.57,1.57,0,0,1-.855-1.282c0-.408.176-.9-.132-1.171a.909.909,0,0,0-.55-.159c-.645-.042-.981-.181-1.373.291A7.652,7.652,0,0,0,312.484,321.59Z" transform="translate(-301.416 -279.56)" fill="#281b1c"/>
    <path id="Path_13294" data-name="Path 13294" d="M281.173,226.211a34.963,34.963,0,0,0-2.774,8.38,1.561,1.561,0,0,0-.052.771.536.536,0,0,0,.572.418q.006.37.011.741a2.106,2.106,0,0,0,1.57.808,6.226,6.226,0,0,0,1.807-.2l3.863-.817a1.166,1.166,0,0,0,.705-.33c.165-.208.1-.6-.157-.641.914-.164,1.3-1.239,1.51-2.143l.641-2.721a20.42,20.42,0,0,0,.7-4.375c.015-1.094-.092-2.345.684-3.117.242-.241.566-.428.687-.748.184-.491-.2-1-.554-1.382l-1.389-1.5a.332.332,0,0,0-.593.014,5.616,5.616,0,0,1-1.983,1.449,10.133,10.133,0,0,0-2.152,1.435A11.344,11.344,0,0,0,281.173,226.211Z" transform="translate(-278.316 -211.109)" fill="#ff970b"/>
    <path id="Path_13295" data-name="Path 13295" d="M295.032,236.969a4.739,4.739,0,0,0,4.438,5.773,15.74,15.74,0,0,0,3.307-.1l.205-.377.788.275.286-.342a.6.6,0,0,0,.707.373,6.489,6.489,0,0,1,.656-2.18,23.086,23.086,0,0,1-5.846-1.7,1.319,1.319,0,0,0-.921-.212,15.474,15.474,0,0,0,.195-4.036,3.174,3.174,0,0,0-.574-1.807C296.337,230.314,295.154,235.9,295.032,236.969Z" transform="translate(-289.703 -219.918)" fill="#e68c13"/>
    <path id="Path_13296" data-name="Path 13296" d="M304.54,233.869a3.343,3.343,0,0,0-.248-.911c-.143-.3-.455-.577-.767-.473-.379.126-.389.652-.324,1.046l.565,3.453a5.115,5.115,0,0,1,0,2.459l.528-.052q.018.291.035.583a21.323,21.323,0,0,0,4.171.773c-.03-.521-.672-.727-1.181-.845a8,8,0,0,1-1.8-.611c-.694-.351-.605-.478-.614-1.272A27.246,27.246,0,0,0,304.54,233.869Z" transform="translate(-295.291 -220.184)" fill="#be7614"/>
    <path id="Path_13297" data-name="Path 13297" d="M312.837,226.949a4.77,4.77,0,0,0,.82-.755l-.734-.917a.4.4,0,0,0-.13-.12.3.3,0,0,0-.308.07.736.736,0,0,0-.142.819,2.161,2.161,0,0,0,.534.7" transform="translate(-301.513 -215.18)" fill="#be7614"/>
    <path id="Path_13298" data-name="Path 13298" d="M301.6,267.313a1.316,1.316,0,0,1-.956.2.963.963,0,0,1-.473-.1.332.332,0,0,1-.145-.418.478.478,0,0,1,.412-.169,2.269,2.269,0,0,0,.66-.092.668.668,0,0,0,.448-.456.356.356,0,0,1,.476.219.58.58,0,0,1-.149.551,1.71,1.71,0,0,1-.489.339" transform="translate(-293.126 -243.255)" fill="#be7614"/>
    <path id="Path_13299" data-name="Path 13299" d="M282.5,274.668a7.371,7.371,0,0,0,2.866.734l3.3.383c1.522.176,3.215.446,4.145,1.663a.708.708,0,0,0,.349.307,1,1,0,0,0,.5-.107c.166-.048.4,0,.419.175a.822.822,0,0,0-.264.652l.376-.064a1.175,1.175,0,0,1-.29.856,6.1,6.1,0,0,0-.93,2.726A4.564,4.564,0,0,1,292.6,284c-.162.267-.4.483-.564.747a1.757,1.757,0,0,0-.265.8,1.723,1.723,0,0,0,1.75,1.8c.97-.081,1.623-1,2.091-1.858a23.11,23.11,0,0,0,2.82-8.415,3.525,3.525,0,0,0-.057-1.469,3.851,3.851,0,0,0-2.517-2.03q-2.639-1.045-5.356-1.875a6.693,6.693,0,0,0-1.506-.331,7.081,7.081,0,0,0-1.371.089l-5.244.688c-.812.106-1.466-.024-1.177.97A2.783,2.783,0,0,0,282.5,274.668Z" transform="translate(-280.243 -246.754)" fill="#3d5e77"/>
    <path id="Path_13300" data-name="Path 13300" d="M312.045,276.184a4.337,4.337,0,0,1,1.464.794c.976.92.892,2.5.475,3.776a12.476,12.476,0,0,0-1.091,3.847c.2.176.482-.089.605-.324a16.029,16.029,0,0,0,1.725-5.544,2.3,2.3,0,0,0-.184-1.5,2.4,2.4,0,0,0-1.046-.786c-2.026-.988-4.594-2.378-6.854-2.621C307.081,274.835,311.2,275.858,312.045,276.184Z" transform="translate(-298.001 -248.436)" fill="#4a6d82"/>
    <path id="Path_13301" data-name="Path 13301" d="M327.4,257.242a2.339,2.339,0,0,0,.6-.035c.747-.176,1.169-1.034,1.906-1.249a.3.3,0,0,1,.139-.015.315.315,0,0,1,.163.114,2.593,2.593,0,0,0,.368.388.491.491,0,0,0,.5.079.279.279,0,0,0,.071-.443.319.319,0,1,0,.573-.28.341.341,0,0,0,.632-.144c.02-.208-.146-.381-.286-.537-.2-.228-.375-.486-.588-.706a1.344,1.344,0,0,0-.785-.44,1.652,1.652,0,0,0-.712.124,9.238,9.238,0,0,0-1.494.668,11.861,11.861,0,0,1-1.145.618,2.141,2.141,0,0,1-1.27.17c-.262-.058-.641,1.356-.522,1.556.1.172.582.1.779.1Z" transform="translate(-310.562 -234.872)" fill="#edb38c"/>
    <path id="Path_13302" data-name="Path 13302" d="M319.014,204.692c.192.309.626.419.778.749a1.98,1.98,0,0,0-1.143,1.179c-.222.635-.132,1.41-.59,1.9a1.741,1.741,0,0,1-1.694.325,13.41,13.41,0,0,0-1.741-.487,2.5,2.5,0,0,0-2.042.753c-.12.127-.263.281-.436.25a.488.488,0,0,1-.275-.223l-.866-1.164a2.447,2.447,0,0,0,.633-1.672c-.008-.475-.155-.936-.188-1.41a3.829,3.829,0,0,1,3.056-3.669,6.526,6.526,0,0,1,4.653.647C320.3,202.712,318.418,203.732,319.014,204.692Z" transform="translate(-300.642 -198.743)" fill="#edb38c"/>
    <path id="Path_13303" data-name="Path 13303" d="M316.541,200.813c.081.207-.21.361-.432.36-.431,0-.846-.17-1.276-.206a1.013,1.013,0,0,0-1.079.527,1.9,1.9,0,0,0,.037.857c.035.287-.033.64-.3.744-.237-.3-.154-.794-.443-1.049a.882.882,0,0,0-.926-.011,1.2,1.2,0,0,0-.618.51c-.287.572.237,1.281.025,1.885a1.538,1.538,0,0,1-.363.522,1.875,1.875,0,0,1-.614.482.7.7,0,0,1-.738-.088c-.322-.3-.145-.838-.227-1.273-.087-.46-.479-.819-.563-1.279a1.934,1.934,0,0,1,.062-.767,6.108,6.108,0,0,1,.672-1.864,4.375,4.375,0,0,1,2.6-1.85,7.512,7.512,0,0,1,3.238-.077,3.856,3.856,0,0,1,1.347.433c.478.285.916.763,1.471.714a1.392,1.392,0,0,1-.52.3,2.162,2.162,0,0,1,.682.5.443.443,0,0,1-.355.2.456.456,0,0,1-.282.7c-.236.026-.5-.231-.739-.267.059.031.124.11.185.15C317.226,201.008,316.624,201.027,316.541,200.813Z" transform="translate(-299.276 -196.712)" fill="#9e5e32"/>
    <path id="Path_13304" data-name="Path 13304" d="M318.939,212.644c0,.029-.04.044-.064.028a.118.118,0,0,1-.041-.074.544.544,0,0,1-.016-.325.2.2,0,0,1,.262-.121.453.453,0,0,0-.676-.549.782.782,0,0,0-.257.385.68.68,0,0,0-.054.375.784.784,0,0,0,.149.281l.217.3c.07.1.158.2.277.207a.265.265,0,0,0,.241-.227.679.679,0,0,0-.054-.351" transform="translate(-305.477 -205.883)" fill="#c19272"/>
    <path id="Path_13305" data-name="Path 13305" d="M327.879,213.372a1.084,1.084,0,0,1,.613-.156.689.689,0,0,1,.5.734,2.008,2.008,0,0,1-.351.892c-.281.474-.563.948-.852,1.417a2.367,2.367,0,0,1-.718.835,1.622,1.622,0,0,1-1.339.088,4.806,4.806,0,0,1-1.2-.675c.017-.247.263-.4.432-.582a1.709,1.709,0,0,0,.347-1.352c-.076-.748.358-.567.958-.682A6.983,6.983,0,0,0,327.879,213.372Z" transform="translate(-309.875 -207.033)" fill="#ceeae8"/>
    <path id="Path_13306" data-name="Path 13306" d="M322.419,212.466a15.82,15.82,0,0,0,1.752,1.123c.1.054.183-.094.086-.148a15.961,15.961,0,0,1-1.752-1.122C322.417,212.253,322.331,212.4,322.419,212.466Z" transform="translate(-308.413 -206.415)" fill="#ceeae8"/>
    <path id="Path_13307" data-name="Path 13307" d="M316.694,217.338q1.391.939,2.733,1.947c.088.066.174-.082.086-.148q-1.342-1.009-2.733-1.947C316.689,217.128,316.6,217.277,316.694,217.338Z" transform="translate(-304.502 -209.743)" fill="#ceeae8"/>
    <path id="Path_13308" data-name="Path 13308" d="M327.625,216.385a.957.957,0,0,1,.106-.494.859.859,0,0,1,.511-.258,4.017,4.017,0,0,0,.966-.4.384.384,0,0,1,.172-.068c.142-.006.241.157.232.3a1.154,1.154,0,0,1-.148.4l-.015.076c.008.029.036.047.059.066a.3.3,0,0,1,.017.4.535.535,0,0,1-.388.181c-.1.007-.213.01-.26.094a.285.285,0,0,0-.022.134,1.026,1.026,0,0,1-.786.947.777.777,0,0,1,.04.282.136.136,0,0,1-.035.1c-.044.039-.113.012-.165-.016-.32-.173-.78-.268-.67-.677C327.339,217.072,327.625,216.81,327.625,216.385Z" transform="translate(-311.719 -208.368)" fill="#b7cecc"/>
    <path id="Path_13309" data-name="Path 13309" d="M310.454,201.053a.9.9,0,0,0,.423-.105.859.859,0,0,0,.275-.334c.341-.637.422-1.452.908-1.963a3.058,3.058,0,0,1,2.345-.543,8.21,8.21,0,0,0,1.949-.237.842.842,0,0,0,.336-.14.831.831,0,0,0,.249-.628,2.724,2.724,0,0,0-1.26-2.132,6.123,6.123,0,0,0-4-1.232,6.237,6.237,0,0,0-3.86,1.681,3.834,3.834,0,0,0-1.231,2.009,4.764,4.764,0,0,0,.006,1.519,4.091,4.091,0,0,0,.331,1.29C307.6,201.595,309.3,201.141,310.454,201.053Z" transform="translate(-297.587 -193.729)" fill="#ff970b"/>
    <path id="Path_13310" data-name="Path 13310" d="M309.685,195.478a4.619,4.619,0,0,0-2.264,1.559,2.752,2.752,0,0,0-.388,2.64,1.062,1.062,0,0,0,.541.6.987.987,0,0,0,1.007-.3c.523-.523.8-1.246,1.333-1.779.434-.436.98-.637,1.436-1.02a1.073,1.073,0,0,0,.271-1.365C311.224,195.127,310.31,195.261,309.685,195.478Z" transform="translate(-297.803 -194.804)" fill="#be7614"/>
    <path id="Path_13311" data-name="Path 13311" d="M318.245,218.263l.009.081-.054.047a1.676,1.676,0,0,1-.316.122,10.79,10.79,0,0,1-.514-2.344.53.53,0,0,1,.015-.251c.054-.135.383-.326.508-.2.076.075-.012.728,0,.856A5.776,5.776,0,0,0,318.245,218.263Z" transform="translate(-304.984 -208.718)" fill="#681616"/>
    <path id="Path_13312" data-name="Path 13312" d="M330.78,209.2a1.993,1.993,0,0,1,1.006-.209c.167,0,.347-.048.35-.245l-.014-.019a2.22,2.22,0,0,0-.336.019,2.062,2.062,0,0,0-.422.017,1,1,0,0,0-.657.363C330.677,209.176,330.735,209.223,330.78,209.2Z" transform="translate(-314.093 -203.971)" fill="#4c3729"/>
    <path id="Path_13313" data-name="Path 13313" d="M331.222,211.028a1.8,1.8,0,0,1,.7-.169c.125-.019.272-.038.336-.157a.034.034,0,0,0-.038-.049c-.082.022-.15.071-.232.1s-.183.039-.273.061a1.558,1.558,0,0,0-.5.212Z" transform="translate(-314.448 -205.287)" fill="#4c3729"/>
    <path id="Path_13314" data-name="Path 13314" d="M333,211.163c-.018.075-.067.266.055.288s.137-.181.12-.262l-.048-.048-.014,0-.055.022-.016.065.013.046v.062l.015-.031,0-.038c-.005-.034-.014-.067-.019-.1Z" transform="translate(-315.647 -205.619)" fill="#4c3729"/>
    <path id="Path_13315" data-name="Path 13315" d="M332.147,212a.534.534,0,0,0,.3.067c.078-.005.194-.023.232-.1l-.016-.027a.99.99,0,0,0-.195.057.477.477,0,0,1-.293-.039C332.144,211.945,332.12,211.985,332.147,212Z" transform="translate(-315.074 -206.167)" fill="#4c3729"/>
    <path id="Path_13316" data-name="Path 13316" d="M332.779,212.57a.213.213,0,0,0,.132-.026l-.011-.042c-.041,0-.08.01-.121.01A.029.029,0,0,0,332.779,212.57Z" transform="translate(-315.495 -206.551)" fill="#4c3729"/>
  </g>
</svg>
