<svg xmlns="http://www.w3.org/2000/svg" width="54.574" height="54.513" viewBox="0 0 54.574 54.513">
  <g id="Group_1978" data-name="Group 1978" transform="translate(0)">
    <path id="Path_13359" data-name="Path 13359" d="M328.886,99.638a1.015,1.015,0,0,0-.03.34.774.774,0,0,0,.621.571c.289.073.595.054.888.111a10.313,10.313,0,0,1,1.424.586,2.671,2.671,0,0,0,1.643.044c.253-.076.526-.226.575-.486.068-.357-.312-.621-.635-.787a5.578,5.578,0,0,1-1.28-.819,2.039,2.039,0,0,1-.7-1.314c-.024-.35.037-.783-.257-.976a.82.82,0,0,0-.387-.1,3.268,3.268,0,0,0-1.133-.064c-.26.122-.238.449-.3.755Q329.1,98.569,328.886,99.638Z" transform="translate(-306.662 -52.344)" fill="#281b1c"/>
    <path id="Path_13360" data-name="Path 13360" d="M323.65,56.212a4.019,4.019,0,0,1,.472,1.265c.031.276-.005.556,0,.833a4.873,4.873,0,0,0,.178,1l.486,1.946a.915.915,0,0,1-.051.8c-.088.107-.232.188-.239.326-.01.186.225.271.343.414.239.291-.048.706-.1,1.08-.056.426.22.838.188,1.267-.03.386-.307.724-.317,1.11a1.129,1.129,0,0,0,.784,1,3.31,3.31,0,0,0,1.344.113.573.573,0,0,0,.29-.068c.375-.249-.113-1.038.3-1.224.062-.028.132-.032.194-.06.143-.067.191-.242.228-.4.51-2.113,1.776-4.108,1.6-6.275a9.639,9.639,0,0,0-.447-1.972l-.656-2.176a2.426,2.426,0,0,0-1.706-1.861c-.534-.263-4.021-2.308-4.331-1.877-.213.3.448,2,.552,2.359A14.96,14.96,0,0,0,323.65,56.212Z" transform="translate(-302.273 -22.597)" fill="#274459"/>
    <path id="Path_13361" data-name="Path 13361" d="M335.161,65.342a6.723,6.723,0,0,1,.15,2.066c-.1.785-.474,1.52-.542,2.308a3.983,3.983,0,0,1-.142,1.172c-.119.293-.349.531-.456.828s-.017.714.29.785c.245-.322.207-.775.364-1.148a3.361,3.361,0,0,1,.328-.535,7.577,7.577,0,0,0,.914-2.537,12.412,12.412,0,0,0,.415-2.7,10.336,10.336,0,0,0-1.1-4.221,2.932,2.932,0,0,0-.759-1.141.562.562,0,0,0-.386-.151c-.415.039-.076.514,0,.721a11.9,11.9,0,0,1,.335,1.53Q334.887,63.829,335.161,65.342Z" transform="translate(-310.065 -28.289)" fill="#35526d"/>
    <path id="Path_13362" data-name="Path 13362" d="M332.247,80.122a2.015,2.015,0,0,0-.668.319.681.681,0,0,0-.262.655,5.362,5.362,0,0,0,.829-.194c.267-.078.591-.23.581-.507a.39.39,0,0,0-.368-.344.633.633,0,0,0-.487.219" transform="translate(-308.271 -41.407)" fill="#ca0007"/>
    <path id="Path_13363" data-name="Path 13363" d="M331.744,84.577l-.19.111a.791.791,0,0,0,.531.451c.132.032.3.009.353-.116s-.062-.267-.185-.332a.8.8,0,0,0-.66-.038" transform="translate(-308.437 -44.38)" fill="#ca0007"/>
    <path id="Path_13364" data-name="Path 13364" d="M296.017,75.388H294.07V65.559h1.947Zm-1.763-.184h1.579V65.743h-1.579Z" transform="translate(-283.823 -31.892)" fill="#99caca"/>
    <path id="Path_13365" data-name="Path 13365" d="M296,77.427l-1.687-.974,4.915-8.512,1.686.974Zm-1.435-1.041,1.368.79,4.73-8.193-1.368-.79Z" transform="translate(-283.983 -33.456)" fill="#99caca"/>
    <path id="Path_13366" data-name="Path 13366" d="M296.23,83.884l-.974-1.687,8.512-4.915.974,1.686Zm-.723-1.62.79,1.368L304.49,78.9l-.79-1.368Z" transform="translate(-284.601 -39.59)" fill="#99caca"/>
    <path id="Path_13367" data-name="Path 13367" d="M306.467,93.03h-9.829V91.082h9.829Zm-9.645-.184h9.461V91.266h-9.461Z" transform="translate(-285.509 -48.652)" fill="#99caca"/>
    <path id="Path_13368" data-name="Path 13368" d="M303.768,97.93l-8.512-4.915.974-1.686,8.512,4.914Zm-8.261-4.982,8.193,4.73.79-1.368L296.3,91.58Z" transform="translate(-284.601 -48.814)" fill="#99caca"/>
    <path id="Path_13369" data-name="Path 13369" d="M299.231,101.754l-4.915-8.512L296,92.268l4.914,8.512Zm-4.663-8.445,4.73,8.193,1.368-.79-4.73-8.193Z" transform="translate(-283.984 -49.431)" fill="#99caca"/>
    <path id="Path_13370" data-name="Path 13370" d="M296.018,103.48H294.07V93.651h1.948Zm-1.764-.184h1.58V93.835h-1.58Z" transform="translate(-283.823 -50.339)" fill="#99caca"/>
    <path id="Path_13371" data-name="Path 13371" d="M281.957,101.754l-1.687-.974,4.915-8.512,1.687.974Zm-1.435-1.041,1.368.79,4.731-8.193-1.368-.79Z" transform="translate(-274.761 -49.431)" fill="#99caca"/>
    <path id="Path_13372" data-name="Path 13372" d="M271.9,97.93l-.974-1.687,8.512-4.914.973,1.687Zm-.723-1.62.79,1.368,8.193-4.73-.79-1.368Z" transform="translate(-268.626 -48.814)" fill="#99caca"/>
    <path id="Path_13373" data-name="Path 13373" d="M278.376,93.031h-9.829V91.083h9.829Zm-9.645-.184h9.461V91.267h-9.461Z" transform="translate(-267.063 -48.652)" fill="#99caca"/>
    <path id="Path_13374" data-name="Path 13374" d="M279.44,83.884l-8.512-4.915.974-1.686,8.512,4.915ZM271.179,78.9l8.193,4.731.79-1.368-8.193-4.731Z" transform="translate(-268.626 -39.59)" fill="#99caca"/>
    <path id="Path_13375" data-name="Path 13375" d="M285.185,77.427l-4.915-8.512,1.687-.974,4.915,8.512Zm-4.663-8.444,4.73,8.193,1.368-.79-4.731-8.193Z" transform="translate(-274.761 -33.456)" fill="#99caca"/>
    <path id="Path_13376" data-name="Path 13376" d="M389.6,75.388h-1.948V65.559H389.6Zm-1.764-.184h1.58V65.743h-1.58Z" transform="translate(-345.276 -31.892)" fill="#99caca"/>
    <path id="Path_13377" data-name="Path 13377" d="M389.588,77.427l-1.686-.974,4.914-8.512,1.687.974Zm-1.435-1.041,1.368.79,4.73-8.193-1.368-.79Z" transform="translate(-345.438 -33.456)" fill="#99caca"/>
    <path id="Path_13378" data-name="Path 13378" d="M389.815,83.884l-.974-1.687,8.512-4.915.974,1.686Zm-.722-1.62.79,1.368,8.193-4.731-.79-1.368Z" transform="translate(-346.055 -39.59)" fill="#99caca"/>
    <path id="Path_13379" data-name="Path 13379" d="M400.052,93.03h-9.829V91.082h9.829Zm-9.645-.184h9.461V91.266h-9.461Z" transform="translate(-346.963 -48.652)" fill="#99caca"/>
    <path id="Path_13380" data-name="Path 13380" d="M397.353,97.93l-8.512-4.915.974-1.686,8.512,4.914Zm-8.261-4.982,8.193,4.73.79-1.368-8.193-4.73Z" transform="translate(-346.055 -48.814)" fill="#99caca"/>
    <path id="Path_13381" data-name="Path 13381" d="M392.816,101.754,387.9,93.242l1.686-.974,4.915,8.512Zm-4.663-8.445,4.73,8.193,1.368-.79-4.73-8.193Z" transform="translate(-345.438 -49.431)" fill="#99caca"/>
    <path id="Path_13382" data-name="Path 13382" d="M389.6,103.48h-1.948V93.651H389.6Zm-1.763-.184h1.579V93.835h-1.579Z" transform="translate(-345.276 -50.339)" fill="#99caca"/>
    <path id="Path_13383" data-name="Path 13383" d="M375.542,101.754l-1.686-.974,4.914-8.512,1.687.974Zm-1.435-1.041,1.368.79,4.73-8.193-1.368-.79Z" transform="translate(-336.215 -49.431)" fill="#99caca"/>
    <path id="Path_13384" data-name="Path 13384" d="M365.488,97.93l-.974-1.687,8.512-4.914L374,93.016Zm-.722-1.62.79,1.368,8.193-4.73-.79-1.368Z" transform="translate(-330.08 -48.814)" fill="#99caca"/>
    <path id="Path_13385" data-name="Path 13385" d="M371.962,93.031h-9.829V91.083h9.829Zm-9.645-.184h9.461V91.267h-9.461Z" transform="translate(-328.517 -48.652)" fill="#99caca"/>
    <path id="Path_13386" data-name="Path 13386" d="M373.026,83.884l-8.512-4.915.974-1.686L374,82.2Zm-8.26-4.982,8.193,4.731.79-1.368-8.193-4.731Z" transform="translate(-330.08 -39.59)" fill="#99caca"/>
    <path id="Path_13387" data-name="Path 13387" d="M378.77,77.427l-4.914-8.512,1.686-.974,4.915,8.512Zm-4.663-8.444,4.731,8.193,1.368-.79-4.73-8.193Z" transform="translate(-336.215 -33.456)" fill="#99caca"/>
    <path id="Path_13388" data-name="Path 13388" d="M372.365,37.4V35.247a.426.426,0,0,1,.293-.416h0l2.092-.753a.692.692,0,1,0-.469-1.3l-2.092.753h0a1.81,1.81,0,0,0-1.209,1.719V37.4a.693.693,0,0,0,1.385,0Z" transform="translate(-334.326 -10.337)"/>
    <path id="Path_13389" data-name="Path 13389" d="M275.445,60.909A11.221,11.221,0,1,1,264.224,72.13,11.221,11.221,0,0,1,275.445,60.909Zm0,1.125a10.1,10.1,0,1,0,10.1,10.1A10.1,10.1,0,0,0,275.445,62.034Z" transform="translate(-264.224 -28.838)" fill="#000039" fill-rule="evenodd"/>
    <path id="Path_13390" data-name="Path 13390" d="M277.6,64.187a10.1,10.1,0,1,1-10.1,10.1A10.1,10.1,0,0,1,277.6,64.187Zm0,.713a9.382,9.382,0,1,0,9.382,9.382A9.382,9.382,0,0,0,277.6,64.9Z" transform="translate(-266.377 -30.991)" fill="#98b8b8" fill-rule="evenodd"/>
    <path id="Path_13391" data-name="Path 13391" d="M295.04,92.7a.976.976,0,1,0-.976-.976A.978.978,0,0,0,295.04,92.7Z" transform="translate(-283.819 -48.433)" fill="#99caca" fill-rule="evenodd"/>
    <path id="Path_13392" data-name="Path 13392" d="M295.586,60.258c-.176,0-.351,0-.524.012v.217a.568.568,0,0,0,.565.568,10.647,10.647,0,0,1,10.6,10.3.568.568,0,0,0,.567.549h.233c0-.066,0-.131,0-.2A11.444,11.444,0,0,0,295.586,60.258Z" transform="translate(-284.474 -28.411)" fill="#b00000" fill-rule="evenodd"/>
    <path id="Path_13393" data-name="Path 13393" d="M369.03,60.909A11.221,11.221,0,1,1,357.809,72.13,11.221,11.221,0,0,1,369.03,60.909Zm0,1.125a10.1,10.1,0,1,0,10.1,10.1A10.1,10.1,0,0,0,369.03,62.034Z" transform="translate(-325.678 -28.838)" fill="#000039" fill-rule="evenodd"/>
    <path id="Path_13394" data-name="Path 13394" d="M371.184,64.187a10.1,10.1,0,1,1-10.1,10.1A10.1,10.1,0,0,1,371.184,64.187Zm0,.713a9.382,9.382,0,1,0,9.382,9.382A9.383,9.383,0,0,0,371.184,64.9Z" transform="translate(-327.831 -30.991)" fill="#98b8b8" fill-rule="evenodd"/>
    <path id="Path_13395" data-name="Path 13395" d="M388.626,92.7a.976.976,0,1,0-.976-.976A.978.978,0,0,0,388.626,92.7Z" transform="translate(-345.273 -48.433)" fill="#99caca" fill-rule="evenodd"/>
    <path id="Path_13396" data-name="Path 13396" d="M368.6,60.258c.175,0,.35,0,.524.012v.217a.569.569,0,0,1-.565.568,10.646,10.646,0,0,0-10.6,10.3.568.568,0,0,1-.567.549h-.233c0-.066,0-.131,0-.2A11.445,11.445,0,0,1,368.6,60.258Z" transform="translate(-325.25 -28.411)" fill="#b00000" fill-rule="evenodd"/>
    <path id="Path_13397" data-name="Path 13397" d="M310.714,68.292a.5.5,0,1,1-.262.961l-14.63-4.016a.5.5,0,0,1-.35-.612.482.482,0,0,1,.047-.115l8.4-14.749a.5.5,0,0,1,.868.493L296.7,64.446Z" transform="translate(-284.732 -21.353)" fill="#da0100" fill-rule="evenodd"/>
    <path id="Path_13398" data-name="Path 13398" d="M311.088,68.945,296.8,65.022l8.227-14.445a.272.272,0,1,0-.473-.268l-8.4,14.749-.025.062a.272.272,0,0,0,.191.333l14.63,4.016a.271.271,0,1,0,.142-.524Z" transform="translate(-285.166 -21.787)" fill="#b50208" fill-rule="evenodd"/>
    <path id="Path_13399" data-name="Path 13399" d="M319.376,49.847a.7.7,0,0,1,1.325-.438l6.23,18.765a.7.7,0,0,1-1.324.438Z" transform="translate(-300.417 -20.973)" fill="#da0100" fill-rule="evenodd"/>
    <path id="Path_13400" data-name="Path 13400" d="M320.026,50.211l6.23,18.764a.471.471,0,1,0,.894-.295l-6.23-18.764a.471.471,0,1,0-.894.295Z" transform="translate(-300.851 -21.407)" fill="#b00000" fill-rule="evenodd"/>
    <path id="Path_13401" data-name="Path 13401" d="M378.141,68.337a.5.5,0,0,1-.336.938c-1.312-.473-3.341-2.71-4.744-5.613a14.8,14.8,0,0,1-1.6-7.353.5.5,0,0,1,1,.075,13.806,13.806,0,0,0,1.506,6.844C375.254,65.908,377.035,67.938,378.141,68.337Z" transform="translate(-334.62 -25.514)" fill="#779696" fill-rule="evenodd"/>
    <path id="Path_13402" data-name="Path 13402" d="M335.437,66.182a.5.5,0,0,1-.821-.567L346.01,49.158V47.292a41.453,41.453,0,0,1-5.332,6.686,15.074,15.074,0,0,1-7.513,4.222.52.52,0,0,1-.111.022c-.307-.01-.47-.683-.318-.933.017-.028.079-.039.111-.045a14.065,14.065,0,0,0,7.136-3.982,46.253,46.253,0,0,0,6.1-7.883.5.5,0,0,1,.932.254v3.678h0a.5.5,0,0,1-.088.283Z" transform="translate(-309.175 -18.479)" fill="#da0100" fill-rule="evenodd"/>
    <path id="Path_13403" data-name="Path 13403" d="M347.219,49.519V46.067a.273.273,0,0,0-.509-.138l0,0,0,0a46.02,46.02,0,0,1-6.129,7.922,14.312,14.312,0,0,1-7.229,4.037c-.027.158.048.5.136.533l.072-.019a14.865,14.865,0,0,0,7.4-4.162,41.029,41.029,0,0,0,5.3-6.649l.415-.617v2.68L335.238,66.179a.272.272,0,1,0,.448.308L347.169,49.9a.268.268,0,0,0,.048-.154v-.227Z" transform="translate(-309.61 -18.913)" fill="#b50208" fill-rule="evenodd"/>
    <path id="Path_13404" data-name="Path 13404" d="M335.155,102.95a2.083,2.083,0,1,0-2.083-2.083A2.086,2.086,0,0,0,335.155,102.95Z" transform="translate(-309.434 -53.71)" fill="#99caca" fill-rule="evenodd"/>
    <path id="Path_13405" data-name="Path 13405" d="M336.985,103.824a1.126,1.126,0,1,0-1.126-1.126A1.128,1.128,0,0,0,336.985,103.824Z" transform="translate(-311.264 -55.54)" fill="#7ba3a3" fill-rule="evenodd"/>
    <path id="Path_13406" data-name="Path 13406" d="M285.183-23.44,296.8-17.747c.226.111.274.48.107.82L289.376-1.574c-.167.341-.488.528-.714.418L277.05-6.849c-.226-.111-.274-.48-.107-.821l7.526-15.353C284.636-23.363,284.957-23.551,285.183-23.44Z" transform="translate(-272.51 26.571)" fill="#ff970b" fill-rule="evenodd"/>
    <path id="Path_13407" data-name="Path 13407" d="M291.114-19.716,301.4-14.675c.2.1.243.425.1.727l-2.766,5.641c-4.769.444-6.971-7.121-13.154-1.022l4.91-10.016C290.629-19.648,290.914-19.814,291.114-19.716Z" transform="translate(-278.242 24.123)" fill="#c27712" fill-rule="evenodd"/>
    <path id="Path_13408" data-name="Path 13408" d="M298.224-3.03a4.187,4.187,0,0,1,1.918,5.6c-.043.087-.088.172-.136.255l-1.492-1.669L299.651.8l-3.775-4.227A4.17,4.17,0,0,1,298.224-3.03Zm.254,7.382a4.189,4.189,0,0,1-6.036-5.045L294.577.935l-1.386.436Zm-3.771-8.043-3.572,1.124L296.068,1.2l-1.136.358,6.05,3.411L297.277.815l1.136-.357Z" transform="translate(-281.895 13.582)" fill="#fff" fill-rule="evenodd"/>
    <path id="Path_13409" data-name="Path 13409" d="M350.675-24.268a5.12,5.12,0,0,1,.344.416.422.422,0,0,1-.011.5c-.122.121-.324.107-.472.2a.619.619,0,0,0-.247.524,5.541,5.541,0,0,1-.237.711,1.436,1.436,0,0,1-1.219,1.093c-.554.019-1.176-.319-1.72-.215a1.864,1.864,0,0,0-1.311.9,7.428,7.428,0,0,0-.812,1.714l-1.6-.737a1.019,1.019,0,0,1-.491-.363.73.73,0,0,1-.013-.61,5,5,0,0,1,.291-.559,2.57,2.57,0,0,0,.215-1.788c-.177-.718-.658-1.33-.846-2.045a4.2,4.2,0,0,1,.95-3.879,5.46,5.46,0,0,1,3.818-1.057c3.119.394,3.835,2.581,3.443,3.754C350.585-25.2,350.3-24.762,350.675-24.268Z" transform="translate(-315.574 30.528)" fill="#9e765a"/>
    <path id="Path_13410" data-name="Path 13410" d="M358.332-10.944a.468.468,0,0,0,.187.089.4.4,0,0,0,.2-.035,2.3,2.3,0,0,0,.973-.98l.547-.839a3.617,3.617,0,0,0,.34-.6.635.635,0,0,0,.059-.282.684.684,0,0,0-.12-.3,3.068,3.068,0,0,0-.3-.4.18.18,0,0,0-.082-.062.162.162,0,0,0-.115.025c-.119.065-.212.172-.334.23a.988.988,0,0,1-.553.037L357.8-14.24a.5.5,0,0,0-.027.321,1.433,1.433,0,0,1-.2.7,2.83,2.83,0,0,1-.606.915c-.317.28.124.444.336.611Q357.8-11.3,358.332-10.944Z" transform="translate(-325.049 20.593)" fill="#d6e8e8"/>
    <path id="Path_13411" data-name="Path 13411" d="M358.614-12.959a.454.454,0,0,1,.088-.186c.116-.119.312-.054.472-.006a1.546,1.546,0,0,0,1.147-.11.459.459,0,0,1,.308-.088c.162.04.2.273.109.411a.721.721,0,0,1-.423.245.964.964,0,0,0-.446.209l-.044.076c-.009.071.069.117.134.148a.431.431,0,0,1,.238.215c.037.1-.028.245-.137.243a.271.271,0,0,1-.126-.046c-.147-.081-.371-.128-.448.021s.078.3.175.426a.192.192,0,0,1,.044.1c.008.119-.168.16-.274.106s-.188-.157-.3-.181a.261.261,0,0,0-.273.352c.047.1.15.15.213.236s.05.246-.056.258a.2.2,0,0,1-.124-.044c-.277-.176-.551-.355-.837-.516-.171-.1-.377-.188-.318-.416a2.754,2.754,0,0,1,.483-.7A2.714,2.714,0,0,0,358.614-12.959Z" transform="translate(-325.619 19.927)" fill="#c1d3d2"/>
    <path id="Path_13412" data-name="Path 13412" d="M349.5-28.946a4.425,4.425,0,0,0-1.957-1.019,4.1,4.1,0,0,0-1.247-.166,4.666,4.666,0,0,0-.931.16,10,10,0,0,0-2,.72A3.039,3.039,0,0,0,341.8-27.79a3.736,3.736,0,0,0-.2,1.067,3.656,3.656,0,0,0,.265,2.2c.091.153.206.345.106.493a.8.8,0,0,1-.145.131.457.457,0,0,0,.057.692c.075.048.173.083.2.168.019.067-.018.136-.021.206a.214.214,0,0,0,.16.209c.1.024.249-.019.3.077.036.071-.023.151-.051.226-.083.221.154.468.389.451a.6.6,0,0,0,.491-.45,1.712,1.712,0,0,0,.014-.7.619.619,0,0,0,.551-.093.321.321,0,0,0-.01-.5.351.351,0,0,0,.1-.431c-.057-.15-.167-.274-.231-.422a1.159,1.159,0,0,1,.2-1.071,1.236,1.236,0,0,1,.805-.584.641.641,0,0,1,.739.531,1.066,1.066,0,0,0,.008.215.341.341,0,0,0,.486.169.7.7,0,0,0,.307-.486.391.391,0,0,1,.128-.271.314.314,0,0,1,.141-.036,4.431,4.431,0,0,0,.574-.036.531.531,0,0,0,.425-.344,3.939,3.939,0,0,0,.014-.4.461.461,0,0,1,.542-.363.335.335,0,0,1,.168.093,1.821,1.821,0,0,1,.136.239.39.39,0,0,0,.545.083c.086-.069.138-.174.224-.242s.239-.079.287.02a.742.742,0,0,1,.024.162.255.255,0,0,0,.29.164.742.742,0,0,0,.322-.167.149.149,0,0,0,.229-.042c.052-.091-.009-.124-.029-.205-.052-.216-.05-.444-.1-.664A2.639,2.639,0,0,0,349.5-28.946Z" transform="translate(-315.007 30.946)" fill="#252828"/>
    <path id="Path_13413" data-name="Path 13413" d="M362.7-16.162l-.026.012v.048l.042.03a2.037,2.037,0,0,0,.409.151l.056.007c.056-.006.091-.064.11-.117.039-.106.051-.282-.1-.261A4.176,4.176,0,0,0,362.7-16.162Z" transform="translate(-328.875 21.857)" fill="#e0dad7"/>
    <path id="Path_13414" data-name="Path 13414" d="M363.032-18.329c-.292-.393-.91-.122-1.157.182-.056.068.041.166.1.1a.88.88,0,0,1,.428-.295.467.467,0,0,1,.512.086C362.965-18.189,363.085-18.258,363.032-18.329Z" transform="translate(-328.337 23.323)" fill="#252828"/>
    <path id="Path_13415" data-name="Path 13415" d="M363.112-16.861l-.012,0a.439.439,0,0,1-.256.179l-.019.006c-.049.014-.1.026-.15.037-.153.035-.306.069-.457.112l-.022.02-.006,0-.005.02a.54.54,0,0,0,.242.122l.191.074a.857.857,0,0,1,.235.1l.022-.006.005-.03.007,0a.349.349,0,0,0,.11-.446A.261.261,0,0,0,363.112-16.861Zm-.256.574.005,0,0,.006Zm.011-.323.019,0h.013l.017.022,0,.022a.145.145,0,0,1-.054.079c-.036.019-.06.011-.072-.008l0-.036.047-.069Zm-.455.114c.092-.017.185-.036.275-.059a.3.3,0,0,0-.029.141l0,.025-.017-.007C362.589-16.418,362.5-16.466,362.413-16.5Z" transform="translate(-328.551 22.232)" fill="#252828"/>
    <path id="Path_13416" data-name="Path 13416" d="M352.913-10.331a13.211,13.211,0,0,1-2.146-1.312l-.084.026a13.21,13.21,0,0,0,2.187,1.361A.043.043,0,0,0,352.913-10.331Z" transform="translate(-320.998 18.804)" fill="#c1d3d2"/>
    <path id="Path_13417" data-name="Path 13417" d="M355.047-16.518a6.54,6.54,0,0,0-2.508-1.424.713.713,0,0,1,.1.1.815.815,0,0,1,.074.111,7.927,7.927,0,0,1,2.272,1.27C355.029-16.421,355.09-16.482,355.047-16.518Z" transform="translate(-322.217 22.94)" fill="#c1d3d2"/>
    <path id="Path_13418" data-name="Path 13418" d="M350.2-16.9c.044-.054.107-.091.149-.146a.3.3,0,0,0,.008-.326.246.246,0,0,0-.077-.081.294.294,0,0,0-.24-.016.653.653,0,0,0-.418.5,1.149,1.149,0,0,0,.086.665c.053.13.149.272.289.27l.076-.026.034-.057c.051-.125.166-.289.1-.421S350.1-16.77,350.2-16.9Z" transform="translate(-320.289 22.639)" fill="#775a46"/>
    <path id="Path_13419" data-name="Path 13419" d="M341.412-25.7c.228-.021.5-.071.587-.282a.833.833,0,0,0,.022-.37A1.449,1.449,0,0,1,343.2-27.8a5.1,5.1,0,0,1,1,.032,1.212,1.212,0,0,0,.936-.279c.157-.161.24-.394.427-.518a1,1,0,0,1,.407-.126q1.615-.25,3.25-.342a2.836,2.836,0,0,0-.948-2.326,4.5,4.5,0,0,0-2.34-1.06,6.46,6.46,0,0,0-4.287.8,4.666,4.666,0,0,0-1.749,1.711,4.273,4.273,0,0,0-.275,3.28,1.737,1.737,0,0,0,.528.888C340.479-25.486,341.031-25.664,341.412-25.7Z" transform="translate(-313.606 32.499)" fill="#87d8ea"/>
    <path id="Path_13420" data-name="Path 13420" d="M344.924-24.757a2.577,2.577,0,0,1,1.74-.328,2.084,2.084,0,0,0,.44.035,1.312,1.312,0,0,0,.7-.339,7.007,7.007,0,0,1,.607-.508,2.76,2.76,0,0,1,1.351-.367,2.159,2.159,0,0,0,.664-.1.619.619,0,0,0,.414-.489c.023-.3-.245-.533-.512-.664a3.534,3.534,0,0,0-1.335-.3,6.05,6.05,0,0,0-3.129.6,4.5,4.5,0,0,0-2.151,2.308,3.288,3.288,0,0,0-.236,1.146.991.991,0,0,0,.09.484.439.439,0,0,0,.4.247c.21-.018.2-.163.2-.322a1.409,1.409,0,0,1,.08-.544A1.717,1.717,0,0,1,344.924-24.757Z" transform="translate(-316.268 29.438)" fill="#4e8c9a"/>
    <path id="Path_13421" data-name="Path 13421" d="M341.975-29.5a5.05,5.05,0,0,1,3.129-1.636,11.026,11.026,0,0,1,1.957-.007c.121.007.284-.021.3-.141a.2.2,0,0,0-.034-.115.821.821,0,0,0-.428-.314,3.518,3.518,0,0,0-1.962-.045,9.78,9.78,0,0,0-1.6.47,4.6,4.6,0,0,0-2.318,1.71,3.963,3.963,0,0,0-.426,1,5.094,5.094,0,0,0-.17,2.128c.015.1.144.787.334.706.114-.049.044-.553.044-.648a4.645,4.645,0,0,1,.478-2.06A4.7,4.7,0,0,1,341.975-29.5Z" transform="translate(-314.23 32.088)" fill="#4e8c9a"/>
    <path id="Path_13422" data-name="Path 13422" d="M327.949-3.006l-.2.586a3.774,3.774,0,0,1,.789,2.276,7.506,7.506,0,0,1-.367,2.032,25.075,25.075,0,0,1-2.752,7.053,1.484,1.484,0,0,0-.338.86,2.693,2.693,0,0,1,.086.614,1.428,1.428,0,0,1-.317.526,1.3,1.3,0,0,0-.175,1.1,15.541,15.541,0,0,1-5.268.613,8.906,8.906,0,0,1-2.651-.686,1.774,1.774,0,0,1-1.085-.95,1.9,1.9,0,0,1,.05-1.012,34.338,34.338,0,0,1,3.687-9.38,9.331,9.331,0,0,1,3.562-3.822,6.285,6.285,0,0,0,1.789-1.016c.614-.632.761-.437,1.409,0A18.515,18.515,0,0,1,327.949-3.006Z" transform="translate(-297.975 14.186)" fill="#87d8ea"/>
    <path id="Path_13423" data-name="Path 13423" d="M339.794,6.805a51.179,51.179,0,0,0,3.226,6.618,4.65,4.65,0,0,0,.638.914,4.894,4.894,0,0,0,1.757,1.016,9.528,9.528,0,0,0,2.046.654,9.511,9.511,0,0,0,1.519.079l1.474,0a.224.224,0,0,0,.275-.235l.27-1.572A.352.352,0,0,0,350.97,14a.345.345,0,0,0-.2-.1l-.592-.142-.2.218c.046-.258-.239-.441-.479-.546l-2.279-1a.5.5,0,0,0-.346-.06c-.078.025-.139.088-.218.108-.161.042-.317-.118-.337-.282a.887.887,0,0,1,.126-.475,3.257,3.257,0,0,1-1.066-1.344l-2.029-3.79a3.637,3.637,0,0,0-1.013-1.339C341.214,4.465,339.2,5.32,339.794,6.805Z" transform="translate(-313.777 7.907)" fill="#6ec3d6"/>
    <path id="Path_13424" data-name="Path 13424" d="M345.9,9.012c.681.987,1.578,1.958,1.591,3.157a.723.723,0,0,0,.033.272.312.312,0,0,0,.6-.17c.231,0,.28.33.227.554s-.089.533.125.62l.474-.562.21.609c.635-.265,1.323.152,1.954.425a4.825,4.825,0,0,0,1.917.394,1.416,1.416,0,0,0-.587-.5,9.37,9.37,0,0,0-2.495-.95c-.388-.087-.861-.223-.942-.611-.024-.113-.008-.231-.027-.344-.056-.319-.366-.516-.616-.721-1.278-1.045-1.972-3.272-2.421-4.805a2.039,2.039,0,0,0-.765-1.285c-1.031-.712-1.23.085-.845.952A18.02,18.02,0,0,0,345.9,9.012Z" transform="translate(-316.704 7.994)" fill="#4e8c9a"/>
    <path id="Path_13425" data-name="Path 13425" d="M341.677,24.386a1.8,1.8,0,0,1-.059,1.476,5.057,5.057,0,0,1-.882,1.236,1.748,1.748,0,0,0-.619,1.349.793.793,0,0,1,.033.377c-.072.222-.4.279-.47.5s.123.456.017.651-.4.148-.525-.018a.835.835,0,0,1-.1-.6,4.464,4.464,0,0,1,.7-1.943,5.434,5.434,0,0,0,.8-1.322,5.446,5.446,0,0,0,.106-1.336C340.729,23.845,341.215,23.4,341.677,24.386Z" transform="translate(-313.366 -4.488)" fill="#489aac"/>
    <path id="Path_13426" data-name="Path 13426" d="M350.6,4.229q.014.671.028,1.34c0,.082.012.179.085.218.111.059.224-.078.262-.2a1.4,1.4,0,0,0-.414-1.454" transform="translate(-320.919 8.442)" fill="#ca0007"/>
    <path id="Path_13427" data-name="Path 13427" d="M373.427,32.373c.231-.253.418-.616.759-.65.254-.025.518.153.753.054a.5.5,0,0,1,.124-.049c.131-.018.214.131.281.244a1.036,1.036,0,0,0,.449.408,1.322,1.322,0,0,0,.232-.931.379.379,0,0,0-.074-.2.541.541,0,0,0-.323-.122c-.224-.043-.43-.149-.649-.209a3.224,3.224,0,0,0-1.081-.043l-1.189.087a.634.634,0,0,0-.363.1.665.665,0,0,0-.172.472c-.032.336-.335,1.147-.043,1.332C372.453,33.071,373.228,32.59,373.427,32.373Z" transform="translate(-335 -9.099)" fill="#9e765a"/>
    <path id="Path_13428" data-name="Path 13428" d="M373.646,29.514a.051.051,0,0,1-.057-.062,2,2,0,0,0,.559-.563c.09-.136.206-.3.366-.277a.387.387,0,0,1,.226.2.6.6,0,0,1,.131.326.413.413,0,0,1-.283.352,1.207,1.207,0,0,1-.474.048,2.085,2.085,0,0,1-.562-.07.773.773,0,0,0,.518-.14" transform="translate(-336.016 -7.628)" fill="#9e765a"/>
    <path id="Path_13429" data-name="Path 13429" d="M331.083,80.48l.574-.765" transform="translate(-308.128 -41.187)" fill="#ca0007"/>
    <path id="Path_13430" data-name="Path 13430" d="M341.928,83.494c-.261.443-.6.969-.361,1.425.227.435.814.482,1.258.692a6.119,6.119,0,0,1,.938.677,3.409,3.409,0,0,0,1.67.638,1.04,1.04,0,0,0,.56-.065.445.445,0,0,0,.263-.46.672.672,0,0,0-.135-.25,6.283,6.283,0,0,1-1.676-3.607.782.782,0,0,0-.136-.6.687.687,0,0,0-.325-.14c-.54-.128-1.129-.48-1.422.014S342.245,82.979,341.928,83.494Z" transform="translate(-314.959 -42.402)" fill="#281b1c"/>
    <path id="Path_13431" data-name="Path 13431" d="M317.979,45.2a3.931,3.931,0,0,0,1.119.807,30.51,30.51,0,0,0,7.547,3.335,1.468,1.468,0,0,1,1.054.588,1.61,1.61,0,0,1-.116,1.2c-.128.392-.175.9.157,1.144a1.1,1.1,0,0,0-.665,1.366,1.075,1.075,0,0,1,.1.314c.008.236-.205.408-.354.591a1.29,1.29,0,0,0-.128,1.4,4.664,4.664,0,0,0,1.859.714.378.378,0,0,0,.2.01c.239-.074.125-.456.263-.665.094-.143.287-.173.439-.251a1.39,1.39,0,0,0,.53-.647l2.219-4.246a3.734,3.734,0,0,0,.459-1.2,2.66,2.66,0,0,0-.338-1.554,7.589,7.589,0,0,0-2.824-2.738,22.622,22.622,0,0,1-3.294-2.225.777.777,0,0,0-.32-.21.746.746,0,0,0-.252,0,23.538,23.538,0,0,1-6.118-.168c-.622-.1-1.91-.695-2.265.078C316.938,43.5,317.557,44.709,317.979,45.2Z" transform="translate(-298.985 -16.717)" fill="#35526d"/>
    <path id="Path_13432" data-name="Path 13432" d="M329.522,48.882c.273.105.586.247.652.533.061.266-.128.551-.037.809.106.3.518.375.678.649a.957.957,0,0,1-.143.9l-.518.957a.791.791,0,0,0-.127.374c0,.271.266.453.438.664s.188.625-.08.663a.948.948,0,0,0-.508-.266c-.194-.013-.41.154-.367.343.035.157.227.271.2.43-.045.235-.5.2-.514.443-.006.089.062.164.088.249a.6.6,0,0,1-.1.428,4.859,4.859,0,0,0-.42,1.273c-.294-.038-.4-.432-.308-.715s.3-.519.37-.807c.144-.562-.227-1.263.168-1.689.171-.184.463-.276.525-.519a1.081,1.081,0,0,0-.085-.5c-.17-.715.523-1.538.1-2.141a1.276,1.276,0,0,0-.479-.368,41.537,41.537,0,0,0-4.287-1.522,21.072,21.072,0,0,1-4.448-2.6,2.358,2.358,0,0,1-.819-.818.817.817,0,0,1,.216-1.042,1.2,1.2,0,0,1,.691-.1,4.625,4.625,0,0,1,2.074.331c.748.435,1.411,1.062,2.14,1.537A26.309,26.309,0,0,0,329.522,48.882Z" transform="translate(-300.463 -18.063)" fill="#3d5e77"/>
    <path id="Path_13433" data-name="Path 13433" d="M334.627-4.559,337.8-2.3c1.371.975,2.545,1.9,2.676,3.7.02.276.453.278.433,0a4.316,4.316,0,0,0-1.662-3.184c-1.385-1.139-2.942-2.112-4.4-3.152C334.618-5.094,334.4-4.719,334.627-4.559Z" transform="translate(-310.392 14.423)" fill="#ff970b"/>
    <path id="Path_13434" data-name="Path 13434" d="M314.915,26.427c2.961-1.924,6.257-3.251,9.2-5.205.231-.153.014-.528-.218-.374-2.943,1.955-6.239,3.281-9.2,5.206C314.464,26.2,314.681,26.58,314.915,26.427Z" transform="translate(-297.302 -2.508)" fill="#ff970b"/>
  </g>
</svg>
