<svg id="Delete" xmlns="http://www.w3.org/2000/svg" width="14" height="16" viewBox="0 0 14 16">
  <path id="Delete-2" data-name="Delete" d="M7.148,16a.586.586,0,0,1,0-1.17h0c1.181,0,1.605-.006,2.787-.028A1.177,1.177,0,0,0,11.19,13.58c.236-2.241.647-7.6.65-7.657a.556.556,0,1,1,1.106.094c0,.053-.415,5.434-.653,7.69A2.3,2.3,0,0,1,9.959,15.97c-1,.019-1.242.03-2.243.03Zm-3.162-.032a2.3,2.3,0,0,1-2.281-2.254c-.239-2.277-.648-7.643-.652-7.7a.578.578,0,0,1,.508-.631.573.573,0,0,1,.6.538c0,.053.412,5.4.65,7.659.083.79.487,1.2,1.2,1.214A.586.586,0,0,1,4,15.968Zm-3.432-12a.586.586,0,0,1,0-1.171H3.039a.709.709,0,0,0,.683-.589l.185-.976A1.558,1.558,0,0,1,5.391,0H8.609a1.547,1.547,0,0,1,1.476,1.2.59.59,0,0,1-.392.718.553.553,0,0,1-.68-.415.424.424,0,0,0-.4-.327H5.391a.424.424,0,0,0-.4.327l-.176.938A2.04,2.04,0,0,1,4.7,2.8h8.742a.586.586,0,0,1,0,1.171Z" fill="#87d8ea"/>
</svg>
