<?xml version="1.0" encoding="utf-8"?>
<!-- Created by UniConvertor 2.0rc5 (https://sk1project.net/) -->
<svg xmlns="http://www.w3.org/2000/svg" height="297.44px" width="399.184px" version="1.1" xmlns:xlink="http://www.w3.org/1999/xlink" id="6171a148-d614-11ed-88ec-0242ac130004">

<g>
	<g>
		<g>
			<path style="fill:#ebebeb;" d="M 0.0,261.386 L 0.0,261.586 399.184,261.586 399.184,261.386 0.0,261.386 Z" />
			<path style="fill:#ebebeb;" d="M 231.694,266.823 L 231.694,267.023 252.02,267.023 252.02,266.823 231.694,266.823 Z" />
			<path style="fill:#ebebeb;" d="M 315.443,271.142 L 315.443,271.342 363.609,271.342 363.609,271.142 315.443,271.142 Z" />
			<path style="fill:#ebebeb;" d="M 177.605,266.918 L 177.605,267.118 227.367,267.118 227.367,266.918 177.605,266.918 Z" />
			<path style="fill:#ebebeb;" d="M 134.924,272.89 L 134.924,273.09 145.335,273.09 145.335,272.89 134.924,272.89 Z" />
			<path style="fill:#ebebeb;" d="M 155.45,272.89 L 155.45,273.09 202.857,273.09 202.857,272.89 155.45,272.89 Z" />
			<path style="fill:#ebebeb;" d="M 41.882,269.521 L 41.882,269.721 72.579,269.721 72.579,269.521 41.882,269.521 Z" />
			<path style="fill:#ebebeb;" d="M 189.214,225.778 L 35.057,225.778 C 32.543,225.7734 30.506,223.7336 30.506,221.219 30.506,221.219 30.506,221.219 30.506,221.219 L 30.506,4.519 C 30.5286,2.0216 32.557,0.0044 35.0566,0.0 L 189.214,0.0 C 191.7314,0.0 193.773,2.0416 193.773,4.559 L 193.773,221.22 C 193.7724,223.737 191.7311,225.778 189.214,225.778 189.214,225.778 189.214,225.778 189.214,225.778 Z M 35.057,0.16 C 32.6534,0.1646 30.706,2.1148 30.706,4.519 30.706,4.519 30.706,4.519 30.706,4.519 L 30.706,221.219 C 30.706,221.219 30.706,221.219 30.706,221.219 30.706,223.6232 32.6534,225.5734 35.0566,225.578 L 189.214,225.578 C 191.6192,225.5735 193.5685,223.6242 193.573,221.2194 L 193.573,4.519 C 193.5685,2.1138 191.6192,0.1645 189.2144,0.16 L 35.057,0.16 Z" />
			<path style="fill:#ebebeb;" d="M 361.909,225.778 L 207.744,225.778 C 205.2284,225.7735 203.1895,223.7346 203.185,221.2194 L 203.185,4.519 C 203.2121,2.0206 205.2423,0.0044 207.7436,0.0 L 361.909,0.0 C 364.4056,0.0089 366.4294,2.0244 366.452,4.5169 L 366.452,221.219 C 366.452,221.219 366.452,221.219 366.452,221.219 366.452,223.7308 364.4196,225.7689 361.9099,225.778 Z M 207.744,0.16 C 205.3388,0.1645 203.3895,2.1138 203.385,4.5186 L 203.385,221.219 C 203.3895,223.6242 205.3388,225.5735 207.7436,225.578 L 361.909,225.578 C 364.3142,225.5735 366.2635,223.6242 366.268,221.2194 L 366.268,4.519 C 366.2635,2.1138 364.3142,0.1645 361.9094,0.16 L 207.744,0.16 Z" />
			<path style="fill:#e6e6e6;" d="M 156.448,192.143 L 103.436,192.143 100.219,155.019 153.231,155.019 156.448,192.143 Z" />
			<path style="fill:#f0f0f0;" d="M 159.196,192.143 L 106.183,192.143 102.966,155.019 155.978,155.019 159.196,192.143 Z" />
			<path style="fill:#ffffff;" d="M 113.432,184.168 L 111.66,162.987 148.728,162.987 150.5,184.168 113.432,184.168 Z" />
			<path style="fill:#e6e6e6;" d="M 162.149,192.143 L 162.149,261.385 168.368,261.385 168.368,192.143 162.149,192.143 Z" />
			<path style="fill:#f0f0f0;" d="M 166.013,192.143 L 166.013,261.385 170.332,261.385 170.332,192.143 166.013,192.143 Z" />
			<path style="fill:#f0f0f0;" d="M 170.332,199.784 L 170.332,192.144 110.127,192.144 110.127,199.784 170.332,199.784 Z" />
			<path style="fill:#e6e6e6;" d="M 106.031,199.784 L 106.031,261.386 112.25,261.386 112.25,199.784 106.031,199.784 Z" />
			<path style="fill:#f0f0f0;" d="M 109.895,199.784 L 109.895,261.386 114.214,261.386 114.214,199.784 109.895,199.784 Z" />
			<path style="fill:#e6e6e6;" d="M 61.762,199.784 L 61.762,261.386 67.981,261.386 67.981,199.784 61.762,199.784 Z" />
			<path style="fill:#f0f0f0;" d="M 65.626,199.784 L 65.626,261.386 69.945,261.386 69.945,199.784 65.626,199.784 Z" />
			<path style="fill:#e6e6e6;" d="M 122.789,199.784 L 122.789,261.386 129.008,261.386 129.008,199.784 122.789,199.784 Z" />
			<path style="fill:#f0f0f0;" d="M 126.645,199.784 L 126.645,261.386 130.964,261.386 130.964,199.784 126.645,199.784 Z" />
			<path style="fill:#e6e6e6;" d="M 61.762,192.143 L 61.762,199.783 110.127,199.783 110.127,192.143 61.762,192.143 Z" />
			<path style="fill:#e0e0e0;" d="M 103.397,19.488 L 103.397,123.643 290.479,123.643 290.479,19.488 103.397,19.488 Z" />
			<path style="fill:#f5f5f5;" d="M 104.339,19.488 L 104.339,123.643 300.754,123.643 300.754,19.488 104.339,19.488 Z" />
			<path style="fill:#ffffff;" d="M 297.544,22.698 L 107.548,22.698 107.548,120.434 297.544,120.434 297.544,22.698 Z" />
			<path style="fill:#f5f5f5;" d="M 184.479,120.434 L 220.35,22.698 161.15,22.698 125.28,120.434 184.479,120.434 Z" />
			<path style="fill:#f5f5f5;" d="M 241.459,120.434 L 277.329,22.698 232.669,22.698 196.798,120.434 241.459,120.434 Z" />
			<path style="fill:#e6e6e6;" d="M 333.87,161.909 L 333.87,261.386 349.773,261.386 349.773,161.909 333.87,161.909 Z" />
			<path style="fill:#fafafa;" d="M 345.59,261.385 L 349.773,261.385 349.773,253.729 341.207,253.729 345.59,261.385 Z" />
			<path style="fill:#e6e6e6;" d="M 187.241,161.909 L 187.241,261.386 203.144,261.386 203.144,161.909 187.241,161.909 Z" />
			<path style="fill:#fafafa;" d="M 199.496,161.909 L 199.496,259.318 349.773,259.318 349.773,161.909 199.496,161.909 Z" />
			<path style="fill:#e6e6e6;" d="M 346.93,193.341 L 202.346,193.341 202.346,165.829 346.93,165.829 346.93,193.341 Z M 203.144,192.541 L 346.132,192.541 346.132,166.627 203.144,166.627 203.144,192.541 Z" />
			<path style="fill:#e6e6e6;" d="M 321.479,179.186 L 230.601,179.186 C 226.386,179.186 222.322,175.786 219.424,169.845 L 219.153,169.278 332.919,169.278 332.652,169.848 C 329.726,175.785 325.734,179.186 321.479,179.186 Z M 220.461,170.048 C 223.161,175.341 226.848,178.359 230.6,178.359 L 321.478,178.359 C 325.246,178.359 328.919,175.341 331.617,170.048 L 220.461,170.048 Z" />
			<path style="fill:#fafafa;" d="M 203.679,261.385 L 199.496,261.385 199.496,253.729 208.062,253.729 203.679,261.385 Z" />
			<path style="fill:#e6e6e6;" d="M 346.93,224.342 L 202.346,224.342 202.346,196.862 346.93,196.862 346.93,224.342 Z M 203.144,223.542 L 346.132,223.542 346.132,197.66 203.144,197.66 203.144,223.542 Z" />
			<path style="fill:#e6e6e6;" d="M 321.479,210.219 L 230.601,210.219 C 226.386,210.219 222.322,206.81 219.424,200.878 L 219.153,200.303 332.919,200.303 332.648,200.878 C 329.726,206.778 325.734,210.219 321.479,210.219 Z M 220.461,201.102 C 223.161,206.395 226.848,209.421 230.6,209.421 L 321.478,209.421 C 325.246,209.421 328.919,206.395 331.617,201.102 L 220.461,201.102 Z" />
			<path style="fill:#e6e6e6;" d="M 346.93,255.398 L 202.346,255.398 202.346,227.886 346.93,227.886 346.93,255.398 Z M 203.144,254.598 L 346.132,254.598 346.132,228.684 203.144,228.684 203.144,254.598 Z" />
			<path style="fill:#e6e6e6;" d="M 321.479,241.243 L 230.601,241.243 C 226.386,241.243 222.322,237.843 219.424,231.91 L 219.153,231.335 332.919,231.335 332.648,231.91 C 329.726,237.842 325.734,241.243 321.479,241.243 Z M 220.461,232.134 C 223.161,237.427 226.848,240.445 230.6,240.445 L 321.478,240.445 C 325.246,240.445 328.919,237.427 331.617,232.134 L 220.461,232.134 Z" />
			<path style="fill:#e6e6e6;" d="M 96.587,175.066 L 96.587,176.998 95.358,176.998 94.336,192.143 79.294,192.143 78.28,176.998 77.043,176.998 77.043,175.066 96.587,175.066 Z" />
			<path style="fill:#e6e6e6;" d="M 91.636,137.487 C 90.407,128.465 78.236,125.895 62.783,125.559 48.083,125.248 43.375,120.05 43.375,120.05 43.375,120.05 43.423,141.103 64.604,148.735 84.715,155.97 92.874,146.525 91.636,137.487 Z" />
			<path style="fill:#e6e6e6;" d="M 84.132,157.933 C 84.387,154.233 90.311,147.411 104.562,150.508 114.862,152.751 118.693,147.408 118.693,147.408 118.693,147.408 117.735,162.481 102.247,167.008 87.533,171.314 83.677,164.464 84.132,157.933 Z" />
			<path style="fill:#e6e6e6;" d="M 87.381,180.75 C 87.3825,180.75 87.3842,180.75 87.386,180.75 87.5528,180.75 87.7023,180.6758 87.8034,180.5587 88.834,179.337 87.988,176.414 86.822,172.367 85.322,167.178 83.453,160.711 85.034,156.024 86.0714,153.1078 87.106,150.7152 88.2734,148.4009 90.335,144.049 92.267,139.993 90.655,135.698 90.577,135.4823 90.3739,135.3308 90.1356,135.3308 89.8313,135.3308 89.5846,135.5776 89.5846,135.8818 89.5846,135.9565 89.5994,136.0277 89.6263,136.0926 91.07,139.913 89.325,143.618 87.102,148.312 86.0997,150.2736 85.049,152.703 84.1399,155.2004 82.303,160.687 84.22,167.337 85.76,172.673 86.67,175.866 87.612,179.06 86.966,179.858 86.8753,179.9548 86.8197,180.0853 86.8197,180.2288 86.8197,180.4028 86.9015,180.5577 87.0288,180.6571 87.114,180.717 87.2183,180.7524 87.3309,180.7524 87.3486,180.7524 87.366,180.7515 87.3832,180.7498 Z" />
		</g>
		<path style="fill:#f5f5f5;" d="M 354.388,288.403 C 354.388,293.3937 285.069,297.441 199.592,297.441 114.115,297.441 44.796,293.3937 44.796,288.403 44.796,283.4123 114.115,279.365 199.592,279.365 285.069,279.365 354.388,283.4123 354.388,288.403 Z" />
		<g>
			<path style="fill:#56a8b7;" d="M 199.56,244.337 L 86.191,244.337 79.991,62.014 193.356,62.014 199.56,244.337 Z" />
			<path style="fill:#8cadfd;" d="M 205.22,238.68 L 91.851,238.68 85.64,56.357 199.008,56.357 205.22,238.68 Z" />
			<path style="fill:#85dae9;" d="M 205.22,238.68 L 91.851,238.68 85.64,56.357 199.008,56.357 205.22,238.68 Z" />
			<path style="fill:#fd9f00;" d="M 166.0758,86.2911 C 178.847,98.8474 179.3623,119.0404 167.2263,131.3841 155.0904,143.7278 134.8915,143.5553 122.1203,130.999 109.3491,118.4427 108.8338,98.2497 120.9698,85.906 133.1057,73.5624 153.3046,73.7348 166.0758,86.2911 Z" />
			<path style="fill:#ffffff;" d="M 170.428,108.65 C 170.4395,108.9364 170.446,109.2725 170.446,109.6101 170.446,113.8326 169.4211,117.8162 167.6065,121.3256 163.4115,129.4262 154.95,134.9648 145.1975,134.9648 145.1281,134.9648 145.0587,134.9645 144.9894,134.9639 134.9457,134.908 126.1801,129.4329 121.4708,121.314 119.2733,117.5869 117.9534,113.2884 117.7923,108.6958 117.7761,108.3256 117.7676,107.9455 117.7676,107.5633 117.7676,93.615 129.0793,82.3033 143.0276,82.3033 143.0921,82.3033 143.1565,82.3036 143.2208,82.3041 157.8943,82.4109 169.8314,94.0438 170.4262,108.596 Z" />
			<path style="fill:#fd9f00;" d="M 167.656,121.185 C 163.3936,129.4283 154.9313,134.9678 145.1779,134.9678 145.1094,134.9678 145.0409,134.9675 144.9725,134.9669 134.9287,134.911 126.1631,129.4359 121.4538,121.317 127.7551,116.7924 135.6407,114.1667 144.1383,114.1667 144.1937,114.1667 144.2491,114.1668 144.3045,114.167 152.992,114.1868 161.074,116.8044 167.8114,121.2843 Z" />
			<path style="fill:#fd9f00;" d="M 151.8789,91.4136 C 156.5751,96.0308 156.7648,103.4559 152.3025,107.9946 147.8401,112.5333 140.4129,112.4697 135.7167,107.8525 131.0205,103.2354 130.8308,95.8103 135.2931,91.2715 139.7555,86.7328 147.1827,86.7964 151.8789,91.4136 Z" />
			<path style="fill:#ffffff;" d="M 182.442,172.656 L 110.126,172.656 109.639,158.285 181.955,158.285 182.442,172.656 Z" />
			<path style="fill:#ffffff;" d="M 183.321,198.338 L 110.997,198.338 110.51,183.967 182.834,183.967 183.321,198.338 Z" />
			<path style="fill:#fd9f00;" d="M 155.41,185.948 L 137.982,188.348 C 137.3736,188.4196 136.9058,188.9324 136.9058,189.5541 136.9058,189.6358 136.9139,189.7156 136.9293,189.7927 L 139.219,201.465 C 139.3617,202.1015 139.922,202.5701 140.5916,202.5701 140.6538,202.5701 140.715,202.5661 140.7751,202.5582 L 158.196,200.159 C 158.8014,200.08 159.2644,199.5673 159.2644,198.9467 159.2644,198.8644 159.2562,198.784 159.2407,198.7062 L 156.959,187.034 C 156.8156,186.4014 156.258,185.9361 155.592,185.9361 155.5278,185.9361 155.4647,185.9404 155.4028,185.9488 Z M 150.404,197.78 L 147.211,198.203 146.9,194.435 C 146.2385,194.1429 145.7526,193.5581 145.6026,192.8495 145.5709,192.7075 145.5543,192.5612 145.5543,192.411 145.5543,191.3901 146.3242,190.5487 147.3149,190.4358 147.4117,190.4231 147.513,190.4163 147.6159,190.4163 148.7051,190.4163 149.6163,191.1793 149.8441,192.1999 149.8723,192.333 149.8868,192.4686 149.8868,192.6075 149.8868,193.1909 149.6312,193.7147 149.226,194.0731 L 150.404,197.78 Z" />
			<path style="fill:#fd9f00;" d="M 153.686,185.317 L 153.686,185.317 C 153.6387,185.3234 153.5841,185.327 153.5286,185.327 152.9364,185.327 152.4407,184.9134 152.3146,184.3593 L 152.089,183.209 C 151.4542,180.191 148.8134,177.9569 145.6517,177.9569 145.4953,177.9569 145.3401,177.9624 145.1864,177.9732 142.261,178.1454 139.9366,180.5778 139.9366,183.5519 139.9366,183.9483 139.9779,184.3352 140.0564,184.7083 L 140.305,185.989 C 140.3186,186.0531 140.3264,186.1267 140.3264,186.2021 140.3264,186.7526 139.9105,187.2062 139.3758,187.2656 L 139.371,187.266 C 139.3199,187.2735 139.261,187.2778 139.2011,187.2778 138.6113,187.2778 138.1185,186.8622 137.9995,186.308 L 137.782,185.19 C 137.6739,184.701 137.612,184.1395 137.612,183.5636 137.612,179.6828 140.4247,176.4576 144.1223,175.8158 144.6142,175.7305 145.1266,175.6856 145.6494,175.6856 149.9153,175.6856 153.4845,178.6744 154.3768,182.6717 L 154.643,184.04 C 154.6563,184.1034 154.664,184.1763 154.664,184.2509 154.664,184.8097 154.2354,185.2686 153.689,185.3167 L 153.686,185.317 Z" />
			<path style="fill:#fd9f00;" d="M 171.384,218.466 L 124.304,218.466 123.993,209.109 171.065,209.109 171.384,218.466 Z" />
			<path style="fill:#263238;" d="M 148.672,165.473 C 148.6734,165.5041 148.6741,165.5405 148.6741,165.5771 148.6741,166.9702 147.5443,168.1001 146.1511,168.1001 146.1448,168.1001 146.1384,168.1 146.132,168.1 144.6677,168.0882 143.4761,166.9298 143.4112,165.4789 143.4096,165.4419 143.4089,165.4055 143.4089,165.3689 143.4089,163.9758 144.5387,162.8459 145.9319,162.8459 145.9382,162.8459 145.9446,162.846 145.951,162.846 147.417,162.8536 148.611,164.0144 148.6718,165.4675 Z" />
			<path style="fill:#263238;" d="M 137.319,165.473 C 137.3206,165.5065 137.3215,165.5457 137.3215,165.5851 137.3215,166.9739 136.1953,168.1001 134.8065,168.1001 134.7972,168.1001 134.7879,168.1001 134.7786,168.1 133.3164,168.088 132.1269,166.9289 132.0662,165.4785 132.0646,165.4419 132.0639,165.4055 132.0639,165.3689 132.0639,163.9758 133.1937,162.8459 134.5869,162.8459 134.5932,162.8459 134.5996,162.846 134.606,162.846 136.0703,162.8538 137.2622,164.0154 137.3188,165.4679 Z" />
			<path style="fill:#263238;" d="M 126.038,165.473 C 126.0393,165.5029 126.04,165.5379 126.04,165.5731 126.04,166.9663 124.9102,168.0961 123.517,168.0961 123.5093,168.0961 123.5015,168.0961 123.4938,168.096 122.0297,168.0882 120.8378,166.9266 120.7812,165.4741 120.7796,165.4379 120.7789,165.4015 120.7789,165.3649 120.7789,163.9718 121.9087,162.8419 123.3019,162.8419 123.3082,162.8419 123.3146,162.842 123.321,162.842 124.7883,162.8477 125.9833,164.0123 126.0379,165.468 Z" />
			<path style="fill:#263238;" d="M 159.985,165.467 C 159.9864,165.4981 159.9871,165.5345 159.9871,165.5711 159.9871,166.9642 158.8573,168.0941 157.4641,168.0941 157.4578,168.0941 157.4514,168.094 157.445,168.094 155.9807,168.0862 154.7888,166.9246 154.7322,165.4721 154.7311,165.4416 154.7306,165.4117 154.7306,165.3818 154.7306,163.993 155.8568,162.8668 157.2456,162.8668 157.2573,162.8668 157.2691,162.8669 157.2808,162.867 158.7319,162.8785 159.9141,164.0237 159.9848,165.4607 Z" />
			<path style="fill:#263238;" d="M 171.298,165.473 C 171.2996,165.5065 171.3005,165.5457 171.3005,165.5851 171.3005,166.9739 170.1743,168.1001 168.7855,168.1001 168.7762,168.1001 168.7669,168.1001 168.7576,168.1 167.2954,168.088 166.1059,166.9289 166.0452,165.4785 166.0436,165.4419 166.0429,165.4055 166.0429,165.3689 166.0429,163.9758 167.1727,162.8459 168.5659,162.8459 168.5722,162.8459 168.5786,162.846 168.585,162.846 170.0493,162.8538 171.2412,164.0154 171.2978,165.4679 Z" />
		</g>
		<g>
			<path style="fill:#ff8b7b;" d="M 266.583,95.23 C 267.645,96.938 268.531,98.567 269.441,100.268 270.351,101.969 271.173,103.677 271.98,105.425 273.4403,108.468 274.8269,112.1062 275.9216,115.8685 276.196,116.858 276.299,117.361 276.419,117.848 L 276.595,118.59 276.683,118.957 276.783,119.564 C 276.8419,119.9901 276.8755,120.4822 276.8755,120.9822 276.8755,121.9419 276.7516,122.8728 276.519,123.7597 275.9303,125.9415 275.0782,127.9194 273.9857,129.7365 271.9676,133.1535 269.6205,136.1991 266.9464,138.9224 L 263.594,136.378 C 265.0424,133.7889 266.5513,130.637 267.8737,127.3894 268.6288,125.5 269.0549,123.9869 269.296,122.4131 269.3371,122.138 269.3525,121.948 269.3525,121.7544 269.3525,121.4474 269.3137,121.1496 269.2406,120.8654 L 268.927,119.916 C 268.799,119.516 268.68,119.116 268.527,118.71 267.0864,114.8201 265.6692,111.6403 264.0808,108.5633 262.72,105.873 261.007,102.679 259.29,99.629 L 266.583,95.23 Z" />
			<path style="fill:#ff8b7b;" d="M 264.451,135.268 L 260.779,137.208 264.994,142.142 C 264.994,142.142 267.629,140.362 267.748,137.647 L 264.451,135.268 Z" />
			<path style="fill:#ff8b7b;" d="M 255.853,140.248 L 260.364,143.833 264.995,142.14 260.783,137.208 255.853,140.248 Z" />
			<path style="fill:#263238;" d="M 240.429,69.107 C 240.341,69.554 240.029,69.865 239.742,69.807 239.455,69.749 239.287,69.336 239.375,68.897 239.463,68.458 239.775,68.097 240.07,68.197 240.365,68.297 240.517,68.66 240.429,69.107 Z" />
			<path style="fill:#ff5652;" d="M 240.07,69.874 C 239.2368,71.1571 238.2817,72.2644 237.1961,73.2279 237.6587,73.7392 238.3294,74.0474 239.0719,74.0474 239.1254,74.0474 239.1785,74.0458 239.2312,74.0427 L 240.07,69.874 Z" />
			<path style="fill:#ff8b7b;" d="M 238.633,85.537 L 238.633,80.3 245.563,81.1 C 245.563,81.1 245.451,85.6 241.571,86.928 L 238.633,85.537 Z" />
			<path style="fill:#ff8b7b;" d="M 240.624,76.532 L 245.502,77.937 245.59,81.137 238.66,80.299 240.624,76.532 Z" />
			<path style="fill-opacity:0.2;fill:#000000;" d="M 245.506,77.937 L 240.628,76.532 239.678,78.352 C 239.7892,81.3464 241.5798,83.8981 244.131,85.1018 244.9833,84.008 245.4993,82.637 245.59,81.1514 L 245.506,77.937 Z" />
			<path style="fill:#263238;" d="M 242.552,66.975 C 242.699,66.9716 242.817,66.8516 242.817,66.7041 242.817,66.6367 242.7924,66.5751 242.7517,66.5276 242.2639,65.9791 241.5559,65.6349 240.7677,65.6349 240.6681,65.6349 240.5698,65.6404 240.4731,65.6511 240.3598,65.6717 240.2658,65.7796 240.2658,65.9093 240.2658,65.9237 240.267,65.9378 240.2692,65.9515 240.2913,66.079 240.4025,66.176 240.5362,66.176 240.5478,66.176 240.5592,66.1753 240.5703,66.1739 L 240.569,66.174 C 240.6303,66.1677 240.7013,66.164 240.7733,66.164 241.404,66.164 241.9699,66.4423 242.3548,66.8826 242.405,66.9373 242.4729,66.9707 242.5486,66.973 L 242.552,66.975 Z" />
			<path style="fill:#ff8b7b;" d="M 252.755,77.187 C 251.955,81.299 251.462,86.987 254.355,89.729 254.355,89.729 253.237,93.896 245.573,93.896 237.182,93.896 241.541,90.239 241.541,90.239 245.03,89.153 244.998,85.185 244.2,81.992 L 252.755,77.187 Z" />
			<path style="fill:#d19655;" d="M 255.912,92.476 C 256.662,91.422 256.631,88.076 255.832,87.486 254.547,86.536 249.032,86.312 241.613,88.021 241.7785,88.5078 241.8741,89.0682 241.8741,89.6509 241.8741,90.9087 241.4289,92.0626 240.6876,92.9638 L 255.912,92.476 Z" />
			<path style="fill:#8cadfd;" d="M 280.865,282.016 C 280.6843,282.0816 280.4758,282.1196 280.2584,282.1196 279.968,282.1196 279.6933,282.0518 279.4494,281.9312 279.3532,281.8365 279.2866,281.6952 279.2866,281.5382 279.2866,281.4597 279.3033,281.385 279.3334,281.3176 279.3846,281.1446 279.5093,281.0041 279.6711,280.9316 280.433,280.563 282.175,281.273 282.254,281.305 282.3013,281.3245 282.334,281.3703 282.334,281.4237 282.334,281.4241 282.334,281.4246 282.334,281.4251 282.3335,281.4788 282.3052,281.526 282.2626,281.5526 281.8673,281.732 281.4013,281.891 280.918,282.0053 Z M 279.947,281.116 C 279.8893,281.1298 279.8387,281.1491 279.7913,281.1738 279.6939,281.2095 279.6171,281.2916 279.5876,281.3936 279.515,281.636 279.587,281.715 279.635,281.739 279.935,281.994 281.056,281.739 281.846,281.439 281.3521,281.2298 280.7779,281.1081 280.1753,281.1081 280.0954,281.1081 280.0159,281.1102 279.937,281.1145 L 279.947,281.116 Z" />
			<path style="fill:#8cadfd;" d="M 282.232,281.56 L 282.168,281.56 C 281.529,281.376 280.168,280.41 280.156,279.78 280.156,279.7792 280.156,279.7783 280.156,279.7774 280.156,279.569 280.3013,279.3945 280.4961,279.3496 280.5705,279.3215 280.6531,279.3055 280.7395,279.3055 280.8655,279.3055 280.9837,279.3395 281.0852,279.3988 281.832,279.78 282.311,281.329 282.327,281.397 282.3378,281.4154 282.3441,281.4374 282.3441,281.461 282.3441,281.4846 282.3378,281.5066 282.3267,281.5256 282.3065,281.547 282.2773,281.5608 282.245,281.5608 282.2404,281.5608 282.2359,281.5605 282.2315,281.5599 Z M 280.632,279.572 L 280.568,279.572 C 280.408,279.628 280.408,279.708 280.408,279.748 280.408,280.123 281.318,280.882 282.008,281.185 281.8205,280.5435 281.464,280.0 280.99,279.5886 280.9297,279.5588 280.8639,279.5435 280.7945,279.5435 280.7402,279.5435 280.6882,279.5529 280.6398,279.57 L 280.632,279.572 Z" />
			<path style="fill:#8cadfd;" d="M 239.399,282.958 C 238.68,282.958 237.986,282.858 237.754,282.535 237.6954,282.4541 237.6602,282.3529 237.6602,282.2435 237.6602,282.1341 237.6954,282.0329 237.755,281.9506 237.8461,281.7968 237.9956,281.6839 238.1725,281.6419 239.111,281.386 241.077,282.503 241.155,282.551 241.1952,282.571 241.2224,282.6117 241.2224,282.6588 241.2224,282.6688 241.2211,282.6785 241.2188,282.6878 241.2132,282.7424 241.1727,282.787 241.1199,282.7988 240.6043,282.8981 240.0113,282.9562 239.4053,282.959 L 239.399,282.958 Z M 238.513,281.864 C 238.4747,281.8575 238.4305,281.8538 238.3855,281.8538 238.3405,281.8538 238.2963,281.8575 238.2534,281.8646 238.1463,281.8878 238.0535,281.9548 237.996,282.0463 237.895,282.216 237.939,282.295 237.995,282.348 238.258,282.715 239.672,282.723 240.717,282.572 240.0808,282.2184 239.3368,281.9706 238.546,281.8749 L 238.513,281.864 Z" />
			<path style="fill:#8cadfd;" d="M 241.107,282.798 L 241.051,282.798 C 240.372,282.498 239.031,281.281 239.135,280.642 239.135,280.49 239.263,280.307 239.63,280.275 239.6635,280.2708 239.7023,280.2685 239.7417,280.2685 239.9803,280.2685 240.1985,280.3557 240.3662,280.5001 240.8581,281.0858 241.1792,281.8318 241.2422,282.65 241.2425,282.711 241.221,282.7538 241.1872,282.7828 241.167,282.7933 241.1433,282.7994 241.1183,282.7994 241.1143,282.7994 241.1104,282.7993 241.1065,282.799 L 241.107,282.798 Z M 239.734,280.523 L 239.654,280.523 C 239.414,280.523 239.399,280.635 239.399,280.667 239.335,281.05 240.245,282.008 240.94,282.423 240.8745,281.7541 240.6047,281.1581 240.1947,280.6874 240.0764,280.5865 239.917,280.5228 239.7428,280.5228 239.7373,280.5228 239.7317,280.5229 239.7262,280.523 L 239.734,280.523 Z" />
			<path style="fill:#ff8b7b;" d="M 247.271,282.67 L 241.658,282.67 241.099,269.665 246.71,269.665 247.271,282.67 Z" />
			<path style="fill:#ff8b7b;" d="M 288.491,280.068 L 283.006,281.258 277.489,269.147 282.982,267.957 288.491,280.068 Z" />
			<path style="fill:#263238;" d="M 282.47,280.707 L 288.641,279.374 C 288.6715,279.3672 288.7065,279.3633 288.7424,279.3633 288.9368,279.3633 289.1046,279.4773 289.1827,279.6421 L 291.324,284.292 C 291.3778,284.3967 291.4094,284.5205 291.4094,284.6516 291.4094,285.0497 291.1184,285.38 290.7376,285.4414 288.577,285.865 287.5,285.969 284.793,286.552 283.124,286.919 279.356,287.837 277.049,288.332 274.742,288.827 273.949,286.616 274.849,286.208 278.881,284.364 280.557,282.743 281.649,281.234 281.8459,280.9689 282.1314,280.7792 282.4611,280.7086 Z" />
			<path style="fill:#263238;" d="M 241.698,282.016 L 247.829,282.016 C 248.0607,282.0194 248.254,282.1799 248.3073,282.3956 L 249.418,287.389 C 249.4352,287.4509 249.4451,287.5221 249.4451,287.5955 249.4451,288.0372 249.0869,288.3955 248.6451,288.3955 248.6356,288.3955 248.6261,288.3953 248.6166,288.395 246.407,288.355 243.218,288.227 240.435,288.227 237.178,288.227 234.375,288.403 230.559,288.403 228.252,288.403 227.613,286.072 228.579,285.856 232.97,284.898 236.563,284.794 240.355,282.456 240.7328,282.2 241.1936,282.0391 241.6905,282.0172 L 241.698,282.016 Z" />
			<path style="fill:#8cadfd;" d="M 264.396,91.014 C 269.657,92.22 273.976,105.656 273.976,105.656 L 263.461,113.696 C 260.8172,110.8732 258.8674,107.3685 257.9053,103.475 256.013,96.275 259.013,89.769 264.396,91.014 Z" />
			<path style="fill:#d19655;" d="M 264.396,91.014 C 269.657,92.22 273.976,105.656 273.976,105.656 L 263.461,113.696 C 260.8172,110.8732 258.8674,107.3685 257.9053,103.475 256.013,96.275 259.013,89.769 264.396,91.014 Z" />
			<path style="fill:#ff8b7b;" d="M 236.716,107.037 C 235.407,108.45 234.097,109.712 232.724,111.029 232.045,111.668 231.359,112.306 230.656,112.921 L 229.594,113.855 229.331,114.087 228.876,114.454 C 228.4316,114.8111 227.9236,115.1167 227.3767,115.3482 226.7603,115.6147 226.0911,115.7617 225.3879,115.764 225.3845,115.764 225.3815,115.764 225.3786,115.764 224.7794,115.764 224.206,115.654 223.6773,115.453 223.0883,115.224 222.556,114.88 222.1088,114.4485 221.5409,113.8929 221.1104,113.1964 220.8739,112.4158 220.7516,112.0345 220.6693,111.6298 220.6343,111.2117 220.613,110.979 220.6016,110.7316 220.6016,110.4815 220.6016,110.2314 220.613,109.984 220.6353,109.7397 220.673,109.388 220.721,109.052 220.785,108.741 221.0349,107.5109 221.3545,106.4418 221.7576,105.4145 222.1407,104.3729 222.5577,103.4196 223.0234,102.495 223.459,101.644 223.948,100.902 224.433,100.058 226.5568,96.6107 228.7822,93.6209 231.241,90.8425 233.6737,88.0818 236.3506,85.5389 239.2368,83.2486 L 242.3,86.175 C 240.24,88.937 238.212,91.899 236.336,94.813 234.7107,97.2902 233.0121,100.23 231.4741,103.2648 230.884,104.545 230.427,105.395 230.213,105.995 229.9767,106.5514 229.7239,107.2677 229.5092,108.0003 229.2916,108.7107 229.133,109.3896 229.0259,110.0855 229.0134,110.2107 229.0119,110.2664 229.0119,110.3225 229.0119,110.3786 229.0134,110.4343 229.0163,110.4897 L 229.016,110.41 C 229.0029,110.2173 228.9672,110.0378 228.9115,109.8674 228.7335,109.2962 228.4163,108.7959 227.9993,108.3995 227.629,108.0577 227.191,107.7859 226.7079,107.6068 226.2828,107.4428 225.8222,107.3523 225.3405,107.351 225.328,107.3508 225.3139,107.3508 225.2998,107.3508 224.8508,107.3508 224.423,107.4417 224.0337,107.6061 223.899,107.6622 223.7674,107.7293 223.6421,107.8054 L 223.955,107.519 224.921,106.641 226.829,104.853 C 228.09,103.663 229.36,102.394 230.557,101.212 L 236.716,107.037 Z" />
			<path style="fill-opacity:0.2;fill:#000000;" d="M 259.885,100.882 C 262.743,103.708 263.677,108.866 263.877,113.337 L 263.414,113.696 C 260.7702,110.8732 258.8204,107.3685 257.8583,103.475 257.725,102.902 257.625,102.517 257.554,102.064 L 259.885,100.882 Z" />
			<path style="fill:#8cadfd;" d="M 231.136,96.603 C 229.986,102.671 229.268,115.133 232.597,139.803 L 262.664,139.803 C 262.872,135.196 259.974,112.703 264.42,90.975 261.5483,90.3917 258.0999,89.94 254.5893,89.7176 252.4515,89.5894 250.2205,89.523 247.974,89.523 245.7275,89.523 243.4965,89.5894 241.2829,89.7205 240.182,89.834 238.793,90.041 237.595,90.257 234.3293,90.8454 231.7818,93.3549 231.1445,96.5523 Z" />
			<path style="fill:#fd9f00;" d="M 231.136,96.603 C 229.986,102.671 229.268,115.133 232.597,139.803 L 262.664,139.803 C 262.872,135.196 259.974,112.703 264.42,90.975 261.5483,90.3917 258.0999,89.94 254.5893,89.7176 252.4515,89.5894 250.2205,89.523 247.974,89.523 245.7275,89.523 243.4965,89.5894 241.2829,89.7205 240.182,89.834 238.793,90.041 237.595,90.257 234.3293,90.8454 231.7818,93.3549 231.1445,96.5523 Z" />
			<path style="fill-opacity:0.2;fill:#000000;" d="M 235.734,105.6 L 230.305,104.3 C 230.137,107.589 230.121,111.661 230.361,116.7 232.86,113.859 236.054,109.417 235.734,105.6 Z" />
			<path style="fill-opacity:0.2;fill:#000000;" d="M 241.1,269.665 L 241.387,276.371 247.01,276.371 246.723,269.665 241.1,269.665 Z" />
			<path style="fill-opacity:0.2;fill:#000000;" d="M 282.982,267.957 L 277.489,269.147 280.331,275.39 285.824,274.2 282.982,267.957 Z" />
			<path style="fill:#ff8b7b;" d="M 255.423,71.183 C 253.986,76.564 253.411,79.789 250.09,82.025 245.1,85.425 238.873,81.53 238.713,75.846 238.537,70.713 240.924,62.769 246.697,61.683 247.1188,61.6 247.6035,61.5525 248.0993,61.5525 252.2959,61.5525 255.6993,64.9559 255.6993,69.1525 255.6993,69.8751 255.5984,70.5741 255.4099,71.2363 Z" />
			<path style="fill:#263238;" d="M 242.824,71.383 C 242.553,70.664 241.315,65.1 242.481,63.655 243.647,62.21 256.939,63.255 258.903,65.188 262.168,68.381 259.903,71.256 256.332,74.952 253.649,77.73 253.546,80.86 252.188,81.339 249.788,82.139 246.136,81.387 245.402,78.856 244.668,76.325 242.824,71.383 242.824,71.383 Z" />
			<path style="fill:#263238;" d="M 257.291,58.856 C 252.597,56.856 243.791,59.072 239.032,57.922 239.0293,57.9969 239.0277,58.0848 239.0277,58.1732 239.0277,61.7791 241.6332,64.7776 245.0639,65.3884 248.644,66.1011 252.7072,66.5054 256.8646,66.5054 256.9417,66.5054 257.0188,66.5052 257.0959,66.505 262.304,66.265 261.282,60.557 257.291,58.856 Z" />
			<path style="fill:#263238;" d="M 258.025,65.355 C 258.2879,65.3824 258.5929,65.398 258.9016,65.398 260.3977,65.398 261.8082,65.0307 263.0479,64.3814 263.877,66.529 259.047,67.111 258.025,65.355 Z" />
			<path style="fill:#ff8b7b;" d="M 245.379,71.605 C 245.2622,73.0496 244.6755,74.3387 243.7738,75.3384 242.55,76.682 241.272,75.833 241.057,74.199 240.865,72.714 241.265,70.207 242.766,69.489 244.267,68.771 245.483,69.937 245.379,71.605 Z" />
			<path style="fill:#585d5e;" d="M 243.255,139.827 C 243.255,139.827 249.642,182.739 253.131,198.818 256.955,216.418 277.505,274.663 277.505,274.663 L 287.556,272.483 C 287.556,272.483 273.185,225.012 269.992,200.398 267.517,181.493 262.655,139.81 262.655,139.81 L 243.255,139.827 Z" />
			<path style="fill:#263238;" d="M 275.094,271.317 C 275.054,271.317 276.97,274.958 276.97,274.958 L 288.27,272.507 287.32,269.107 275.094,271.317 Z" />
			<path style="fill-opacity:0.3;fill:#000000;" d="M 247.287,155.116 C 254.656,156.561 253.874,184.041 252.987,198.18 250.863,188.18 247.75,168.96 245.626,155.316 245.951,155.1519 246.3343,155.0558 246.74,155.0558 246.9339,155.0558 247.1226,155.0777 247.3038,155.1193 Z" />
			<path style="fill:#585d5e;" d="M 232.597,139.827 C 232.597,139.827 231.797,181.813 232.437,198.906 233.076,216.718 239.295,275.038 239.295,275.038 L 248.812,275.038 C 248.812,275.038 249.155,217.755 249.612,200.263 250.075,181.198 252.374,139.795 252.374,139.795 L 232.597,139.827 Z" />
			<path style="fill:#263238;" d="M 237.467,271.286 C 237.419,271.286 238.002,275.23 238.002,275.23 L 249.57,275.23 249.889,271.709 237.467,271.286 Z" />
			<path style="fill:#8cadfd;" d="M 242.904,98.471 C 245.594,105.728 229.779,114.279 229.779,114.279 L 222.929,105.497 C 222.929,105.497 227.536,96.38 233.129,92.276 240.03,87.214 240.852,92.947 242.904,98.471 Z" />
			<path style="fill:#d19655;" d="M 242.904,98.471 C 245.594,105.728 229.779,114.279 229.779,114.279 L 222.929,105.497 C 222.929,105.497 227.536,96.38 233.129,92.276 240.03,87.214 240.852,92.947 242.904,98.471 Z" />
		</g>
		<g>
			<path style="fill:#85dae9;" d="M 333.685,25.012 C 333.685,35.1513 320.7823,43.374 304.872,43.374 288.9617,43.374 276.059,35.1513 276.059,25.012 276.059,14.8727 288.9617,6.65 304.872,6.65 320.7823,6.65 333.685,14.8727 333.685,25.012 Z" />
			<path style="fill:#ffffff;" d="M 294.478,34.258 C 290.5162,34.245 287.2266,31.378 286.5572,27.6065 286.4871,27.1772 286.4511,26.7385 286.4511,26.2915 286.4511,22.4621 289.0907,19.248 292.6492,18.3697 L 292.705,18.358 C 293.2468,18.2278 293.8686,18.1531 294.5077,18.1531 297.3818,18.1531 299.9038,19.6634 301.3231,21.9336 L 319.843,18.151 C 320.0289,18.1085 320.2422,18.0841 320.4613,18.0841 321.7593,18.0841 322.8577,18.9403 323.2225,20.1186 323.2868,20.3527 323.3206,20.598 323.3206,20.8512 323.3206,22.1908 322.3745,23.31 321.1141,23.5768 L 320.617,23.68 C 320.4702,23.707 320.3493,23.799 320.2832,23.9244 320.2535,23.9879 320.2369,24.0593 320.2369,24.1345 320.2369,24.2097 320.2535,24.2811 320.2833,24.3451 L 320.609,25.188 C 320.6665,25.3277 320.6999,25.4897 320.6999,25.6596 320.6999,26.1067 320.4685,26.4999 320.1189,26.726 319.725,26.9722 319.4566,27.3776 319.4036,27.8481 319.3532,28.3999 318.9609,28.8408 318.4455,28.9633 L 318.062,29.045 C 317.994,29.0582 317.9158,29.0657 317.8358,29.0657 317.3626,29.0657 316.9509,28.8015 316.7403,28.4125 316.4604,27.9478 315.9651,27.6461 315.3995,27.6461 314.6092,27.6461 313.9562,28.2352 313.8558,28.9981 313.807,29.5468 313.4173,29.9846 312.9053,30.1043 L 312.522,30.186 C 312.4554,30.1985 312.3789,30.2057 312.3007,30.2057 311.8263,30.2057 311.4133,29.9421 311.2003,29.5535 310.9561,29.1542 310.5601,28.8765 310.0964,28.7983 309.4566,28.7193 308.9727,28.1886 308.969,27.5444 L 308.969,26.632 C 308.9535,26.3684 308.7359,26.1605 308.4698,26.1605 308.4374,26.1605 308.4056,26.1636 308.3749,26.1695 L 302.478,27.383 C 301.9689,30.7444 299.4378,33.3966 296.1831,34.0798 295.6342,34.1957 295.0635,34.2572 294.4786,34.258 Z M 292.878,19.089 C 289.5983,19.8745 287.1971,22.7821 287.1971,26.2493 287.1971,26.6584 287.2306,27.0596 287.2948,27.4504 287.9322,30.8206 290.8904,33.3685 294.4426,33.3685 298.1424,33.3685 301.1978,30.6044 301.6562,27.0291 L 301.66,26.706 308.167,25.389 C 308.2594,25.3654 308.3655,25.3519 308.4747,25.3519 309.1739,25.3519 309.7437,25.9073 309.7669,26.6009 L 309.767,27.513 C 309.7708,27.7388 309.933,27.9256 310.147,27.9675 310.8742,28.0745 311.4808,28.5022 311.829,29.0991 311.9123,29.2643 312.0692,29.3684 312.2503,29.3684 312.2699,29.3684 312.2893,29.3671 312.3083,29.3648 L 312.673,29.285 C 312.8616,29.2352 312.9998,29.0698 313.008,28.8709 313.1323,27.6755 314.134,26.7518 315.3511,26.7518 316.224,26.7518 316.9861,27.2269 317.3929,27.9327 317.4742,28.0979 317.6295,28.2021 317.8092,28.2021 317.8278,28.2021 317.8461,28.201 317.8642,28.1988 L 318.245,28.119 C 318.4302,28.0663 318.5648,27.9018 318.572,27.7048 318.6567,26.975 319.0693,26.3569 319.6562,25.9938 319.7892,25.8985 319.8684,25.7549 319.8684,25.5928 319.8684,25.5281 319.8558,25.4663 319.8328,25.4098 L 319.507,24.567 C 319.4519,24.4291 319.42,24.2694 319.42,24.1022 319.42,23.4833 319.8579,22.9664 320.4407,22.8445 L 320.936,22.743 C 321.8489,22.5453 322.523,21.7443 322.523,20.7861 322.523,20.6106 322.5004,20.4404 322.4579,20.2781 322.1891,19.4356 321.401,18.8256 320.4706,18.8256 320.3045,18.8256 320.1428,18.8451 319.9879,18.8818 L 300.985,22.831 300.841,22.584 C 299.5854,20.3801 297.2514,18.9177 294.5766,18.9177 293.9893,18.9177 293.4185,18.9882 292.8721,19.1211 L 292.878,19.089 Z M 294.478,31.289 C 291.863,31.1688 289.7876,29.0187 289.7876,26.3849 289.7876,23.6742 291.9859,21.4759 294.6966,21.4759 297.4073,21.4759 299.6056,23.6742 299.6056,26.3849 299.6056,28.8062 297.8516,30.8186 295.5452,31.2208 L 295.516,31.225 C 295.2433,31.2768 294.9297,31.3065 294.6092,31.3065 294.5659,31.3065 294.5227,31.306 294.4796,31.3049 L 294.478,31.289 Z M 294.478,21.86 C 294.1635,21.8619 293.8576,21.8939 293.5615,21.9531 291.6185,22.3784 290.1619,24.1112 290.1619,26.1835 290.1619,28.5745 292.101,30.5136 294.492,30.5136 294.8107,30.5136 295.1214,30.4791 295.4205,30.4137 L 295.392,30.419 C 297.3689,29.9964 298.8305,28.2639 298.8305,26.1907 298.8305,24.6921 298.0668,23.3716 296.9075,22.597 296.2305,22.1415 295.4159,21.8759 294.5394,21.8759 294.5273,21.8759 294.5152,21.8759 294.5032,21.876 L 294.478,21.86 Z" />
			<path style="fill-opacity:0.6;fill:#85dae9;" d="M 290.894,48.11 C 290.894,51.443 286.6537,54.146 281.425,54.146 276.1963,54.146 271.956,51.443 271.956,48.11 271.956,44.777 276.1963,42.074 281.425,42.074 286.6537,42.074 290.894,44.777 290.894,48.11 Z" />
			<path style="fill-opacity:0.3;fill:#85dae9;" d="M 270.247,54.145 C 270.247,55.5117 268.5059,56.62 266.359,56.62 264.2121,56.62 262.471,55.5117 262.471,54.145 262.471,52.7783 264.2121,51.67 266.359,51.67 268.5059,51.67 270.247,52.7783 270.247,54.145 Z" />
		</g>
	</g>
</g>
</svg>