<svg xmlns="http://www.w3.org/2000/svg" width="440.495" height="969.796" viewBox="0 0 440.495 969.796">
  <g id="Group_2487" data-name="Group 2487" transform="translate(3 21.898)">
    <g id="Group_2486" data-name="Group 2486" transform="translate(-113.8 -279.898)">
      <path id="Path_9213" data-name="Path 9213" d="M1553.9,330.325v831.48a61.144,61.144,0,0,1-61.145,61.145H1174.6a61.164,61.164,0,0,1-61.169-61.145V330.325A61.149,61.149,0,0,1,1174.6,269.18H1492.76A61.128,61.128,0,0,1,1553.9,330.325Z" transform="translate(-1002.635 -11.18)" fill="#bdebf8"/>
      <g id="Group_2485" data-name="Group 2485" transform="translate(110.799 274.025)">
        <path id="Path_9161" data-name="Path 9161" d="M-243.691,334.467v-25.2l-39.842-1.01V217.78h-7.213v90.287l-37.581-.938-99.52-99.52.12-49.652a11.886,11.886,0,0,0-.577-3.679,11.515,11.515,0,0,0-10.916-7.911,11.378,11.378,0,0,0-8.151,3.366,11.346,11.346,0,0,0-3.39,8.127L-451.1,304l-29.286-.769-3.943-171.2h231.356a61.667,61.667,0,0,0-5.29-7.213h-226.21l-.505-21.568h-25.2l1.178,50.3H-613.735l.288-50.3h-9.57c-1.226,0-2.453.048-3.679.12l-1.01.072c-.914.072-1.827.168-2.741.264-.312.048-.649.1-.962.12-1.058.168-2.116.337-3.174.529l-.361.072c-1.226.24-2.476.529-3.7.842l-.313,56.6L-684.185,207.1v10.219l45.179-45.18-.721,127.051-44.458-1.13v25.175l44.314,1.13-.529,89.782h-43.785v7.213h43.761l-.505,85.863h-43.256v7.213h43.232l-.625,107.046-42.607-42.631v10.219l42.559,42.559-.24,44.434-36.812-2.693-5.506-60.929v85.767l42.15,3.078-.529,95.673-41.621,5.338v25.391l46.141-5.915V879.17L-684.185,884v7.261l46.141-4.833v52.657l-46.141,4.905v25.319l60.64-6.42-7.5,93.581c1.226.168,2.453.289,3.7.385.144,0,.289.024.433.024q1.948.144,3.9.144h15.028l3.03-37.654,96.538-10.988,2.717,48.642h7.237l-2.765-49.46,50.734-5.771,6.276,55.23h23.035c0-.505.024-1.034-.024-1.563l-12.816-112.72,19.284-2.044,6.107,58.692a11.341,11.341,0,0,0,.505,2.38,11.524,11.524,0,0,0,10.772,7.911l41.765.577,4.352,46.766h23.131l-5.506-59.173a12.451,12.451,0,0,0-.529-2.6,11.493,11.493,0,0,0-10.772-7.886l-41.885-.577-5.049-48.522,46.237-4.905,57.009,58.4-18.755,65.257h2.5c1.707,0,3.39-.1,5.073-.216l38.014-132.365,9.089-.962,5.915,91.561a61.31,61.31,0,0,0,2.26-9.209c0-.048.024-.12.024-.168.24-1.467.409-2.958.553-4.448.024-.289.048-.553.048-.842.12-1.491.192-2.982.192-4.5V877.246l-6.732,20.678-84.011,8.92-.072-54.581,77.688-1.058,13.128,20.245v-46.31l-13.561-20.919,13.561-93.918V534.541l-36.572-2.356,1.731-89.012h34.84v-7.213h-34.7l1.274-65.112h33.422v-7.213h-33.278l.577-30.007Zm-55.735-1.419-1.323,67.276h-79.635l-1.8-69.392ZM-445.063,781.6a11.586,11.586,0,0,0,11.325,7.886l73.961-2.38.048,36.283-107.142,67.781-4.52-196.419h68.31l1.972,70.643-33.4,1.082a11.514,11.514,0,0,0-11.133,11.854A12.617,12.617,0,0,0-445.063,781.6Zm49.195-86.849h35.97l.1,69.3-34.119,1.106Zm36.163,137.173.1,77.591L-466.2,920.839l-.481-21.255Zm-.192-144.387H-471.56L-472.233,650l112.744.721Zm-47.656-56.985-1.395-81.438,48.882,3.15.1,78.6ZM-387.4,407.538l1.9,71.773h-39.89l-.89-71.773Zm-38.952-7.213-.866-70.546,37.8.962,1.827,69.585Zm41.044,86.2,1.01,38.952-40.563-2.621-.433-36.331ZM-427.871,217.78l89.061,89.085-89.253-2.284Zm-22.025,317a12.277,12.277,0,0,0,.625,3.847,12.545,12.545,0,0,0,11.157,8.584l21.952,1.419,1.395,81.871-58.091-.361-5.121-222.6h26.521Zm-2.525-205.628.866,71.172h-26.593l-1.659-71.869Zm-38.9,594.354-27,2.885c-.385-14.811-.962-38.9-1.635-67.3h27.17Zm-1.635-71.628h-27.17c-.6-25.271-1.25-53.475-1.9-81.342h27.194Zm-8.151-354.03-51.888.673-2.573-21.039h54Zm-.625-27.579h-54.725l-2.236-18.226,13.2-25.752h42.751Zm-58.524-30.993-7.382-60.183h38.255Zm57.346-20.2h-38.88l20.51-39.986h17.456ZM-504,371.88h-64.535l-5.626-45.829,69.152,1.755ZM-613.783,160.77h104.93l3.27,141.838-108.969-2.789Zm-.913,164.248,33.253.842,5.651,46.021h-39.169Zm-.313,54.076H-574.9l8.776,71.628-.12.24.144.072,2.38,19.236h-51.816Zm-.553,98.39h52.706l2.6,21.135-55.446.721Zm-.265,44.891,115.269-1.491.841,36.62h-116.3Zm-.24,42.342h116.519L-495,763.324H-522.2c-1.731-74.706-3.318-144.772-3.366-146.094a11.055,11.055,0,0,0-.577-3.318,11.417,11.417,0,0,0-11.2-7.911,11.532,11.532,0,0,0-11.229,11.782s.938,42.1,2.116,92.427L-616.5,640.168Zm73.287,304.451-49.772,5.218V815.933l48.377-6.2C-543.669,830.72-543.213,850.99-542.78,869.167Zm-73.768-218.852,70.33,70.33c.481,21.039.986,43.088,1.467,63.79h-.072l-72.085-72.085Zm-.409,72.181,63.093,63.093-63.5,8.151Zm-13.874,98.342,31.065-3.967v58.284L-630.83,878.4Zm0,64.824,88.219-9.257c.529,22.145.986,40.611,1.3,52.417l-89.517,9.522Zm26.449,126.378,4.136-51.647,88.628-9.4,2.789,50.181Zm102.742-11.686-2.789-50.133,47.488-5.049,5.626,49.459Zm215.318-16.567-50.157-51.407,66.964-7.117Zm-48.185-138.736-.168-131.138,25.8,3.246,1.827,127.508Zm25.559-151.119-25.752-3.246-.1-57.8,28.589,1.3Zm3.078-66.964-28.926-1.323-.048-40.491,30.825,1.13Zm2.188-47.9-31.186-1.13-.024-24.044,32.268,2.068Zm.409-48.377-42.775-2.765,44.025-61.722Zm-51.239-3.294-22.554-1.467-3.126-118.395h79.323l-.914,45.9Zm54.677,317.17-1.8-126.5,30.825,3.871-12.022,83.338a12.375,12.375,0,0,0,.505,5.771,13.2,13.2,0,0,0,1.37,2.885l19.524,30.1Zm32.316-145.445-34.239-4.3,2.765-60.3,40.539,1.852Zm10.1-69.921-41.236-1.9,1.851-40.779,45.3,1.635Zm10.051-69.657-3.1,21.448-46-1.659,1.034-22.89Z" transform="translate(684.186 -103.255)" fill="#fff"/>
        <path id="Path_9162" data-name="Path 9162" d="M-555.113,133.156h130.148v-.618a61.613,61.613,0,0,0-.356-6.6H-555.113Z" transform="translate(865.46 -71.393)" fill="#fff"/>
        <rect id="Rectangle_1311" data-name="Rectangle 1311" width="4.809" height="92.014" transform="translate(243.309 538.434) rotate(-89.338)" fill="#ffbe9d"/>
        <path id="Path_9163" data-name="Path 9163" d="M-553.069,413.427l-48.338-.561-2.9-146.986,4.809-.094,2.8,142.327,43.679.5Z" transform="translate(796.378 125.009)" fill="#ffbe9d"/>
        <rect id="Rectangle_1312" data-name="Rectangle 1312" width="4.81" height="110.12" transform="translate(189.907 280.792) rotate(-1.129)" fill="#ffbe9d"/>
        <path id="Path_9164" data-name="Path 9164" d="M-657.24,456.779l-4.809-.024,1.3-267.283,138.777,1.652,1.414,71.741-4.809.094-1.32-67.083-129.277-1.539Z" transform="translate(715.275 17.831)" fill="#ffbe9d"/>
        <rect id="Rectangle_1313" data-name="Rectangle 1313" width="95.749" height="4.809" transform="translate(52.759 570.339) rotate(-89.719)" fill="#ffbe9d"/>
        <rect id="Rectangle_1314" data-name="Rectangle 1314" width="132.422" height="4.809" transform="matrix(0.005, -1, 1, 0.005, 52.12, 702.753)" fill="#ffbe9d"/>
        <path id="Path_9165" data-name="Path 9165" d="M-530.4,393.667l-4.04.577-149.749,21.4v-4.857l52.128-7.454,4.809-.7,92.763-13.248,3.414-.481Z" transform="translate(684.185 297.924)" fill="#ffbe9d"/>
        <rect id="Rectangle_1315" data-name="Rectangle 1315" width="4.809" height="125.512" transform="matrix(1, -0.008, 0.008, 1, 335.624, 694.816)" fill="#ffbe9d"/>
        <rect id="Rectangle_1316" data-name="Rectangle 1316" width="4.809" height="227.646" transform="translate(333.736 467.183) rotate(-0.475)" fill="#ffbe9d"/>
        <path id="Path_9166" data-name="Path 9166" d="M-389.852,318.093l-.1,4.761L-394.2,546.443l-58.428-5.314.24,29.262-4.809.048-.24-29.695-.048-4.785v-.1l2.573.241,56,5.1,4.16-218.42-146.984-4.136-4.809-.144-51-1.419-4.785-.144-.072-2.284-.072-2.5-5.7-208.9h4.809l.625,22.241.12,4.809,4.977,181.9v.048l206.085,5.795Z" transform="translate(790.937 -103.256)" fill="#ffbe9d"/>
        <rect id="Rectangle_1317" data-name="Rectangle 1317" width="4.811" height="297.705" transform="translate(194.924 535.569) rotate(-1.689)" fill="#ffbe9d"/>
        <path id="Path_9167" data-name="Path 9167" d="M-565.486,574.164h-4.857l-14.763-122.049-.529-4.472,4.785-.577.553,4.568Z" transform="translate(822.593 379.606)" fill="#ffbe9d"/>
        <rect id="Rectangle_1318" data-name="Rectangle 1318" width="137.76" height="4.809" transform="translate(56.091 405.72) rotate(-0.67)" fill="#ffbe9d"/>
        <path id="Path_9168" data-name="Path 9168" d="M-624.868,103.276v212.1h-59.318v-4.809h54.509V103.588Z" transform="translate(684.185 -103.228)" fill="#ffbe9d"/>
        <rect id="Rectangle_1319" data-name="Rectangle 1319" width="41.861" height="4.809" transform="translate(398.633 214.792)" fill="#ffbe9d"/>
        <path id="Path_9169" data-name="Path 9169" d="M-440.9,366.347v4.881L-541.77,355.6l-2-.313.745-4.761,1.226.192Z" transform="translate(881.397 244.021)" fill="#ffbe9d"/>
        <path id="Path_9170" data-name="Path 9170" d="M-243.691,438.566V443.4l-198.2,20.173-4.809.481L-607.267,480.4l-4.857.481-72.061,7.285v-4.833l151.817-15.388,4.809-.5,47.007-4.785,4.785-.481,128.229-13.056,4.809-.481Z" transform="translate(684.185 367.668)" fill="#ffbe9d"/>
        <path id="Path_9171" data-name="Path 9171" d="M-643.833,455.159l-.216,2.549-9.137,105.7H-658l9.089-105.218.288-3.462Z" transform="translate(720.968 390.364)" fill="#ffbe9d"/>
        <rect id="Rectangle_1320" data-name="Rectangle 1320" width="4.809" height="204.786" transform="matrix(1, -0.014, 0.014, 1, 148.918, 632.601)" fill="#ffbe9d"/>
        <path id="Path_9172" data-name="Path 9172" d="M-491.2,416.066l-90.538-5.453-.805-218.455,4.809-.019.786,213.944,86.039,5.184Z" transform="translate(826.933 21.577)" fill="#ffbe9d"/>
        <path id="Path_9173" data-name="Path 9173" d="M-363.274,117.315H-606.435v-4.809H-366.88A58.3,58.3,0,0,1-363.274,117.315Z" transform="translate(793.381 -90.264)" fill="#ffbe9d"/>
        <circle id="Ellipse_449" data-name="Ellipse 449" cx="6.289" cy="6.289" r="6.289" transform="translate(136.931 492.815)" fill="#fff"/>
        <g id="Group_2484" data-name="Group 2484" transform="translate(41.124 373.707)">
          <path id="Path_9201" data-name="Path 9201" d="M-638.966,232.734c0,17.677-20.058,29.406-20.058,29.406a56.3,56.3,0,0,1-12.708-11.282c-3.979-4.876-7.35-11.087-7.35-18.125a20.056,20.056,0,0,1,20.058-20.056,20.063,20.063,0,0,1,19.615,15.857A20.134,20.134,0,0,1-638.966,232.734Z" transform="translate(679.082 -212.679)" fill="#ff970b"/>
          <circle id="Ellipse_458" data-name="Ellipse 458" cx="6.289" cy="6.289" r="6.289" transform="translate(13.768 10.324)" fill="#fff"/>
        </g>
        <text id="Bus_Stop" data-name="Bus Stop" transform="translate(333.216 315.255)" font-size="8" font-family="SegoeUI, Segoe UI"><tspan x="0" y="0">Bus Stop</tspan></text>
        <text id="Restaurant" transform="translate(127.387 547.143)" font-size="8" font-family="SegoeUI, Segoe UI"><tspan x="0" y="0">Restaurant</tspan></text>
        <text id="School" transform="translate(365.659 753.502)" font-size="8" font-family="SegoeUI, Segoe UI"><tspan x="0" y="0">School</tspan></text>
        <text id="Coffee" transform="translate(85.902 711.49)" font-size="8" font-family="SegoeUI, Segoe UI"><tspan x="0" y="0">Coffee</tspan></text>
        <text id="Coffee-2" data-name="Coffee" transform="translate(17.293 325.361)" font-size="8" font-family="SegoeUI, Segoe UI"><tspan x="0" y="0">Coffee</tspan></text>
        <path id="Path_9211" data-name="Path 9211" d="M-243.691,164.4V995.882a61.164,61.164,0,0,1-61.169,61.145H-623.016a61.164,61.164,0,0,1-61.169-61.145V164.4a61.153,61.153,0,0,1,54.509-60.784l4.809-.313c.625-.048,1.226-.048,1.851-.048H-304.86a61.056,61.056,0,0,1,40.9,15.677,59.931,59.931,0,0,1,6.276,6.564,58.3,58.3,0,0,1,3.607,4.809A60.791,60.791,0,0,1-243.691,164.4Z" transform="translate(684.186 -103.255)" fill="none"/>
        <path id="Path_9212" data-name="Path 9212" d="M1140.925,147.058V34.3l-10.565,6.53v0l-75.427-2.715-60.88,76.646v77.23l-130.146-2.771.221-168.388-7.209.221V196.779l144.346,2.076V118.78l57.456-74.532,75.086,2.926-.145,93.467-53.76.06,2.445,102.124,7.185-.62-1.839-95.147ZM1130.211,25.045,1133.8,46.4v0Z" transform="translate(-800.04 398.823)" fill="#ff970b"/>
        <g id="Group_2468" data-name="Group 2468" transform="translate(273.778 640.1)">
          <path id="Path_9189" data-name="Path 9189" d="M-495.444,325.478c0,10.582-12.008,17.6-12.008,17.6a33.655,33.655,0,0,1-7.605-6.754c-2.383-2.919-4.4-6.636-4.4-10.849a12.006,12.006,0,0,1,12.005-12.008,12.012,12.012,0,0,1,11.743,9.493A12.048,12.048,0,0,1-495.444,325.478Z" transform="translate(519.457 -313.47)" fill="#ff725e"/>
          <circle id="Ellipse_454" data-name="Ellipse 454" cx="3.765" cy="3.765" r="3.765" transform="translate(8.24 6.182)" fill="#fff"/>
        </g>
      </g>
    </g>
  </g>
</svg>
