<?xml version="1.0" encoding="UTF-8" standalone="no"?>
<svg
   width="222.0015"
   height="328.32712"
   viewBox="0 0 222.0015 328.32713"
   version="1.1"
   id="svg222"
   sodipodi:docname="b2a7d1c0c14892863d03901c2a76cde2.svg"
   xmlns:inkscape="http://www.inkscape.org/namespaces/inkscape"
   xmlns:sodipodi="http://sodipodi.sourceforge.net/DTD/sodipodi-0.dtd"
   xmlns="http://www.w3.org/2000/svg"
   xmlns:svg="http://www.w3.org/2000/svg">
  <defs
     id="defs226" />
  <sodipodi:namedview
     id="namedview224"
     pagecolor="#ffffff"
     bordercolor="#666666"
     borderopacity="1.0"
     inkscape:pageshadow="2"
     inkscape:pageopacity="0.0"
     inkscape:pagecheckerboard="0" />
  <g
     id="Group_2390"
     data-name="Group 2390"
     transform="translate(5445.6875,-15528.403)">
    <g
       id="Group_2257"
       data-name="Group 2257"
       transform="translate(-5411.941,15845.774)">
      <path
         id="Path_8781"
         data-name="Path 8781"
         d="m 198.464,454.815 c -2.254,-2.685 -6.011,-3.765 -9.5,-3.479 -3.489,0.286 -6.287,1.846 -9.348,3.554 -2.666,1.487 -3.583,3.909 -6.775,5.016 l -2.671,0.781 a 16.1,16.1 0 0 0 2.065,0.914 c 7.233,0.987 14.574,0.64 21.867,0.29 2.006,-0.1 4.359,-0.395 5.339,-2.148 0.865,-1.555 0.169,-3.563 -0.977,-4.928 z"
         transform="translate(-170.165,-451.291)"
         fill="#172f35" />
    </g>
    <circle
       id="Ellipse_422"
       data-name="Ellipse 422"
       cx="37.129002"
       cy="37.129002"
       r="37.129002"
       transform="rotate(-76.994,7139.1097,11145.778)"
       fill="#984438" />
    <g
       id="Group_2259"
       data-name="Group 2259"
       transform="translate(-5323.611,15524.809)">
      <circle
         id="Ellipse_423"
         data-name="Ellipse 423"
         cx="33.741001"
         cy="33.741001"
         r="33.741001"
         transform="rotate(-76.412,41.667938,32.7965)"
         fill="#f8f4d9" />
    </g>
    <g
       id="Group_2260"
       data-name="Group 2260"
       transform="translate(-5316.602,15533.507)">
      <path
         id="Path_8782"
         data-name="Path 8782"
         d="m 360.761,84.929 a 33.719,33.719 0 0 0 1.114,-3.909 h -3.3 V 57.588 a 33.814,33.814 0 0 0 -3.909,-5.682 V 81.02 H 308.347 V 66.167 h 40.26 v -19.85 a 33.753,33.753 0 0 0 -3.909,-2.428 v 18.37 H 318.315 V 41.695 a 33.458,33.458 0 0 0 -3.909,1.567 v 19 h -9.967 v 12.504 h -9.219 a 33.989,33.989 0 0 0 0.339,3.908 h 8.88 V 96.91 a 33.9,33.9 0 0 0 3.909,3.534 V 84.929 Z"
         transform="translate(-295.22,-41.695)"
         fill="#ffc088" />
    </g>
    <g
       id="Group_2261"
       data-name="Group 2261"
       transform="translate(-5297.248,15561.961)">
      <path
         id="Path_8783"
         data-name="Path 8783"
         d="M 349.509,94.312 335.057,79.017 320.606,94.312 h 4.417 v 14.933 h 20.07 V 94.312 Z"
         transform="translate(-320.606,-79.017)"
         fill="#50818b" />
    </g>
    <g
       id="Group_2262"
       data-name="Group 2262"
       transform="translate(-5289.819,15538.263)">
      <path
         id="Path_8784"
         data-name="Path 8784"
         d="m 344.135,54.825 c 0,3.807 -6.892,10.413 -6.892,10.413 0,0 -6.893,-6.607 -6.893,-10.413 a 6.8925,6.8925 0 0 1 13.785,0 z"
         transform="translate(-330.35,-47.933)"
         fill="#ff725e" />
    </g>
    <g
       id="Group_2265"
       data-name="Group 2265"
       transform="translate(-5286.146,15541.627)">
      <path
         id="Path_8785"
         data-name="Path 8785"
         d="m 338.426,58.861 a 3.257,3.257 0 1 0 -3.258,-3.257 3.257,3.257 0 0 0 3.258,3.257 z"
         transform="translate(-335.168,-52.346)"
         fill="#ffc088" />
    </g>
    <g
       id="Group_2267"
       data-name="Group 2267"
       transform="translate(-5427.017,15607.834)">
      <path
         id="Path_8786"
         data-name="Path 8786"
         d="m 205.326,144.369 c 0.832,-0.563 1.667,-1.413 1.532,-2.408 -0.169,-1.249 -1.672,-1.763 -2.915,-1.97 a 74.134,74.134 0 0 0 -25.554,0.721 221.918,221.918 0 0 0 -24.816,6.6 c -1.407,0.433 -3.08,1.182 -3.178,2.651 a 2.459,2.459 0 0 0 1.288,2.148 6.424,6.424 0 0 0 2.516,0.717 64.651,64.651 0 0 0 15.754,-0.323 201.965,201.965 0 0 0 28.334,-5.35 22.665,22.665 0 0 0 7.039,-2.786 z"
         transform="translate(-150.39,-139.189)"
         fill="#172f35" />
    </g>
    <g
       id="Group_2280"
       data-name="Group 2280"
       transform="translate(-5331.846,15601.21)">
      <g
         id="Group_2273"
         data-name="Group 2273"
         transform="translate(0,18.637)">
        <g
           id="Group_2272"
           data-name="Group 2272">
          <g
             id="Group_2268"
             data-name="Group 2268">
            <path
               id="Path_8787"
               data-name="Path 8787"
               d="m 316.572,191.228 c -0.428,-6.99 -1.34,-14.05 -0.167,-20.953 L 303.4,168.853 q -1.443,6.856 -3.436,13.58 c -0.32,-0.656 -0.633,-1.317 -0.922,-1.988 -1.77,-4.108 -2.89,-8.465 -4.49,-12.643 -1.6,-4.178 -3.762,-8.276 -7.167,-11.177 -1.25,-1.066 -2.876,-1.994 -4.464,-1.575 a 5.041,5.041 0 0 0 -2.471,1.853 22.335,22.335 0 0 0 -3.836,7.89 27.3,27.3 0 0 0 -0.812,13.939 c 2.11,8.844 9.853,15.069 14.443,22.918 1.253,2.145 2.509,3.737 3.688,5.923 2.084,4.039 1.869,4.846 3,6.645 2.148,3.428 7.384,4.384 11.335,3.518 3.6,-0.79 4,-2.585 5.6,-5.91 3.016,-6.316 3.132,-13.608 2.704,-20.598 z"
               transform="translate(-275.224,-154.946)"
               fill="#ff970b" />
          </g>
          <g
             id="Group_2269"
             data-name="Group 2269"
             transform="translate(12.686,16.666)">
            <path
               id="Path_8788"
               data-name="Path 8788"
               d="m 310.506,177.308 a 0.391,0.391 0 0 0 -0.75,-0.22 131.187,131.187 0 0 0 -5.167,32.081 18.041,18.041 0 0 0 0.748,7.012 c 0.1,0.262 0.21,0.525 0.322,0.787 a 5.48,5.48 0 0 1 0.635,2.43 1.84,1.84 0 0 1 -0.929,1.42 0.982,0.982 0 0 1 -0.518,0.122 4.457,4.457 0 0 0 0.443,-1.633 2.066,2.066 0 0 0 -1.121,-2.007 2.719,2.719 0 0 0 -0.781,-0.172 3.238,3.238 0 0 1 -0.422,-0.066 c -1.128,-0.287 -1.519,-1.811 -1.795,-3.216 -1.1,-5.6 -3.977,-10.564 -6.757,-15.361 l -2.342,-4.041 a 9.227,9.227 0 0 1 -0.131,1.011 0.573,0.573 0 0 1 -0.076,0.19 l 1.873,3.232 c 2.748,4.742 5.59,9.644 6.667,15.12 0.249,1.268 0.666,3.39 2.369,3.823 a 3.871,3.871 0 0 0 0.525,0.085 2.105,2.105 0 0 1 0.564,0.114 1.306,1.306 0 0 1 0.644,1.258 4.663,4.663 0 0 1 -0.549,1.724 0.391,0.391 0 0 0 0.152,0.5 1.521,1.521 0 0 0 0.794,0.224 1.779,1.779 0 0 0 0.823,-0.214 2.631,2.631 0 0 0 1.347,-2.063 6.133,6.133 0 0 0 -0.7,-2.785 c -0.107,-0.252 -0.214,-0.5 -0.31,-0.757 a 17.372,17.372 0 0 1 -0.7,-6.708 130.371,130.371 0 0 1 5.142,-31.89 z"
               transform="translate(-291.864,-176.806)"
               fill="#e8e8e8" />
          </g>
          <g
             id="Group_2270"
             data-name="Group 2270"
             transform="translate(9.774,10.641)">
            <path
               id="Path_8789"
               data-name="Path 8789"
               d="M 288.045,202.472 A 131.251,131.251 0 0 0 290.27,168.9 c 1.6,4.439 3.2,8.938 3.642,13.635 a 28.391,28.391 0 0 1 -5.867,19.937 z"
               transform="translate(-288.045,-168.903)"
               fill="#172f35" />
          </g>
          <g
             id="Group_2271"
             data-name="Group 2271"
             transform="translate(27.878,9.391)">
            <path
               id="Path_8790"
               data-name="Path 8790"
               d="m 312.925,176.934 a 8.147,8.147 0 0 0 4.15,1.4 10.838,10.838 0 0 0 5.286,-1.249 4.184,4.184 0 0 0 2.332,-2.209 4.75,4.75 0 0 0 -0.02,-2.243 q -0.294,-1.732 -0.589,-3.464 a 2.309,2.309 0 0 0 -0.394,-1.108 2.186,2.186 0 0 0 -1.444,-0.61 19.349,19.349 0 0 0 -6.47,0.192 c -1.349,0.271 -2.815,0.807 -3.406,2.049 a 5.03,5.03 0 0 0 -0.36,1.856 l -0.2,3.079 a 2.922,2.922 0 0 0 0.074,1.134 2.5,2.5 0 0 0 1.041,1.173 z"
               transform="translate(-311.792,-167.263)"
               fill="#172f35" />
          </g>
        </g>
      </g>
      <g
         id="Group_2279"
         data-name="Group 2279"
         transform="translate(19.274)">
        <g
           id="Group_2274"
           data-name="Group 2274"
           transform="translate(13.282,7.181)">
          <path
             id="Path_8791"
             data-name="Path 8791"
             d="m 318.737,148.261 a 0.888,0.888 0 0 0 0.627,-0.059 l 4.008,-1.415 a 37.048,37.048 0 0 0 -5.445,-6.868 q 0.215,3.75 0.429,7.5 c 0.019,0.325 0.081,0.716 0.381,0.842 z"
             transform="translate(-317.927,-139.919)"
             fill="#ffc088" />
        </g>
        <g
           id="Group_2277"
           data-name="Group 2277">
          <g
             id="Group_2275"
             data-name="Group 2275">
            <rect
               id="Rectangle_1220"
               data-name="Rectangle 1220"
               width="13.981"
               height="25.649"
               rx="1.615"
               fill="#a6bebd"
               x="0"
               y="0" />
          </g>
          <g
             id="Group_2276"
             data-name="Group 2276"
             transform="translate(0.851,8.238)">
            <path
               id="Path_8792"
               data-name="Path 8792"
               d="m 302.054,157.037 c 0.322,0.614 1.141,0.72 1.834,0.733 a 75.179,75.179 0 0 0 7.953,-0.431 1.5,1.5 0 0 0 0.826,-0.243 1.47,1.47 0 0 0 0.413,-0.859 41.77,41.77 0 0 0 0.758,-13.888 l -10.593,-1.019 a 1.216,1.216 0 0 0 -1.622,1.483 q 0.136,6.662 0.273,13.326 a 2,2 0 0 0 0.158,0.898 z"
               transform="translate(-301.621,-141.305)"
               fill="#172f35" />
          </g>
        </g>
        <g
           id="Group_2278"
           data-name="Group 2278"
           transform="translate(0.753,8.999)">
          <path
             id="Path_8793"
             data-name="Path 8793"
             d="m 320.551,161.544 c -0.036,-3.589 -0.1,-9.694 -0.13,-13.021 -0.017,-1.722 -1.346,-2.5 -2.847,-2.894 -1.338,-0.348 -15.614,-3.3 -15.609,-3.326 a 2.705,2.705 0 0 0 0.62,2.059 8.024,8.024 0 0 0 1.65,1.464 9.877,9.877 0 0 0 -1.88,1.6 3.32,3.32 0 0 0 -0.856,2.263 2.025,2.025 0 0 0 1.394,1.852 4.2,4.2 0 0 0 -1.063,2.115 c -0.063,0.8 0.539,1.7 1.337,1.633 a 10.478,10.478 0 0 0 -0.457,2.965 6.661,6.661 0 0 1 3.777,4.828 1.421,1.421 0 0 0 1.164,-0.788 c 0.018,-0.032 0.027,-0.067 0.043,-0.1 a 22.459,22.459 0 0 1 3.447,3.467 16.679,16.679 0 0 0 9.384,-1.2 c 0.041,-0.967 0.036,-1.949 0.026,-2.917 z"
             transform="translate(-301.494,-142.304)"
             fill="#ffc088" />
        </g>
      </g>
    </g>
    <g
       id="Group_2281"
       data-name="Group 2281"
       transform="translate(-5445.688,15608.605)">
      <path
         id="Path_8794"
         data-name="Path 8794"
         d="m 133.258,155.143 c -4.958,5.4 -6.762,13 -7.217,20.321 -0.665,10.666 1.134,21.337 3.563,31.743 1.787,7.655 3.945,15.3 7.625,22.244 3.68,6.944 9,13.208 15.938,16.907 10.548,5.624 23.362,4.7 35.034,2.123 11.672,-2.577 23.157,-6.66 35.108,-6.916 4.047,-0.086 8.8,-0.047 11.208,-3.3 1.64,-2.219 1.545,-5.227 1.365,-7.979 q -0.956,-14.658 -2.418,-29.277 c -0.957,-9.572 -2.09,-19.191 -4.918,-28.386 -2.828,-9.195 -7.464,-18.021 -14.542,-24.536 a 29.232,29.232 0 0 0 -12.089,-7.015 c -4.744,-1.253 -9.747,-0.914 -14.632,-0.454 q -15.819,1.489 -31.441,4.53 c -8.224,1.602 -16.917,3.821 -22.584,9.995 z"
         transform="translate(-125.901,-140.201)"
         fill="#87d8ea" />
    </g>
    <g
       id="Group_2284"
       data-name="Group 2284"
       transform="translate(-5444.825,15571.201)">
      <g
         id="Group_2282"
         data-name="Group 2282">
        <path
           id="Path_8795"
           data-name="Path 8795"
           d="m 127.053,105.585 2.272,27.717 a 6.2,6.2 0 0 0 7.023,5.691 l 67.289,-9.751 a 6.253,6.253 0 0 0 5.28,-6.738 L 206.8,96.887 a 6.2,6.2 0 0 0 -6.836,-5.71 l -67.444,7.651 a 6.248,6.248 0 0 0 -5.467,6.757 z"
           transform="translate(-127.032,-91.137)"
           fill="#172f35" />
      </g>
      <g
         id="Group_2283"
         data-name="Group 2283"
         transform="translate(4.355,1.563)">
        <path
           id="Path_8796"
           data-name="Path 8796"
           d="m 132.765,106.929 2.2,26.36 a 5.968,5.968 0 0 0 6.79,5.413 l 65.058,-9.274 a 5.968,5.968 0 0 0 5.1,-6.409 l -2.049,-24.363 a 5.968,5.968 0 0 0 -6.609,-5.431 L 138.05,100.5 a 5.968,5.968 0 0 0 -5.285,6.429 z"
           transform="translate(-132.745,-93.188)"
           fill="#a6bebd" />
      </g>
    </g>
    <g
       id="Group_2285"
       data-name="Group 2285"
       transform="translate(-5413.611,15618.098)">
      <path
         id="Path_8797"
         data-name="Path 8797"
         d="m 213.441,152.751 a 209.257,209.257 0 0 0 -44.527,7.478 1.292,1.292 0 0 0 -0.57,2.145 24.315,24.315 0 0 1 2.389,2.92 c 8.845,12.593 8.635,29.41 9.092,44.124 0.377,12.1 -0.055,24.208 -0.5,36.3 -0.058,1.593 -0.015,3.454 1.261,4.407 a 4.913,4.913 0 0 0 3.147,0.616 372.655,372.655 0 0 0 62.118,-7.233 c 1.07,-28.143 -1.34,-53.1 -10.108,-74.007 -1.17,-2.791 -9.341,-13.543 -11.913,-15.137 -3.03,-1.877 -6.83,-1.82 -10.389,-1.613 z"
         transform="translate(-167.975,-152.651)"
         fill="#172f35" />
    </g>
    <g
       id="Group_2286"
       data-name="Group 2286"
       transform="translate(-5440.823,15622.108)">
      <path
         id="Path_8798"
         data-name="Path 8798"
         d="m 160.479,173.032 a 39.112,39.112 0 0 0 -5.295,-9.325 14.749,14.749 0 0 0 -8.23,-5.548 c -5.744,-1.24 -11.781,2.355 -14.674,7.47 3.634,-3.159 9.036,-3.825 13.615,-2.336 a 21.781,21.781 0 0 1 11.027,8.907 46.919,46.919 0 0 1 5.637,13.236 c 6.03,21.1 5.772,43.472 4.022,65.344 3.319,-26.211 3.497,-53.135 -6.102,-77.748 z"
         transform="translate(-132.281,-157.912)"
         fill="#50818b" />
    </g>
    <g
       id="Group_2294"
       data-name="Group 2294"
       transform="translate(-5387.136,15605.742)">
      <rect
         id="Rectangle_1221"
         data-name="Rectangle 1221"
         width="57.368999"
         height="12.198"
         transform="translate(7.66,89.812)"
         fill="#172f35"
         x="0"
         y="0" />
      <g
         id="Group_2288"
         data-name="Group 2288"
         transform="translate(0,3.273)">
        <path
           id="Path_8799"
           data-name="Path 8799"
           d="m 269.878,153.554 a 6.544,6.544 0 0 0 -1.4,-2.937 c -1.59,-1.633 -4.221,-1.324 -6.485,-1.587 -4.193,-0.487 -7.8,-3.339 -10.2,-6.834 -8.263,3.771 -17.894,4.5 -25.3,-1.458 a 29.111,29.111 0 0 1 -2.437,2.04 46.039,46.039 0 0 1 -14.7,6.89 c -1.814,0.535 -3.748,1.066 -5.043,2.445 -2.274,2.422 -1.643,6.26 -0.97,9.513 a 152.232,152.232 0 0 1 -0.5,63.708 6.221,6.221 0 0 0 4.985,7.441 143.2,143.2 0 0 0 63.037,-2.579 c -6.305,-24.916 5.757,-51.841 -0.987,-76.642 z"
           transform="translate(-202.702,-140.738)"
           fill="#ff970b" />
      </g>
      <g
         id="Group_2289"
         data-name="Group 2289"
         transform="translate(23.019,27.023)">
        <path
           id="Path_8800"
           data-name="Path 8800"
           d="m 247.112,177.677 a 36.241,36.241 0 0 1 -14.2,1.588 q -0.007,-2.775 -0.014,-5.55 7.074,-0.588 14.074,-1.824 0.068,2.893 0.14,5.786 z"
           transform="translate(-232.895,-171.891)"
           fill="#ffffff" />
      </g>
      <g
         id="Group_2292"
         data-name="Group 2292"
         transform="translate(37.117,8.2)">
        <g
           id="Group_2290"
           data-name="Group 2290">
          <path
             id="Path_8801"
             data-name="Path 8801"
             d="m 251.388,147.543 c 3.613,3.861 3.714,9.733 3.627,15.02 q -0.631,38.4 0.484,76.8 l 6.852,-0.586 -1.626,-72.133 c -0.147,-6.535 -0.306,-13.151 -2.065,-19.446 z"
             transform="translate(-251.388,-147.201)"
             fill="#172f35" />
        </g>
        <g
           id="Group_2291"
           data-name="Group 2291"
           transform="translate(4.285,0.863)">
          <path
             id="Path_8802"
             data-name="Path 8802"
             d="m 260.571,207.886 c -0.63,-13.184 -1.284,-26.817 -0.261,-40.326 0.559,-7.4 -0.887,-13.211 -2.533,-19.227 -0.256,0.058 -0.512,0.105 -0.769,0.152 1.633,5.969 3.073,11.727 2.522,19.017 -1.025,13.557 -0.371,27.215 0.26,40.422 0.2,4.247 0.414,8.639 0.566,12.982 a 94.572,94.572 0 0 1 -0.394,16.631 0.391,0.391 0 0 0 0.332,0.442 0.46,0.46 0 0 0 0.056,0 0.391,0.391 0 0 0 0.387,-0.336 95.327,95.327 0 0 0 0.4,-16.768 c -0.152,-4.345 -0.362,-8.739 -0.566,-12.989 z"
             transform="translate(-257.008,-148.333)"
             fill="#a6bebd" />
        </g>
      </g>
      <g
         id="Group_2293"
         data-name="Group 2293"
         transform="translate(21.543)">
        <path
           id="Path_8803"
           data-name="Path 8803"
           d="m 230.96,141.524 a 26.9,26.9 0 0 0 30.395,1.84 8.634,8.634 0 0 1 -2.491,-3.58 26.246,26.246 0 0 1 -12.582,2.507 15.2,15.2 0 0 1 -11.117,-5.846 12.74,12.74 0 0 1 -4.205,5.079 z"
           transform="translate(-230.96,-136.445)"
           fill="#172f35" />
      </g>
    </g>
    <g
       id="Group_2298"
       data-name="Group 2298"
       transform="translate(-5373.026,15766.843)">
      <g
         id="Group_2295"
         data-name="Group 2295">
        <path
           id="Path_8804"
           data-name="Path 8804"
           d="m 247.851,347.757 h -8.086 c -10.247,0 -18.555,17.215 -18.555,38.45 0,21.235 8.308,38.449 18.555,38.449 h 8.086 c 10.247,0 18.555,-17.215 18.555,-38.449 0,-21.234 -8.306,-38.45 -18.555,-38.45 z"
           transform="translate(-221.21,-347.757)"
           fill="#172f35" />
      </g>
      <g
         id="Group_2296"
         data-name="Group 2296"
         transform="translate(6.071,11.355)">
        <ellipse
           id="Ellipse_424"
           data-name="Ellipse 424"
           cx="8.6569996"
           cy="27.094"
           rx="8.6569996"
           ry="27.094"
           fill="#a6bebd" />
      </g>
      <g
         id="Group_2297"
         data-name="Group 2297"
         transform="translate(5.524,10.378)">
        <ellipse
           id="Ellipse_425"
           data-name="Ellipse 425"
           cx="7.2490001"
           cy="22.688999"
           rx="7.2490001"
           ry="22.688999"
           fill="#172f35" />
      </g>
    </g>
    <g
       id="Group_2299"
       data-name="Group 2299"
       transform="translate(-5370.046,15713.822)">
      <path
         id="Path_8805"
         data-name="Path 8805"
         d="m 301.582,296.587 a 48.546,48.546 0 0 0 -66.22,-9.378 c -3.6,2.565 -6.929,5.742 -8.689,9.8 -2.584,5.952 -1.431,12.783 -0.233,19.16 q 4.747,25.28 9.5,50.561 a 13.352,13.352 0 0 0 1.951,5.6 c 1.554,2.1 4.175,3.1 6.69,3.821 18.708,5.37 38.673,1.5 57.743,-2.391 3.848,-0.786 8.088,-1.823 10.284,-5.079 a 14.33,14.33 0 0 0 1.893,-6.1 116.4,116.4 0 0 0 0.02,-32.484 c -1.692,-12.007 -5.415,-24.018 -12.939,-33.51 z"
         transform="translate(-225.118,-278.21)"
         fill="#172f35" />
    </g>
    <g
       id="Group_2300"
       data-name="Group 2300"
       transform="translate(-5399.481,15733.918)">
      <path
         id="Path_8806"
         data-name="Path 8806"
         d="m 228.978,322.588 c -2.745,-6.847 -6.721,-15.437 -14.35,-17.54 -6.433,-1.773 -13.436,1.6 -17.7,6.732 -4.264,5.132 -6.284,11.735 -7.842,18.224 a 93.986,93.986 0 0 0 2.675,52.886 c 15.428,1.713 27.882,2.65 44.071,1.975 0.979,-0.041 1.052,-17.679 1.02,-19.379 a 132.989,132.989 0 0 0 -1.83,-19.56 c -1.285,-7.625 -2.951,-15.553 -5.862,-22.87 z"
         transform="translate(-186.51,-304.571)"
         fill="#87d8ea" />
    </g>
    <g
       id="Group_2301"
       data-name="Group 2301"
       transform="translate(-5375.328,15751.119)">
      <path
         id="Path_8807"
         data-name="Path 8807"
         d="m 236.314,332.548 c 3.414,8.5 3.329,18.077 1.4,27.029 -1.929,8.952 -5.6,17.417 -9.251,25.815 -0.612,1.408 -1.748,3.091 -3.23,2.69 -1.1,-0.3 -1.553,-1.588 -1.833,-2.7 -2.094,-8.3 -4.195,-16.636 -4.936,-25.16 -0.741,-8.524 -0.07,-17.317 3.216,-25.217 1.066,-2.563 2.489,-5.116 4.8,-6.658 2.311,-1.542 5.694,-1.758 7.709,0.152 z"
         transform="translate(-218.191,-327.133)"
         fill="#172f35" />
    </g>
    <g
       id="Group_2302"
       data-name="Group 2302"
       transform="translate(-5358.444,15803.757)">
      <path
         id="Path_8808"
         data-name="Path 8808"
         d="m 258.507,402.827 c -6.482,-0.717 -13.595,-1.748 -17.9,-6.649 -0.836,2.679 0.345,5.675 2.32,7.67 a 19.267,19.267 0 0 0 7.26,4.127 c 19.116,7 40.245,5.549 60.346,2.33 0.987,-2.886 -2.275,0.891 -1.288,-2 -17.714,5.195 -32.388,-3.449 -50.738,-5.478 z"
         transform="translate(-240.337,-396.178)"
         fill="#50818b" />
    </g>
    <g
       id="Group_2304"
       data-name="Group 2304"
       transform="translate(-5411.16,15817.392)">
      <path
         id="Path_8809"
         data-name="Path 8809"
         d="m 171.19,414.415 c 9.884,7.075 22.584,10.087 34.2,6.515 -10.748,-5.067 -22.398,-7.908 -34.2,-6.515 z"
         transform="translate(-171.19,-414.062)"
         fill="#172f35" />
    </g>
    <g
       id="Group_2305"
       data-name="Group 2305"
       transform="translate(-5405.678,15816.045)">
      <path
         id="Path_8810"
         data-name="Path 8810"
         d="m 200.176,430.507 1.6,-16.907 a 99.511,99.511 0 0 1 -21.2,-1.306 126.558,126.558 0 0 1 -2.19,15.5 z"
         transform="translate(-178.38,-412.294)"
         fill="#ffffff" />
    </g>
    <g
       id="Group_2306"
       data-name="Group 2306"
       transform="translate(-5301.666,15678.419)">
      <path
         id="Path_8811"
         data-name="Path 8811"
         d="m 355.708,305.234 a 125.014,125.014 0 0 1 -8.361,-32.864 c -1.683,-13.3 -1.853,-26.735 -2.02,-40.139 a 82.16,82.16 0 0 0 -30.515,2.5 c 6.764,25.059 14.943,51.055 29.64,73.695 3.781,-0.868 7.531,-2.026 11.256,-3.192 z"
         transform="translate(-314.812,-231.773)"
         fill="#ffc088" />
    </g>
    <g
       id="Group_2307"
       data-name="Group 2307"
       transform="translate(-5411.514,15825.519)">
      <path
         id="Path_8812"
         data-name="Path 8812"
         d="m 190.829,424.9 a 10.3,10.3 0 0 1 6.263,3.335 c 2.667,3.192 2.516,7.823 1.989,11.949 -0.527,4.126 -1.24,8.551 0.639,12.261 q -14.283,-0.05 -28.526,1.295 c -0.983,-6.717 -0.58,-13.9 2.777,-19.8 3.357,-5.9 10.16,-10.152 16.858,-9.04 z"
         transform="translate(-170.726,-424.721)"
         fill="#0c4e5f" />
    </g>
    <g
       id="Group_2308"
       data-name="Group 2308"
       transform="translate(-5397.788,15824.86)">
      <path
         id="Path_8813"
         data-name="Path 8813"
         d="m 192.575,423.929 a 4.032,4.032 0 0 0 -3.1,1.5 4.345,4.345 0 0 0 -0.524,1.821 29.794,29.794 0 0 0 1.406,13.3 2.562,2.562 0 0 0 1.153,1.631 2.831,2.831 0 0 0 1.333,0.12 21.209,21.209 0 0 1 8.861,1.376 63.218,63.218 0 0 1 0.462,-13.319 5.244,5.244 0 0 0 -0.287,-3.518 4.206,4.206 0 0 0 -1.622,-1.365 13.223,13.223 0 0 0 -7.682,-1.546 z"
         transform="translate(-188.73,-423.858)"
         fill="#87d8ea" />
    </g>
    <g
       id="Group_2309"
       data-name="Group 2309"
       transform="translate(-5411.205,15834.666)">
      <path
         id="Path_8814"
         data-name="Path 8814"
         d="m 175.38,438.116 a 3.017,3.017 0 0 1 2.544,-1.378 2.759,2.759 0 0 1 1.842,1.587 20.839,20.839 0 0 1 1.428,4.909 6.994,6.994 0 0 0 2.533,4.32 21.8,21.8 0 0 1 -9.011,4.372 4.944,4.944 0 0 1 -1.956,0.137 1.973,1.973 0 0 1 -1.516,-1.129 2.986,2.986 0 0 1 0,-1.615 c 0.742,-3.957 1.566,-8.103 4.136,-11.203 z"
         transform="translate(-171.131,-436.719)"
         fill="#a6bebd" />
    </g>
    <g
       id="Group_2310"
       data-name="Group 2310"
       transform="translate(-5412.994,15839.726)">
      <path
         id="Path_8815"
         data-name="Path 8815"
         d="m 200,453.034 c -0.137,-3.021 -0.874,-6.29 -3.239,-8.174 -2.789,-2.22 -6.931,-1.737 -10.121,-0.145 a 70.923,70.923 0 0 0 -6.843,4.464 14.26,14.26 0 0 1 -7.582,2.74 4.082,4.082 0 0 0 -2.513,0.419 3.346,3.346 0 0 0 -0.9,2.687 4.7,4.7 0 0 0 0.663,3.144 4.548,4.548 0 0 0 3.171,1.25 c 7.416,0.8 14.9,0.31 22.346,-0.178 a 6.449,6.449 0 0 0 3.149,-0.755 c 1.681,-1.097 1.956,-3.439 1.869,-5.452 z"
         transform="translate(-168.784,-443.355)"
         fill="#455a64" />
    </g>
    <g
       id="Group_2311"
       data-name="Group 2311"
       transform="translate(-5363.427,15569.675)">
      <path
         id="Path_8816"
         data-name="Path 8816"
         d="m 266.112,96.171 a 29.518,29.518 0 0 1 -4.162,24.784 10.551,10.551 0 0 1 -3.931,3.685 c -3.043,1.425 -6.611,0.284 -9.768,-0.868 -3.554,-1.3 -7.246,-2.681 -9.84,-5.434 -2.444,-2.6 -3.637,-6.138 -4.227,-9.653 -0.7,-4.2 -0.585,-8.746 1.6,-12.4 2.722,-4.551 8.213,-6.858 13.509,-7.121 5.296,-0.263 10.507,1.209 15.607,2.663 z"
         transform="translate(-233.8,-89.136)"
         fill="#172f35" />
    </g>
    <g
       id="Group_2319"
       data-name="Group 2319"
       transform="translate(-5362.922,15568.353)">
      <g
         id="Group_2312"
         data-name="Group 2312"
         transform="translate(1.093,29.457)">
        <path
           id="Path_8817"
           data-name="Path 8817"
           d="m 260.507,139.816 c -0.4,-0.5 -0.775,-1.02 -1.119,-1.554 -2.386,-3.7 -3.63,-7.993 -4.843,-12.221 l -13.3,0.2 a 22.675,22.675 0 0 1 -5.35,9.482 c 6.805,5.268 16.305,5.81 24.612,4.093 z"
           transform="translate(-235.897,-126.041)"
           fill="#ffc088" />
      </g>
      <g
         id="Group_2313"
         data-name="Group 2313">
        <path
           id="Path_8818"
           data-name="Path 8818"
           d="m 264.958,105.374 c -0.03,-0.157 -0.062,-0.314 -0.1,-0.47 -0.257,-1.169 -0.789,-2.556 -0.193,-3.716 0.928,-1.808 0.781,-2.247 -0.425,-5.987 l -1.3,-2.91 A 16.655,16.655 0 0 0 250.869,87.4 32.379,32.379 0 0 0 237.922,90.435 c -1.368,0.586 -2.849,1.366 -3.307,2.782 a 5.394,5.394 0 0 0 0,2.511 c 0.538,3.317 1.194,6.614 1.85,9.91 a 28.565,28.565 0 0 0 2.324,7.754 c 1.591,3.045 4.212,5.4 6.778,7.685 a 13.732,13.732 0 0 0 3.387,2.446 8.552,8.552 0 0 0 7.673,-0.708 15.58,15.58 0 0 0 5.365,-5.815 26.821,26.821 0 0 0 3.026,-7.985 9.452,9.452 0 0 0 -0.06,-3.641 z"
           transform="translate(-234.463,-87.402)"
           fill="#ffc088" />
      </g>
      <g
         id="Group_2318"
         data-name="Group 2318"
         transform="translate(10.595,11.548)">
        <g
           id="Group_2315"
           data-name="Group 2315">
          <path
             id="Path_8819"
             data-name="Path 8819"
             d="m 248.857,105.82 a 7.37,7.37 0 0 1 6,-2.289 2.054,2.054 0 0 1 0.5,-0.93 8.158,8.158 0 0 0 -6.994,2.8 1.669,1.669 0 0 1 0.494,0.419 z"
             transform="translate(-248.361,-102.549)"
             fill="#0c4e5f" />
          <g
             id="Group_2314"
             data-name="Group 2314"
             transform="translate(3.074,3.885)">
            <path
               id="Path_8820"
               data-name="Path 8820"
               d="m 253.579,110.627 a 1.148,1.148 0 0 1 -0.692,-0.082 0.935,0.935 0 0 1 -0.376,-0.515 2.041,2.041 0 0 1 -0.035,-1.259 1.635,1.635 0 0 1 0.739,-0.973 1.169,1.169 0 0 1 1.19,0.017 1.8,1.8 0 0 1 0.629,1.351 1.493,1.493 0 0 1 -0.043,0.709 1.073,1.073 0 0 1 -0.591,0.57 2.707,2.707 0 0 1 -0.821,0.182 z"
               transform="translate(-252.393,-107.645)"
               fill="#0c4e5f" />
            <path
               id="Path_8821"
               data-name="Path 8821"
               d="m 254.81,109.227 a 0.683,0.683 0 0 0 -0.662,-0.4 c -0.287,0.057 -0.434,0.38 -0.48,0.669 a 1.3,1.3 0 0 0 0.031,0.616 0.693,0.693 0 0 0 0.408,0.441 0.679,0.679 0 0 0 0.794,-0.393 1.058,1.058 0 0 0 -0.091,-0.933 z"
               transform="translate(-252.691,-107.923)"
               fill="#172f35" />
            <path
               id="Path_8822"
               data-name="Path 8822"
               d="m 253.465,109.443 a 0.336,0.336 0 0 0 0.262,-0.123 0.375,0.375 0 0 0 0.013,-0.521 0.308,0.308 0 0 0 -0.329,-0.027 0.391,0.391 0 0 0 -0.2,0.274 0.327,0.327 0 0 0 0.254,0.397 z"
               transform="translate(-252.587,-107.904)"
               fill="#ffffff" />
          </g>
        </g>
        <g
           id="Group_2317"
           data-name="Group 2317"
           transform="translate(15.475,0.142)">
          <path
             id="Path_8823"
             data-name="Path 8823"
             d="m 269.887,103.521 a 2.359,2.359 0 0 1 2.077,1.291 c 0,0.008 0.011,0.014 0.015,0.023 a 0.444,0.444 0 0 0 0.262,-0.448 1.059,1.059 0 0 0 -0.326,-0.583 3.625,3.625 0 0 0 -1.1,-0.845 2.128,2.128 0 0 0 -1.36,-0.178 1.055,1.055 0 0 0 -0.733,0.508 0.642,0.642 0 0 0 0.008,0.559 2.293,2.293 0 0 1 1.157,-0.327 z"
             transform="translate(-268.66,-102.735)"
             fill="#0c4e5f" />
          <g
             id="Group_2316"
             data-name="Group 2316"
             transform="translate(0.988,3.488)">
            <path
               id="Path_8824"
               data-name="Path 8824"
               d="m 269.961,108.714 a 1.284,1.284 0 0 1 0.244,-0.832 1.072,1.072 0 0 1 1.044,-0.555 0.923,0.923 0 0 1 0.6,0.552 2.531,2.531 0 0 1 0.163,0.83 1.083,1.083 0 0 1 -0.246,0.951 0.9,0.9 0 0 1 -0.83,0.066 1.329,1.329 0 0 1 -0.975,-1.012 z"
               transform="translate(-269.956,-107.311)"
               fill="#0c4e5f" />
            <path
               id="Path_8825"
               data-name="Path 8825"
               d="m 271.672,108.436 a 0.442,0.442 0 0 0 -0.446,-0.188 0.477,0.477 0 0 0 -0.248,0.3 1.128,1.128 0 0 0 -0.1,0.594 0.565,0.565 0 0 0 0.356,0.457 0.545,0.545 0 0 0 0.641,-0.386 0.861,0.861 0 0 0 -0.203,-0.777 z"
               transform="translate(-270.174,-107.53)"
               fill="#172f35" />
            <path
               id="Path_8826"
               data-name="Path 8826"
               d="m 270.985,108.567 a 0.258,0.258 0 0 0 0.2,-0.093 0.286,0.286 0 0 0 0.009,-0.4 0.234,0.234 0 0 0 -0.25,-0.021 0.3,0.3 0 0 0 -0.149,0.209 0.249,0.249 0 0 0 0.19,0.305 z"
               transform="translate(-270.154,-107.482)"
               fill="#ffffff" />
          </g>
        </g>
      </g>
    </g>
    <g
       id="Group_2324"
       data-name="Group 2324"
       transform="translate(-5360.145,15585.304)">
      <g
         id="Group_2320"
         data-name="Group 2320"
         transform="translate(6.117)">
        <path
           id="Path_8827"
           data-name="Path 8827"
           d="m 265.738,110.519 c -2.453,-1.415 -6.909,-0.81 -9.56,-0.358 -2.651,0.452 -5.834,2.039 -8.227,3.268 a 3.23,3.23 0 0 0 -1.657,1.45 3.3,3.3 0 0 0 -0.165,1.285 q 0.027,3.337 0.306,6.665 a 6.276,6.276 0 0 0 0.437,2.119 5.339,5.339 0 0 0 1.4,1.714 9.06,9.06 0 0 0 2.888,1.795 c 1.73,0.616 6.417,1.625 8.128,0.955 1.711,-0.67 1.551,-0.738 2.8,-2.084 a 27.321,27.321 0 0 0 5.733,-8.795 c 0.586,-1.5 1.246,-4.18 0.651,-5.016 a 16.726,16.726 0 0 0 -2.734,-2.998 z"
           transform="translate(-246.129,-109.637)"
           fill="#172f35" />
      </g>
      <g
         id="Group_2321"
         data-name="Group 2321"
         transform="translate(7.631,0.964)">
        <path
           id="Path_8828"
           data-name="Path 8828"
           d="m 258.472,111.032 a 17.948,17.948 0 0 0 -10.356,4.369 c 0.369,3.658 0.457,6.916 0.937,10.573 a 9.983,9.983 0 0 0 2,2.565 c 1.992,1.494 3.964,1.84 6.425,2.215 3.877,0.592 6.476,-1.914 8.6,-5.212 2.124,-3.298 3.042,-8.02 3.453,-11.921 -3.464,-2.785 -6.625,-2.921 -11.059,-2.589 z"
           transform="translate(-248.116,-110.902)"
           fill="#ffffff" />
      </g>
      <g
         id="Group_2322"
         data-name="Group 2322"
         transform="translate(0,1.384)">
        <path
           id="Path_8829"
           data-name="Path 8829"
           d="m 246.3,116.663 c -3.033,-1.621 -5.047,-2.754 -6.995,-3.852 l -1.2,-0.677 0.382,-0.682 1.205,0.678 c 1.944,1.095 3.954,2.226 6.98,3.842 z"
           transform="translate(-238.106,-111.453)"
           fill="#ffffff" />
      </g>
      <g
         id="Group_2323"
         data-name="Group 2323"
         transform="translate(1.451,10.237)">
        <rect
           id="Rectangle_1222"
           data-name="Rectangle 1222"
           width="0.78200001"
           height="8.4779997"
           transform="matrix(0.438,-0.899,0.899,0.438,0,0.703)"
           fill="#ffffff"
           x="0"
           y="0" />
      </g>
    </g>
    <g
       id="Group_2325"
       data-name="Group 2325"
       transform="translate(-5362.922,15568.353)">
      <path
         id="Path_8830"
         data-name="Path 8830"
         d="m 242.316,100.741 c 3.615,-2.9 15.537,-2.215 22.9,-2.769 -0.15,-0.727 -0.508,-1.338 -0.97,-2.77 l -1.3,-2.91 A 16.655,16.655 0 0 0 250.869,87.4 32.379,32.379 0 0 0 237.922,90.435 c -1.368,0.586 -2.849,1.366 -3.307,2.782 a 5.394,5.394 0 0 0 0,2.511 c 0.538,3.317 1.194,6.614 1.85,9.91 a 28.565,28.565 0 0 0 2.324,7.754 16.745,16.745 0 0 0 1.721,2.608 c -0.984,-5.99 -1.81,-11.64 1.806,-15.259 z"
         transform="translate(-234.463,-87.402)"
         fill="#172f35" />
    </g>
    <g
       id="Group_2326"
       data-name="Group 2326"
       transform="translate(-5371.474,15557.991)">
      <path
         id="Path_8831"
         data-name="Path 8831"
         d="M 239.182,74.743 A 21.308,21.308 0 0 0 228.1,81.567 c -2.833,3.512 -4.138,8.039 -4.63,12.524 a 28.544,28.544 0 0 0 1.035,12.149 17.607,17.607 0 0 0 7.988,10.015 3.547,3.547 0 0 0 2.132,0.479 c 2.051,-0.271 2.457,-2.37 2.531,-4.121 a 49.167,49.167 0 0 0 -1.054,-12.326 4.856,4.856 0 0 1 4.5,-5.9 c 8.132,-0.381 16.205,-0.463 24.377,-1.045 a 1.732,1.732 0 0 0 1.067,-0.321 1.65,1.65 0 0 0 0.38,-1.255 c 0.021,-6.2 -3.848,-12.072 -9.227,-15.145 a 23.962,23.962 0 0 0 -18.017,-1.878 z"
         transform="translate(-223.247,-73.81)"
         fill="#ff970b" />
    </g>
    <g
       id="Group_2327"
       data-name="Group 2327"
       transform="translate(-5362.188,15575.866)">
      <path
         id="Path_8832"
         data-name="Path 8832"
         d="m 236.883,122.467 a 1.972,1.972 0 0 1 -1.327,-0.483 0.391,0.391 0 0 1 0.52,-0.583 1.216,1.216 0 0 0 0.909,0.281 2,2 0 0 0 1.334,-0.667 4.827,4.827 0 0 0 0.893,-2.723 24.279,24.279 0 0 0 -0.666,-8.518 c -0.076,-0.3 -0.159,-0.592 -0.24,-0.89 -0.563,-2.044 -1.146,-4.157 -0.313,-6.129 a 6.259,6.259 0 0 1 3.916,-3.3 17.767,17.767 0 0 1 5,-0.666 l 17.852,-0.656 a 11.5,11.5 0 0 0 4.676,-0.831 0.391,0.391 0 0 1 0.348,0.7 12.079,12.079 0 0 1 -5,0.912 l -17.852,0.657 a 17.177,17.177 0 0 0 -4.782,0.626 5.483,5.483 0 0 0 -3.441,2.867 c -0.728,1.721 -0.182,3.7 0.345,5.616 0.083,0.3 0.166,0.6 0.243,0.9 a 25.071,25.071 0 0 1 0.688,8.793 5.585,5.585 0 0 1 -1.08,3.157 2.768,2.768 0 0 1 -1.875,0.936 c -0.047,-10e-4 -0.097,0.001 -0.148,0.001 z"
         transform="translate(-235.425,-97.257)"
         fill="#a6bebd" />
    </g>
    <g
       id="Group_2328"
       data-name="Group 2328"
       transform="translate(-5369.467,15559.073)">
      <path
         id="Path_8833"
         data-name="Path 8833"
         d="M 250.346,75.671 A 20.2,20.2 0 0 0 227.222,102.8 22.128,22.128 0 0 1 244.875,76.42 Z"
         transform="translate(-225.877,-75.23)"
         fill="#984438" />
    </g>
    <g
       id="Group_2336"
       data-name="Group 2336"
       transform="translate(-5400.818,15618.322)">
      <g
         id="Group_2332"
         data-name="Group 2332"
         transform="translate(11.019,5.876)">
        <path
           id="Path_8834"
           data-name="Path 8834"
           d="m 211.578,161 a 2.87,2.87 0 0 1 3.154,0.306 6.828,6.828 0 0 1 1.948,2.706 c 2.531,5.449 2.906,11.7 2.1,17.657 -0.806,5.957 -2.73,11.692 -4.644,17.387 a 158.577,158.577 0 0 0 22.672,11.517 57.283,57.283 0 0 1 -37.6,-4.84 c 7.377,-12.386 8.615,-27.318 10.874,-41.557 0.189,-1.193 0.476,-2.528 1.496,-3.176 z"
           transform="translate(-199.208,-160.654)"
           fill="#172f35" />
      </g>
      <g
         id="Group_2333"
         data-name="Group 2333">
        <path
           id="Path_8835"
           data-name="Path 8835"
           d="m 217.187,224.494 c 3.328,0.836 6.945,1.532 10.1,0.19 2.568,-1.092 4.416,-3.367 6.076,-5.611 1.7,-2.293 3.376,-5.268 2.128,-7.833 -1.126,-2.313 -4.022,-3 -6.531,-3.573 a 66.792,66.792 0 0 1 -21.944,-9.4 c 1.062,-5.333 3.287,-10.35 5.116,-15.47 1.829,-5.12 3.289,-10.535 2.722,-15.942 -0.567,-5.407 -3.515,-10.838 -8.469,-13.079 a 7.543,7.543 0 0 0 -5.24,-0.584 c -2.427,0.743 -3.99,3.05 -5.235,5.262 -7.638,13.576 -6.423,27.792 -10.906,44.945 a 10.3,10.3 0 0 0 1.355,7.605 c 1.481,2.511 4.248,3.93 6.9,5.134 a 141.572,141.572 0 0 0 23.928,8.356 z"
           transform="translate(-184.755,-152.947)"
           fill="#ff970b" />
      </g>
      <g
         id="Group_2334"
         data-name="Group 2334"
         transform="translate(41.586,58.447)">
        <path
           id="Path_8836"
           data-name="Path 8836"
           d="m 239.42,237.459 a 5.2,5.2 0 0 0 0.935,4.466 6.465,6.465 0 0 0 2.789,1.444 5.994,5.994 0 0 0 2.766,0.433 4.914,4.914 0 0 0 2.5,-1.457 13.459,13.459 0 0 0 3.7,-6.347 5.7,5.7 0 0 0 -0.205,-4.09 4.634,4.634 0 0 0 -3.2,-2.174 7.346,7.346 0 0 0 -6.235,1.851 10.126,10.126 0 0 0 -3.05,5.874 z"
           transform="translate(-239.302,-229.61)"
           fill="#172f35" />
      </g>
      <g
         id="Group_2335"
         data-name="Group 2335"
         transform="translate(0.017,52.617)">
        <path
           id="Path_8837"
           data-name="Path 8837"
           d="m 226.112,241.019 a 0.39,0.39 0 0 1 -0.348,-0.212 c -0.42,-0.814 -0.939,-0.772 -1.984,-0.609 a 4.915,4.915 0 0 1 -2.482,-0.068 100.315,100.315 0 0 0 -10.465,-2.758 103.428,103.428 0 0 1 -10.326,-2.706 c -6.4,-2.159 -12.724,-5.125 -15.7,-12.158 a 0.391,0.391 0 0 1 0.72,-0.3 c 2.854,6.748 9.007,9.622 15.229,11.722 a 102.772,102.772 0 0 0 10.248,2.685 101.1,101.1 0 0 1 10.547,2.781 4.225,4.225 0 0 0 2.107,0.035 c 0.986,-0.155 2.1,-0.329 2.8,1.024 a 0.39,0.39 0 0 1 -0.347,0.569 z"
           transform="translate(-184.777,-221.964)"
           fill="#e8e8e8" />
      </g>
    </g>
    <g
       id="Group_2337"
       data-name="Group 2337"
       transform="translate(-5400.31,15830.735)">
      <path
         id="Path_8838"
         data-name="Path 8838"
         d="m 187.286,433.758 a 17.509,17.509 0 0 1 7.527,-2.186 10.466,10.466 0 0 1 7.3,2.414 3.65,3.65 0 0 1 1.064,2.407 0.281,0.281 0 0 1 -0.483,0.2 10.963,10.963 0 0 0 -7.982,-3.188 14.833,14.833 0 0 0 -8.752,3.542 1.379,1.379 0 0 1 -0.326,-1.857 3.939,3.939 0 0 1 1.652,-1.332 z"
         transform="translate(-185.423,-431.565)"
         fill="#172f35" />
    </g>
    <g
       id="Group_2338"
       data-name="Group 2338"
       transform="translate(-5400.163,15833.447)">
      <path
         id="Path_8839"
         data-name="Path 8839"
         d="m 187.479,437.314 a 17.516,17.516 0 0 1 7.526,-2.187 10.474,10.474 0 0 1 7.3,2.415 3.655,3.655 0 0 1 1.063,2.407 0.282,0.282 0 0 1 -0.483,0.2 10.962,10.962 0 0 0 -7.982,-3.188 14.832,14.832 0 0 0 -8.751,3.541 1.377,1.377 0 0 1 -0.326,-1.856 3.934,3.934 0 0 1 1.653,-1.332 z"
         transform="translate(-185.615,-435.121)"
         fill="#172f35" />
    </g>
    <g
       id="Group_2339"
       data-name="Group 2339"
       transform="translate(-5399.591,15836.725)">
      <path
         id="Path_8840"
         data-name="Path 8840"
         d="m 186.642,443.132 a 11.454,11.454 0 0 1 7.641,-3.679 13.107,13.107 0 0 1 8.223,2.27 2.715,2.715 0 0 1 1.095,1.163 1.071,1.071 0 0 1 -0.472,1.38 14.014,14.014 0 0 0 -15.94,-0.4 c -0.211,0.138 -0.492,0.284 -0.7,0.135 -0.263,-0.201 -0.068,-0.622 0.153,-0.869 z"
         transform="translate(-186.364,-439.421)"
         fill="#172f35" />
    </g>
    <g
       id="Group_2344"
       data-name="Group 2344"
       transform="translate(-5411.239,15704.454)">
      <g
         id="Group_2340"
         data-name="Group 2340"
         transform="translate(22.69)">
        <path
           id="Path_8841"
           data-name="Path 8841"
           d="m 248.755,266.052 h -25.368 c -5.24,0.878 -12.036,-1.68 -15.878,1.611 -6.035,5.169 -7.332,17.658 -6.377,25.059 a 6.617,6.617 0 0 0 1.457,3.759 c 1.949,2.121 5.54,2.01 8.621,2.018 a 46.2,46.2 0 0 1 16.541,3.094 c 3.1,1.2 6.39,2.783 9.661,2.03 2.464,-0.567 4.3,-2.347 5.982,-4.044 3.937,-3.975 7.909,-8.051 10.316,-12.895 2.407,-4.844 3.059,-10.658 0.308,-15.356 a 16.149,16.149 0 0 0 -5.263,-5.276 z"
           transform="translate(-200.849,-265.924)"
           fill="#ff970b" />
      </g>
      <g
         id="Group_2341"
         data-name="Group 2341"
         transform="translate(0,4.727)">
        <path
           id="Path_8842"
           data-name="Path 8842"
           d="m 236.748,276.119 c -1.6,-1.92 -3.563,-3.959 -6.064,-3.995 -1.864,-0.027 -3.534,1.09 -5.01,2.229 -10.277,7.933 -17.687,18.97 -24.153,30.228 a 292.276,292.276 0 0 0 -30.436,76.112 225.492,225.492 0 0 1 34.239,6.568 c 8.376,-29.018 16.884,-58.352 31.874,-84.572 2.923,-5.113 6.208,-10.689 5.194,-16.491 -0.669,-3.838 -3.145,-7.088 -5.644,-10.079 z"
           transform="translate(-171.086,-272.123)"
           fill="#ff970b" />
      </g>
      <g
         id="Group_2342"
         data-name="Group 2342"
         transform="translate(24.188,22.918)">
        <path
           id="Path_8843"
           data-name="Path 8843"
           d="m 202.813,303.258 a 6.822,6.822 0 0 0 6.55,2.4 11.219,11.219 0 0 0 6.224,-3.635 33.422,33.422 0 0 0 4.151,-6.036 25.292,25.292 0 0 1 -16.925,7.271 z"
           transform="translate(-202.813,-295.985)"
           fill="#172f35" />
      </g>
      <g
         id="Group_2343"
         data-name="Group 2343"
         transform="translate(3.562,15.368)">
        <path
           id="Path_8844"
           data-name="Path 8844"
           d="m 176.149,384.732 a 0.416,0.416 0 0 1 -0.1,-0.013 0.391,0.391 0 0 1 -0.277,-0.479 c 5.713,-21.389 14.521,-43.807 26.927,-68.534 3.133,-6.245 6.687,-12.625 12.6,-16.021 a 0.727,0.727 0 0 0 0.372,-0.583 0.691,0.691 0 0 0 -0.267,-0.6 l -0.981,-0.774 a 1.763,1.763 0 0 1 -0.664,-1.558 1.709,1.709 0 0 1 0.914,-1.365 21.114,21.114 0 0 1 6.26,-2.09 13.541,13.541 0 0 0 -4.019,-0.252 0.944,0.944 0 0 1 -0.651,-1.689 25.14,25.14 0 0 1 4.557,-2.76 L 207,290.645 a 19.835,19.835 0 0 1 -6.71,0.5 c -2.6,-0.4 -4.488,-1.685 -5.311,-3.627 a 0.39116365,0.39116365 0 0 1 0.72,-0.306 5.741,5.741 0 0 0 4.709,3.161 19.258,19.258 0 0 0 6.446,-0.492 l 19.884,-3.789 a 0.391,0.391 0 1 1 0.146,0.768 24.33,24.33 0 0 0 -10.143,4.536 0.15,0.15 0 0 0 -0.049,0.185 0.148,0.148 0 0 0 0.159,0.1 14.494,14.494 0 0 1 4.248,0.262 0.784,0.784 0 0 1 -0.034,1.541 20.364,20.364 0 0 0 -6.029,2.012 0.923,0.923 0 0 0 -0.5,0.746 0.985,0.985 0 0 0 0.371,0.87 l 0.981,0.774 a 1.481,1.481 0 0 1 0.563,1.273 1.52,1.52 0 0 1 -0.762,1.2 c -5.728,3.288 -9.214,9.556 -12.293,15.7 -12.381,24.678 -21.17,47.047 -26.87,68.384 a 0.391,0.391 0 0 1 -0.377,0.289 z"
           transform="translate(-175.758,-286.081)"
           fill="#e8e8e8" />
      </g>
    </g>
    <g
       id="Group_2345"
       data-name="Group 2345"
       transform="translate(-5339.104,15683.524)">
      <path
         id="Path_8845"
         data-name="Path 8845"
         d="m 359.613,261.818 c -1.756,-5.673 -3.651,-11.583 -7.84,-15.793 -5.613,-5.642 -14.148,-7.06 -22.1,-7.428 -15.6,-0.724 -31.591,1.572 -45.517,8.638 -4.792,2.432 -9.412,5.507 -12.55,9.869 -3.986,5.536 -5.2,12.579 -5.655,19.384 -1.575,23.659 4.7,47.049 7.366,70.61 0.8,7.025 1.051,14.847 -3.382,20.354 -1.365,1.7 -3.249,3.75 -2.282,5.7 0.711,1.435 2.569,1.775 4.163,1.931 23.295,2.286 47.448,2.364 69.33,-5.944 12.363,-4.693 24.224,-12.563 30.058,-24.43 4.079,-8.3 4.876,-17.9 3.853,-27.085 -1.023,-9.185 -3.771,-18.082 -6.5,-26.913 q -4.474,-14.446 -8.944,-28.893 z"
         transform="translate(-265.704,-238.47)"
         fill="#87d8ea" />
    </g>
    <g
       id="Group_2346"
       data-name="Group 2346"
       transform="translate(-5302.081,15754.021)">
      <path
         id="Path_8846"
         data-name="Path 8846"
         d="m 374.6,347.538 c -4.136,-8.068 -11.589,-14.827 -20.536,-16.3 -8.238,-1.352 -16.815,1.965 -22.978,7.6 -6.163,5.635 -10.113,13.352 -12.48,21.359 -2.367,8.007 -3.262,16.361 -4.134,24.665 -0.377,3.586 -0.521,7.792 2.223,10.132 2.452,2.091 6.1,1.7 9.263,1.073 a 135.272,135.272 0 0 0 31.022,-10.153 c 8.536,-3.993 17.3,-9.656 20.145,-18.637 2.058,-6.489 0.575,-13.683 -2.525,-19.739 z"
         transform="translate(-314.267,-330.941)"
         fill="#172f35" />
    </g>
    <g
       id="Group_2347"
       data-name="Group 2347"
       transform="translate(-5332.569,15702.587)">
      <path
         id="Path_8847"
         data-name="Path 8847"
         d="m 286.7,264.961 a 3.025,3.025 0 0 0 -4.631,-0.708 c -4.373,3.89 -6.869,9.839 -7.55,15.743 -0.849,7.357 0.711,14.763 2.26,22 l 8.165,-1.316 c -0.578,-5.009 -0.922,-10.115 0.076,-15.055 a 21.117,21.117 0 0 1 5.942,-11.28 2.382,2.382 0 0 0 0.138,-3.345 37.677,37.677 0 0 1 -4.4,-6.039 z"
         transform="translate(-274.276,-263.475)"
         fill="#ffffff" />
    </g>
    <g
       id="Group_2348"
       data-name="Group 2348"
       transform="translate(-5256.097,15697.329)">
      <path
         id="Path_8848"
         data-name="Path 8848"
         d="m 375.289,257.66 a 16.65,16.65 0 0 1 -0.608,3.36 2.371,2.371 0 0 0 0.655,2.414 30.985,30.985 0 0 1 8.488,13.159 1.6,1.6 0 0 0 1.831,-1.182 4.64,4.64 0 0 0 -0.111,-2.389 39.691,39.691 0 0 0 -8.276,-16.066 1.139,1.139 0 0 0 -1.979,0.704 z"
         transform="translate(-374.584,-256.577)"
         fill="#ffffff" />
    </g>
    <g
       id="Group_2349"
       data-name="Group 2349"
       transform="translate(-5337.29,15692.691)">
      <path
         id="Path_8849"
         data-name="Path 8849"
         d="m 275.572,341.451 c 0.708,-10.979 -1.585,-21.9 -3.508,-32.732 -1.923,-10.832 -3.48,-21.992 -1.324,-32.782 2.156,-10.79 8.687,-21.283 18.873,-25.444 -10.727,3.291 -17.3,12.716 -19.97,23.615 -2.67,10.899 -1.555,23.109 0.685,34.1 2.24,10.991 4.684,22.037 5.244,33.243 z"
         transform="translate(-268.085,-250.494)"
         fill="#50818b" />
    </g>
    <path
       id="Path_8850"
       data-name="Path 8850"
       d="m 344.555,241.421 q -0.08,-4.574 -0.133,-9.147 a 89.851,89.851 0 0 0 -33.37,2.738 q 0.97,3.592 1.984,7.206 c 2.809,14.538 16.872,70.295 16.872,70.295 l 14.016,-3.354 -18.289,-64.2 a 97.477,97.477 0 0 0 18.92,-3.538 z"
       transform="translate(-5615.583,15446.646)"
       fill="#172f35" />
    <g
       id="Group_2351"
       data-name="Group 2351"
       transform="translate(-5299.099,15687.24)">
      <path
         id="Path_8851"
         data-name="Path 8851"
         d="m 346.248,243.345 a 84.646,84.646 0 0 1 -28.07,3.406 c 6.306,22.127 14.182,44.57 27.074,64.429 3.781,-0.872 7.531,-2.026 11.257,-3.2 a 125.015,125.015 0 0 1 -8.361,-32.864 293.565,293.565 0 0 1 -1.9,-31.771 z"
         transform="translate(-318.178,-243.345)"
         fill="#50818b" />
    </g>
    <g
       id="Group_2356"
       data-name="Group 2356"
       transform="translate(-5249.827,15665.272)">
      <g
         id="Group_2354"
         data-name="Group 2354">
        <path
           id="Path_8852"
           data-name="Path 8852"
           d="m 388.67,218.536 c 0,2.212 -1.312,4.006 -2.931,4.006 -1.619,0 -2.931,-1.794 -2.931,-4.006 0,-2.212 1.312,-4.006 2.931,-4.006 1.619,0 2.931,1.794 2.931,4.006 z"
           transform="translate(-382.807,-214.53)"
           fill="#172f35" />
      </g>
      <g
         id="Group_2355"
         data-name="Group 2355"
         transform="translate(0.51,1.966)">
        <path
           id="Path_8853"
           data-name="Path 8853"
           d="m 397.658,220.99 a 2.237,2.237 0 0 1 -1.651,1.211 6.593,6.593 0 0 1 -2.119,-0.027 l -10.412,-1.256 0.252,-3.81 9.758,0.557 a 6.624,6.624 0 0 1 3.045,0.669 2.274,2.274 0 0 1 1.127,2.656 z"
           transform="translate(-383.476,-217.109)"
           fill="#172f35" />
      </g>
    </g>
    <g
       id="Group_2359"
       data-name="Group 2359"
       transform="translate(-5332.226,15654.005)">
      <g
         id="Group_2357"
         data-name="Group 2357">
        <path
           id="Path_8854"
           data-name="Path 8854"
           d="M 359.206,211.341 A 13.724,13.724 0 0 1 347.7,207.087 c -1.981,-1.914 -3.5,-4.354 -5.851,-5.794 -3.852,-2.363 -8.757,-1.432 -13.252,-0.965 -6.64,0.689 -13.6,0.229 -19.7,2.954 -4.5,2.01 -8.074,5.568 -11.9,8.668 a 69.941,69.941 0 0 1 -22.271,12.083 17.857,17.857 0 0 1 3.38,5.783 A 84.231,84.231 0 0 1 298,228.6 c 10.332,0.391 20.7,1.651 30.976,0.5 a 32,32 0 0 0 12.185,-3.46 c 2.995,-1.681 5.533,-4.07 8.451,-5.881 2.918,-1.811 5.555,-2.7 8.841,-1.7 a 4.915,4.915 0 0 0 0.753,-6.718 z"
           transform="translate(-274.726,-199.749)"
           fill="#87d8ea" />
      </g>
      <g
         id="Group_2358"
         data-name="Group 2358"
         transform="translate(19.226,10.505)">
        <path
           id="Path_8855"
           data-name="Path 8855"
           d="m 304.382,219.419 a 2.992,2.992 0 0 0 1.141,-0.47 c 1.672,-1.186 1.282,-3.92 2.681,-5.42 l -8.259,6.3 c 1.338,-0.668 2.967,-0.116 4.437,-0.41 z"
           transform="translate(-299.944,-213.529)"
           fill="#50818b" />
      </g>
    </g>
    <g
       id="Group_2360"
       data-name="Group 2360"
       transform="translate(-5344.499,15676.088)">
      <path
         id="Path_8856"
         data-name="Path 8856"
         d="m 280.853,242.106 a 1.866,1.866 0 0 0 1.039,-2.18 6,6 0 0 1 -0.166,-2.389 19.855,19.855 0 0 0 0.463,-2.766 6.7,6.7 0 0 0 -1.549,-3.7 5.777,5.777 0 0 0 -2.157,-2.04 c -1.372,-0.621 -2.968,-0.2 -4.411,0.233 -0.937,0.279 -2.015,0.7 -2.27,1.64 a 2.5,2.5 0 0 0 0.1,1.336 8.888,8.888 0 0 0 2.992,4.44 c 0.884,0.7 1.985,1.35 2.207,2.455 a 2.609,2.609 0 0 1 -0.81,2.246 8.926,8.926 0 0 1 -2.043,1.4 51.592,51.592 0 0 0 -14.87,13.518 c -0.108,0.139 -0.211,0.285 -0.308,0.436 -0.013,0.018 -0.03,0.032 -0.042,0.05 a 1.9,1.9 0 0 0 -0.4,1.176 1.763,1.763 0 0 0 1.449,1.4 c 0.518,0.124 1.18,0.043 1.4,-0.44 a 1.707,1.707 0 0 0 -0.049,-1.08 4.547,4.547 0 0 1 -0.106,-1.075 56.54,56.54 0 0 1 19.531,-14.66 z"
         transform="translate(-258.628,-228.715)"
         fill="#ffffff" />
    </g>
    <g
       id="Group_2363"
       data-name="Group 2363"
       transform="translate(-5302.501,15656.691)">
      <g
         id="Group_2361"
         data-name="Group 2361">
        <path
           id="Path_8857"
           data-name="Path 8857"
           d="m 352.446,221.064 c 1.7,-2.7 1.507,-6.152 0.954,-9.295 -0.4,-2.279 -1.028,-4.688 -2.762,-6.22 -1.6,-1.413 -3.839,-1.808 -5.963,-2.018 a 53.594,53.594 0 0 0 -20.03,1.82 c -4.028,1.158 -8.263,3.106 -10.041,6.9 a 12,12 0 0 0 2.567,12.893 c 3.256,2.97 7.711,2.764 12.117,2.866 a 50.121,50.121 0 0 0 15.65,-2.227 c 5.19,-1.622 5.93,-2.203 7.508,-4.719 z"
           transform="translate(-313.715,-203.273)"
           fill="#ffffff" />
      </g>
      <g
         id="Group_2362"
         data-name="Group 2362"
         transform="translate(32.794,1.333)">
        <path
           id="Path_8858"
           data-name="Path 8858"
           d="m 356.73,205.141 a 15.992,15.992 0 0 1 4,8.045 47.684,47.684 0 0 1 0.72,9.068 18,18 0 0 0 0.009,-13.68 6.991,6.991 0 0 0 -1.745,-2.674 3.206,3.206 0 0 0 -2.984,-0.759 z"
           transform="translate(-356.73,-205.022)"
           fill="#172f35" />
      </g>
    </g>
    <g
       id="Group_2364"
       data-name="Group 2364"
       transform="translate(-5250.23,15665.224)">
      <path
         id="Path_8859"
         data-name="Path 8859"
         d="m 385.27,224.506 a 5.733,5.733 0 0 0 1.659,0.056 c 4.318,0.213 7.872,-0.143 11.387,1.516 -0.223,0.107 -0.345,0.86 -0.206,1.064 a 0.9,0.9 0 0 0 1.434,-0.418 1.471,1.471 0 0 0 -0.662,-1.559 6.554,6.554 0 0 0 -2.033,-0.911 c -3.476,-0.646 -6.627,-0.954 -10.1,-1.6 -0.916,-0.288 -1.205,-1.474 -1.035,-2.419 a 17.356,17.356 0 0 0 0.654,-2.8 3.137,3.137 0 0 0 -2.939,-2.974 0.527,0.527 0 0 0 -0.528,0.705 7.226,7.226 0 0 1 -0.52,6.118 0.689,0.689 0 0 0 0.258,0.967 c 0.924,0.489 1.553,1.871 2.631,2.255 z"
         transform="translate(-382.278,-214.465)"
         fill="#ffffff" />
    </g>
    <g
       id="Group_2367"
       data-name="Group 2367"
       transform="translate(-5258.861,15629.366)">
      <g
         id="Group_2365"
         data-name="Group 2365">
        <circle
           id="Ellipse_426"
           data-name="Ellipse 426"
           cx="8.7950001"
           cy="8.7950001"
           r="8.7950001"
           transform="rotate(-22.334,16.929503,3.342)"
           fill="#ffffff" />
      </g>
      <g
         id="Group_2366"
         data-name="Group 2366"
         transform="translate(8.253,12.747)">
        <path
           id="Path_8860"
           data-name="Path 8860"
           d="m 384.4,209.962 a 0.782,0.782 0 0 1 -0.771,-0.658 l -1.745,-10.856 a 8.178,8.178 0 0 1 0.324,-3.889 l 3.329,-9.874 a 0.7815627,0.7815627 0 1 1 1.481,0.5 l -3.329,9.875 a 6.606,6.606 0 0 0 -0.261,3.142 l 1.744,10.856 a 0.781,0.781 0 0 1 -0.648,0.9 0.766,0.766 0 0 1 -0.124,0.004 z"
           transform="translate(-381.782,-184.153)"
           fill="#ffffff" />
      </g>
    </g>
    <g
       id="Group_2370"
       data-name="Group 2370"
       transform="translate(-5357.806,15642.212)">
      <g
         id="Group_2368"
         data-name="Group 2368">
        <circle
           id="Ellipse_427"
           data-name="Ellipse 427"
           cx="11.14"
           cy="11.14"
           r="11.14"
           fill="#ffffff" />
      </g>
      <g
         id="Group_2369"
         data-name="Group 2369"
         transform="translate(11.986,10.748)">
        <path
           id="Path_8861"
           data-name="Path 8861"
           d="m 276.048,224.7 a 0.781,0.781 0 0 1 -0.759,-0.6 l -3.4,-14.273 a 5.383,5.383 0 0 0 -2.655,-3.472 L 257.3,199.848 a 0.782,0.782 0 1 1 0.748,-1.373 l 11.927,6.505 a 6.947,6.947 0 0 1 3.427,4.482 l 3.4,14.273 a 0.782,0.782 0 0 1 -0.579,0.942 0.793,0.793 0 0 1 -0.175,0.023 z"
           transform="translate(-256.896,-198.379)"
           fill="#ffffff" />
      </g>
    </g>
    <g
       id="Group_2374"
       data-name="Group 2374"
       transform="translate(-5360.97,15676.919)">
      <g
         id="Group_2371"
         data-name="Group 2371"
         transform="translate(2.967,2.039)">
        <path
           id="Path_8862"
           data-name="Path 8862"
           d="m 240.915,241.586 1.8,4.412 a 198.418,198.418 0 0 1 26.044,-8.917 16.2,16.2 0 0 0 -2.347,-4.6 z"
           transform="translate(-240.915,-232.481)"
           fill="#172f35" />
      </g>
      <g
         id="Group_2372"
         data-name="Group 2372"
         transform="translate(25.635)">
        <path
           id="Path_8863"
           data-name="Path 8863"
           d="m 270.653,232.291 a 2.428,2.428 0 0 1 1.671,-2.33 3.524,3.524 0 0 1 2.948,0.441 6.6,6.6 0 0 1 2.067,2.248 7.892,7.892 0 0 1 1.216,3.589 4.152,4.152 0 0 1 -0.518,1.945 2.353,2.353 0 0 1 -3.7,0.7 c -1.881,-1.743 -3.559,-4.724 -3.684,-6.593 z"
           transform="translate(-270.648,-229.807)"
           fill="#172f35" />
      </g>
      <g
         id="Group_2373"
         data-name="Group 2373"
         transform="translate(0,10.641)">
        <path
           id="Path_8864"
           data-name="Path 8864"
           d="m 243.38,246.144 c 1.04,1.983 0.586,4.272 -1.015,5.112 -1.601,0.84 -3.743,-0.087 -4.783,-2.07 -1.04,-1.983 -0.586,-4.272 1.015,-5.113 1.601,-0.841 3.742,0.087 4.783,2.071 z"
           transform="translate(-237.023,-243.764)"
           fill="#172f35" />
      </g>
    </g>
    <g
       id="Group_2378"
       data-name="Group 2378"
       transform="translate(-5279.741,15767.471)">
      <g
         id="Group_2376"
         data-name="Group 2376">
        <path
           id="Path_8865"
           data-name="Path 8865"
           d="M 367.793,348.666 359,349.817 c -11.141,1.46 -17.722,21.358 -14.7,44.445 3.022,23.087 14.507,40.62 25.647,39.16 l 8.791,-1.151 c 11.141,-1.459 17.722,-21.357 14.7,-44.445 -3.022,-23.088 -14.503,-40.619 -25.645,-39.16 z"
           transform="translate(-343.57,-348.581)"
           fill="#172f35" />
      </g>
      <g
         id="Group_2377"
         data-name="Group 2377"
         transform="translate(2.964,14.227)">
        <ellipse
           id="Ellipse_428"
           data-name="Ellipse 428"
           cx="8.6569996"
           cy="28.667999"
           rx="8.6569996"
           ry="28.667999"
           transform="rotate(-7.461,17.238822,1.124)"
           fill="#a6bebd" />
      </g>
    </g>
    <g
       id="Group_2379"
       data-name="Group 2379"
       transform="translate(-5283.319,15756.099)">
      <path
         id="Path_8866"
         data-name="Path 8866"
         d="m 384.057,346.741 a 32.951,32.951 0 0 0 -12.893,-11.048 c -10.763,-4.834 -20.867,-0.779 -26.021,9.514 -3.6,7.188 -6.685,16.766 -6.22,24.865 0.518,9.054 0.718,19.257 2.7,28.107 17.176,-2.012 41.822,-6.071 56.887,-11.693 -2.138,-13.558 -6.426,-28.61 -14.453,-39.745 z"
         transform="translate(-338.877,-333.665)"
         fill="#87d8ea" />
    </g>
    <g
       id="Group_2380"
       data-name="Group 2380"
       transform="translate(-5276.23,15760.134)">
      <path
         id="Path_8867"
         data-name="Path 8867"
         d="m 354.773,340 a 13.988,13.988 0 0 0 -6.6,7.905 5.567,5.567 0 0 1 5.892,-1.406 9.139,9.139 0 0 1 4.762,4.111 27.185,27.185 0 0 1 2.411,5.94 q 4.748,15 9.5,30 a 7.889,7.889 0 0 0 1.845,3.555 c 1.858,1.719 4.778,1.27 7.246,0.711 a 3.6,3.6 0 0 1 -3.4,-1.463 10.493,10.493 0 0 1 -1.6,-3.534 q -6.223,-20.163 -11.113,-40.707 c -0.518,-2.176 -1.213,-4.611 -3.187,-5.662 -1.775,-0.944 -3.988,-0.405 -5.756,0.55 z"
         transform="translate(-348.175,-338.957)"
         fill="#50818b" />
    </g>
    <g
       id="Group_2386"
       data-name="Group 2386"
       transform="translate(-5279.113,15776.479)">
      <g
         id="Group_2382"
         data-name="Group 2382">
        <path
           id="Path_8868"
           data-name="Path 8868"
           d="m 344.532,368.966 c -0.943,11.728 3.139,23.185 5.916,34.618 a 20.359,20.359 0 0 0 2.373,6.578 c 1.293,1.955 3.56,3.459 5.881,3.129 2.545,-0.362 4.372,-2.832 4.833,-5.361 0.461,-2.529 -0.143,-5.118 -0.744,-7.618 l -9.348,-38.866 c -1.724,-1.757 -4.9,-1.15 -6.562,0.665 -1.662,1.815 -2.152,4.402 -2.349,6.855 z"
           transform="translate(-344.393,-360.397)"
           fill="#172f35" />
      </g>
      <g
         id="Group_2383"
         data-name="Group 2383"
         transform="translate(5.345,30.093)">
        <path
           id="Path_8869"
           data-name="Path 8869"
           d="m 357.853,409.251 c 0,5.181 -1.443,9.381 -3.224,9.381 -1.781,0 -3.225,-4.2 -3.225,-9.381 0,-5.181 1.444,-9.381 3.225,-9.381 1.781,0 3.224,4.2 3.224,9.381 z"
           transform="translate(-351.404,-399.87)"
           fill="#a6bebd" />
      </g>
      <g
         id="Group_2384"
         data-name="Group 2384"
         transform="translate(4.097,1.983)">
        <path
           id="Path_8870"
           data-name="Path 8870"
           d="m 360.262,410.855 a 1.7,1.7 0 0 0 1.932,0.383 3.01,3.01 0 0 0 1.445,-1.477 c 1,-1.986 0.575,-4.366 0.076,-6.534 -2.8,-12.167 -7.126,-23.976 -9.272,-36.276 a 6.739,6.739 0 0 0 -0.976,-2.924 2.219,2.219 0 0 0 -2.723,-0.82 2.176,2.176 0 0 0 -0.971,1.8 6.59,6.59 0 0 0 0.356,2.1 179.465,179.465 0 0 1 4.737,22.034 c 1.571,0.406 2.578,1.914 3.288,3.374 a 24.779,24.779 0 0 1 1.936,15.867 2.926,2.926 0 0 0 0.172,2.473 z"
           transform="translate(-349.767,-362.998)"
           fill="#a6bebd" />
      </g>
      <g
         id="Group_2385"
         data-name="Group 2385"
         transform="translate(4.523,29.102)">
        <path
           id="Path_8871"
           data-name="Path 8871"
           d="m 352.642,398.57 a 12.31,12.31 0 0 0 -2.3,4.507 4.927,4.927 0 0 1 2.3,-4.507 z"
           transform="translate(-350.326,-398.57)"
           fill="#a6bebd" />
      </g>
    </g>
    <g
       id="Group_2389"
       data-name="Group 2389"
       transform="translate(-5355.726,15679.331)">
      <path
         id="Path_8872"
         data-name="Path 8872"
         d="m 265.47,240.866 c -0.545,-1.607 -1.485,-5.744 -3,-6.515 a 15.313,15.313 0 0 0 -6.157,-1.185 23.971,23.971 0 0 0 -6.611,0.077 7.165,7.165 0 0 0 -4.039,2.345 5.444,5.444 0 0 0 -1.759,4.169 c 0.068,1.783 3.007,4.889 4.79,4.956 a 1.234,1.234 0 0 0 -0.481,1.522 3.592,3.592 0 0 0 1.078,1.355 l 2.887,2.614 a 5.3,5.3 0 0 0 2.4,1.486 4.716,4.716 0 0 0 3.386,-1.049 c 1.806,-1.211 3.834,-2.061 5.161,-3.784 1.588,-2.057 3.181,-3.526 2.345,-5.991 z"
         transform="translate(-243.902,-232.97)"
         fill="#ffc088" />
    </g>
  </g>
</svg>
