<?xml version="1.0" encoding="UTF-8" standalone="no"?>
<svg
   width="309.93301"
   height="296.298"
   viewBox="0 0 309.933 296.29799"
   version="1.1"
   id="svg111"
   sodipodi:docname="65a1606fc43288314cc15a10beb5ba7d.svg"
   xmlns:inkscape="http://www.inkscape.org/namespaces/inkscape"
   xmlns:sodipodi="http://sodipodi.sourceforge.net/DTD/sodipodi-0.dtd"
   xmlns="http://www.w3.org/2000/svg"
   xmlns:svg="http://www.w3.org/2000/svg">
  <defs
     id="defs115" />
  <sodipodi:namedview
     id="namedview113"
     pagecolor="#ffffff"
     bordercolor="#666666"
     borderopacity="1.0"
     inkscape:pageshadow="2"
     inkscape:pageopacity="0.0"
     inkscape:pagecheckerboard="0" />
  <g
     id="Group_2750"
     data-name="Group 2750"
     transform="translate(-59,-83.222)">
    <g
       id="freepik--Table--inject-9"
       transform="translate(59,379.156)">
      <path
         id="Path_8892"
         data-name="Path 8892"
         d="m 338.563,463.692 c 0,0.1 -69.387,0.182 -154.959,0.182 -85.572,0 -154.974,-0.074 -154.974,-0.182 0,-0.108 69.37,-0.182 154.97,-0.182 85.6,0 154.963,0.084 154.963,0.182 z"
         transform="translate(-28.63,-463.51)"
         fill="#263238" />
    </g>
    <g
       id="Group_2749"
       data-name="Group 2749">
      <g
         id="Group_2748"
         data-name="Group 2748"
         transform="translate(-3.494,-0.374)">
        <g
           id="freepik--background-complete--inject-9"
           transform="translate(72.381,83.596)">
          <path
             id="Path_8873"
             data-name="Path 8873"
             d="m 383.961,411.457 c -18.306,-7.252 -26.706,-26.776 -30.424,-45.229 -0.623,-3.08 -1.722,-6.223 -0.9,-9.247 0.822,-3.024 3.773,-5.663 6.811,-5.026 2.527,0.532 4.144,2.933 5.929,4.816 a 18.362,18.362 0 0 0 8.792,5.145 c 2.184,0.553 4.739,0.6 6.405,-0.917 2.3,-2.1 1.743,-5.8 1,-8.834 L 377.437,335.2 a 29.1,29.1 0 0 1 -1.225,-9.247 c 0.259,-3.115 1.715,-6.3 4.417,-7.777 2.702,-1.477 6.664,-0.7 7.98,2.156 a 28.247,28.247 0 0 1 0.987,3.759 c 0.385,1.239 1.3,2.5 2.583,2.569 1.283,0.069 2.31,-1.085 3.01,-2.191 2.408,-3.808 3.6,-8.267 4.655,-12.671 1.055,-4.404 2.037,-8.89 4.088,-12.909 2.051,-4.019 5.362,-7.609 9.653,-8.89 4.291,-1.281 9.57,0.308 11.684,4.319 2.114,4.011 0.651,8.967 -1.246,13.077 a 69.754,69.754 0 0 1 -10.935,16.8 5.726,5.726 0 0 0 -1.757,3.1 c -0.182,2.177 2.219,3.738 4.375,3.927 2.443,0.217 4.851,-0.6 7.287,-0.882 2.436,-0.282 5.25,0.154 6.678,2.177 1.981,2.8 0.154,6.685 -1.9,9.422 a 59.622,59.622 0 0 1 -14.848,14 c -2.037,1.344 -4.2,2.625 -5.656,4.62 -1.456,1.995 -1.869,4.991 -0.273,6.874 1.596,1.883 4.557,1.9 6.8,0.917 2.243,-0.983 4.032,-2.758 6.069,-4.13 3.8,-2.569 9.261,-3.563 12.8,-0.588 a 9.888,9.888 0 0 1 3.037,8.268 23.258,23.258 0 0 1 -2.8,8.6 c -4.858,9.471 -11.929,17.872 -20.819,23.472 -8.89,5.6 -17.655,8.694 -28.12,7.462"
             transform="translate(-139.114,-115.77)"
             fill="#f5f5f5" />
          <path
             id="Path_8874"
             data-name="Path 8874"
             d="m 400.37,399.552 a 279.791,279.791 0 0 1 3.857,-31.887 q 0.7,-4.2 1.442,-8.309 c 0.476,-2.723 0.952,-5.425 1.582,-8.043 a 139.189,139.189 0 0 1 4.466,-14.82 c 1.645,-4.641 3.381,-8.988 5.033,-13.042 1.652,-4.054 3.276,-7.8 4.9,-11.151 a 110.213,110.213 0 0 1 8.82,-15.233 c 1.176,-1.708 2.135,-3.01 2.8,-3.878 q 0.483,-0.616 0.756,-0.987 a 1.837,1.837 0 0 1 0.28,-0.322 2.589,2.589 0 0 1 -0.231,0.364 l -0.7,1.015 c -0.63,0.9 -1.561,2.212 -2.709,3.934 a 118.382,118.382 0 0 0 -8.638,15.289 c -1.589,3.353 -3.185,7.1 -4.823,11.152 -1.638,4.052 -3.346,8.4 -4.977,13.049 a 141.349,141.349 0 0 0 -4.417,14.785 c -0.623,2.6 -1.092,5.285 -1.568,8.015 -0.476,2.73 -0.952,5.5 -1.435,8.3 a 284.717,284.717 0 0 0 -3.892,31.816"
             transform="translate(-153.521,-116.466)"
             fill="#e0e0e0" />
          <path
             id="Path_8875"
             data-name="Path 8875"
             d="m 405.114,362.821 a 6.062,6.062 0 0 1 -0.609,-1.232 c -0.357,-0.8 -0.84,-1.974 -1.4,-3.437 -1.148,-2.926 -2.6,-7 -4.2,-11.537 -1.6,-4.537 -3.08,-8.582 -4.263,-11.48 -0.6,-1.449 -1.085,-2.618 -1.435,-3.423 a 5.775,5.775 0 0 1 -0.476,-1.281 6.3,6.3 0 0 1 0.7,1.183 c 0.413,0.777 0.959,1.925 1.6,3.36 1.288,2.87 2.856,6.923 4.438,11.446 1.582,4.523 2.94,8.505 4.011,11.586 l 1.239,3.5 a 6.625,6.625 0 0 1 0.395,1.315 z"
             transform="translate(-151.229,-128.029)"
             fill="#e0e0e0" />
          <path
             id="Path_8876"
             data-name="Path 8876"
             d="m 447.767,353 a 8.348,8.348 0 0 1 -1.519,0.56 c -0.98,0.322 -2.4,0.791 -4.144,1.4 -3.5,1.232 -8.239,3.108 -13.4,5.411 -5.161,2.303 -9.737,4.592 -13,6.342 -1.638,0.868 -2.947,1.6 -3.85,2.1 a 9.093,9.093 0 0 1 -1.435,0.742 8.442,8.442 0 0 1 1.316,-0.931 c 0.875,-0.567 2.156,-1.358 3.773,-2.268 3.22,-1.848 7.784,-4.2 12.958,-6.517 a 140.627,140.627 0 0 1 13.511,-5.271 c 1.757,-0.581 3.206,-0.987 4.2,-1.246 A 8.077,8.077 0 0 1 447.766,353 Z"
             transform="translate(-156.535,-134.799)"
             fill="#e0e0e0" />
          <path
             id="Path_8877"
             data-name="Path 8877"
             d="m 387.307,425.113 a 2.389,2.389 0 0 1 -0.378,-0.413 l -1,-1.253 c -0.868,-1.1 -2.1,-2.716 -3.556,-4.725 -2.947,-4.032 -6.839,-9.73 -11.054,-16.066 -4.215,-6.336 -8.058,-12.069 -10.919,-16.156 l -3.4,-4.83 c -0.371,-0.525 -0.7,-0.959 -0.917,-1.316 -0.217,-0.357 -0.308,-0.469 -0.287,-0.483 0.021,-0.014 0.14,0.126 0.378,0.413 l 1,1.253 c 0.868,1.092 2.1,2.709 3.556,4.725 2.947,4.032 6.839,9.723 11.06,16.066 4.221,6.343 8.05,12.069 10.907,16.15 l 3.4,4.83 0.917,1.323 c 0.209,0.3 0.314,0.469 0.293,0.482 z"
             transform="translate(-140.15,-142.859)"
             fill="#e0e0e0" />
          <path
             id="Path_8878"
             data-name="Path 8878"
             d="m 448.77,403 a 2.173,2.173 0 0 1 -0.469,0.336 l -1.4,0.861 -5.131,3.122 c -4.34,2.639 -10.284,6.349 -16.843,10.459 -6.559,4.11 -12.552,7.77 -16.941,10.318 -2.191,1.274 -3.983,2.282 -5.229,2.961 l -1.442,0.77 a 0.289,0.289 0 1 1 -0.056,-0.1 l 1.4,-0.861 5.131,-3.122 c 4.34,-2.639 10.284,-6.349 16.85,-10.458 6.566,-4.109 12.545,-7.763 16.934,-10.312 2.191,-1.274 3.976,-2.289 5.229,-2.968 l 1.442,-0.763 a 2.052,2.052 0 0 1 0.525,-0.238 z"
             transform="translate(-153.647,-149.798)"
             fill="#e0e0e0" />
          <rect
             id="Rectangle_1223"
             data-name="Rectangle 1223"
             width="49.050999"
             height="72.776001"
             transform="matrix(0.191,-0.982,0.982,0.191,0,130.646)"
             fill="#ebebeb"
             x="0"
             y="0" />
          <path
             id="Path_8879"
             data-name="Path 8879"
             d="m 132.708,173.917 a 4.555,4.555 0 0 1 -0.791,0.511 l -2.324,1.358 -8.631,4.9 -28.653,15.947 -0.231,0.126 -0.175,-0.2 -0.427,-0.5 -21.463,-25.383 -6.447,-7.735 -1.729,-2.1 a 4.6,4.6 0 0 1 -0.567,-0.77 5.823,5.823 0 0 1 0.665,0.7 l 1.827,2.044 6.608,7.6 21.61,25.245 0.427,0.5 -0.413,-0.077 28.743,-15.772 8.729,-4.7 2.387,-1.246 a 5.066,5.066 0 0 1 0.854,-0.441 z"
             transform="translate(-51.802,-76.927)"
             fill="#e0e0e0" />
          <path
             id="Path_8880"
             data-name="Path 8880"
             d="m 47.909,218.4 c -0.119,-0.147 6.538,-5.7 14.862,-12.412 8.324,-6.712 15.163,-12.041 15.275,-11.9 0.112,0.141 -6.538,5.7 -14.862,12.412 -8.324,6.712 -15.163,12.027 -15.275,11.9 z"
             transform="translate(-47.794,-87.131)"
             fill="#e0e0e0" />
          <path
             id="Path_8881"
             data-name="Path 8881"
             d="m 125.048,199.82 c 0.161,-0.084 4.2,7.5 9.009,16.934 4.809,9.434 8.589,17.158 8.4,17.242 -0.189,0.084 -4.2,-7.5 -9.016,-16.941 -4.816,-9.441 -8.554,-17.155 -8.393,-17.235 z"
             transform="translate(-70.932,-88.85)"
             fill="#e0e0e0" />
          <path
             id="Path_8882"
             data-name="Path 8882"
             d="m 183.346,131.9 -45.159,4.725 -3.717,-31.376 45.159,-4.732 z"
             transform="translate(-73.76,-59.064)"
             fill="#f5f5f5" />
          <path
             id="Path_8883"
             data-name="Path 8883"
             d="m 179.911,101 a 2.66,2.66 0 0 1 -0.371,0.462 l -1.12,1.267 -4.2,4.613 -13.966,15.135 -0.112,0.126 -0.147,-0.1 -0.35,-0.224 c -6.874,-4.536 -13.1,-8.631 -17.655,-11.628 l -5.327,-3.57 -1.4,-0.987 a 3.093,3.093 0 0 1 -0.483,-0.364 3.221,3.221 0 0 1 0.525,0.294 l 1.477,0.924 c 1.316,0.833 3.15,2.009 5.4,3.451 l 17.718,11.525 0.35,0.224 h -0.259 c 5.488,-5.866 10.438,-11.2 14.057,-15.044 l 4.284,-4.515 c 0.49,-0.5 0.882,-0.91 1.183,-1.211 A 3.537,3.537 0 0 1 179.911,101 Z"
             transform="translate(-73.853,-59.208)"
             fill="#e0e0e0" />
          <path
             id="Path_8884"
             data-name="Path 8884"
             d="m 140.049,143.81 c -0.1,-0.063 2.8,-4.725 6.447,-10.4 3.647,-5.675 6.692,-10.228 6.79,-10.158 0.098,0.07 -2.8,4.718 -6.447,10.4 -3.647,5.682 -6.699,10.221 -6.79,10.158 z"
             transform="translate(-75.432,-65.882)"
             fill="#e0e0e0" />
          <path
             id="Path_8885"
             data-name="Path 8885"
             d="m 180.339,120.44 c 0.084,-0.077 3.941,3.836 8.624,8.75 4.683,4.914 8.4,8.967 8.33,9.044 -0.07,0.077 -3.941,-3.836 -8.624,-8.75 -4.683,-4.914 -8.414,-8.96 -8.33,-9.044 z"
             transform="translate(-87.518,-65.039)"
             fill="#e0e0e0" />
          <path
             id="Path_8886"
             data-name="Path 8886"
             d="M 104.206,76.106 79.25,58.822 91.039,41.3 115.995,58.577 Z"
             transform="translate(-57.195,-41.3)"
             fill="#f5f5f5" />
          <path
             id="Path_8887"
             data-name="Path 8887"
             d="m 120.956,58.957 a 1.813,1.813 0 0 1 -0.392,0.077 l -1.12,0.154 -4.13,0.511 -13.679,1.582 h -0.112 v -0.105 a 1,1 0 0 0 -0.077,-0.273 l -3.92,-13.574 c -0.476,-1.722 -0.868,-3.122 -1.141,-4.13 l -0.3,-1.12 a 1.911,1.911 0 0 1 -0.084,-0.4 2.289,2.289 0 0 1 0.14,0.378 c 0.084,0.28 0.2,0.651 0.343,1.113 0.3,0.994 0.7,2.387 1.232,4.1 1.022,3.5 2.422,8.281 3.962,13.567 l 0.077,0.266 -0.14,-0.1 13.678,-1.503 4.144,-0.42 1.127,-0.1 a 2.744,2.744 0 0 1 0.392,-0.023 z"
             transform="translate(-62.22,-41.414)"
             fill="#e0e0e0" />
          <path
             id="Path_8888"
             data-name="Path 8888"
             d="m 79.16,64.714 c 0,-0.07 3.5,-1.176 7.8,-2.457 4.3,-1.281 7.854,-2.268 7.875,-2.2 0.021,0.068 -3.5,1.183 -7.805,2.464 -4.305,1.281 -7.849,2.27 -7.87,2.193 z"
             transform="translate(-57.168,-46.926)"
             fill="#e0e0e0" />
          <path
             id="Path_8889"
             data-name="Path 8889"
             d="m 113.6,68 c 0.077,0 0.322,3.661 0.56,8.19 0.238,4.529 0.357,8.211 0.28,8.218 -0.077,0.007 -0.329,-3.661 -0.56,-8.19 C 113.649,71.689 113.523,68 113.6,68 Z"
             transform="translate(-67.493,-49.309)"
             fill="#e0e0e0" />
          <path
             id="Path_8890"
             data-name="Path 8890"
             d="m 377.613,111.918 a 27.826,27.826 0 1 0 -51.8,14.057 v 0 l 0.077,0.1 c 1.064,1.8 2.4,3.087 3.752,4.977 l 16.15,21.4 a 5.033,5.033 0 0 0 8.022,0 l 15.891,-21.05 a 60.265,60.265 0 0 0 4.039,-5.355 l 0.049,-0.042 v 0 a 27.693,27.693 0 0 0 3.82,-14.087 z m -27.826,12.118 a 12.251,12.251 0 1 1 12.251,-12.251 12.251,12.251 0 0 1 -12.251,12.251 z"
             transform="translate(-130,-54.116)"
             fill="#f5f5f5" />
          <path
             id="Path_8891"
             data-name="Path 8891"
             d="m 419,185.616 a 15.009,15.009 0 1 0 -27.9,7.581 v 0 l 0.042,0.056 c 0.574,0.966 1.3,1.666 2.023,2.681 l 8.715,11.544 a 2.7,2.7 0 0 0 4.319,0 l 8.568,-11.355 a 32.119,32.119 0 0 0 2.184,-2.884 v -0.039 0 A 14.9,14.9 0 0 0 419,185.616 Z m -15.009,6.531 a 6.6,6.6 0 1 1 4.672,-1.931 6.6,6.6 0 0 1 -4.672,1.931 z"
             transform="translate(-150.104,-80.058)"
             fill="#ebebeb" />
        </g>
        <path
           id="Path_8893"
           data-name="Path 8893"
           d="m 189.3,105.346 4.606,65.243 a 20.343,20.343 0 0 0 20.3,18.9 v 0 a 20.343,20.343 0 0 0 20.3,-21.7 c -0.406,-6.209 -0.777,-11.292 -0.777,-11.292 0,0 15.8,-2.457 16,-18.25 0.112,-9.1 -1.463,-29.821 -2.8,-45.677 A 20.714,20.714 0 0 0 226.285,73.62 h -9.569 A 29.226,29.226 0 0 0 189.3,105.346 Z"
           transform="translate(-17.792,32.601)"
           fill="#ffbe9d" />
        <path
           id="Path_8894"
           data-name="Path 8894"
           d="M 244.018,189.222 A 36.714,36.714 0 0 1 223.43,183.37 c 0,0 4.865,11.369 20.623,9.947 z"
           transform="translate(-28.063,-0.32)"
           fill="#aa6550" />
        <path
           id="Path_8895"
           data-name="Path 8895"
           d="m 262.691,127.124 a 2.254,2.254 0 0 1 -2.177,2.275 2.156,2.156 0 0 1 -2.324,-2.03 2.261,2.261 0 0 1 2.17,-2.282 2.163,2.163 0 0 1 2.331,2.037 z"
           transform="translate(-38.49,17.164)"
           fill="#263238" />
        <path
           id="Path_8896"
           data-name="Path 8896"
           d="m 263.921,122.346 c -0.28,0.294 -1.988,-0.966 -4.41,-0.959 -2.422,0.007 -4.2,1.218 -4.473,0.924 -0.126,-0.133 0.161,-0.7 0.931,-1.232 a 6.2,6.2 0 0 1 3.577,-1.1 5.894,5.894 0 0 1 3.5,1.134 c 0.763,0.575 1.015,1.107 0.875,1.233 z"
           transform="translate(-37.536,18.694)"
           fill="#263238" />
        <path
           id="Path_8897"
           data-name="Path 8897"
           d="m 228.861,127.124 a 2.254,2.254 0 0 1 -2.177,2.275 2.156,2.156 0 0 1 -2.324,-2.03 2.261,2.261 0 0 1 2.177,-2.282 2.163,2.163 0 0 1 2.324,2.037 z"
           transform="translate(-28.342,17.164)"
           fill="#263238" />
        <path
           id="Path_8898"
           data-name="Path 8898"
           d="m 229.848,122.983 c -0.28,0.294 -2,-0.973 -4.417,-0.966 -2.417,0.007 -4.2,1.225 -4.473,0.924 -0.126,-0.133 0.154,-0.658 0.931,-1.225 a 6.3,6.3 0 0 1 3.577,-1.106 6.034,6.034 0 0 1 3.5,1.134 c 0.763,0.581 1.015,1.113 0.882,1.239 z"
           transform="translate(-27.313,18.505)"
           fill="#263238" />
        <path
           id="Path_8899"
           data-name="Path 8899"
           d="m 245.762,141.059 c 0,-0.14 1.5,-0.4 3.941,-0.7 0.616,-0.07 1.2,-0.189 1.309,-0.616 a 3.129,3.129 0 0 0 -0.413,-1.834 q -0.868,-2.247 -1.834,-4.718 c -2.541,-6.72 -4.389,-12.244 -4.116,-12.342 0.273,-0.098 2.555,5.264 5.1,11.978 q 0.917,2.492 1.757,4.753 a 3.56,3.56 0 0 1 0.315,2.429 1.526,1.526 0 0 1 -1.015,0.9 3.842,3.842 0 0 1 -1.05,0.147 c -2.461,0.129 -3.987,0.144 -3.994,0.003 z"
           transform="translate(-34.42,18.434)"
           fill="#263238" />
        <path
           id="Path_8900"
           data-name="Path 8900"
           d="m 235.88,152.12 c 0.392,0 0.4,2.611 2.653,4.48 2.253,1.869 5.054,1.582 5.075,1.946 0.042,0.168 -0.623,0.511 -1.806,0.546 a 6.566,6.566 0 0 1 -4.242,-1.477 5.705,5.705 0 0 1 -2.058,-3.759 c -0.102,-1.12 0.198,-1.75 0.378,-1.736 z"
           transform="translate(-31.679,9.054)"
           fill="#263238" />
        <path
           id="Path_8901"
           data-name="Path 8901"
           d="m 229.813,109.645 c -0.238,0.7 -2.66,0.35 -5.509,0.7 -2.849,0.35 -5.152,1.12 -5.53,0.525 -0.168,-0.28 0.231,-0.9 1.162,-1.54 a 9.653,9.653 0 0 1 8.4,-0.931 c 1.085,0.42 1.582,0.952 1.477,1.246 z"
           transform="translate(-26.655,22.337)"
           fill="#263238" />
        <path
           id="Path_8902"
           data-name="Path 8902"
           d="m 262.929,112.252 c -0.427,0.553 -2.1,0 -4.109,-0.049 -2.009,-0.049 -3.71,0.371 -4.1,-0.2 -0.175,-0.28 0.091,-0.833 0.84,-1.358 a 5.936,5.936 0 0 1 6.615,0.21 c 0.705,0.557 0.943,1.166 0.754,1.397 z"
           transform="translate(-37.433,21.767)"
           fill="#263238" />
        <path
           id="Path_8903"
           data-name="Path 8903"
           d="m 192.5,135.657 c -0.273,-0.119 -10.851,-3.206 -10.5,7.588 0.351,10.794 11.11,8.225 11.124,7.91 0.014,-0.315 -0.624,-15.498 -0.624,-15.498 z"
           transform="translate(-15.632,14.141)"
           fill="#e1b9aa" />
        <path
           id="Path_8904"
           data-name="Path 8904"
           d="m 190.832,148.685 c -0.049,0 -0.182,0.14 -0.5,0.294 a 1.9,1.9 0 0 1 -1.4,0.077 c -1.155,-0.385 -2.17,-2.163 -2.289,-4.109 a 6.3,6.3 0 0 1 0.441,-2.709 2.184,2.184 0 0 1 1.4,-1.491 0.959,0.959 0 0 1 1.127,0.483 c 0.154,0.294 0.091,0.511 0.147,0.532 0.056,0.021 0.231,-0.189 0.126,-0.637 a 1.19,1.19 0 0 0 -0.448,-0.658 1.4,1.4 0 0 0 -1.05,-0.245 2.653,2.653 0 0 0 -1.911,1.736 6.468,6.468 0 0 0 -0.553,3.031 c 0.14,2.177 1.316,4.2 2.891,4.578 a 2.016,2.016 0 0 0 1.715,-0.343 c 0.29,-0.273 0.346,-0.518 0.304,-0.539 z"
           transform="translate(-16.81,12.628)"
           fill="#aa6550" />
        <path
           id="Path_8905"
           data-name="Path 8905"
           d="m 187.55,115.916 c 1.645,-0.4 4.494,1.12 5.194,2.66 0.7,1.54 0.854,3.29 1.554,4.837 0.7,1.547 2.282,2.933 3.934,2.541 a 3.311,3.311 0 0 0 2.247,-2.457 9.1,9.1 0 0 0 0.035,-3.5 c -0.637,-5.04 -1.694,-10.038 -1.9,-15.121 -0.206,-5.083 0.518,-10.354 3.185,-14.7 2.667,-4.346 7.56,-7.511 12.6,-7.1 3.353,0.266 6.433,2.016 9.765,2.485 A 13.182,13.182 0 0 0 235.132,81.9 c 0.364,-0.357 2.044,-1.47 2.044,-1.47 0,-0.259 -0.245,-2.513 -1.134,-3.339 -6.615,-6.111 -18.53,-7.819 -27.266,-5.6 -8.736,2.219 -16.927,8.4 -20.686,16.549 -3.759,8.149 -2.639,19.6 -0.567,27.861"
           transform="translate(-16.72,33.519)"
           fill="#263238" />
        <path
           id="Path_8906"
           data-name="Path 8906"
           d="m 245.3,87.987 c 0,0 -41.428,-13.3 -59.349,22.513 0,0 -2.681,-8.967 -2.681,-13.777 0,-3.213 1.918,-22.338 21.6,-28.358 0.003,0 29.649,-11.313 40.43,19.622 z"
           transform="translate(-16.017,34.782)"
           fill="#ff725e" />
        <path
           id="Path_8907"
           data-name="Path 8907"
           d="m 220.652,95.387 a 9.016,9.016 0 0 0 14.348,1.302 5.313,5.313 0 0 0 10.045,-0.525 12,12 0 0 0 4.032,2.94 4.1,4.1 0 0 0 4.6,-0.959 4.055,4.055 0 0 0 -0.287,-4.753 9.8,9.8 0 0 0 -4.2,-2.8 30.291,30.291 0 0 0 -15.639,-2.366 21,21 0 0 0 -13.707,7.462"
           transform="translate(-26.986,28.278)"
           fill="#263238" />
        <g
           id="Group_2391"
           data-name="Group 2391"
           transform="translate(167.226,101.129)"
           opacity="0.4">
          <path
             id="Path_8908"
             data-name="Path 8908"
             d="M 245.288,87.987 A 19.258,19.258 0 0 0 232.113,82 c -12.223,-0.539 -35.093,6.335 -46.2,28.5 0,0 -2.681,-8.967 -2.681,-13.777 0,-3.213 1.918,-22.338 21.6,-28.358 0.029,0 29.675,-11.313 40.456,19.622 z"
             transform="translate(-183.23,-66.346)"
             fill="#ff970b" />
        </g>
        <path
           id="Path_8909"
           data-name="Path 8909"
           d="m 189.57,106.7 a 77.611,77.611 0 0 1 24.137,-23.1 c 9.527,-5.929 25.271,-11.831 36.122,-14.7 3.262,-0.868 6.657,-1.624 9.982,-1.05 3.325,0.574 6.573,2.8 7.392,6.055 1.036,4.1 -6.23,10.41 -9.639,12.888 a 112.606,112.606 0 0 1 -10.375,6.125 c 0,0 0.1,-7.588 -12.055,-9.149 C 218.614,81.6 189.57,106.7 189.57,106.7 Z"
           transform="translate(-17.906,34.394)"
           fill="#ff970b" />
        <path
           id="Path_8910"
           data-name="Path 8910"
           d="m 237.846,76.62 a 39.006,39.006 0 0 1 11.964,-4.074 15.6,15.6 0 0 0 -3.255,-1.946 30.752,30.752 0 0 0 -9.324,3.136 z"
           transform="translate(-32.203,33.507)"
           fill="#e0e0e0" />
        <path
           id="Path_8911"
           data-name="Path 8911"
           d="m 231.483,206.688 -13.14,-2.9 -5.343,-1.336 -4.452,-6.9 c 0,0 -2.1,12.342 -10.073,18.985 a 9.247,9.247 0 0 1 -7.833,1.876 c -1.8,-0.378 -3.913,-0.84 -5.481,-1.26 -0.336,-0.091 -0.7,-0.21 -1.092,-0.35 a 25.628,25.628 0 0 1 -13.532,-11.67 c -1.764,-3.136 -3.255,-6.356 -2.744,-7.581 l -6.237,12.916 -36.756,16.924 -20.87,50.977 40.441,11.957 1.26,42 -7.616,52.951 114.406,0.077 -4.06,-117.809"
           transform="translate(7.783,-3.975)"
           fill="#87d8ea" />
        <path
           id="Path_8912"
           data-name="Path 8912"
           d="m 239.1,262.791 a 4.409,4.409 0 0 1 -0.7,0 l -2.037,-0.049 -7.273,-0.259 h -0.14 v -0.119 c -0.119,-3.157 -0.266,-6.9 -0.427,-10.893 -0.189,-5.761 -0.357,-10.97 -0.49,-14.8 -0.042,-1.862 -0.077,-3.381 -0.1,-4.487 v -1.218 a 1.68,1.68 0 0 1 0,-0.427 1.862,1.862 0 0 1 0.049,0.42 c 0,0.322 0.049,0.7 0.077,1.218 0.056,1.106 0.133,2.625 0.224,4.48 0.154,3.829 0.364,9.037 0.6,14.792 0.14,4 0.266,7.742 0.378,10.9 l -0.154,-0.147 7.273,0.385 2.03,0.133 a 3.229,3.229 0 0 1 0.69,0.071 z"
           transform="translate(-29.407,-14.47)"
           fill="#263238" />
        <path
           id="Path_8913"
           data-name="Path 8913"
           d="m 234.091,252.092 a 1.008,1.008 0 0 1 0.546,-0.182 2.359,2.359 0 0 1 2.24,1.253 2.1,2.1 0 0 1 0.2,1.274 2.576,2.576 0 0 1 -1.869,2.1 2.709,2.709 0 0 1 -2.66,-0.945 2.583,2.583 0 0 1 -0.5,-2.261 2.751,2.751 0 0 1 0.756,-1.4 c 0.266,-0.259 0.462,-0.343 0.469,-0.322 0.007,0.021 -0.14,0.147 -0.364,0.42 a 2.954,2.954 0 0 0 -0.609,1.323 2.373,2.373 0 0 0 0.5,2 2.429,2.429 0 0 0 2.324,0.812 2.261,2.261 0 0 0 1.617,-1.806 1.9,1.9 0 0 0 -0.749,-1.848 2.212,2.212 0 0 0 -1.351,-0.483 c -0.361,0.023 -0.55,0.093 -0.55,0.065 z"
           transform="translate(-30.625,-20.789)"
           fill="#263238" />
        <path
           id="Path_8914"
           data-name="Path 8914"
           d="m 232.5,230.975 a 1.12,1.12 0 0 1 0.574,-0.266 2.485,2.485 0 0 1 1.708,0.252 2.443,2.443 0 0 1 0.917,0.812 2.3,2.3 0 0 1 0.385,1.365 2.744,2.744 0 0 1 -1.848,2.485 2.8,2.8 0 0 1 -2.926,-1.022 2.457,2.457 0 0 1 -0.511,-1.316 2.9,2.9 0 0 1 0.2,-1.211 2.8,2.8 0 0 1 1.1,-1.33 1.141,1.141 0 0 1 0.6,-0.224 3.78,3.78 0 0 0 -0.511,0.343 2.8,2.8 0 0 0 -0.938,1.3 2.3,2.3 0 0 0 0.336,2.233 2.478,2.478 0 0 0 2.555,0.875 2.436,2.436 0 0 0 1.617,-2.149 2.1,2.1 0 0 0 -1.085,-1.939 2.534,2.534 0 0 0 -1.561,-0.336 c -0.396,0.053 -0.599,0.153 -0.612,0.128 z"
           transform="translate(-30.272,-14.464)"
           fill="#263238" />
        <path
           id="Path_8915"
           data-name="Path 8915"
           d="m 227.91,285.408 a 0.975,0.975 0 0 1 0.175,-0.077 l 0.525,-0.2 c 0.469,-0.161 1.134,-0.455 1.981,-0.847 a 26.266,26.266 0 0 0 6.44,-4.578 51.4,51.4 0 0 0 7.371,-9.142 129.016,129.016 0 0 0 7.182,-12.517 217.956,217.956 0 0 0 10.2,-24.165 c 1.141,-3.164 2.03,-5.733 2.653,-7.5 l 0.7,-2.044 c 0.077,-0.21 0.147,-0.385 0.2,-0.525 a 0.972,0.972 0 0 1 0.077,-0.175 0.7,0.7 0 0 1 -0.042,0.189 c -0.042,0.14 -0.1,0.315 -0.161,0.539 -0.161,0.5 -0.378,1.183 -0.651,2.1 -0.581,1.785 -1.435,4.368 -2.555,7.539 a 201.559,201.559 0 0 1 -10.094,24.193 124.989,124.989 0 0 1 -7.224,12.538 50.474,50.474 0 0 1 -7.476,9.163 25.46,25.46 0 0 1 -6.552,4.515 18.893,18.893 0 0 1 -2.023,0.791 l -0.539,0.168 a 0.615,0.615 0 0 1 -0.182,0.042 z"
           transform="translate(-29.407,-12.397)"
           fill="#263238" />
        <path
           id="Path_8916"
           data-name="Path 8916"
           d="m 260.324,291.706 c 0.3,0 7.266,-0.476 7.266,-0.476 0,0 -2.877,5.082 -5.873,7 h -6.1 z"
           transform="translate(-37.719,-32.675)"
           fill="#fafafa" />
        <path
           id="Path_8917"
           data-name="Path 8917"
           d="m 226.17,319.325 a 2.26,2.26 0 0 1 0.392,-0.3 l 1.176,-0.812 c 1.015,-0.7 2.478,-1.75 4.235,-3.1 3.5,-2.681 8.162,-6.685 13.147,-11.264 2.492,-2.289 4.9,-4.445 6.958,-6.517 a 54.433,54.433 0 0 0 5.131,-5.824 31.634,31.634 0 0 0 2.8,-4.41 c 0.308,-0.539 0.5,-0.98 0.644,-1.274 a 2.479,2.479 0 0 1 0.245,-0.441 2.941,2.941 0 0 1 -0.175,0.469 c -0.126,0.3 -0.3,0.756 -0.588,1.309 a 28.925,28.925 0 0 1 -2.723,4.5 51.347,51.347 0 0 1 -5.1,5.908 c -2.065,2.1 -4.459,4.263 -6.951,6.545 a 172.187,172.187 0 0 1 -13.231,11.2 c -1.785,1.323 -3.276,2.331 -4.312,3.01 -0.525,0.336 -0.938,0.581 -1.218,0.756 a 2.186,2.186 0 0 1 -0.43,0.245 z"
           transform="translate(-28.885,-30.92)"
           fill="#263238" />
        <path
           id="Path_8918"
           data-name="Path 8918"
           d="m 198.13,422.119 a 0.312,0.312 0 0 1 0.084,-0.168 4.741,4.741 0 0 0 0.287,-0.462 c 0.259,-0.4 0.651,-0.987 1.176,-1.729 1.05,-1.47 2.674,-3.542 4.816,-5.978 4.312,-4.837 10.354,-11.439 17,-18.747 l 17.144,-18.684 5.215,-5.6 1.4,-1.519 0.378,-0.385 0.14,-0.126 a 1.434,1.434 0 0 1 -0.112,0.147 l -0.35,0.413 -1.4,1.568 -5.131,5.705 -17.011,18.7 -17.081,18.677 c -2.163,2.408 -3.815,4.445 -4.9,5.887 -0.539,0.7 -0.952,1.3 -1.225,1.687 l -0.315,0.441 a 1.275,1.275 0 0 1 -0.119,0.168 z"
           transform="translate(-20.474,-55.919)"
           fill="#263238" />
        <path
           id="Path_8919"
           data-name="Path 8919"
           d="m 284.84,211 c 0.6,0.9 14.127,2.408 17.438,5.712 3.311,3.304 36.4,28.561 36.4,28.561 l -23.578,31.74 -15.219,-3.353 z"
           transform="translate(-46.484,-8.608)"
           fill="#87d8ea" />
        <path
           id="Path_8920"
           data-name="Path 8920"
           d="m 344.69,255.56 -26.44,33.308 6.867,1.512 23.556,-31.774 z"
           transform="translate(-56.506,-21.976)"
           opacity="0.4" />
        <path
           id="Path_8921"
           data-name="Path 8921"
           d="m 294.782,246.561 a 7.623,7.623 0 0 1 -0.273,-1.106 c -0.077,-0.357 -0.168,-0.8 -0.231,-1.316 -0.063,-0.516 -0.168,-1.106 -0.2,-1.764 -0.032,-0.658 -0.105,-1.4 -0.105,-2.149 0,-0.749 0,-1.6 0.063,-2.464 a 34.149,34.149 0 0 1 0.875,-5.6 33.648,33.648 0 0 1 1.883,-5.341 c 0.371,-0.784 0.7,-1.54 1.1,-2.212 0.4,-0.672 0.742,-1.3 1.1,-1.848 0.358,-0.548 0.7,-1.029 1.008,-1.456 a 12.921,12.921 0 0 1 0.819,-1.057 6.548,6.548 0 0 1 0.763,-0.847 6.922,6.922 0 0 1 -0.651,0.931 c -0.217,0.294 -0.483,0.651 -0.763,1.092 -0.28,0.441 -0.637,0.91 -0.959,1.477 -0.322,0.567 -0.7,1.169 -1.05,1.855 -0.35,0.686 -0.7,1.4 -1.057,2.2 a 36.408,36.408 0 0 0 -1.806,5.3 36.821,36.821 0 0 0 -0.889,5.523 c -0.049,0.861 -0.112,1.68 -0.091,2.443 0.021,0.763 0,1.477 0.056,2.1 0.056,0.623 0.1,1.239 0.147,1.757 0.047,0.518 0.112,0.959 0.168,1.316 a 6.086,6.086 0 0 1 0.1,1.169 z"
           transform="translate(-49.223,-11.128)"
           fill="#263238" />
        <path
           id="Path_8922"
           data-name="Path 8922"
           d="m 307.889,289.886 a 68.394,68.394 0 0 1 -2.919,-6.461 69.378,69.378 0 0 1 -2.59,-6.594 69.773,69.773 0 0 1 2.926,6.454 66.994,66.994 0 0 1 2.583,6.601 z"
           transform="translate(-51.746,-28.355)"
           fill="#263238" />
        <path
           id="Path_8923"
           data-name="Path 8923"
           d="m 155.3,256.331 c -0.056,0 -0.623,-1.015 -1.694,-2.59 a 37.2,37.2 0 0 0 -4.774,-5.691 37.894,37.894 0 0 0 -5.824,-4.6 c -1.61,-1.022 -2.667,-1.554 -2.639,-1.61 a 3.5,3.5 0 0 1 0.77,0.315 22.569,22.569 0 0 1 2,1.078 32.335,32.335 0 0 1 5.95,4.557 32.827,32.827 0 0 1 4.732,5.81 c 0.511,0.812 0.9,1.484 1.134,1.967 a 3.408,3.408 0 0 1 0.345,0.764 z"
           transform="translate(-3.148,-17.859)"
           fill="#263238" />
        <path
           id="Path_8924"
           data-name="Path 8924"
           d="m 103.93,309.269 1.631,-3.969 44.732,12.181 -1.771,4.977 z"
           transform="translate(7.783,-36.896)"
           opacity="0.4" />
        <path
           id="Path_8925"
           data-name="Path 8925"
           d="m 272.48,288.56 h 17.032 v 7 l -21.792,-0.14 a 47.139,47.139 0 0 0 4.76,-6.86 z"
           transform="translate(-41.349,-31.874)"
           fill="#fafafa" />
        <g
           id="Group_2392"
           data-name="Group 2392"
           transform="translate(170.383,205.646)"
           opacity="0.2">
          <path
             id="Path_8926"
             data-name="Path 8926"
             d="m 187.74,216.035 c 0.616,5.46 1.288,11.1 3.99,15.884 2.702,4.784 7.987,8.561 13.427,7.756 3.626,-0.539 6.7,-2.961 9.17,-5.677 2.47,-2.716 4.543,-5.789 7.238,-8.274 a 31.923,31.923 0 0 0 5.435,4.669 10.648,10.648 0 0 0 6.811,1.8 c 2.373,-0.287 3.682,-1.232 4.431,-3.5 a 11.211,11.211 0 0 1 -6.454,0.182 17.648,17.648 0 0 1 -7.637,-3.5 c -1.484,-1.169 -2.023,-2.926 -3.906,-2.8 -1.743,0.1 -3.108,1.477 -4.256,2.8 a 49,49 0 0 1 -6.076,5.852 c -2.1,1.659 -4.13,2.8 -6.8,2.723 -4.4,-0.1 -8.008,-3.556 -10.437,-7.231 a 36.247,36.247 0 0 1 -4.9,-11.068"
             transform="translate(-187.74,-215.65)" />
        </g>
        <path
           id="Path_8927"
           data-name="Path 8927"
           d="m 253.662,206.47 a 1.813,1.813 0 0 1 0.077,0.392 c 0,0.259 0.084,0.637 0.133,1.127 0.105,0.98 0.21,2.4 0.252,4.2 a 59.538,59.538 0 0 1 -1.309,13.7 v 0.224 h -0.1 a 14.827,14.827 0 0 1 -7.539,-0.2 17.641,17.641 0 0 1 -5.6,-2.618 14.421,14.421 0 0 1 -3.059,-2.8 9.8,9.8 0 0 1 -0.658,-0.91 2.1,2.1 0 0 1 -0.2,-0.343 17.894,17.894 0 0 0 4.06,3.864 18.1,18.1 0 0 0 5.53,2.506 14.8,14.8 0 0 0 7.364,0.175 l -0.133,0.133 v -0.12 a 63.9,63.9 0 0 0 1.4,-13.623 c 0,-1.757 -0.077,-3.178 -0.133,-4.165 0,-0.455 -0.049,-0.826 -0.07,-1.127 a 1.455,1.455 0 0 1 -0.007,-0.42 z"
           transform="translate(-31.729,-7.25)"
           fill="#263238" />
        <path
           id="Path_8928"
           data-name="Path 8928"
           d="m 217.753,222.132 a 1.778,1.778 0 0 1 -0.224,0.42 11.5,11.5 0 0 1 -0.77,1.12 30.15,30.15 0 0 1 -3.444,3.633 c -0.777,0.7 -1.652,1.477 -2.6,2.275 -0.476,0.4 -0.952,0.819 -1.484,1.239 a 13.806,13.806 0 0 1 -1.729,1.113 10.634,10.634 0 0 1 -4.2,1.281 7.945,7.945 0 0 1 -4.62,-1.022 14.645,14.645 0 0 1 -3.619,-3.045 35.811,35.811 0 0 1 -2.73,-3.444 35.3,35.3 0 0 1 -3.563,-6.517 33.538,33.538 0 0 1 -1.568,-4.746 c -0.147,-0.574 -0.238,-1.022 -0.294,-1.33 a 2.381,2.381 0 0 1 -0.07,-0.469 2.057,2.057 0 0 1 0.14,0.455 c 0.084,0.3 0.2,0.742 0.357,1.309 a 39.7,39.7 0 0 0 1.673,4.683 36.255,36.255 0 0 0 3.605,6.419 35.38,35.38 0 0 0 2.716,3.4 14.379,14.379 0 0 0 3.5,2.975 7.644,7.644 0 0 0 4.417,0.98 10.542,10.542 0 0 0 4.088,-1.218 13,13 0 0 0 1.7,-1.078 c 0.511,-0.392 1,-0.819 1.477,-1.211 0.952,-0.791 1.834,-1.533 2.618,-2.233 a 33.6,33.6 0 0 0 3.5,-3.5 c 0.371,-0.448 0.644,-0.819 0.826,-1.071 a 2.926,2.926 0 0 1 0.298,-0.418 z"
           transform="translate(-17.087,-9.101)"
           fill="#263238" />
        <path
           id="Path_8929"
           data-name="Path 8929"
           d="m 209.46,327.631 5.4,-7.868 c 0,0 3.71,-12.895 3.206,-14.7 -0.504,-1.805 -2.142,-8.526 -1.757,-8.61 0.385,-0.084 4.424,-1.582 6.615,3.808 a 35.384,35.384 0 0 1 1.96,10.641 2.443,2.443 0 0 0 2.933,2.282 c 3.731,-0.77 9.94,-1.939 11.418,-1.582 2.142,0.511 4.06,3.241 4.242,4.158 0.182,0.917 -1.288,2.982 -1.288,2.982 a 5.619,5.619 0 0 1 2.38,2.338 c 0.077,0.189 0.14,0.378 0.2,0.56 a 3.388,3.388 0 0 1 -0.749,3.276 l -0.574,0.63 c 0,0 2.275,0.623 2.555,1.925 a 7.777,7.777 0 0 1 -0.077,2.863 l -2.135,2.205 a 3.605,3.605 0 0 1 1.106,2.1 c 0.112,1.2 -3.087,4.2 -3.087,4.2 l -13.728,4.9 -5.446,1.4 z"
           transform="translate(-23.873,-34.165)"
           fill="#ffbe9d" />
        <path
           id="Path_8930"
           data-name="Path 8930"
           d="m 252.184,328.415 a 48.687,48.687 0 0 1 -4.76,1.029 47.291,47.291 0 0 1 -4.774,0.91 5.951,5.951 0 0 1 1.351,-0.469 c 0.847,-0.238 2.03,-0.532 3.353,-0.8 1.323,-0.268 2.52,-0.462 3.4,-0.574 a 5.356,5.356 0 0 1 1.428,-0.1 z"
           transform="translate(-33.829,-43.826)"
           fill="#aa6550" />
        <path
           id="Path_8931"
           data-name="Path 8931"
           d="m 254.9,338.12 a 20.1,20.1 0 0 1 -3.633,1.3 20.3,20.3 0 0 1 -3.738,0.952 20.1,20.1 0 0 1 3.633,-1.3 20.3,20.3 0 0 1 3.738,-0.952 z"
           transform="translate(-35.292,-46.74)"
           fill="#aa6550" />
        <path
           id="Path_8932"
           data-name="Path 8932"
           d="m 255.861,347.69 a 51.161,51.161 0 0 1 -7.861,3.437 51.171,51.171 0 0 1 7.861,-3.437 z"
           transform="translate(-35.434,-49.611)"
           fill="#aa6550" />
        <path
           id="Path_8933"
           data-name="Path 8933"
           d="m 146.169,381.67 50.487,-33.87 -12.741,-23.1 -46.076,23.7 5.229,-24.893 -31.268,-9.257 -7.826,42.632 v 0 c -1.2,18.957 14,34.26 32.328,29.282 v 0 a 33.392,33.392 0 0 0 9.87,-4.494 z"
           transform="translate(7.791,-39.58)"
           fill="#ffbe9d" />
        <path
           id="Path_8934"
           data-name="Path 8934"
           d="m 142.7,376.237 a 2.134,2.134 0 0 1 -0.175,-0.637 11.7,11.7 0 0 1 -0.175,-1.785 12.6,12.6 0 0 1 1.3,-5.747 12.474,12.474 0 0 1 3.815,-4.494 10.288,10.288 0 0 1 1.526,-0.938 2.222,2.222 0 0 1 0.616,-0.245 c 0,0.063 -0.819,0.462 -1.988,1.4 a 13.042,13.042 0 0 0 -5.012,10.046 c -0.033,1.469 0.193,2.393 0.093,2.4 z"
           transform="translate(-3.742,-54.021)"
           fill="#aa6550" />
        <path
           id="Path_8935"
           data-name="Path 8935"
           d="m 328.06,292.86 c 0.315,-0.434 35.954,21.281 35.954,21.281 l 11.425,52.047 16.444,6.034 c 0,0 5.131,-57.921 1.225,-66.937 C 389.202,296.269 349.6,263.83 349.6,263.83 Z"
           transform="translate(-59.449,-24.456)"
           fill="#ffbe9d" />
        <path
           id="Path_8936"
           data-name="Path 8936"
           d="m 387.531,330 a 9.4,9.4 0 0 1 -3.087,2.912 9.528,9.528 0 0 1 -3.934,1.61 39.8,39.8 0 0 0 3.738,-1.918 37.442,37.442 0 0 0 3.283,-2.6 z"
           transform="translate(-75.182,-44.305)"
           fill="#aa6550" />
        <path
           id="Path_8937"
           data-name="Path 8937"
           d="m 266.83,304.5 2.793,49.954 56.955,-3.85 -1.722,-37.186 -8.3,-11.166 z"
           transform="translate(-41.082,-35.98)"
           fill="#263238" />
        <path
           id="Path_8938"
           data-name="Path 8938"
           d="m 248.34,375.767 c 0.168,0.959 5.005,46.2 5.005,46.2 l 84.767,-5.887 14.344,-1.925 -6.615,-42.128 -10.13,-2.427 z"
           transform="translate(-35.535,-56.184)"
           fill="#ff970b" />
        <path
           id="Path_8939"
           data-name="Path 8939"
           d="m 335.711,369.59 -87.371,6.174 c 0.168,0.959 5.005,46.2 5.005,46.2 l 88.253,-6.139 z"
           transform="translate(-35.535,-56.181)"
           opacity="0.4" />
        <path
           id="Path_8940"
           data-name="Path 8940"
           d="m 318.037,351.175 -48.414,3.276 -2.793,-49.951 49.73,-2.247 z"
           transform="translate(-41.082,-35.98)"
           fill="#455a64" />
        <path
           id="Path_8941"
           data-name="Path 8941"
           d="m 292.62,304.114 1.022,15.394 2.59,-1.484 1.435,1.484 1.785,-1.484 2.758,1.484 V 303.68 Z"
           transform="translate(-48.818,-36.409)"
           fill="#263238" />
        <path
           id="Path_8942"
           data-name="Path 8942"
           d="m 320.111,357.574 -3.311,-37.494 32.363,8.92 3.122,25.88 z"
           transform="translate(-56.071,-41.329)"
           fill="#ff970b" />
        <path
           id="Path_8943"
           data-name="Path 8943"
           d="m 349.148,329.005 a 1.489,1.489 0 0 1 -0.2,0.266 l -0.623,0.735 -2.38,2.716 -8.271,9.278 -0.126,0.14 -0.133,-0.133 -4.368,-4.62 -11.53,-12.187 -3.465,-3.724 -0.931,-1.022 a 1.988,1.988 0 0 1 -0.3,-0.378 2.8,2.8 0 0 1 0.357,0.322 l 0.98,0.98 3.542,3.64 11.607,12.111 4.4,4.627 h -0.259 l 8.4,-9.191 2.457,-2.646 0.665,-0.7 a 1.4,1.4 0 0 1 0.178,-0.214 z"
           transform="translate(-56.077,-41.329)"
           fill="#263238" />
        <path
           id="Path_8944"
           data-name="Path 8944"
           d="m 332.555,342.75 c 0.091,0.049 -2.219,4.473 -5.152,9.884 -2.933,5.411 -5.383,9.758 -5.474,9.709 -0.091,-0.049 2.219,-4.473 5.152,-9.884 2.933,-5.411 5.397,-9.759 5.474,-9.709 z"
           transform="translate(-57.609,-48.129)"
           fill="#263238" />
        <path
           id="Path_8945"
           data-name="Path 8945"
           d="m 362.251,362.849 c -0.084,0.049 -2.324,-3.535 -5.005,-8 -2.681,-4.465 -4.788,-8.141 -4.7,-8.2 0.088,-0.059 2.324,3.535 5.005,8.008 2.681,4.473 4.791,8.143 4.7,8.192 z"
           transform="translate(-66.793,-49.299)"
           fill="#263238" />
        <path
           id="Path_8946"
           data-name="Path 8946"
           d="m 345.454,361.318 -2.114,-23.878 20.609,5.684 1.988,16.479 z"
           transform="translate(-64.032,-46.536)"
           fill="#ff725e" />
        <path
           id="Path_8947"
           data-name="Path 8947"
           d="m 345.454,361.318 -2.114,-23.878 20.609,5.684 1.988,16.479 z"
           transform="translate(-64.032,-46.536)"
           fill="#ffffff"
           opacity="0.4" />
        <path
           id="Path_8948"
           data-name="Path 8948"
           d="m 363.952,343.124 a 3.963,3.963 0 0 1 -0.511,0.651 c -0.385,0.455 -0.889,1.036 -1.5,1.743 l -5.25,5.922 -0.126,0.147 -0.133,-0.14 -2.8,-2.94 c -2.877,-3.017 -5.467,-5.768 -7.329,-7.77 l -2.184,-2.387 a 6.856,6.856 0 0 1 -0.77,-0.91 7.3,7.3 0 0 1 0.868,0.812 l 2.275,2.3 c 1.911,1.96 4.529,4.683 7.406,7.7 l 2.8,2.947 h -0.294 l 5.341,-5.838 1.582,-1.673 a 4.45,4.45 0 0 1 0.625,-0.564 z"
           transform="translate(-64.035,-46.536)"
           fill="#263238" />
        <path
           id="Path_8949"
           data-name="Path 8949"
           d="m 353.379,351.88 a 69.34,69.34 0 0 1 -3.227,6.3 67.906,67.906 0 0 1 -3.542,6.153 67.725,67.725 0 0 1 3.22,-6.3 66.871,66.871 0 0 1 3.549,-6.153 z"
           transform="translate(-65.013,-50.868)"
           fill="#263238" />
        <path
           id="Path_8950"
           data-name="Path 8950"
           d="m 372.291,364.678 a 49.926,49.926 0 0 1 -3.248,-5.061 47.7,47.7 0 0 1 -2.933,-5.257 102.924,102.924 0 0 1 6.181,10.319 z"
           transform="translate(-70.862,-51.611)"
           fill="#263238" />
        <path
           id="Path_8951"
           data-name="Path 8951"
           d="m 365.12,344.12 v 1.918 l 3.01,0.35 0.161,-1.463 z"
           transform="translate(-70.565,-48.54)"
           fill="#ffffff" />
        <path
           id="Path_8952"
           data-name="Path 8952"
           d="m 349.94,330.21 v 2.8 l 5.684,0.938 0.315,-2.142 z"
           transform="translate(-66.012,-44.367)"
           fill="#ffffff" />
        <path
           id="Path_8953"
           data-name="Path 8953"
           d="m 313.28,387.6 -0.28,-13.96 -11.32,0.763 1.211,14.183 z"
           transform="translate(-51.536,-57.396)"
           fill="#ff725e" />
        <rect
           id="Rectangle_1224"
           data-name="Rectangle 1224"
           width="19.09"
           height="16.885"
           transform="rotate(-5.42,3724.3748,-2784.3971)"
           fill="#fafafa"
           x="0"
           y="0" />
        <path
           id="Path_8954"
           data-name="Path 8954"
           d="m 364.31,420.838 a 2.5,2.5 0 0 1 -0.049,-0.322 c 0,-0.231 -0.063,-0.532 -0.105,-0.91 -0.084,-0.812 -0.21,-1.967 -0.364,-3.416 -0.3,-2.954 -0.7,-7.126 -1.232,-12.146 l 0.168,0.14 -18.992,1.827 c -0.042,0.042 0.308,-0.371 0.161,-0.2 v 0 0.553 l 0.056,0.574 0.105,1.134 c 0.077,0.749 0.147,1.491 0.217,2.233 0.133,1.477 0.273,2.919 0.406,4.333 0.259,2.8 0.511,5.5 0.735,7.966 l -0.175,-0.14 13.714,-1.218 3.892,-0.329 1.043,-0.077 a 2.413,2.413 0 0 1 0.371,0 2.033,2.033 0 0 1 -0.329,0.049 l -1.008,0.119 -3.85,0.406 -13.8,1.4 h -0.161 v -0.161 c -0.245,-2.478 -0.5,-5.152 -0.777,-7.966 q -0.2,-2.1 -0.413,-4.333 c -0.07,-0.742 -0.14,-1.484 -0.21,-2.24 -0.035,-0.371 -0.07,-0.749 -0.112,-1.127 l -0.049,-0.574 v -0.553 0 c -0.147,0.175 0.2,-0.245 0.168,-0.2 l 19,-1.771 h 0.154 v 0.154 c 0.448,5.061 0.819,9.275 1.085,12.258 0.119,1.435 0.21,2.576 0.28,3.388 0,0.371 0.049,0.665 0.063,0.889 a 1.778,1.778 0 0 1 0.007,0.259 z"
           transform="translate(-64.085,-66.469)"
           fill="#263238" />
        <path
           id="Path_8955"
           data-name="Path 8955"
           d="m 362.446,409.831 c 0,0.105 -3.311,0.532 -7.42,0.966 a 74.334,74.334 0 0 1 -7.455,0.6 c 0,-0.1 3.311,-0.532 7.42,-0.966 4.109,-0.434 7.448,-0.698 7.455,-0.6 z"
           transform="translate(-65.301,-68.245)"
           fill="#263238" />
        <path
           id="Path_8956"
           data-name="Path 8956"
           d="m 362.571,413.92 a 10.544,10.544 0 0 1 -2.037,0.511 c -1.274,0.252 -3.045,0.546 -5.012,0.777 -1.967,0.231 -3.766,0.357 -5.061,0.4 a 11.739,11.739 0 0 1 -2.1,0 12.885,12.885 0 0 1 2.1,-0.238 c 1.288,-0.119 3.066,-0.28 5.026,-0.511 1.96,-0.231 3.731,-0.483 5.012,-0.7 a 14,14 0 0 1 2.072,-0.238 z"
           transform="translate(-65.538,-69.478)"
           fill="#263238" />
        <path
           id="Path_8957"
           data-name="Path 8957"
           d="m 363.718,422.84 a 10.939,10.939 0 0 1 -2.044,0.511 c -1.274,0.252 -3.045,0.546 -5.012,0.777 -1.967,0.231 -3.759,0.357 -5.061,0.4 a 10.876,10.876 0 0 1 -2.1,0 12.847,12.847 0 0 1 2.1,-0.238 c 1.288,-0.112 3.073,-0.28 5.033,-0.511 1.96,-0.231 3.731,-0.483 5.012,-0.7 a 13.9,13.9 0 0 1 2.072,-0.239 z"
           transform="translate(-65.88,-72.153)"
           fill="#263238" />
        <path
           id="Path_8958"
           data-name="Path 8958"
           d="m 362.474,418.27 a 64.968,64.968 0 0 1 -6.923,1.176 66.851,66.851 0 0 1 -7,0.812 133.3,133.3 0 0 1 13.924,-1.988 z"
           transform="translate(-65.595,-70.782)"
           fill="#263238" />
        <path
           id="Path_8959"
           data-name="Path 8959"
           d="m 382.6,441.458 c 0,0 15.646,-10.354 16.85,-15.646 1.204,-5.292 1.925,-10.108 1.925,-10.108 l -16.717,-6.923 1.659,6.02 c 0,0 -5.992,3.563 -6.608,7.882 -0.406,2.877 -8.155,7.805 -8.155,7.805 v 0 a 6.392,6.392 0 0 0 -5.341,-2.3 l -6.51,0.462 4.4,9.919 z"
           transform="translate(-68.939,-67.936)"
           fill="#ffbe9d" />
        <path
           id="Path_8960"
           data-name="Path 8960"
           d="m 393.59,435.19 a 2.494,2.494 0 0 1 -0.735,0.3 c -0.49,0.161 -1.218,0.322 -2.1,0.6 a 8.512,8.512 0 0 0 -2.716,1.582 13.616,13.616 0 0 1 -3.346,2.1 11.355,11.355 0 0 1 -7.1,0.6 3.816,3.816 0 0 1 -1.183,-0.441 0.868,0.868 0 0 1 -0.434,-0.868 0.644,0.644 0 0 1 0.35,-0.5 0.26,0.26 0 0 1 0.217,0 0.343,0.343 0 0 0 -0.182,0.077 0.6,0.6 0 0 0 -0.245,0.462 0.7,0.7 0 0 0 0.406,0.7 3.935,3.935 0 0 0 1.134,0.357 11.648,11.648 0 0 0 6.9,-0.7 13.658,13.658 0 0 0 3.276,-2.058 8.463,8.463 0 0 1 2.842,-1.554 c 0.9,-0.252 1.624,-0.371 2.1,-0.5 a 5.251,5.251 0 0 1 0.816,-0.157 z"
           transform="translate(-73.82,-75.858)"
           fill="#aa6550" />
        <path
           id="Path_8961"
           data-name="Path 8961"
           d="m 379.823,443.611 c 0,0.056 -0.805,-0.406 -2.135,-0.959 a 19.477,19.477 0 0 0 -5.425,-1.351 c -0.546,-0.056 -1.085,-0.07 -1.6,-0.084 h -0.1 l -0.056,-0.084 a 16.8,16.8 0 0 0 -2.905,-3.43 c -0.847,-0.763 -1.4,-1.155 -1.4,-1.2 0,-0.045 0.168,0.056 0.434,0.224 a 12.833,12.833 0 0 1 1.092,0.791 14.638,14.638 0 0 1 3.059,3.423 l -0.147,-0.084 a 10.887,10.887 0 0 1 1.638,0.084 17.172,17.172 0 0 1 5.5,1.477 13.556,13.556 0 0 1 1.519,0.812 2.1,2.1 0 0 1 0.532,0.378 z"
           transform="translate(-70.889,-76.25)"
           fill="#aa6550" />
        <path
           id="Path_8962"
           data-name="Path 8962"
           d="m 389.774,442.6 c 0,0.1 -1.057,0.5 -2.289,1.2 -1.232,0.7 -2.135,1.435 -2.205,1.351 a 7.617,7.617 0 0 1 4.494,-2.551 z"
           transform="translate(-76.613,-78.081)"
           fill="#aa6550" />
        <path
           id="Path_8963"
           data-name="Path 8963"
           d="m 401.866,415.922 c 0,0.112 -1.092,0 -2.338,0.315 -1.246,0.315 -2.1,0.959 -2.2,0.868 a 4.571,4.571 0 0 1 4.536,-1.183 z"
           transform="translate(-80.228,-70.023)"
           fill="#aa6550" />
        <g
           id="freepik--Plant--inject-9"
           transform="translate(65.988,312.225)">
          <path
             id="Path_8964"
             data-name="Path 8964"
             d="m 76.693,395.6 c 2.058,2.45 5.537,1.267 7.042,-0.476 1.505,-1.743 2,-4.109 2.436,-6.37 0.994,-5.166 1.988,-10.578 0.448,-15.611 a 8.618,8.618 0 0 0 -2.345,-4.025 4.5,4.5 0 0 0 -4.375,-1.029 c -1.75,0.63 -2.709,2.485 -3.36,4.2 a 36.885,36.885 0 0 0 -2.226,16.1 c 0.217,2.548 0.756,5.187 2.38,7.161"
             transform="translate(-49.282,-367.898)"
             fill="#ff725e" />
          <g
             id="Group_2393"
             data-name="Group 2393"
             transform="translate(24.899)"
             opacity="0.2">
            <path
               id="Path_8965"
               data-name="Path 8965"
               d="m 76.693,395.6 c 2.058,2.45 5.537,1.267 7.042,-0.476 1.505,-1.743 2,-4.109 2.436,-6.37 0.994,-5.166 1.988,-10.578 0.448,-15.611 a 8.618,8.618 0 0 0 -2.345,-4.025 4.5,4.5 0 0 0 -4.375,-1.029 c -1.75,0.63 -2.709,2.485 -3.36,4.2 a 36.885,36.885 0 0 0 -2.226,16.1 c 0.217,2.548 0.756,5.187 2.38,7.161"
               transform="translate(-74.181,-367.898)"
               fill="#995b07" />
          </g>
          <path
             id="Path_8966"
             data-name="Path 8966"
             d="m 87.927,424.578 a 16.079,16.079 0 0 1 9.73,-2.1 8.238,8.238 0 0 1 5.054,1.736 c 1.337,1.232 1.771,3.57 0.483,4.844 a 4.662,4.662 0 0 1 -3,1.05 c -2.6,0.2 -5.53,0 -7.462,1.757 -1.106,0.994 -1.764,2.548 -3.143,3.115 a 3.367,3.367 0 0 1 -3.829,-1.309 5.74,5.74 0 0 1 -0.791,-4.2 6.468,6.468 0 0 1 2.954,-4.893 z"
             transform="translate(-52.487,-384.255)"
             fill="#ff970b" />
          <path
             id="Path_8967"
             data-name="Path 8967"
             d="m 61.334,404.468 a 9.542,9.542 0 0 0 0.7,-8.883 16.963,16.963 0 0 0 -5.852,-7.049 28.057,28.057 0 0 0 -9.8,-4.648 10.031,10.031 0 0 0 -4.242,-0.336 4.417,4.417 0 0 0 -3.255,2.436 c -0.805,1.946 0.329,4.123 1.505,5.873 a 71.866,71.866 0 0 0 6.9,8.736 c 2.037,2.191 4.34,4.326 7.217,5.145 2.877,0.819 5.754,0.427 7.063,-1.631"
             transform="translate(-38.613,-372.566)"
             fill="#ff970b" />
          <path
             id="Path_8968"
             data-name="Path 8968"
             d="m 82.491,452.976 a 5.817,5.817 0 0 0 0.056,-1.2 v -3.266 a 46.055,46.055 0 0 1 0.308,-4.823 36.4,36.4 0 0 1 1.225,-5.761 20.581,20.581 0 0 1 2.408,-5.327 10.731,10.731 0 0 1 3.353,-3.332 10.129,10.129 0 0 1 2.961,-1.225 6.869,6.869 0 0 0 1.169,-0.273 5.186,5.186 0 0 0 -1.2,0.084 9.437,9.437 0 0 0 -3.108,1.113 10.788,10.788 0 0 0 -3.549,3.381 20.588,20.588 0 0 0 -2.506,5.439 34.705,34.705 0 0 0 -1.2,5.852 41.184,41.184 0 0 0 -0.2,4.865 c 0,1.4 0.084,2.506 0.133,3.276 a 5.27,5.27 0 0 0 0.15,1.197 z"
             transform="translate(-51.685,-385.855)"
             fill="#263238" />
          <path
             id="Path_8969"
             data-name="Path 8969"
             d="m 81.989,437.012 a 2.752,2.752 0 0 0 0,-0.553 c 0,-0.413 -0.084,-0.938 -0.14,-1.575 -0.126,-1.365 -0.3,-3.346 -0.448,-5.8 -0.315,-4.9 -0.5,-11.677 -0.35,-19.16 0.15,-7.483 0.644,-14.253 1.211,-19.125 0.126,-1.225 0.259,-2.324 0.4,-3.29 0.141,-0.966 0.238,-1.8 0.35,-2.471 0.112,-0.671 0.168,-1.155 0.231,-1.568 a 2.5,2.5 0 0 0 0.049,-0.553 2.017,2.017 0 0 0 -0.147,0.539 c -0.084,0.406 -0.189,0.917 -0.322,1.547 -0.133,0.63 -0.28,1.505 -0.434,2.471 -0.154,0.966 -0.322,2.058 -0.476,3.283 a 178.887,178.887 0 0 0 -1.351,19.16 c -0.147,7.5 0.084,14.295 0.49,19.2 0.189,2.45 0.42,4.431 0.609,5.789 0.091,0.637 0.175,1.155 0.231,1.568 a 2.667,2.667 0 0 0 0.097,0.538 z"
             transform="translate(-51.183,-372.404)"
             fill="#263238" />
          <path
             id="Path_8970"
             data-name="Path 8970"
             d="m 72.12,426.573 a 10.143,10.143 0 0 0 -0.154,-1.645 c -0.161,-1.05 -0.441,-2.562 -0.9,-4.41 a 59.985,59.985 0 0 0 -2.03,-6.363 57.785,57.785 0 0 0 -3.4,-7.441 A 41.12,41.12 0 0 0 56.531,395 22.189,22.189 0 0 0 54.494,393.425 c -0.308,-0.217 -0.581,-0.434 -0.861,-0.6 l -0.77,-0.441 a 11.58,11.58 0 0 0 -1.463,-0.763 46.262,46.262 0 0 1 4.9,3.647 43.3,43.3 0 0 1 8.883,11.677 62.238,62.238 0 0 1 3.437,7.343 60.686,60.686 0 0 1 2.1,6.3 c 0.5,1.827 0.833,3.318 1.05,4.354 a 10.184,10.184 0 0 0 0.35,1.631 z"
             transform="translate(-42.448,-375.014)"
             fill="#263238" />
        </g>
      </g>
    </g>
  </g>
</svg>
