<svg id="Iconly_Broken_Call" data-name="Iconly/Broken/Call" xmlns="http://www.w3.org/2000/svg" width="16.973" height="16.973" viewBox="0 0 16.973 16.973">
  <g id="Call" transform="translate(0 0)">
    <path id="Call-2" data-name="Call" d="M11.114,16.472c-2.771-1.15-6.962-4.88-9.32-8.3a.636.636,0,1,1,1.048-.721c2.2,3.2,6.225,6.8,8.785,7.859a2.283,2.283,0,0,0,2.379.1c.448-.27,1.718-1.532,1.695-2.189a.833.833,0,0,0-.246-.376,15.337,15.337,0,0,0-2.472-1.87c-.27-.057-.552.107-.981.377l-.218.135a.636.636,0,1,1-.657-1.09l.2-.121a2.6,2.6,0,0,1,1.956-.537,13.221,13.221,0,0,1,3.086,2.216,1.947,1.947,0,0,1,.607,1.191c.055,1.563-2.039,3.2-2.279,3.335a2.663,2.663,0,0,1-1.594.495A4.744,4.744,0,0,1,11.114,16.472ZM8.471,10.484A8.828,8.828,0,0,1,5.424,6.557,2.061,2.061,0,0,1,5.734,4.7c.192-.333.3-.531.253-.743a16.094,16.094,0,0,0-1.86-2.432.772.772,0,0,0-.408-.249c-.607-.015-1.85,1.186-2.132,1.654a2.28,2.28,0,0,0,.063,2.4.636.636,0,1,1-1.158.527A3.446,3.446,0,0,1,.529,2.221C.787,1.79,2.409-.088,3.8,0A1.957,1.957,0,0,1,5.016.61,13.24,13.24,0,0,1,7.234,3.694a2.245,2.245,0,0,1-.4,1.637c-.225.391-.3.558-.226.77a7.539,7.539,0,0,0,2.6,3.348.637.637,0,0,1-.741,1.036Z" fill="#87d8ea"/>
  </g>
</svg>
