<svg id="Iconly_Light-outline_Arrow_-_Left" data-name="Iconly/Light-outline/Arrow - Left" xmlns="http://www.w3.org/2000/svg" width="14" height="12" viewBox="0 0 14 12">
  <g id="Arrow_-_Left" data-name="Arrow - Left" transform="translate(0 0)">
    <path id="Arrow_-_Left-2" data-name="Arrow - Left" d="M5.341,13.444l-.005-.08V.636a.637.637,0,0,1,.41-.588A.689.689,0,0,1,6.4.131L6.47.188l5.337,5.133a.618.618,0,0,1,0,.9.686.686,0,0,1-.872.055l-.068-.057-4.2-4.042V13.364a.667.667,0,0,1-1.323.08ZM.2,6.22a.617.617,0,0,1-.061-.834l.06-.066L3.136,2.489a.687.687,0,0,1,.94,0,.616.616,0,0,1,.061.834l-.06.065L1.135,6.219a.685.685,0,0,1-.94,0Z" transform="translate(0 12) rotate(-90)" fill="#fff"/>
  </g>
</svg>
