<svg id="Iconly_Broken_Home" data-name="Iconly/Broken/Home" xmlns="http://www.w3.org/2000/svg" width="18.587" height="20" viewBox="0 0 18.587 20">
  <g id="Home">
    <path id="Home-2" data-name="Home" d="M3.879,20A3.925,3.925,0,0,1,0,16.046V8.017A3.07,3.07,0,0,1,1.161,5.65l.714-.543a.765.765,0,0,1,.956.25.8.8,0,0,1-.061,1l-.7.526a1.493,1.493,0,0,0-.525,1.13v8.021A2.361,2.361,0,0,0,3.879,18.4H7.836v.018a.789.789,0,0,1,0,1.578Zm9.1-.009A1.9,1.9,0,0,1,11.1,18.08V14.451a.5.5,0,0,0-.5-.508H8.016a.5.5,0,0,0-.356.152.517.517,0,0,0-.143.366v1.384a.774.774,0,1,1-1.548,0V14.46a2.116,2.116,0,0,1,.6-1.482,2.036,2.036,0,0,1,1.453-.614h2.581a2.077,2.077,0,0,1,2.047,2.1v3.62a.33.33,0,0,0,.327.333h1.763a2.345,2.345,0,0,0,2.323-2.367V8.017a1.493,1.493,0,0,0-.55-1.14L10.57,2.047a2,2,0,0,0-2.58,0L6.081,3.5a.779.779,0,0,1-1.1-.184A.814.814,0,0,1,5.161,2.2L7.044.8a3.518,3.518,0,0,1,4.472,0l5.944,4.83A3.1,3.1,0,0,1,18.587,8l-.008,8.038a3.917,3.917,0,0,1-3.88,3.953Z" fill="#87d8ea"/>
  </g>
</svg>
