<svg id="Iconly_Broken_More_Circle" data-name="Iconly/Broken/More Circle" xmlns="http://www.w3.org/2000/svg" width="19" height="19" viewBox="0 0 19 19">
  <g id="More_Circle" data-name="More Circle" transform="translate(0 0)">
    <path id="More_Circle-2" data-name="More Circle" d="M1.969,15.294a.691.691,0,1,1,1.094-.844A8.12,8.12,0,1,0,1.382,9.5a8.2,8.2,0,0,0,.092,1.234.691.691,0,0,1-1.365.209,9.5,9.5,0,1,1,1.86,4.35ZM12.617,9.5a1.138,1.138,0,1,1,1.138,1.137A1.139,1.139,0,0,1,12.617,9.5Zm-4.255,0A1.138,1.138,0,1,1,9.5,10.637,1.138,1.138,0,0,1,8.362,9.5Zm-4.256,0a1.138,1.138,0,1,1,1.139,1.137A1.14,1.14,0,0,1,4.106,9.5Z" transform="translate(0 0)" fill="#ff970b"/>
  </g>
</svg>
