<svg id="Iconly_Broken_Chart" data-name="Iconly/Broken/Chart" xmlns="http://www.w3.org/2000/svg" width="18" height="18" viewBox="0 0 18 18">
  <g id="Chart" transform="translate(0 0)">
    <path id="Chart-2" data-name="Chart" d="M5.628,18A5.216,5.216,0,0,1,0,12.38V5.628A5.218,5.218,0,0,1,5.628,0h6.744A5.226,5.226,0,0,1,18,5.628v2.09a.688.688,0,0,1-.689.689H17.3a.681.681,0,0,1-.68-.7V5.628c0-2.739-1.512-4.251-4.251-4.251H5.628c-2.747,0-4.251,1.512-4.251,4.251V12.38c0,2.739,1.512,4.243,4.251,4.243h6.744c2.747,0,4.251-1.512,4.251-4.243a.689.689,0,1,1,1.377,0A5.214,5.214,0,0,1,12.38,18Zm-.5-4.069a.688.688,0,0,1-.664-.712V7.457A.681.681,0,0,1,5.177,6.8a.689.689,0,0,1,.665.713v5.754a.689.689,0,0,1-.689.665Zm3.214-.7V4.789a.689.689,0,1,1,1.377,0v8.439a.689.689,0,1,1-1.377,0Zm3.815-.008V10.528a.689.689,0,0,1,1.378,0v2.692a.689.689,0,0,1-1.378,0ZM8.343,4.749v.04Z" transform="translate(0 0)" fill="#87d8ea"/>
  </g>
</svg>
