<svg id="Iconly_Broken_Time_Circle" data-name="Iconly/Broken/Time Circle" xmlns="http://www.w3.org/2000/svg" width="20" height="20" viewBox="0 0 20 20">
  <g id="Time_Circle" data-name="Time Circle">
    <path id="Time_Circle-2" data-name="Time Circle" d="M2.073,16.1a.727.727,0,0,1,1.152-.888A8.548,8.548,0,1,0,1.455,10a8.635,8.635,0,0,0,.1,1.3.727.727,0,0,1-.608.828.719.719,0,0,1-.828-.608A10,10,0,1,1,2.073,16.1Zm11-2.524L9.288,11.32a.73.73,0,0,1-.354-.625V5.837a.727.727,0,1,1,1.453,0v4.446l3.425,2.042a.727.727,0,0,1-.744,1.249Z" fill="#87d8ea"/>
  </g>
</svg>
