<svg id="Iconly_Broken_Show" data-name="Iconly/Broken/Show" xmlns="http://www.w3.org/2000/svg" width="20" height="16" viewBox="0 0 20 16">
  <g id="Show">
    <path id="Show-2" data-name="Show" d="M10,16h0C5.863,16,2.147,13.115.059,8.287a.721.721,0,0,1,0-.573C2.147,2.886,5.863,0,10,0h0c4.136,0,7.852,2.886,9.939,7.714a.721.721,0,0,1,0,.573,17.051,17.051,0,0,1-.823,1.654.734.734,0,0,1-1,.277.726.726,0,0,1-.277-.991c.221-.391.432-.8.625-1.228C16.6,3.9,13.453,1.456,10,1.455S3.4,3.9,1.531,8C3.4,12.1,6.547,14.545,10,14.545a8.108,8.108,0,0,0,5.6-2.4.736.736,0,0,1,1.033.024.722.722,0,0,1-.023,1.027A9.545,9.545,0,0,1,10,16ZM8,11.324a.723.723,0,0,1-.25-1,.732.732,0,0,1,1-.247A2.419,2.419,0,1,0,7.564,8,.731.731,0,0,1,6.1,8,3.892,3.892,0,1,1,8,11.324Z" fill="#cccaca"/>
  </g>
</svg>
