<svg id="Iconly_Broken_Profile" data-name="Iconly/Broken/Profile" xmlns="http://www.w3.org/2000/svg" width="16.135" height="19.721" viewBox="0 0 16.135 19.721">
  <g id="Profile">
    <path id="Profile-2" data-name="Profile" d="M7.037,19.707a.714.714,0,0,1-.706-.728.736.736,0,0,1,.748-.688q.487.013.989.013c4.385,0,6.61-.741,6.61-2.2,0-1.476-2.225-2.224-6.61-2.224s-6.61.742-6.61,2.2c0,.478.174,1.171,1.689,1.67a.7.7,0,0,1,.457.9.731.731,0,0,1-.924.444C.465,18.364,0,17.054,0,16.082c0-3.244,4.6-3.619,8.068-3.619,1.995,0,8.068,0,8.068,3.639,0,3.243-4.6,3.618-8.068,3.618Q7.543,19.721,7.037,19.707ZM2.635,5.279A5.364,5.364,0,0,1,8.068,0,5.364,5.364,0,0,1,13.5,5.279a5.363,5.363,0,0,1-5.432,5.278A5.363,5.363,0,0,1,2.635,5.279Zm1.458,0A3.923,3.923,0,0,0,8.068,9.141a3.924,3.924,0,0,0,3.975-3.861A3.924,3.924,0,0,0,8.068,1.417,3.923,3.923,0,0,0,4.093,5.279Z" fill="#d3d0d0"/>
  </g>
</svg>
