<svg xmlns="http://www.w3.org/2000/svg" width="18.4" height="14.72" viewBox="0 0 18.4 14.72">
  <g id="Iconly_Broken_Bookmark" data-name="Iconly/Broken/Bookmark" transform="translate(0 14.72) rotate(-90)">
    <g id="Bookmark">
      <path id="Bookmark-2" data-name="Bookmark" d="M10.6,0H4.259C1.642,0,0,1.827,0,4.758v12.1A1.525,1.525,0,0,0,1.507,18.4a1.5,1.5,0,0,0,.722-.187l5.163-2.866L13.4,18.23a.652.652,0,0,0,.51,0,.674.674,0,0,0,.362-.368.7.7,0,0,0-.293-.812L8.011,14.194a1.274,1.274,0,0,0-1.253,0L1.586,17.052a.194.194,0,0,1-.19,0,.2.2,0,0,1-.087-.171V4.758c.008-2.168,1.071-3.4,2.974-3.4h6.345c2.443,0,2.8,2.03,2.8,3.248v.552H6.559a.652.652,0,0,0-.459.215.683.683,0,0,0-.176.484.658.658,0,0,0,.634.65H13.4v7.105a.658.658,0,1,0,1.317.008h0V4.6C14.72,1.762,13.15,0,10.6,0Z" fill="#87d8ea"/>
    </g>
  </g>
</svg>
