<svg id="Iconly_Broken_Paper_Plus" data-name="Iconly/Broken/Paper Plus" xmlns="http://www.w3.org/2000/svg" width="17" height="20" viewBox="0 0 17 20">
  <g id="Paper_Plus" data-name="Paper Plus">
    <path id="Paper_Plus-2" data-name="Paper Plus" d="M4.57,20A4.463,4.463,0,0,1,0,15.443V12.92a.752.752,0,0,1,.748-.755.752.752,0,0,1,.748.755v2.523A2.96,2.96,0,0,0,4.57,18.49h7.963A3.013,3.013,0,0,0,15.5,15.443V6.383L11.687,2.369V3.686A1.831,1.831,0,0,0,13.5,5.522a.755.755,0,0,1,0,1.509h0a3.336,3.336,0,0,1-3.308-3.346V1.522H4.57a3.078,3.078,0,0,0-3.074,3V8.816a.752.752,0,0,1-.748.755A.752.752,0,0,1,0,8.816V4.522A4.6,4.6,0,0,1,4.57.012h6.312C10.9.01,10.92,0,10.939,0s.038.01.058.012h.2a.745.745,0,0,1,.54.233l5.05,5.312A.756.756,0,0,1,17,6.08v9.364A4.518,4.518,0,0,1,12.533,20Zm3-6.544V11.744H5.875a.755.755,0,0,1,0-1.51H7.57V8.521a.748.748,0,1,1,1.5,0v1.713h1.7a.755.755,0,0,1,0,1.51h-1.7v1.712a.748.748,0,1,1-1.5,0Z" fill="#87d8ea"/>
  </g>
</svg>
