<svg id="Iconly_Light-outline_Arrow_-_Right_2" data-name="Iconly/Light-outline/Arrow - Right 2" xmlns="http://www.w3.org/2000/svg" width="9" height="16" viewBox="0 0 9 16">
  <g id="Arrow_-_Right_2" data-name="Arrow - Right 2" transform="translate(0 0)">
    <path id="Arrow_-_Right_2-2" data-name="Arrow - Right 2" d="M.244,15.758a.815.815,0,0,1-.073-1.08l.076-.084L7.573,7.418a.845.845,0,0,1,1.184,0A.813.813,0,0,1,8.829,8.5l-.076.084L1.427,15.759a.846.846,0,0,1-1.183,0ZM5.2,6.245l-.086-.074L.247,1.407a.813.813,0,0,1,0-1.164.847.847,0,0,1,1.1-.076l.086.073L6.293,5a.813.813,0,0,1,0,1.164.848.848,0,0,1-1.1.076Z" fill="#200e32"/>
  </g>
</svg>
