<svg id="Iconly_Light-outline_Arrow_-_Right_2" data-name="Iconly/Light-outline/Arrow - Right 2" xmlns="http://www.w3.org/2000/svg" width="7" height="13" viewBox="0 0 7 13">
  <g id="Arrow_-_Right_2" data-name="Arrow - Right 2" transform="translate(0 0)">
    <path id="Arrow_-_Right_2-2" data-name="Arrow - Right 2" d="M.19,12.8a.684.684,0,0,1-.057-.878l.059-.068,5.7-5.831a.638.638,0,0,1,.921,0,.682.682,0,0,1,.057.877l-.059.068L1.11,12.8a.638.638,0,0,1-.921,0ZM4.042,5.074l-.067-.06L.192,1.143A.682.682,0,0,1,.19.2.638.638,0,0,1,1.044.135L1.11.194,4.894,4.066a.681.681,0,0,1,0,.946.639.639,0,0,1-.854.062Z" fill="#fff"/>
  </g>
</svg>
