<svg id="Iconly_Broken_Lock" data-name="Iconly/Broken/Lock" xmlns="http://www.w3.org/2000/svg" width="17" height="20" viewBox="0 0 17 20">
  <g id="Lock">
    <path id="Lock-2" data-name="Lock" d="M12.353,20H8.942a.75.75,0,1,1,0-1.5h3.411a3.07,3.07,0,0,0,3.092-3.042.364.364,0,0,1,.02-.105l.011-.041V11.169a3.071,3.071,0,0,0-3.093-3.042H4.617a3.071,3.071,0,0,0-3.092,3.042v4.144c0,.016.008.032.012.048a.351.351,0,0,1,.018.1A3.071,3.071,0,0,0,4.647,18.5a.75.75,0,1,1,0,1.5H4.622a4.632,4.632,0,0,1-3.269-1.331A4.472,4.472,0,0,1,0,15.458V11.169A4.55,4.55,0,0,1,3.1,6.9V5.3A5.367,5.367,0,0,1,8.49,0h.023A5.349,5.349,0,0,1,13.9,5.3V6.9A4.55,4.55,0,0,1,17,11.169v4.289A4.586,4.586,0,0,1,12.382,20ZM4.627,5.284V6.627h7.745V5.3A3.836,3.836,0,0,0,8.51,1.5H8.493A3.843,3.843,0,0,0,4.627,5.284Zm3.11,9.139V12.2a.762.762,0,0,1,1.525,0v2.22a.762.762,0,0,1-1.525,0Z" fill="#87d8ea"/>
  </g>
</svg>
