<svg xmlns="http://www.w3.org/2000/svg" width="18" height="19" viewBox="0 0 18 19">
  <g id="Iconly_Broken_Login" data-name="Iconly/Broken/Login" transform="translate(18 19) rotate(180)">
    <g id="Login">
      <path id="Login-2" data-name="Login" d="M8.82,19a4.3,4.3,0,0,1-4.369-4.215v-.893a.759.759,0,0,1,1.517,0v.893A2.807,2.807,0,0,0,8.82,17.537h4.8a2.817,2.817,0,0,0,2.863-2.762.759.759,0,0,1,1.517,0A4.309,4.309,0,0,1,13.62,19Zm-.037-6.22a.736.736,0,0,1,0-1.035l1.508-1.513H.726a.732.732,0,0,1,0-1.464H12.052a.726.726,0,0,1,.671.453.737.737,0,0,1-.159.8L9.81,12.782a.723.723,0,0,1-1.027,0Zm7.7-1.331V4.215A2.807,2.807,0,0,0,13.63,1.463H8.83A2.817,2.817,0,0,0,5.968,4.225v.884a.759.759,0,0,1-1.517,0V4.225A4.309,4.309,0,0,1,8.83,0h4.8A4.3,4.3,0,0,1,18,4.215v7.233a.759.759,0,0,1-1.518,0Zm-7-3.5-.693-.69a.736.736,0,0,1-.006-1.035.721.721,0,0,1,1.027-.006l.695.692a.734.734,0,0,1,0,1.034.713.713,0,0,1-.515.217A.722.722,0,0,1,9.48,7.947Z" fill="#87d8ea"/>
    </g>
  </g>
</svg>
