<?xml version="1.0" encoding="UTF-8" standalone="no"?>
<svg
   width="248.343"
   height="238.35201"
   viewBox="0 0 248.34301 238.352"
   version="1.1"
   id="svg238"
   sodipodi:docname="2832f71005511e3b10ae32aa67760812.svg"
   xmlns:inkscape="http://www.inkscape.org/namespaces/inkscape"
   xmlns:sodipodi="http://sodipodi.sourceforge.net/DTD/sodipodi-0.dtd"
   xmlns="http://www.w3.org/2000/svg"
   xmlns:svg="http://www.w3.org/2000/svg">
  <defs
     id="defs242" />
  <sodipodi:namedview
     id="namedview240"
     pagecolor="#ffffff"
     bordercolor="#666666"
     borderopacity="1.0"
     inkscape:pageshadow="2"
     inkscape:pageopacity="0.0"
     inkscape:pagecheckerboard="0" />
  <g
     id="In_no_time-pana_1_"
     data-name="In no time-pana (1)"
     transform="translate(-28.757,-42.51)">
    <g
       id="freepik--background-complete--inject-36"
       transform="translate(34.026,42.51)">
      <path
         id="Path_8262"
         data-name="Path 8262"
         d="m 170.778,296.912 c 0,0 -5.441,-3.794 -7.938,-3.107 -2.497,0.687 -5.7,4.2 -5.7,4.2 0,0 6.337,-1.827 8.248,-1.443 a 35.688,35.688 0 0 0 5.39,0.35 z"
         transform="translate(-90.025,-152.089)"
         fill="#e0e0e0" />
      <path
         id="Path_8263"
         data-name="Path 8263"
         d="m 181.8,301.81 c -0.795,1.793 -2.159,3.287 -2.926,5.074 a 8.6,8.6 0 0 0 -0.039,6.534 11.75,11.75 0 0 0 2.774,-5.565 30.492,30.492 0 0 0 0.637,-5.818 z"
         transform="translate(-99.216,-155.617)"
         fill="#e0e0e0" />
      <path
         id="Path_8264"
         data-name="Path 8264"
         d="m 174.751,300.731 c 0.248,-0.733 -5.909,-0.412 -7.893,1.962 -1.984,2.374 -3.947,4.956 -2.255,10.949 0,0 3.715,-6.495 3.715,-6.4 0,0.095 5.937,-5.079 6.433,-6.511 z"
         transform="translate(-93,-154.994)"
         fill="#e0e0e0" />
      <path
         id="Path_8265"
         data-name="Path 8265"
         d="m 183.149,300.015 c -0.564,0.22 5.023,1.923 7.606,2.131 a 7.859,7.859 0 0 0 4.144,-0.654 c 0,0 -3.749,-4.584 -11.75,-1.477 z"
         transform="translate(-101.353,-154.363)"
         fill="#e0e0e0" />
      <path
         id="Path_8266"
         data-name="Path 8266"
         d="m 233.31,341.15 c 0,0 2.695,-1.128 3.456,-0.338 0.761,0.79 3.868,4.883 6.816,5.136 0,0 -2.695,-5.728 -5.136,-6.653 -1.607,-0.609 -5.136,1.855 -5.136,1.855 z"
         transform="translate(-123.251,-171.926)"
         fill="#e0e0e0" />
      <path
         id="Path_8267"
         data-name="Path 8267"
         d="m 230.047,338.337 a 5.635,5.635 0 0 0 -1.128,-3.09 c -1.02,-1.066 -4.68,-1.787 -4.68,-1.787 a 14.286,14.286 0 0 0 2.684,3.123 15.109,15.109 0 0 0 3.123,1.753 z"
         transform="translate(-119.294,-169.422)"
         fill="#e0e0e0" />
      <path
         id="Path_8268"
         data-name="Path 8268"
         d="m 230.562,341.9 a 4.036,4.036 0 0 0 -3.2,2.317 19.277,19.277 0 0 0 -1.939,5.074 c 0.113,-0.2 3.541,-1.691 4.443,-3.6 a 7.922,7.922 0 0 0 0.7,-3.794 z"
         transform="translate(-119.809,-173.104)"
         fill="#e0e0e0" />
      <path
         id="Path_8269"
         data-name="Path 8269"
         d="m 235.29,341.9 c 0,0 0.338,4.465 1.094,5.226 a 16.284,16.284 0 0 1 1.855,3.535 c 0,0 1.691,-4.042 0.755,-5.976 -0.936,-1.934 -3.704,-2.785 -3.704,-2.785 z"
         transform="translate(-124.114,-173.104)"
         fill="#e0e0e0" />
      <path
         id="Path_8270"
         data-name="Path 8270"
         d="m 202.011,357.2 c -0.214,0.321 -4.51,3.67 -5.181,5.294 -0.671,1.624 -0.107,4.1 0,4.86 0.107,0.76 3.885,-0.975 4.51,-3.89 a 33.635,33.635 0 0 0 0.671,-6.264 z"
         transform="translate(-107.197,-179.778)"
         fill="#e0e0e0" />
      <path
         id="Path_8271"
         data-name="Path 8271"
         d="m 207.77,352.75 c 0,0.536 0.062,5.83 1.455,7.679 a 24.761,24.761 0 0 0 3.947,3.811 c 0,0 0.913,-6.692 -1.015,-8.761 a 10.453,10.453 0 0 0 -4.387,-2.729 z"
         transform="translate(-112.11,-177.837)"
         fill="#e0e0e0" />
      <path
         id="Path_8272"
         data-name="Path 8272"
         d="m 199.691,354.307 c -0.316,-0.073 -4.223,-0.445 -6.083,1.782 a 20.686,20.686 0 0 0 -2.9,4.753 c 0,0 5.909,-2.932 6.991,-4.229 1.082,-1.297 1.992,-2.306 1.992,-2.306 z"
         transform="translate(-104.669,-178.486)"
         fill="#e0e0e0" />
      <path
         id="Path_8273"
         data-name="Path 8273"
         d="m 211.41,349.643 a 3.078,3.078 0 0 1 3.349,-0.085 c 1.753,1.094 4.674,5.345 4.674,5.345 0,0 -3.574,-0.22 -5.435,-2.024 a 12.268,12.268 0 0 1 -2.588,-3.236 z"
         transform="translate(-113.698,-176.247)"
         fill="#e0e0e0" />
      <path
         id="Path_8274"
         data-name="Path 8274"
         d="m 198.542,349.338 a 12.958,12.958 0 0 0 -4,-2.357 c -1.742,-0.428 -6.805,0.834 -6.805,0.834 a 9.089,9.089 0 0 0 5.886,1.522 18.968,18.968 0 0 1 4.919,0.001 z"
         transform="translate(-103.373,-175.282)"
         fill="#e0e0e0" />
      <path
         id="Path_8275"
         data-name="Path 8275"
         d="m 193,386 c 0,0 -1.624,3.135 0,4.866 1.624,1.731 2.492,5.187 2.492,5.187 0,0 2.819,-2.706 1.4,-5.728 A 9.8,9.8 0 0 0 193,386 Z"
         transform="translate(-105.353,-192.34)"
         fill="#e0e0e0" />
      <path
         id="Path_8276"
         data-name="Path 8276"
         d="m 186.133,386.14 c -0.434,0.22 -3.242,4 -3.456,6.7 -0.214,2.7 -0.434,7.329 0,7.025 0.434,-0.304 3.563,-3.242 4.426,-6.05 0.863,-2.808 -0.97,-7.675 -0.97,-7.675 z"
         transform="translate(-101.055,-192.402)"
         fill="#e0e0e0" />
      <path
         id="Path_8277"
         data-name="Path 8277"
         d="m 178.712,385.609 c -0.428,0.107 -4.51,-0.648 -6.805,2.255 a 36.133,36.133 0 0 0 -4,7.132 c 0,0 5.942,-3.039 7.329,-4.708 1.387,-1.669 3.476,-4.679 3.476,-4.679 z"
         transform="translate(-94.723,-192.164)"
         fill="#e0e0e0" />
      <path
         id="Path_8278"
         data-name="Path 8278"
         d="m 227.775,376.42 a 11.619,11.619 0 0 0 0,6.918 31.627,31.627 0 0 0 2.639,5.4 c 0,0 1.827,-6.484 0.643,-8.215 -1.184,-1.731 -3.282,-4.103 -3.282,-4.103 z"
         transform="translate(-120.597,-188.162)"
         fill="#e0e0e0" />
      <path
         id="Path_8279"
         data-name="Path 8279"
         d="m 229.4,375.573 c 0.434,0.406 5.5,7.679 8.947,8.327 3.447,0.648 0.536,-0.276 0.536,-0.276 0,0 -1.082,-4.9 -2.627,-6.929 -1.545,-2.029 -6.856,-1.122 -6.856,-1.122 z"
         transform="translate(-121.545,-187.704)"
         fill="#e0e0e0" />
      <path
         id="Path_8280"
         data-name="Path 8280"
         d="m 228,372.792 a 56.022,56.022 0 0 1 5.2,-3.253 c 1.46,-0.66 6.3,0.209 6.3,0.209 0,0 -5.858,3.056 -7.267,2.763 -1.409,-0.293 -4.212,0.925 -4.212,0.925"
         transform="translate(-120.934,-185.052)"
         fill="#e0e0e0" />
      <path
         id="Path_8281"
         data-name="Path 8281"
         d="m 248.87,312.77 c 0,0 -3.236,3.434 -2.819,6.117 a 31.571,31.571 0 0 0 1.387,5.255 l 1.421,-4.719 z"
         transform="translate(-128.792,-160.398)"
         fill="#e0e0e0" />
      <path
         id="Path_8282"
         data-name="Path 8282"
         d="m 251.715,311.55 c 0,0 -0.75,5.26 0.75,7.4 1.5,2.14 3.541,6.2 3.755,5.9 a 5.749,5.749 0 0 0 1.077,-7.081 20.4,20.4 0 0 0 -5.582,-6.219 z"
         transform="translate(-131.197,-159.865)"
         fill="#e0e0e0" />
      <path
         id="Path_8283"
         data-name="Path 8283"
         d="m 244.29,312.851 c 0,0 -5.176,-1.5 -5.92,0.97 -0.744,2.47 -1.37,4.612 -1.37,4.612 a 20.3,20.3 0 0 1 3.653,-3.016 37.277,37.277 0 0 0 3.637,-2.566 z"
         transform="translate(-124.86,-160.236)"
         fill="#e0e0e0" />
      <path
         id="Path_8284"
         data-name="Path 8284"
         d="m 208.76,312.664 0.423,-0.366 c 1.223,-1.043 4.792,-3.913 6.6,-3.473 a 37.939,37.939 0 0 1 5.221,1.9 c 0,0 -7.824,4.059 -12.244,1.939 z"
         transform="translate(-112.542,-158.657)"
         fill="#e0e0e0" />
      <path
         id="Path_8285"
         data-name="Path 8285"
         d="m 205.338,315.424 c 0,-0.389 -2.351,-1.015 -4.431,1.128 a 8.864,8.864 0 0 0 -2.4,3.467 c 0,0 6.684,-0.891 6.831,-4.595 z"
         transform="translate(-108.071,-161.383)"
         fill="#e0e0e0" />
      <path
         id="Path_8286"
         data-name="Path 8286"
         d="m 209.036,316.5 c 0,0 -2.379,2.734 -0.564,5.418 1.815,2.684 3.383,5.26 3.383,5.26 a 8.688,8.688 0 0 0 0,-5.339 19.17,19.17 0 0 0 -2.819,-5.339 z"
         transform="translate(-112.118,-162.025)"
         fill="#e0e0e0" />
      <path
         id="Path_8287"
         data-name="Path 8287"
         d="m 220.34,324.312 c -0.107,-0.654 0.755,-6.01 -6.331,-5.48 h -0.648 c 0,0 3.383,5.469 4.166,7.188 a 7.453,7.453 0 0 0 2.193,3.005 c 0.834,0.75 0.727,-4.059 0.62,-4.713 z"
         transform="translate(-114.548,-163.025)"
         fill="#e0e0e0" />
      <path
         id="Path_8288"
         data-name="Path 8288"
         d="m 226.315,372.316 a 6.157,6.157 0 0 0 -1.691,-4.572 c -0.107,-0.118 -0.265,-0.237 -0.406,-0.169 a 0.4,0.4 0 0 0 -0.175,0.254 3.947,3.947 0 0 0 0.395,2.943 9.984,9.984 0 0 0 1.917,2.357"
         transform="translate(-119.154,-184.295)"
         fill="#e0e0e0" />
      <path
         id="Path_8289"
         data-name="Path 8289"
         d="m 187.6,380.647 a 12.122,12.122 0 0 0 -5.745,-5.255 0.8,0.8 0 0 0 -0.479,-0.1 0.62,0.62 0 0 0 -0.434,0.564 2.024,2.024 0 0 0 0.564,1.432 10.064,10.064 0 0 0 6.382,3.817"
         transform="translate(-100.407,-187.669)"
         fill="#e0e0e0" />
      <path
         id="Path_8290"
         data-name="Path 8290"
         d="m 227.66,370.752 a 7.386,7.386 0 0 0 -1.015,0.1 11.279,11.279 0 0 0 -2.672,0.693 15.406,15.406 0 0 0 -3.569,2.007 37.977,37.977 0 0 0 -3.766,3.343 c -2.577,2.509 -4.849,4.832 -6.422,6.58 -0.784,0.874 -1.41,1.59 -1.838,2.092 l -0.5,0.564 c -0.113,0.13 -0.175,0.2 -0.186,0.192 a 1.162,1.162 0 0 1 0.147,-0.225 c 0.107,-0.135 0.259,-0.344 0.462,-0.6 0.406,-0.519 1.009,-1.257 1.782,-2.148 1.545,-1.782 3.8,-4.138 6.377,-6.642 a 34.826,34.826 0 0 1 3.806,-3.355 15.144,15.144 0 0 1 3.648,-1.99 10.388,10.388 0 0 1 2.729,-0.615 6.666,6.666 0 0 1 0.755,0 1.21,1.21 0 0 1 0.262,0.004 z"
         transform="translate(-112.075,-185.684)"
         fill="#e0e0e0" />
      <path
         id="Path_8291"
         data-name="Path 8291"
         d="m 197.417,391.276 c -0.039,0.028 -0.462,-0.7 -1.381,-1.691 a 11.727,11.727 0 0 0 -9.427,-3.7 c -1.342,0.09 -2.148,0.338 -2.159,0.293 a 2.193,2.193 0 0 1 0.564,-0.192 9.669,9.669 0 0 1 1.584,-0.282 11.276,11.276 0 0 1 9.585,3.755 9.367,9.367 0 0 1 0.97,1.291 2.39,2.39 0 0 1 0.264,0.526 z"
         transform="translate(-101.938,-192.187)"
         fill="#e0e0e0" />
      <path
         id="Path_8292"
         data-name="Path 8292"
         d="m 208.264,315.6 a 0.834,0.834 0 0 1 0,0.158 2.051,2.051 0 0 1 -0.039,0.451 c -0.039,0.412 -0.1,0.992 -0.169,1.731 -0.152,1.5 -0.372,3.676 -0.615,6.365 -0.474,5.373 -1.037,12.821 -1.026,21.058 0.011,8.237 0.6,15.685 1.02,21.064 0.22,2.678 0.395,4.854 0.519,6.377 0.056,0.739 0.1,1.319 0.135,1.731 a 2.058,2.058 0 0 0 0.028,0.451 0.565,0.565 0 0 1 0,0.158 0.814,0.814 0 0 1 -0.028,-0.152 1.587,1.587 0 0 0 -0.051,-0.451 c -0.045,-0.412 -0.107,-0.992 -0.18,-1.731 -0.152,-1.5 -0.366,-3.676 -0.6,-6.365 -0.462,-5.379 -1.071,-12.826 -1.128,-21.08 a 190.207,190.207 0 0 1 1.128,-21.075 c 0.265,-2.689 0.513,-4.86 0.693,-6.36 q 0.141,-1.128 0.22,-1.725 l 0.068,-0.451 a 0.473,0.473 0 0 1 0.025,-0.154 z"
         transform="translate(-111.392,-161.632)"
         fill="#e0e0e0" />
      <path
         id="Path_8293"
         data-name="Path 8293"
         d="m 224.6,341.319 a 3.635,3.635 0 0 1 -0.756,0.118 c -0.485,0.051 -1.19,0.147 -2.052,0.282 a 38.153,38.153 0 0 0 -12.815,4.51 c -0.761,0.429 -1.364,0.795 -1.782,1.06 a 3.655,3.655 0 0 1 -0.66,0.378 4.509,4.509 0 0 1 0.609,-0.462 c 0.395,-0.288 0.992,-0.677 1.742,-1.128 a 34.24,34.24 0 0 1 12.877,-4.51 c 0.874,-0.113 1.579,-0.18 2.069,-0.2 a 4.412,4.412 0 0 1 0.767,-0.045 z"
         transform="translate(-111.574,-172.85)"
         fill="#e0e0e0" />
      <path
         id="Path_8294"
         data-name="Path 8294"
         d="m 194.516,319.907 a 2.315,2.315 0 0 1 -0.068,-0.288 c -0.039,-0.22 -0.085,-0.5 -0.147,-0.834 a 11.769,11.769 0 0 0 -0.259,-1.308 16.578,16.578 0 0 0 -0.445,-1.691 c -0.1,-0.31 -0.2,-0.637 -0.31,-0.975 -0.11,-0.338 -0.259,-0.677 -0.395,-1.037 -0.265,-0.722 -0.637,-1.455 -1.009,-2.255 a 29.194,29.194 0 0 0 -3.084,-4.685 36.4,36.4 0 0 0 -7.56,-6.834 c -0.524,-0.389 -1.037,-0.682 -1.472,-0.975 -0.435,-0.293 -0.823,-0.513 -1.128,-0.7 l -0.727,-0.451 a 1.428,1.428 0 0 1 -0.242,-0.164 1.128,1.128 0 0 1 0.271,0.118 l 0.744,0.4 c 0.327,0.169 0.722,0.383 1.161,0.665 0.439,0.282 0.964,0.564 1.505,0.942 a 34.685,34.685 0 0 1 7.649,6.828 28.319,28.319 0 0 1 3.1,4.742 23.178,23.178 0 0 1 1,2.255 c 0.13,0.366 0.288,0.7 0.383,1.054 0.095,0.354 0.2,0.671 0.3,0.987 a 17.437,17.437 0 0 1 0.412,1.731 9.837,9.837 0 0 1 0.22,1.319 c 0.039,0.344 0.073,0.62 0.1,0.84 a 1,1 0 0 1 0.001,0.316 z"
         transform="translate(-98.98,-153.828)"
         fill="#e0e0e0" />
      <path
         id="Path_8295"
         data-name="Path 8295"
         d="m 232.9,312.33 a 1.218,1.218 0 0 1 -0.271,0.124 l -0.795,0.3 c -0.693,0.248 -1.691,0.626 -2.909,1.128 a 86.71,86.71 0 0 0 -9.286,4.375 85.69,85.69 0 0 0 -8.671,5.5 c -1.071,0.767 -1.923,1.4 -2.5,1.855 l -0.677,0.513 a 1.5,1.5 0 0 1 -0.248,0.164 2.42,2.42 0 0 1 0.214,-0.209 l 0.648,-0.564 c 0.564,-0.474 1.4,-1.128 2.458,-1.928 a 74.721,74.721 0 0 1 18,-9.9 c 1.229,-0.468 2.255,-0.823 2.937,-1.043 l 0.812,-0.254 a 1.459,1.459 0 0 1 0.288,-0.061 z"
         transform="translate(-112.01,-160.206)"
         fill="#e0e0e0" />
      <path
         id="Path_8296"
         data-name="Path 8296"
         d="M 208.589,444.844 H 188.236 L 186.11,419.98 h 24.864 z"
         transform="translate(-102.662,-207.163)"
         fill="#e0e0e0" />
      <rect
         id="Rectangle_1178"
         data-name="Rectangle 1178"
         width="28.087999"
         height="3.823"
         transform="translate(81.875,212.817)"
         fill="#e0e0e0"
         x="0"
         y="0" />
      <path
         id="Path_8297"
         data-name="Path 8297"
         d="m 211.11,426.68 c 0,0.068 -6.286,0.13 -14.027,0.13 -7.741,0 -14.033,-0.062 -14.033,-0.13 0,-0.068 6.281,-0.13 14.033,-0.13 7.752,0 14.027,0.056 14.027,0.13 z"
         transform="translate(-101.327,-210.028)"
         fill="#ebebeb" />
      <rect
         id="Rectangle_1179"
         data-name="Rectangle 1179"
         width="17.285999"
         height="21.819"
         transform="rotate(-179.55,106.80219,118.67742)"
         fill="#ebebeb"
         x="0"
         y="0" />
      <path
         id="Path_8298"
         data-name="Path 8298"
         d="m 401.259,427.423 -0.31,21.126 -2.729,-0.023 0.586,-21.126 z"
         transform="translate(-195.185,-210.399)"
         fill="#fafafa" />
      <path
         id="Path_8299"
         data-name="Path 8299"
         d="m 367.214,427.16 9.917,0.073 17.286,0.135 -17.309,2.278 -0.147,18.718 -9.912,-0.079 z"
         transform="translate(-181.588,-210.294)"
         fill="#e0e0e0" />
      <path
         id="Path_8300"
         data-name="Path 8300"
         d="m 374.332,427.213 -0.395,21.126 -2.937,-0.023 0.479,-21.126 z"
         transform="translate(-183.311,-210.308)"
         fill="#fafafa" />
      <path
         id="Path_8301"
         data-name="Path 8301"
         d="m 384.448,410.526 c 0,0.13 -0.282,0.271 -0.812,0.4 a 13.877,13.877 0 0 1 -3.947,0.288 5.978,5.978 0 0 1 -0.919,-0.107 6.763,6.763 0 0 1 -1.009,-0.214 2.963,2.963 0 0 1 -0.62,-0.265 1.934,1.934 0 0 1 -0.66,-0.62 1.855,1.855 0 0 1 -0.282,-0.947 2.907,2.907 0 0 1 0.085,-0.733 12.564,12.564 0 0 1 0.66,-2.193 6.048,6.048 0 0 1 0.631,-1.128 5.11,5.11 0 0 1 0.425,-0.507 3.132,3.132 0 0 1 0.564,-0.462 2.311,2.311 0 0 1 0.784,-0.316 2,2 0 0 1 0.9,0 2.971,2.971 0 0 1 1.184,0.654 9.585,9.585 0 0 1 2.255,2.785 6.767,6.767 0 0 1 0.761,2.255 c 0.068,0.564 0,0.885 -0.124,0.919 -0.282,0.062 -0.688,-1.049 -1.787,-2.447 a 11.21,11.21 0 0 0 -2.221,-2.126 1.218,1.218 0 0 0 -0.5,-0.259 0.18,0.18 0 0 0 -0.1,0 0.65,0.65 0 0 0 -0.147,0.079 1.566,1.566 0 0 0 -0.22,0.192 3.391,3.391 0 0 0 -0.242,0.3 4.076,4.076 0 0 0 -0.417,0.761 13.737,13.737 0 0 0 -0.6,1.855 1.5,1.5 0 0 0 -0.051,0.271 h -0.051 c -0.062,0 -0.079,0.034 -0.039,0 l 0.068,-0.051 v 0 a 0.215,0.215 0 0 0 0.051,0.045 1.219,1.219 0 0 0 0.248,0.13 7.9,7.9 0 0 0 0.767,0.231 c 0.271,0.073 0.564,0.13 0.795,0.18 0.519,0.107 1.015,0.18 1.471,0.242 0.919,0.124 1.691,0.2 2.216,0.3 0.525,0.1 0.883,0.352 0.883,0.488 z"
         transform="translate(-185.579,-200.048)"
         fill="#e0e0e0" />
      <path
         id="Path_8302"
         data-name="Path 8302"
         d="m 390.113,410.032 c -0.045,-0.276 1.246,-0.682 3.264,-1.274 a 27.8,27.8 0 0 0 3.383,-1.218 3.344,3.344 0 0 0 0.739,-0.412 c 0.079,-0.062 0.113,-0.124 0.1,-0.118 -0.013,0.006 0,0.079 0,0.039 a 1.544,1.544 0 0 0 -0.124,-0.3 c -0.079,-0.175 -0.164,-0.344 -0.248,-0.519 a 8.632,8.632 0 0 0 -0.524,-0.936 3.851,3.851 0 0 0 -0.615,-0.739 3.943,3.943 0 0 0 -0.35,-0.276 1.581,1.581 0 0 0 -0.316,-0.169 0.784,0.784 0 0 0 -0.507,-0.051 1.737,1.737 0 0 0 -0.615,0.355 13.533,13.533 0 0 0 -2.362,2.565 c -1.156,1.652 -1.46,2.937 -1.748,2.9 -0.13,0 -0.225,-0.372 -0.18,-1 a 7.386,7.386 0 0 1 0.75,-2.577 11.236,11.236 0 0 1 2.368,-3.219 3.5,3.5 0 0 1 1.223,-0.778 2.621,2.621 0 0 1 1.691,0.028 3.721,3.721 0 0 1 0.722,0.35 5.271,5.271 0 0 1 1.528,1.55 8.622,8.622 0 0 1 0.643,1.167 l 0.254,0.564 a 3.141,3.141 0 0 1 0.254,0.795 1.782,1.782 0 0 1 -0.192,1.128 2.138,2.138 0 0 1 -0.643,0.7 4.658,4.658 0 0 1 -1.178,0.564 17.578,17.578 0 0 1 -3.789,0.908 c -2.153,0.3 -3.483,0.221 -3.528,-0.027 z"
         transform="translate(-191.599,-199.396)"
         fill="#ebebeb" />
      <rect
         id="Rectangle_1180"
         data-name="Rectangle 1180"
         width="25.41"
         height="7.2220001"
         transform="rotate(-179.55,104.37214,108.1068)"
         fill="#e0e0e0"
         x="0"
         y="0" />
      <rect
         id="Rectangle_1181"
         data-name="Rectangle 1181"
         width="22.969"
         height="7.2220001"
         transform="rotate(-179.55,107.82324,108.11875)"
         fill="#ebebeb"
         x="0"
         y="0" />
      <path
         id="Path_8303"
         data-name="Path 8303"
         d="m 404.472,414.637 -0.164,7.256 -2.678,-0.056 0.186,-7.217 z"
         transform="translate(-196.672,-204.825)"
         fill="#fafafa" />
      <path
         id="Path_8304"
         data-name="Path 8304"
         d="m 370.432,414.406 -0.259,7.194 -2.943,-0.023 0.158,-7.228 z"
         transform="translate(-181.667,-204.707)"
         fill="#fafafa" />
      <rect
         id="Rectangle_1182"
         data-name="Rectangle 1182"
         width="9.7930002"
         height="12.364"
         transform="rotate(-179.55,112.62419,118.65556)"
         fill="#ebebeb"
         x="0"
         y="0" />
      <path
         id="Path_8305"
         data-name="Path 8305"
         d="m 427.99,443.711 -0.175,11.969 -1.545,-0.011 0.33,-11.969 z"
         transform="translate(-207.42,-217.509)"
         fill="#fafafa" />
      <path
         id="Path_8306"
         data-name="Path 8306"
         d="m 408.7,443.56 5.621,0.039 9.793,0.079 -9.8,1.291 -0.085,10.605 -5.615,-0.045 z"
         transform="translate(-199.717,-217.448)"
         fill="#e0e0e0" />
      <path
         id="Path_8307"
         data-name="Path 8307"
         d="m 412.729,443.591 -0.22,11.969 -1.669,-0.011 0.271,-11.969 z"
         transform="translate(-200.689,-217.457)"
         fill="#fafafa" />
      <path
         id="Path_8308"
         data-name="Path 8308"
         d="m 418.372,434.054 c 0,0.18 -0.643,0.4 -1.765,0.5 a 6.37,6.37 0 0 1 -2.052,-0.169 1.4,1.4 0 0 1 -0.795,-0.564 1.128,1.128 0 0 1 -0.18,-0.6 1.657,1.657 0 0 1 0.051,-0.451 7.145,7.145 0 0 1 0.378,-1.263 3.609,3.609 0 0 1 0.372,-0.654 2.17,2.17 0 0 1 0.609,-0.564 1.358,1.358 0 0 1 1.049,-0.18 1.883,1.883 0 0 1 0.722,0.4 5.316,5.316 0 0 1 1.291,1.629 c 0.53,1.071 0.451,1.827 0.282,1.855 -0.169,0.028 -0.462,-0.564 -1.094,-1.331 a 6.682,6.682 0 0 0 -1.257,-1.161 0.563,0.563 0 0 0 -0.237,-0.118 v 0 a 0.118,0.118 0 0 0 -0.04,0.028 1.014,1.014 0 0 0 -0.225,0.248 2.3,2.3 0 0 0 -0.225,0.406 8.126,8.126 0 0 0 -0.327,1.026 l -0.028,0.124 h -0.164 a 0.463,0.463 0 0 0 0.1,-0.085 h 0.028 a 0.435,0.435 0 0 0 0.113,0.062 9.862,9.862 0 0 0 1.691,0.395 c 1.015,0.151 1.703,0.27 1.703,0.467 z"
         transform="translate(-201.884,-211.562)"
         fill="#e0e0e0" />
      <path
         id="Path_8309"
         data-name="Path 8309"
         d="m 421.589,433.707 c -0.034,-0.209 0.693,-0.491 1.821,-0.857 a 17.631,17.631 0 0 0 1.889,-0.727 1.473,1.473 0 0 0 0.372,-0.214 c 0.034,0 0.034,-0.045 0,0 a 0.282,0.282 0 0 0 -0.034,0.147 c -0.068,-0.135 -0.135,-0.271 -0.2,-0.412 a 5.255,5.255 0 0 0 -0.288,-0.507 1.961,1.961 0 0 0 -0.316,-0.378 1.125,1.125 0 0 0 -0.31,-0.22 0.237,0.237 0 0 0 -0.164,-0.028 0.665,0.665 0 0 0 -0.288,0.158 8.018,8.018 0 0 0 -1.336,1.387 c -0.671,0.891 -0.9,1.6 -1.128,1.567 -0.228,-0.033 -0.344,-0.868 0.2,-2.1 a 6.309,6.309 0 0 1 1.347,-1.889 2.109,2.109 0 0 1 0.755,-0.485 1.725,1.725 0 0 1 1.094,0 2.527,2.527 0 0 1 0.445,0.22 2.459,2.459 0 0 1 0.355,0.271 3.276,3.276 0 0 1 0.564,0.66 4.971,4.971 0 0 1 0.378,0.688 l 0.147,0.316 a 2.306,2.306 0 0 1 0.158,0.5 1.223,1.223 0 0 1 -0.135,0.772 1.336,1.336 0 0 1 -0.417,0.457 2.763,2.763 0 0 1 -0.71,0.355 9.362,9.362 0 0 1 -2.188,0.479 c -1.216,0.127 -1.977,0.033 -2.011,-0.16 z"
         transform="translate(-205.305,-211.124)"
         fill="#e0e0e0" />
      <rect
         id="Rectangle_1183"
         data-name="Rectangle 1183"
         width="14.399"
         height="4.0929999"
         transform="rotate(-179.55,111.24965,112.66537)"
         fill="#e0e0e0"
         x="0"
         y="0" />
      <rect
         id="Rectangle_1184"
         data-name="Rectangle 1184"
         width="13.012"
         height="4.0929999"
         transform="rotate(-179.55,113.2037,112.67119)"
         fill="#ebebeb"
         x="0"
         y="0" />
      <path
         id="Path_8310"
         data-name="Path 8310"
         d="m 429.807,436.461 -0.09,4.11 -1.517,-0.028 0.107,-4.093 z"
         transform="translate(-208.262,-214.347)"
         fill="#fafafa" />
      <path
         id="Path_8311"
         data-name="Path 8311"
         d="m 410.525,436.334 -0.147,4.076 -1.669,-0.017 0.09,-4.093 z"
         transform="translate(-199.76,-214.281)"
         fill="#fafafa" />
      <rect
         id="Rectangle_1185"
         data-name="Rectangle 1185"
         width="74.636002"
         height="123.54"
         transform="translate(2.481)"
         fill="#e0e0e0"
         x="0"
         y="0" />
      <rect
         id="Rectangle_1186"
         data-name="Rectangle 1186"
         width="74.636002"
         height="123.54"
         fill="#ebebeb"
         x="0"
         y="0" />
      <rect
         id="Rectangle_1187"
         data-name="Rectangle 1187"
         width="68.276001"
         height="118.528"
         transform="translate(3.18,2.509)"
         fill="#fafafa"
         x="0"
         y="0" />
      <rect
         id="Rectangle_1188"
         data-name="Rectangle 1188"
         width="41.986"
         height="87.726997"
         transform="translate(16.175,17.906)"
         fill="#ebebeb"
         x="0"
         y="0" />
      <path
         id="Path_8312"
         data-name="Path 8312"
         d="m 66.786,149.772 c -0.1,-8.192 7.273,-16.192 15.386,-17.337 3.868,-0.564 7.983,0.22 11.6,-1.263 6.456,-2.644 8.508,-11.22 15,-13.762 l 0.293,63.4 H 66.78 Z"
         transform="translate(-50.61,-75.181)"
         fill="#e0e0e0" />
    </g>
    <g
       id="freepik--Floor--inject-36"
       transform="translate(28.76,280.563)">
      <path
         id="Path_8313"
         data-name="Path 8313"
         d="m 277.1,464.887 c 0,0.085 -55.6,0.152 -124.166,0.152 -68.566,0 -124.177,-0.068 -124.177,-0.152 0,-0.084 55.585,-0.147 124.177,-0.147 68.592,0 124.166,0.068 124.166,0.147 z"
         transform="translate(-28.76,-464.74)"
         fill="#263238" />
    </g>
    <g
       id="freepik--Device--inject-36"
       transform="translate(131.383,54.519)">
      <path
         id="Path_8314"
         data-name="Path 8314"
         d="m 333.587,249.458 -116.3,-0.051 a 6.518,6.518 0 0 1 -6.506,-6.518 l 0.09,-172.562 a 6.512,6.512 0 0 1 6.518,-6.518 l 116.295,0.062 a 6.512,6.512 0 0 1 6.512,6.512 l -0.1,172.562 a 6.512,6.512 0 0 1 -6.512,6.512 z"
         transform="translate(-210.78,-63.81)"
         fill="#ff970b" />
      <rect
         id="Rectangle_1189"
         data-name="Rectangle 1189"
         width="121.166"
         height="154.989"
         transform="translate(3.885,12.855)"
         fill="#ffffff"
         x="0"
         y="0" />
      <path
         id="Path_8315"
         data-name="Path 8315"
         d="m 326.593,372.657 a 4.956,4.956 0 1 1 -1.448,-3.512 4.961,4.961 0 0 1 1.448,3.512 z"
         transform="translate(-256.969,-196.363)"
         fill="#455a64" />
      <rect
         id="Rectangle_1190"
         data-name="Rectangle 1190"
         width="38.946999"
         height="2.052"
         rx="1.026"
         transform="translate(45.279,5.373)"
         fill="#455a64"
         x="0"
         y="0" />
      <path
         id="Path_8316"
         data-name="Path 8316"
         d="m 422.3,236.1 v 0 a 1.455,1.455 0 0 1 -1.455,-1.46 l 0.056,-110.031 a 1.455,1.455 0 0 1 1.46,-1.455 v 0 a 1.46,1.46 0 0 1 1.455,1.455 l -0.068,110.031 a 1.455,1.455 0 0 1 -1.448,1.46 z"
         transform="translate(-302.413,-89.694)"
         fill="#e0e0e0" />
      <path
         id="Path_8317"
         data-name="Path 8317"
         d="m 331.292,108.978 c 0,0.085 -11.242,0.141 -25.106,0.135 -13.864,-0.006 -25.106,-0.079 -25.106,-0.158 0,-0.079 11.242,-0.141 25.106,-0.135 13.864,0.006 25.106,0.101 25.106,0.158 z"
         transform="translate(-241.445,-83.443)"
         fill="#263238" />
      <path
         id="Path_8318"
         data-name="Path 8318"
         d="m 238.55,109.013 h 0.615 l 1.652,-0.045 -0.051,0.056 v -1.9 a 0.648,0.648 0 0 1 0.564,-0.519 h 0.795 a 0.654,0.654 0 0 1 0.564,0.648 c 0,0.564 0,1.128 0,1.753 l -0.085,-0.085 h 2.096 l -0.09,0.09 v -3.27 a 0.648,0.648 0 0 0 -0.293,-0.485 l -0.913,-0.9 -0.88,-0.868 c -0.141,-0.147 -0.288,-0.288 -0.428,-0.423 -0.14,-0.135 -0.259,-0.288 -0.428,-0.321 a 0.564,0.564 0 0 0 -0.468,0.09 c -0.124,0.1 -0.265,0.254 -0.389,0.378 l -0.789,0.693 c -0.474,0.491 -0.97,0.942 -1.325,1.359 a 1.516,1.516 0 0 0 -0.1,0.778 c 0,0.259 0,0.5 0,0.739 v 1.945 a 1.614,1.614 0 0 1 0,0.276 1.443,1.443 0 0 1 0,-0.254 v -3.107 a 0.874,0.874 0 0 1 0.118,-0.44 c 0.389,-0.479 0.851,-0.9 1.325,-1.4 l 0.744,-0.761 a 5.468,5.468 0 0 1 0.406,-0.4 0.722,0.722 0 0 1 0.615,-0.124 1.128,1.128 0 0 1 0.507,0.366 l 0.428,0.417 0.885,0.868 0.913,0.9 a 0.823,0.823 0 0 1 0.35,0.609 c 0,0.226 0,0.445 0,0.671 v 2.695 h -2.266 v -1.815 a 0.485,0.485 0 0 0 -0.412,-0.5 h -0.755 a 0.5,0.5 0 0 0 -0.445,0.4 v 1.923 h -2.176 z"
         transform="translate(-222.893,-80.682)"
         fill="#263238" />
      <path
         id="Path_8319"
         data-name="Path 8319"
         d="m 401.969,103.387 a 0.09,0.09 0 0 0 -0.062,-0.028 H 395.1 l -0.034,-0.282 -0.079,-0.564 a 0.085,0.085 0 0 0 -0.079,-0.073 h -1.37 c -0.107,0 -0.18,0 -0.18,0.09 0,0.09 0.073,0.09 0.18,0.09 h 1.252 l 0.7,5.4 a 0.079,0.079 0 0 0 0.085,0.073 h 5.537 c 0.13,0 0.192,0 0.192,-0.085 0,-0.085 -0.062,-0.09 -0.192,-0.1 l -5.4,-0.073 -0.124,-0.953 5.672,0.073 v 0 a 0.085,0.085 0 0 0 0.085,-0.068 l 0.417,-2.255 0.225,-1.218 a 0.079,0.079 0 0 0 -0.018,-0.027 z m -6.839,0.124 6.585,0.09 -0.564,3.157 h -5.57 z"
         transform="translate(-290.421,-80.66)"
         fill="#263238" />
      <path
         id="Path_8320"
         data-name="Path 8320"
         d="m 398.981,114.335 a 0.693,0.693 0 0 0 -0.231,-0.378 0.66,0.66 0 0 0 -0.637,-0.107 0.677,0.677 0 0 0 0,1.274 0.654,0.654 0 0 0 0.226,0.039 0.665,0.665 0 0 0 0.412,-0.141 0.62,0.62 0 0 0 0.237,-0.372 0.486,0.486 0 0 0 0,-0.158 0.727,0.727 0 0 0 -0.007,-0.157 z m -0.8,0.564 a 0.445,0.445 0 0 1 0,-0.834 0.485,0.485 0 0 1 0.152,0 0.468,0.468 0 0 1 0.271,0.09 0.491,0.491 0 0 1 0.175,0.248 0.423,0.423 0 0 1 0,0.1 v -0.017 a 0.254,0.254 0 0 1 0,0.1 0.491,0.491 0 0 1 -0.175,0.248 0.451,0.451 0 0 1 -0.445,0.079 z"
         transform="translate(-292.299,-85.62)"
         fill="#263238" />
      <path
         id="Path_8321"
         data-name="Path 8321"
         d="m 405.345,114.385 a 0.615,0.615 0 0 0 -0.226,-0.372 0.648,0.648 0 0 0 -0.637,-0.113 0.677,0.677 0 0 0 0,1.274 0.654,0.654 0 0 0 0.226,0.039 0.665,0.665 0 0 0 0.412,-0.141 0.62,0.62 0 0 0 0.237,-0.372 0.493,0.493 0 0 0 0,-0.158 0.474,0.474 0 0 0 -0.011,-0.158 z m -0.795,0.564 a 0.451,0.451 0 0 1 -0.282,-0.423 0.44,0.44 0 0 1 0.293,-0.412 0.484,0.484 0 0 1 0.152,0 0.468,0.468 0 0 1 0.271,0.09 0.462,0.462 0 0 1 0.192,0.344 v 0 a 0.253,0.253 0 0 1 0,0.1 0.468,0.468 0 0 1 -0.175,0.248 0.451,0.451 0 0 1 -0.423,0.062 z"
         transform="translate(-295.077,-85.642)"
         fill="#263238" />
      <path
         id="Path_8322"
         data-name="Path 8322"
         d="m 270.239,331.051 c 0,0.795 -0.564,1.28 -1.534,1.28 h -1.015 v 1.184 h -0.4 v -3.755 h 1.4 c 0.974,0 1.554,0.485 1.549,1.291 z m -0.395,0 c 0,-0.6 -0.395,-0.947 -1.128,-0.947 h -1.026 v 1.877 h 1 c 0.761,0 1.156,-0.344 1.156,-0.93 z"
         transform="translate(-235.43,-179.817)"
         fill="#263238" />
      <path
         id="Path_8323"
         data-name="Path 8323"
         d="m 276.52,331.42 v 2.819 h -0.361 v -0.513 a 1.127,1.127 0 0 1 -1.015,0.564 1.094,1.094 0 0 1 -1.19,-1.212 v -1.635 h 0.383 v 1.6 a 0.784,0.784 0 0 0 0.846,0.908 0.919,0.919 0 0 0 0.958,-1.026 v -1.477 z"
         transform="translate(-238.334,-180.542)"
         fill="#263238" />
      <path
         id="Path_8324"
         data-name="Path 8324"
         d="m 281.821,331.386 v 0.344 h -0.09 a 0.913,0.913 0 0 0 -0.953,1.043 v 1.432 H 280.4 v -2.819 h 0.366 v 0.564 a 1.077,1.077 0 0 1 1.055,-0.564 z"
         transform="translate(-241.148,-180.525)"
         fill="#263238" />
      <path
         id="Path_8325"
         data-name="Path 8325"
         d="m 283.579,332.814 a 1.387,1.387 0 0 1 1.455,-1.426 1.229,1.229 0 0 1 1.128,0.564 l -0.288,0.192 a 0.958,0.958 0 0 0 -0.818,-0.417 1.1,1.1 0 0 0 0,2.193 0.936,0.936 0 0 0 0.818,-0.412 l 0.288,0.2 a 1.251,1.251 0 0 1 -1.128,0.564 1.393,1.393 0 0 1 -1.455,-1.455 z"
         transform="translate(-242.534,-180.526)"
         fill="#263238" />
      <path
         id="Path_8326"
         data-name="Path 8326"
         d="m 291.993,331.715 v 1.635 h -0.378 v -1.6 a 0.789,0.789 0 0 0 -0.846,-0.9 0.925,0.925 0 0 0 -0.987,1.015 v 1.483 H 289.4 v -3.98 h 0.338 v 1.652 a 1.19,1.19 0 0 1 1.054,-0.513 1.083,1.083 0 0 1 1.2,1.207 z"
         transform="translate(-245.074,-179.647)"
         fill="#263238" />
      <path
         id="Path_8327"
         data-name="Path 8327"
         d="m 297.752,332.474 v 1.748 h -0.361 v -0.44 a 1.06,1.06 0 0 1 -0.97,0.468 c -0.637,0 -1.032,-0.333 -1.032,-0.823 0,-0.49 0.282,-0.795 1.088,-0.795 h 0.9 v -0.175 c 0,-0.479 -0.271,-0.744 -0.8,-0.744 a 1.443,1.443 0 0 0 -0.936,0.333 l -0.169,-0.282 a 1.77,1.77 0 0 1 1.128,-0.383 1,1 0 0 1 1.156,1.094 z m -0.383,0.9 v -0.462 h -0.885 c -0.564,0 -0.722,0.214 -0.722,0.507 0,0.293 0.259,0.53 0.71,0.53 a 0.9,0.9 0 0 0 0.897,-0.573 z"
         transform="translate(-247.687,-180.519)"
         fill="#263238" />
      <path
         id="Path_8328"
         data-name="Path 8328"
         d="m 300.72,333.914 0.169,-0.3 a 1.692,1.692 0 0 0 1,0.316 c 0.536,0 0.755,-0.18 0.755,-0.457 0,-0.739 -1.827,-0.158 -1.827,-1.274 0,-0.462 0.395,-0.8 1.128,-0.8 a 1.917,1.917 0 0 1 0.992,0.259 l -0.163,0.31 a 1.421,1.421 0 0 0 -0.829,-0.242 c -0.513,0 -0.739,0.2 -0.739,0.462 0,0.761 1.827,0.192 1.827,1.274 0,0.485 -0.428,0.8 -1.161,0.8 a 1.832,1.832 0 0 1 -1.156,-0.35 z"
         transform="translate(-250.012,-180.533)"
         fill="#263238" />
      <path
         id="Path_8329"
         data-name="Path 8329"
         d="m 308.308,333 h -2.357 a 1.049,1.049 0 0 0 1.128,0.981 1.128,1.128 0 0 0 0.863,-0.372 l 0.214,0.248 a 1.488,1.488 0 0 1 -2.565,-0.975 1.37,1.37 0 1 1 2.74,0 0.261,0.261 0 0 0 -0.023,0.118 z m -2.357,-0.288 h 2 a 1,1 0 0 0 -2,0 z"
         transform="translate(-252.136,-180.581)"
         fill="#263238" />
      <path
         id="Path_8330"
         data-name="Path 8330"
         d="m 318.053,331.44 -1.066,2.819 h -0.361 l -0.885,-2.312 -0.891,2.312 h -0.361 l -1.06,-2.819 h 0.366 l 0.88,2.4 0.908,-2.4 h 0.327 l 0.9,2.4 0.9,-2.4 z"
         transform="translate(-255.556,-180.55)"
         fill="#263238" />
      <path
         id="Path_8331"
         data-name="Path 8331"
         d="m 324.442,332.493 v 1.748 h -0.361 v -0.44 a 1.066,1.066 0 0 1 -0.97,0.462 c -0.643,0 -1.032,-0.333 -1.032,-0.818 0,-0.485 0.282,-0.8 1.088,-0.8 h 0.9 v -0.169 c 0,-0.485 -0.271,-0.744 -0.8,-0.744 a 1.415,1.415 0 0 0 -0.936,0.333 l -0.169,-0.288 a 1.77,1.77 0 0 1 1.128,-0.378 1,1 0 0 1 1.156,1.094 z m -0.378,0.9 v -0.457 h -0.9 c -0.564,0 -0.722,0.214 -0.722,0.5 0,0.286 0.259,0.53 0.71,0.53 a 0.9,0.9 0 0 0 0.913,-0.575 z"
         transform="translate(-259.329,-180.527)"
         fill="#263238" />
      <path
         id="Path_8332"
         data-name="Path 8332"
         d="m 327.41,333.93 0.175,-0.3 a 1.692,1.692 0 0 0 1,0.316 c 0.536,0 0.755,-0.186 0.755,-0.462 0,-0.733 -1.827,-0.158 -1.827,-1.269 0,-0.462 0.395,-0.806 1.128,-0.806 a 1.882,1.882 0 0 1 0.992,0.265 l -0.164,0.3 a 1.427,1.427 0 0 0 -0.834,-0.242 c -0.507,0 -0.733,0.2 -0.733,0.468 0,0.761 1.827,0.186 1.827,1.269 0,0.491 -0.428,0.806 -1.161,0.806 a 1.9,1.9 0 0 1 -1.158,-0.345 z"
         transform="translate(-261.654,-180.537)"
         fill="#263238" />
      <path
         id="Path_8333"
         data-name="Path 8333"
         d="m 334.56,333.93 0.169,-0.3 a 1.725,1.725 0 0 0 1,0.316 c 0.536,0 0.755,-0.18 0.755,-0.462 0,-0.733 -1.827,-0.152 -1.827,-1.269 0,-0.462 0.395,-0.806 1.128,-0.806 a 1.917,1.917 0 0 1 0.992,0.265 l -0.163,0.3 a 1.466,1.466 0 0 0 -0.829,-0.242 c -0.513,0 -0.739,0.2 -0.739,0.468 0,0.761 1.832,0.186 1.827,1.274 0,0.485 -0.429,0.8 -1.161,0.8 a 1.877,1.877 0 0 1 -1.152,-0.344 z"
         transform="translate(-264.773,-180.537)"
         fill="#263238" />
      <path
         id="Path_8334"
         data-name="Path 8334"
         d="m 342.416,331.46 v 2.819 h -0.366 v -0.519 a 1.127,1.127 0 0 1 -1.015,0.564 1.094,1.094 0 0 1 -1.19,-1.212 v -1.635 h 0.383 v 1.6 a 0.789,0.789 0 0 0 0.846,0.9 0.913,0.913 0 0 0 0.958,-1.02 v -1.477 z"
         transform="translate(-267.075,-180.559)"
         fill="#263238" />
      <path
         id="Path_8335"
         data-name="Path 8335"
         d="m 345.8,332.889 a 1.387,1.387 0 0 1 1.449,-1.432 1.229,1.229 0 0 1 1.128,0.564 l -0.282,0.192 a 0.976,0.976 0 0 0 -0.823,-0.417 1.128,1.128 0 0 0 0,2.2 0.97,0.97 0 0 0 0.823,-0.412 l 0.282,0.192 a 1.252,1.252 0 0 1 -1.128,0.564 1.387,1.387 0 0 1 -1.449,-1.449 z"
         transform="translate(-269.675,-180.556)"
         fill="#263238" />
      <path
         id="Path_8336"
         data-name="Path 8336"
         d="m 351.059,332.89 a 1.393,1.393 0 0 1 1.455,-1.432 1.24,1.24 0 0 1 1.128,0.564 l -0.288,0.2 a 0.947,0.947 0 0 0 -0.818,-0.423 1.128,1.128 0 0 0 0,2.2 0.953,0.953 0 0 0 0.818,-0.412 l 0.288,0.192 a 1.246,1.246 0 0 1 -1.128,0.564 1.4,1.4 0 0 1 -1.455,-1.449 z"
         transform="translate(-271.969,-180.557)"
         fill="#263238" />
      <path
         id="Path_8337"
         data-name="Path 8337"
         d="m 359.082,332.975 h -2.362 a 1.037,1.037 0 0 0 1.128,0.981 1.128,1.128 0 0 0 0.863,-0.366 l 0.214,0.248 a 1.494,1.494 0 0 1 -2.565,-0.981 1.359,1.359 0 0 1 1.381,-1.426 1.342,1.342 0 0 1 1.347,1.449 c 0,0 -0.006,0.055 -0.006,0.095 z m -2.357,-0.282 h 2 a 1,1 0 0 0 -2,0 z"
         transform="translate(-274.281,-180.546)"
         fill="#263238" />
      <path
         id="Path_8338"
         data-name="Path 8338"
         d="m 361.88,333.95 0.175,-0.3 a 1.691,1.691 0 0 0 1,0.321 c 0.564,0 0.756,-0.186 0.756,-0.462 0,-0.733 -1.827,-0.158 -1.827,-1.274 0,-0.457 0.4,-0.8 1.128,-0.8 a 1.889,1.889 0 0 1 1,0.265 l -0.164,0.3 a 1.427,1.427 0 0 0 -0.868,-0.248 c -0.507,0 -0.733,0.2 -0.733,0.462 0,0.767 1.827,0.192 1.827,1.274 0,0.485 -0.428,0.806 -1.161,0.8 a 1.9,1.9 0 0 1 -1.133,-0.338 z"
         transform="translate(-276.69,-180.546)"
         fill="#263238" />
      <path
         id="Path_8339"
         data-name="Path 8339"
         d="m 366.53,333.95 0.175,-0.3 a 1.691,1.691 0 0 0 1,0.316 c 0.536,0 0.755,-0.186 0.755,-0.462 0,-0.733 -1.827,-0.158 -1.827,-1.269 0,-0.462 0.4,-0.806 1.128,-0.806 a 1.889,1.889 0 0 1 1,0.265 l -0.164,0.3 a 1.483,1.483 0 0 0 -0.834,-0.242 c -0.507,0 -0.733,0.2 -0.733,0.468 0,0.761 1.827,0.186 1.827,1.269 0,0.491 -0.428,0.806 -1.161,0.806 a 1.9,1.9 0 0 1 -1.166,-0.345 z"
         transform="translate(-278.718,-180.546)"
         fill="#263238" />
      <path
         id="Path_8340"
         data-name="Path 8340"
         d="m 371.978,330.2 v 0.333 h 0.868 v 0.3 h -0.857 v 2.5 h -0.378 v -2.5 h -0.5 v -0.321 h 0.5 v -0.35 a 0.778,0.778 0 0 1 0.851,-0.834 0.88,0.88 0 0 1 0.564,0.18 l -0.13,0.282 a 0.643,0.643 0 0 0 -0.417,-0.141 0.5,0.5 0 0 0 -0.501,0.551 z"
         transform="translate(-280.716,-179.627)"
         fill="#263238" />
      <path
         id="Path_8341"
         data-name="Path 8341"
         d="m 377.633,331.48 v 2.82 h -0.344 v -0.519 a 1.128,1.128 0 0 1 -1.015,0.564 1.094,1.094 0 0 1 -1.19,-1.212 V 331.5 h 0.383 v 1.6 a 0.789,0.789 0 0 0 0.846,0.9 0.913,0.913 0 0 0 0.958,-1.021 V 331.5 Z"
         transform="translate(-282.447,-180.568)"
         fill="#263238" />
      <path
         id="Path_8342"
         data-name="Path 8342"
         d="m 381.5,329.42 h 0.383 v 3.98 h -0.378 z"
         transform="translate(-285.248,-179.669)"
         fill="#263238" />
      <path
         id="Path_8343"
         data-name="Path 8343"
         d="m 281.638,312.578 h -2.018 v -0.958 h 5.18 v 0.958 h -2.024 v 5.142 h -1.128 z"
         transform="translate(-240.808,-171.905)"
         fill="#ff725e" />
      <path
         id="Path_8344"
         data-name="Path 8344"
         d="m 294.7,314.783 v 2.667 h -1.088 v -2.5 c 0,-0.829 -0.412,-1.229 -1.128,-1.229 a 1.235,1.235 0 0 0 -1.3,1.4 v 2.357 H 290.1 V 311 h 1.088 v 2.351 a 2.075,2.075 0 0 1 1.55,-0.592 1.8,1.8 0 0 1 1.962,2.024 z"
         transform="translate(-245.379,-171.634)"
         fill="#ff725e" />
      <path
         id="Path_8345"
         data-name="Path 8345"
         d="m 304.358,316.08 v 2.729 h -1.032 v -0.564 a 1.635,1.635 0 0 1 -1.46,0.631 c -1.066,0 -1.736,-0.564 -1.736,-1.4 0,-0.836 0.524,-1.381 1.934,-1.381 h 1.207 v -0.073 c 0,-0.637 -0.383,-1.009 -1.161,-1.009 a 2.283,2.283 0 0 0 -1.41,0.462 l -0.428,-0.795 a 3.265,3.265 0 0 1 1.968,-0.564 c 1.34,-0.016 2.118,0.622 2.118,1.964 z m -1.088,1.274 v -0.564 h -1.128 c -0.739,0 -0.942,0.276 -0.942,0.62 0,0.344 0.333,0.643 0.891,0.643 a 1.19,1.19 0 0 0 1.179,-0.699 z"
         transform="translate(-249.755,-172.993)"
         fill="#ff725e" />
      <path
         id="Path_8346"
         data-name="Path 8346"
         d="m 314.684,316.146 v 2.667 H 313.6 v -2.5 c 0,-0.829 -0.412,-1.229 -1.128,-1.229 a 1.235,1.235 0 0 0 -1.3,1.4 v 2.357 H 310.1 v -4.657 h 1.037 v 0.6 a 2.018,2.018 0 0 1 1.607,-0.654 1.788,1.788 0 0 1 1.94,2.016 z"
         transform="translate(-254.103,-172.997)"
         fill="#ff725e" />
      <path
         id="Path_8347"
         data-name="Path 8347"
         d="m 322.59,315.454 -0.812,0.767 v 1.229 H 320.69 V 311 h 1.088 v 3.9 l 2.255,-2.092 h 1.342 l -1.945,1.956 2.126,2.7 h -1.325 z"
         transform="translate(-258.723,-171.634)"
         fill="#ff725e" />
      <path
         id="Path_8348"
         data-name="Path 8348"
         d="m 338.481,314.18 -2.182,5.029 a 1.8,1.8 0 0 1 -1.793,1.381 1.917,1.917 0 0 1 -1.246,-0.428 l 0.434,-0.8 a 1.2,1.2 0 0 0 0.8,0.321 c 0.383,0 0.615,-0.186 0.823,-0.643 l 0.079,-0.186 -2.035,-4.674 h 1.128 l 1.466,3.445 1.471,-3.445 z"
         transform="translate(-264.206,-173.021)"
         fill="#ff725e" />
      <path
         id="Path_8349"
         data-name="Path 8349"
         d="m 342.809,316.321 a 2.481,2.481 0 1 1 2.475,2.391 2.345,2.345 0 0 1 -2.475,-2.391 z m 3.862,0 a 1.381,1.381 0 1 0 -1.387,1.455 1.353,1.353 0 0 0 1.387,-1.455 z"
         transform="translate(-268.37,-172.834)"
         fill="#ff725e" />
      <path
         id="Path_8350"
         data-name="Path 8350"
         d="m 357.944,314.18 v 4.657 h -1.037 v -0.592 a 1.906,1.906 0 0 1 -1.5,0.654 1.843,1.843 0 0 1 -2.007,-2.058 v -2.661 h 1.088 v 2.515 c 0,0.846 0.406,1.246 1.094,1.246 a 1.229,1.229 0 0 0 1.269,-1.4 v -2.361 z"
         transform="translate(-272.991,-173.021)"
         fill="#ff725e" />
      <path
         id="Path_8351"
         data-name="Path 8351"
         d="m 363.64,317.1 a 0.677,0.677 0 1 1 0.206,0.492 0.676,0.676 0 0 1 -0.206,-0.492 z m 0.056,-5.48 h 1.274 l -0.214,4.076 h -0.868 z"
         transform="translate(-277.458,-171.905)"
         fill="#ff725e" />
    </g>
    <g
       id="freepik--character-2--inject-36"
       transform="translate(122.993,89.73)">
      <path
         id="Path_8352"
         data-name="Path 8352"
         d="m 333.662,140.845 -1.646,23.341 a 7.267,7.267 0 0 1 -7.25,6.766 v 0 a 7.267,7.267 0 0 1 -7.256,-7.747 c 0.147,-2.221 0.276,-4.037 0.276,-4.037 0,0 -5.638,-0.88 -5.717,-6.523 -0.039,-3.259 0.524,-10.656 1.009,-16.35 a 7.4,7.4 0 0 1 7.375,-6.766 h 3.417 a 10.447,10.447 0 0 1 9.793,11.315 z"
         transform="translate(-246.572,-127.688)"
         fill="#ffbe9d" />
      <path
         id="Path_8353"
         data-name="Path 8353"
         d="m 322.118,180.371 a 13.655,13.655 0 0 0 7.329,-2.171 c 0,0 -1.81,4.1 -7.448,3.6 z"
         transform="translate(-250.905,-148.918)"
         fill="#eb996e" />
      <path
         id="Path_8354"
         data-name="Path 8354"
         d="m 315.721,150.431 c 0.1,0.1 0.716,-0.35 1.579,-0.344 0.863,0.006 1.505,0.434 1.6,0.327 0.095,-0.107 -0.056,-0.237 -0.333,-0.44 a 2.255,2.255 0 0 0 -1.28,-0.395 2.142,2.142 0 0 0 -1.257,0.406 c -0.263,0.21 -0.354,0.396 -0.309,0.446 z"
         transform="translate(-248.161,-136.434)"
         fill="#263238" />
      <path
         id="Path_8355"
         data-name="Path 8355"
         d="m 329.45,154.8 a 0.806,0.806 0 0 0 0.778,0.812 0.778,0.778 0 0 0 0.829,-0.727 0.8,0.8 0 0 0 -0.778,-0.812 0.767,0.767 0 0 0 -0.829,0.727 z"
         transform="translate(-254.155,-138.39)"
         fill="#263238" />
      <path
         id="Path_8356"
         data-name="Path 8356"
         d="m 315.71,154.8 a 0.806,0.806 0 0 0 0.778,0.812 0.778,0.778 0 0 0 0.834,-0.727 0.806,0.806 0 0 0 -0.778,-0.812 0.772,0.772 0 0 0 -0.834,0.727 z"
         transform="translate(-248.161,-138.39)"
         fill="#263238" />
      <path
         id="Path_8357"
         data-name="Path 8357"
         d="m 330.581,150.636 c 0.1,0.107 0.716,-0.344 1.579,-0.344 0.863,0 1.505,0.44 1.6,0.333 0.095,-0.107 -0.056,-0.237 -0.338,-0.44 a 2.193,2.193 0 0 0 -1.274,-0.395 2.142,2.142 0 0 0 -1.257,0.406 c -0.264,0.204 -0.355,0.395 -0.31,0.44 z"
         transform="translate(-254.643,-136.525)"
         fill="#263238" />
      <path
         id="Path_8358"
         data-name="Path 8358"
         d="m 323.418,157.663 a 5.721,5.721 0 0 0 -1.409,-0.254 c -0.22,0 -0.429,-0.068 -0.468,-0.22 a 1.127,1.127 0 0 1 0.147,-0.654 l 0.66,-1.691 a 28.109,28.109 0 0 0 1.466,-4.415 28.218,28.218 0 0 0 -1.821,4.285 q -0.33,0.888 -0.626,1.691 a 1.28,1.28 0 0 0 -0.118,0.868 0.564,0.564 0 0 0 0.366,0.327 1.624,1.624 0 0 0 0.378,0.051 5.638,5.638 0 0 0 1.425,0.012 z"
         transform="translate(-250.564,-136.804)"
         fill="#263238" />
      <path
         id="Path_8359"
         data-name="Path 8359"
         d="m 327.513,164.33 c -0.141,0 -0.141,0.93 -0.947,1.6 -0.806,0.67 -1.81,0.564 -1.815,0.693 -0.005,0.129 0.22,0.186 0.643,0.2 a 2.345,2.345 0 0 0 1.517,-0.53 2.069,2.069 0 0 0 0.739,-1.342 c 0.06,-0.396 -0.075,-0.627 -0.137,-0.621 z"
         transform="translate(-252.104,-142.867)"
         fill="#263238" />
      <path
         id="Path_8360"
         data-name="Path 8360"
         d="m 330.686,145.2 c 0.085,0.231 0.953,0.124 1.968,0.242 1.015,0.118 1.844,0.4 1.979,0.192 0.056,-0.1 -0.085,-0.327 -0.417,-0.564 a 3.3,3.3 0 0 0 -1.466,-0.513 3.27,3.27 0 0 0 -1.539,0.18 c -0.35,0.163 -0.564,0.354 -0.525,0.463 z"
         transform="translate(-254.692,-134.234)"
         fill="#263238" />
      <path
         id="Path_8361"
         data-name="Path 8361"
         d="m 315.483,145.758 c 0.152,0.2 0.75,0 1.466,0 0.716,0 1.331,0.135 1.466,-0.073 0.062,-0.1 -0.034,-0.3 -0.3,-0.485 a 2.126,2.126 0 0 0 -2.362,0.073 c -0.253,0.186 -0.338,0.389 -0.27,0.485 z"
         transform="translate(-248.052,-134.382)"
         fill="#263238" />
      <path
         id="Path_8362"
         data-name="Path 8362"
         d="m 346.83,156.985 c 0.1,-0.045 3.879,-1.128 3.755,2.712 -0.124,3.84 -3.975,2.937 -3.975,2.819 0,-0.118 0.22,-5.531 0.22,-5.531 z"
         transform="translate(-261.64,-139.588)"
         fill="#ffbe9d" />
      <path
         id="Path_8363"
         data-name="Path 8363"
         d="m 348.778,162.052 c 0,0 0.068,0.045 0.175,0.1 a 0.665,0.665 0 0 0 0.5,0.028 1.646,1.646 0 0 0 0.818,-1.466 2.255,2.255 0 0 0 -0.152,-0.97 0.8,0.8 0 0 0 -0.491,-0.564 0.35,0.35 0 0 0 -0.406,0.175 c -0.051,0.107 -0.028,0.18 -0.051,0.186 -0.023,0.006 -0.079,-0.062 -0.045,-0.226 a 0.451,0.451 0 0 1 0.158,-0.237 0.564,0.564 0 0 1 0.378,-0.085 0.959,0.959 0 0 1 0.682,0.62 2.324,2.324 0 0 1 0.2,1.083 1.741,1.741 0 0 1 -1.032,1.635 0.722,0.722 0 0 1 -0.615,-0.118 c -0.114,-0.071 -0.131,-0.155 -0.119,-0.161 z"
         transform="translate(-262.584,-140.539)"
         fill="#eb996e" />
      <path
         id="Path_8364"
         data-name="Path 8364"
         d="m 337.086,144.339 a 2.024,2.024 0 0 0 -1.855,0.953 c -0.254,0.564 -0.3,1.178 -0.564,1.725 a 1.359,1.359 0 0 1 -1.4,0.913 1.2,1.2 0 0 1 -0.806,-0.88 3.3,3.3 0 0 1 0,-1.246 c 0.231,-1.8 0.609,-3.591 0.682,-5.407 a 9.257,9.257 0 0 0 -1.128,-5.243 5.073,5.073 0 0 0 -4.51,-2.537 c -1.2,0.1 -2.3,0.722 -3.49,0.885 a 4.708,4.708 0 0 1 -3.918,-1.308 c -0.13,-0.124 -0.733,-0.524 -0.733,-0.524 a 2.255,2.255 0 0 1 0.406,-1.2 c 2.368,-2.182 6.625,-2.819 9.748,-2.007 a 11.242,11.242 0 0 1 7.391,5.914 c 1.342,2.926 0.947,7 0.2,9.957"
         transform="translate(-249.753,-127.076)"
         fill="#263238" />
      <path
         id="Path_8365"
         data-name="Path 8365"
         d="m 312.337,137.825 a 3.693,3.693 0 0 0 3.067,1.985 10.149,10.149 0 0 0 3.766,-0.564 30.152,30.152 0 0 1 5.8,-0.857 c 0.192,0 0.417,0 0.519,-0.158 0.102,-0.158 -0.079,-0.474 -0.276,-0.626 -1.691,-1.319 -5.751,-2.131 -7.893,-2.216 a 6.269,6.269 0 0 0 -5.531,2.622"
         transform="translate(-246.451,-130.237)"
         fill="#263238" />
      <path
         id="Path_8366"
         data-name="Path 8366"
         d="m 313.74,134.008 a 7.245,7.245 0 0 1 4.206,-1.9 17.077,17.077 0 0 1 17.089,9.489 19.241,19.241 0 0 0 0.88,-4.465 c 0,-1.128 -0.688,-7.983 -7.718,-10.148 0.003,-10e-4 -10.597,-4.044 -14.457,7.024 z"
         transform="translate(-247.302,-126.262)"
         fill="#3cb9d5" />
      <path
         id="Path_8368"
         data-name="Path 8368"
         d="m 328.835,140.647 c -2.109,-3.563 -5.272,-5.982 -8.654,-8.107 a 53.787,53.787 0 0 0 -12.911,-5.26 8.457,8.457 0 0 0 -3.563,-0.378 3.219,3.219 0 0 0 -2.644,2.165 c -0.372,1.466 2.227,3.721 3.445,4.606 a 39.418,39.418 0 0 0 3.7,2.193 c 0,0 -0.034,-2.723 4.313,-3.276 5.906,-0.743 16.489,8.21 16.314,8.057 z"
         transform="translate(-241.756,-126.52)"
         fill="#87d8ea" />
      <path
         id="Path_8369"
         data-name="Path 8369"
         d="m 330.035,130.855 a 15.55,15.55 0 0 0 -8.175,-1.985 3.856,3.856 0 0 1 1.252,-0.175 11.355,11.355 0 0 1 5.888,1.433 3.9,3.9 0 0 1 1.032,0.727 z"
         transform="translate(-250.844,-127.321)"
         fill="#ffffff" />
      <path
         id="Path_8370"
         data-name="Path 8370"
         d="m 338.166,295.567 c 0,0.079 -14.433,0.147 -32.238,0.147 -17.805,0 -32.238,-0.068 -32.238,-0.147 0,-0.079 14.433,-0.147 32.238,-0.147 17.805,0 32.238,0.068 32.238,0.147 z"
         transform="translate(-229.832,-200.049)"
         fill="#263238" />
      <path
         id="Path_8371"
         data-name="Path 8371"
         d="m 262.563,208.639 -8.3,3.749 -12.877,-10.5 -3.947,6.2 c 0,0 7.329,8.485 10.053,11.372 2.724,2.887 4.51,4.42 6.67,4.144 2.16,-0.276 14.371,-6.038 14.371,-6.038 0,0 -2.886,-8.566 -5.97,-8.927 z"
         transform="translate(-214.02,-159.251)"
         fill="#ffbe9d" />
      <path
         id="Path_8372"
         data-name="Path 8372"
         d="m 217.645,192.5 a 5.46,5.46 0 0 0 2.678,1.128 c 1.06,-0.09 5.074,-0.1 5.362,-0.073 0.288,0.027 4.206,2.148 4.206,2.148 l 2.864,2.751 -4.51,6.247 c 0,0 -0.739,-0.851 -1.246,-0.789 a 58.577,58.577 0 0 1 -7.611,-0.778 c -0.93,-0.316 -2.12,-0.5 -2.43,-1.071 -0.31,-0.571 -0.378,-0.981 0.474,-1.691 a 1.428,1.428 0 0 1 -0.316,-1.979 c 0,0 -1.285,-0.942 -0.823,-1.81 0,0 -0.727,-0.3 -0.846,-0.761 a 4.961,4.961 0 0 1 0.051,-1.449 l 1.844,-0.564 a 0.884,0.884 0 0 1 0.303,-1.309 z"
         transform="translate(-204.413,-155.155)"
         fill="#ffbe9d" />
      <path
         id="Path_8373"
         data-name="Path 8373"
         d="m 217.536,194.83 c 0,0 0.085,-0.034 0.237,-0.079 a 2.989,2.989 0 0 1 0.688,-0.141 1.691,1.691 0 0 1 1,0.389 1.167,1.167 0 0 1 0.383,1.269 0.891,0.891 0 0 1 -0.5,0.536 2.818,2.818 0 0 1 -0.6,0.175 l -0.992,0.2 a 2.887,2.887 0 0 1 -0.93,0.118 3.106,3.106 0 0 1 0.885,-0.316 l 0.975,-0.271 c 0.372,-0.09 0.778,-0.175 0.891,-0.564 a 0.925,0.925 0 0 0 -0.288,-0.97 1.6,1.6 0 0 0 -0.829,-0.383 4.161,4.161 0 0 0 -0.66,0.045 c -0.17,0.043 -0.26,0.02 -0.26,-0.008 z"
         transform="translate(-205.025,-156.076)"
         fill="#eb996e" />
      <path
         id="Path_8374"
         data-name="Path 8374"
         d="m 220.615,197.687 a 2.11,2.11 0 0 1 0.428,-0.124 6.854,6.854 0 0 1 1.218,-0.135 3.146,3.146 0 0 1 1.782,0.457 1.55,1.55 0 0 1 0.671,0.925 1.06,1.06 0 0 1 -0.462,1.128 2.819,2.819 0 0 1 -1.167,0.237 l -1.06,0.085 -1.787,0.124 a 9.357,9.357 0 0 1 -1.658,0.039 8.926,8.926 0 0 1 1.641,-0.248 l 1.782,-0.186 1.06,-0.1 a 2.819,2.819 0 0 0 1.043,-0.2 0.772,0.772 0 0 0 0.35,-0.806 1.269,1.269 0 0 0 -0.564,-0.755 3.061,3.061 0 0 0 -1.635,-0.474 c -1.005,-0.035 -1.636,0.095 -1.642,0.033 z"
         transform="translate(-205.793,-157.303)"
         fill="#eb996e" />
      <path
         id="Path_8375"
         data-name="Path 8375"
         d="m 224.8,201.89 c 0,0 0.113,0 0.231,0.175 a 0.9,0.9 0 0 1 0.107,0.8 1.37,1.37 0 0 1 -0.868,0.812 4.735,4.735 0 0 1 -1.4,0.186 c -1.945,0.09 -3.484,0.468 -3.507,0.383 a 9.81,9.81 0 0 1 3.49,-0.677 5.2,5.2 0 0 0 1.325,-0.147 1.229,1.229 0 0 0 0.767,-0.631 0.851,0.851 0 0 0 0,-0.665 c -0.116,-0.174 -0.195,-0.213 -0.145,-0.236 z"
         transform="translate(-206.133,-159.251)"
         fill="#eb996e" />
      <path
         id="Path_8376"
         data-name="Path 8376"
         d="m 235.936,203.236 a 1.934,1.934 0 0 1 -0.812,0.316 6.054,6.054 0 0 1 -2.109,0.1 5.988,5.988 0 0 1 -2.007,-0.648 c -0.474,-0.259 -0.722,-0.49 -0.7,-0.519 a 8.294,8.294 0 0 0 5.638,0.755 z"
         transform="translate(-210.909,-159.509)"
         fill="#eb996e" />
      <path
         id="Path_8377"
         data-name="Path 8377"
         d="m 228.887,198.538 c 0.039,-0.073 0.44,0.068 0.936,0 0.496,-0.068 0.857,-0.276 0.908,-0.209 0.051,0.067 -0.282,0.44 -0.874,0.5 -0.592,0.06 -1.015,-0.229 -0.97,-0.291 z"
         transform="translate(-210.288,-157.692)"
         fill="#eb996e" />
      <path
         id="Path_8378"
         data-name="Path 8378"
         d="m 228.11,207.86 a 2.255,2.255 0 0 1 0.851,-1.556 2.323,2.323 0 0 1 1.607,-0.744 12.791,12.791 0 0 0 -1.4,0.958 12.106,12.106 0 0 0 -1.058,1.342 z"
         transform="translate(-209.95,-160.852)"
         fill="#eb996e" />
      <path
         id="Path_8379"
         data-name="Path 8379"
         d="m 200.687,238.4 h 24.486 l 4.544,35.813 H 195.9 Z"
         transform="translate(-195.9,-175.177)"
         fill="#87d8ea" />
      <path
         id="Path_8380"
         data-name="Path 8380"
         d="m 247.82,238.4 h 2.836 l 8.356,35.813 h -6.647 z"
         transform="translate(-218.548,-175.177)"
         fill="#3cb9d5" />
      <path
         id="Path_8382"
         data-name="Path 8382"
         d="m 222.145,205.356 a 0.267,0.267 0 0 1 0.2,0 0.727,0.727 0 0 1 0.428,0.333 0.908,0.908 0 0 1 0.079,0.812 1.364,1.364 0 0 1 -0.665,0.727 2.779,2.779 0 0 1 -1.24,0.242 l 0.107,-0.073 c -0.321,0.615 -0.7,0.891 -0.733,0.851 -0.033,-0.04 0.254,-0.366 0.507,-0.958 l 0.028,-0.062 h 0.079 a 2.971,2.971 0 0 0 1.128,-0.259 1.128,1.128 0 0 0 0.564,-0.564 0.727,0.727 0 0 0 0,-0.615 c -0.2,-0.36 -0.493,-0.39 -0.482,-0.434 z"
         transform="translate(-206.55,-160.756)"
         fill="#eb996e" />
      <path
         id="Path_8383"
         data-name="Path 8383"
         d="m 215.419,227.124 a 3.683,3.683 0 0 1 0.056,-0.727 c 0.051,-0.462 0.147,-1.128 0.282,-1.962 0.265,-1.652 0.716,-3.947 1.24,-6.416 0.524,-2.469 1.009,-4.753 1.331,-6.393 0.147,-0.778 0.276,-1.426 0.372,-1.945 a 3.47,3.47 0 0 1 0.169,-0.71 3.654,3.654 0 0 1 -0.056,0.727 c -0.051,0.468 -0.147,1.128 -0.282,1.962 -0.265,1.652 -0.716,3.947 -1.246,6.422 -0.53,2.475 -1,4.753 -1.325,6.393 -0.147,0.772 -0.276,1.426 -0.372,1.939 a 3.213,3.213 0 0 1 -0.169,0.71 z"
         transform="translate(-204.414,-162.339)"
         fill="#ff725e" />
      <path
         id="Path_8384"
         data-name="Path 8384"
         d="m 234.088,225.326 a 5.466,5.466 0 0 1 -0.271,-0.823 c -0.163,-0.564 -0.378,-1.353 -0.631,-2.255 -0.524,-1.923 -1.223,-4.584 -1.985,-7.527 -0.762,-2.943 -1.426,-5.638 -1.9,-7.555 -0.214,-0.93 -0.4,-1.691 -0.564,-2.295 a 4.721,4.721 0 0 1 -0.158,-0.851 5.475,5.475 0 0 1 0.271,0.823 c 0.163,0.564 0.378,1.353 0.631,2.255 0.524,1.923 1.223,4.584 1.985,7.532 0.762,2.948 1.426,5.61 1.894,7.544 l 0.564,2.3 a 4.719,4.719 0 0 1 0.164,0.852 z"
         transform="translate(-210.155,-160.18)"
         fill="#ff725e" />
      <path
         id="Path_8385"
         data-name="Path 8385"
         d="m 262.527,299.032 a 6.257,6.257 0 0 1 -1.178,-0.823 c -0.7,-0.536 -1.691,-1.3 -2.718,-2.148 l -0.53,-0.434 0.214,-0.034 c -0.66,0.992 -1.252,1.866 -1.691,2.481 a 5.2,5.2 0 0 1 -0.744,0.958 5.857,5.857 0 0 1 0.564,-1.066 c 0.389,-0.643 0.953,-1.534 1.607,-2.531 l 0.085,-0.135 0.13,0.1 0.53,0.428 c 1.049,0.857 1.99,1.641 2.661,2.221 a 7.33,7.33 0 0 1 1.07,0.983 z"
         transform="translate(-222.063,-199.997)"
         fill="#263238" />
      <path
         id="Path_8386"
         data-name="Path 8386"
         d="m 250.457,238.4 c 0.079,0 1.347,7.205 2.819,16.125 1.472,8.92 2.622,16.159 2.537,16.17 -0.085,0.011 -1.348,-7.205 -2.819,-16.125 -1.471,-8.92 -2.616,-16.159 -2.537,-16.17 z"
         transform="translate(-219.696,-175.177)"
         fill="#263238" />
      <path
         id="Path_8387"
         data-name="Path 8387"
         d="m 228.485,252.529 a 6.527,6.527 0 0 1 -0.564,0.564 10.212,10.212 0 0 1 -1.866,1.274 11.157,11.157 0 0 1 -3.383,1.161 10.063,10.063 0 0 1 -4.713,-0.276 5.768,5.768 0 0 1 -2.368,-1.443 4.46,4.46 0 0 1 -1.291,-2.709 3.518,3.518 0 0 1 1.223,-2.949 2.757,2.757 0 0 1 1.584,-0.66 3.259,3.259 0 0 1 1.731,0.361 4.1,4.1 0 0 1 1.381,1.128 4.635,4.635 0 0 1 0.795,1.691 8.209,8.209 0 0 1 0,3.738 12.657,12.657 0 0 1 -3.845,6.766 11.473,11.473 0 0 1 -3.383,2.154 8.3,8.3 0 0 1 -3.817,0.654 6.512,6.512 0 0 1 -3.49,-1.353 4.916,4.916 0 0 1 -1.861,-3.044 4.606,4.606 0 0 1 0.654,-3.338 3.157,3.157 0 0 1 2.791,-1.505 2.024,2.024 0 0 1 1.381,0.744 3.011,3.011 0 0 1 0.626,1.308 4.916,4.916 0 0 1 -0.321,2.757 7.369,7.369 0 0 1 -3.14,3.5 11.146,11.146 0 0 1 -3.383,1.218 17.487,17.487 0 0 1 -2.255,0.282 c -0.254,0 -0.451,0.028 -0.564,0.028 v 0 l 0.564,-0.056 a 19.754,19.754 0 0 0 2.227,-0.338 11.1,11.1 0 0 0 3.3,-1.246 7.205,7.205 0 0 0 3.033,-3.434 4.713,4.713 0 0 0 0.293,-2.633 2.864,2.864 0 0 0 -0.564,-1.257 1.8,1.8 0 0 0 -1.223,-0.654 2.892,2.892 0 0 0 -2.548,1.41 4.336,4.336 0 0 0 -0.609,3.146 4.629,4.629 0 0 0 1.77,2.87 6.252,6.252 0 0 0 3.338,1.285 9.577,9.577 0 0 0 6.952,-2.74 12.37,12.37 0 0 0 3.761,-6.58 7.893,7.893 0 0 0 0,-3.608 4.358,4.358 0 0 0 -0.733,-1.567 3.9,3.9 0 0 0 -1.291,-1.082 3.016,3.016 0 0 0 -1.584,-0.333 2.537,2.537 0 0 0 -1.443,0.564 3.259,3.259 0 0 0 -1.128,2.729 4.234,4.234 0 0 0 1.212,2.571 5.52,5.52 0 0 0 2.255,1.4 9.923,9.923 0 0 0 4.623,0.31 11.417,11.417 0 0 0 3.355,-1.1 10.943,10.943 0 0 0 1.883,-1.218 c 0.2,-0.152 0.344,-0.288 0.451,-0.372 a 0.688,0.688 0 0 1 0.184,-0.118 z"
         transform="translate(-197.78,-179.14)"
         fill="#ffffff" />
      <path
         id="Path_8388"
         data-name="Path 8388"
         d="m 298.447,194.4 h -4.415 c -1.421,0.5 -12.883,10.25 -12.883,10.25 l 6.478,10.182 8.4,-4.911 z"
         transform="translate(-233.086,-155.984)"
         fill="#455a64" />
      <path
         id="Path_8389"
         data-name="Path 8389"
         d="m 299.058,190.492 9.754,-3.7 c 0,0 1.426,2.994 5.768,2.351 4.342,-0.643 9.466,-3.7 9.466,-3.7 0,0 7.476,4.268 9.686,6.05 2.21,1.782 -1.782,39.083 -1.782,39.083 l -1,11.18 c 0,0 0.784,0.564 0.784,2.492 0,1.928 0.073,3.2 0.073,3.2 h -38.641 c 0,0 -0.942,-4.482 -0.231,-6.264 a 22.77,22.77 0 0 1 1.889,-3.558 l 0.6,-17.23 0.214,-15.38 z"
         transform="translate(-238.111,-152.076)"
         fill="#455a64" />
      <path
         id="Path_8390"
         data-name="Path 8390"
         d="m 355.738,196.17 c 0,0 3.118,0.88 4.042,5.5 0.924,4.62 0.75,22.281 0.75,22.281 l -17.41,-3.772 c 0,0 2.357,-7.408 2.357,-7.893 0,-0.485 4.792,-12.443 4.961,-12.7 0.169,-0.257 5.3,-3.416 5.3,-3.416 z"
         transform="translate(-260.117,-156.756)"
         fill="#455a64" />
      <path
         id="Path_8391"
         data-name="Path 8391"
         d="m 297.36,207.28 c 0.079,0 0.192,3.084 0.248,6.9 0.056,3.816 0.034,6.9 -0.045,6.9 -0.079,0 -0.192,-3.084 -0.248,-6.89 -0.056,-3.806 -0.04,-6.91 0.045,-6.91 z"
         transform="translate(-240.123,-161.602)"
         fill="#263238" />
      <path
         id="Path_8392"
         data-name="Path 8392"
         d="m 348.1,210.22 a 2.34,2.34 0 0 1 -0.068,0.609 c -0.056,0.395 -0.158,0.958 -0.293,1.652 -0.276,1.387 -0.7,3.3 -1.252,5.384 -0.552,2.084 -1.128,3.947 -1.562,5.305 -0.226,0.671 -0.412,1.212 -0.564,1.584 a 2.258,2.258 0 0 1 -0.248,0.564 2.754,2.754 0 0 1 0.141,-0.6 c 0.124,-0.445 0.276,-0.981 0.462,-1.612 0.395,-1.353 0.93,-3.231 1.477,-5.317 0.547,-2.086 1,-3.98 1.331,-5.356 l 0.389,-1.629 a 2.085,2.085 0 0 1 0.186,-0.586 z"
         transform="translate(-260.549,-162.885)"
         fill="#263238" />
      <path
         id="Path_8393"
         data-name="Path 8393"
         d="m 347.947,209.55 a 22.1,22.1 0 0 1 -0.039,3.558 22.415,22.415 0 0 1 -0.333,3.535 20.583,20.583 0 0 1 0.039,-3.552 21.86,21.86 0 0 1 0.333,-3.541 z"
         transform="translate(-262.035,-162.592)"
         fill="#263238" />
      <path
         id="Path_8394"
         data-name="Path 8394"
         d="m 334.8,219.772 a 47.733,47.733 0 0 1 -7.476,0 47.732,47.732 0 0 1 7.476,0 z"
         transform="translate(-253.225,-166.979)"
         fill="#ffffff" />
      <path
         id="Path_8395"
         data-name="Path 8395"
         d="m 303.873,253.628 19.265,-2.317 3.039,-12.2 10.774,2.334 c 0,0 -4.262,16.914 -8.654,18.572 -4.392,1.658 -26.126,-1.128 -26.126,-1.128 z"
         transform="translate(-242.255,-175.486)"
         fill="#ffbe9d" />
      <path
         id="Path_8396"
         data-name="Path 8396"
         d="m 289.331,263.738 a 23.18,23.18 0 0 0 -3.214,-1.088 c -0.891,-0.13 -1.945,0.068 -2.21,0.5 l -5.176,3.016 c 0,0 -3.839,-0.366 -4.206,0.5 0,0 -2.453,-0.7 -2.847,-0.2 0,0 -1.229,0.4 -1.026,0.964 0.203,0.564 4.634,2.12 4.634,2.12 l 6.072,0.62 a 14.8,14.8 0 0 1 3.276,-1.359 16.6,16.6 0 0 1 2.763,0.22 c -0.079,0 3.552,0.412 3.552,0.412 a 5.743,5.743 0 0 0 1.037,-2.982 c 0.3,-2.188 0,-2.644 0,-2.644 z"
         transform="translate(-228.497,-185.737)"
         fill="#ffbe9d" />
      <path
         id="Path_8397"
         data-name="Path 8397"
         d="m 296.852,266.44 a 0.74,0.74 0 0 1 -0.378,-0.147 c -0.214,-0.147 -0.4,-0.513 -0.739,-0.744 a 1.973,1.973 0 0 0 -0.665,-0.2 1.511,1.511 0 0 1 -0.829,-0.367 1.477,1.477 0 0 1 -0.451,-0.913 1.3,1.3 0 0 1 0.327,-1.049 2.109,2.109 0 0 1 1.934,-0.53 3.383,3.383 0 0 1 1.455,0.744 7.037,7.037 0 0 1 0.772,0.767 c 0.164,0.192 0.242,0.3 0.231,0.321 -0.011,0.021 -0.423,-0.383 -1.128,-0.925 a 3.45,3.45 0 0 0 -1.381,-0.643 1.878,1.878 0 0 0 -1.691,0.468 1.173,1.173 0 0 0 0.1,1.567 c 0.366,0.383 1,0.276 1.426,0.564 0.426,0.288 0.513,0.671 0.7,0.834 0.187,0.163 0.329,0.23 0.317,0.253 z"
         transform="translate(-238.595,-185.66)"
         fill="#eb996e" />
      <path
         id="Path_8398"
         data-name="Path 8398"
         d="m 289.687,267.72 c 0,0.045 -0.293,0.028 -0.7,0.214 a 10.651,10.651 0 0 1 -1.663,0.789 4.8,4.8 0 0 1 -1.855,-0.147 6.46,6.46 0 0 1 -0.744,-0.107 1.224,1.224 0 0 1 0.767,-0.1 6.575,6.575 0 0 0 1.765,0.062 c 0.643,-0.164 1.19,-0.564 1.691,-0.693 0.501,-0.129 0.752,-0.052 0.739,-0.018 z"
         transform="translate(-234.643,-187.944)"
         fill="#eb996e" />
      <path
         id="Path_8399"
         data-name="Path 8399"
         d="m 286.454,271.164 a 1.212,1.212 0 0 1 -0.355,0.226 5.136,5.136 0 0 1 -1.066,0.412 10.47,10.47 0 0 1 -3.744,0.214 c -0.722,-0.09 -1.409,-0.2 -2.035,-0.293 a 6.286,6.286 0 0 1 -1.663,-0.372 1.054,1.054 0 0 1 -0.5,-0.479 0.868,0.868 0 0 1 -0.073,-0.513 c 0.062,-0.3 0.248,-0.366 0.248,-0.35 a 0.634,0.634 0 0 0 -0.135,0.361 0.823,0.823 0 0 0 0.564,0.795 7.363,7.363 0 0 0 1.612,0.288 l 2.024,0.271 A 11.788,11.788 0 0 0 285,271.6 c 0.907,-0.2 1.431,-0.47 1.454,-0.436 z"
         transform="translate(-231.28,-188.963)"
         fill="#eb996e" />
      <path
         id="Path_8400"
         data-name="Path 8400"
         d="m 342.662,266.035 a 21.533,21.533 0 0 0 -1.252,-2.407 21.916,21.916 0 0 0 -1.77,-2.058 5.148,5.148 0 0 1 2.013,1.894 5.074,5.074 0 0 1 1.009,2.571 z"
         transform="translate(-258.599,-185.284)"
         fill="#eb996e" />
    </g>
    <g
       id="freepik--character-1--inject-36"
       transform="translate(32.977,87.666)">
      <path
         id="Path_8401"
         data-name="Path 8401"
         d="m 89.639,383.017 -0.739,37.64 9.117,0.975 6.264,-38.321 -4.922,-6.191 z"
         transform="translate(-59.21,-233.623)"
         fill="#ffbe9d" />
      <path
         id="Path_8402"
         data-name="Path 8402"
         d="m 99.137,452.508 v 0.615 c 0,0 10.374,4.307 10.458,6.281 L 88.91,459.06 v -6.89 a 12.753,12.753 0 0 0 10.227,0.338 z"
         transform="translate(-59.215,-266.36)"
         fill="#87d8ea" />
      <path
         id="Path_8403"
         data-name="Path 8403"
         d="m 88.9,463.112 0.1,-1.652 19.795,0.936 c 0,0 0.913,0.417 0.795,1.06 z"
         transform="translate(-59.21,-270.412)"
         fill="#263238" />
      <path
         id="Path_8404"
         data-name="Path 8404"
         d="M 75.39,180.514 A 4.565,4.565 0 0 0 72.571,176.5 l -1.911,1.094 a 4.6,4.6 0 0 0 -2.3,5.582 5.441,5.441 0 0 0 -1.742,7.465 3.627,3.627 0 0 0 -1.748,3.45 c 0.023,1.364 0.462,2.689 0.564,4.048 0.1,1.049 0,2.114 0.192,3.152 a 3.225,3.225 0 0 0 1.737,2.486 2.819,2.819 0 0 0 3,-0.857 5.847,5.847 0 0 0 1.257,-3.022 c 0.513,-3.152 -0.158,-6.439 0.637,-9.534 a 31.048,31.048 0 0 1 1.99,-4.815 10.477,10.477 0 0 0 1.143,-5.035 z"
         transform="translate(-48.728,-146.112)"
         fill="#263238" />
      <path
         id="Path_8405"
         data-name="Path 8405"
         d="m 77.233,175.413 a 6.078,6.078 0 0 1 -5.074,-9.353 1.562,1.562 0 0 1 0.693,-0.671 c 0.637,-0.254 1.308,0.265 1.8,0.75 l 3.569,3.473"
         transform="translate(-51.49,-141.237)"
         fill="#263238" />
      <path
         id="Path_8406"
         data-name="Path 8406"
         d="m 77.543,159.879 a 11.48,11.48 0 0 1 -5.565,-7.132 c -0.778,-2.858 0.118,-8.649 0.885,-11.507 0.942,-3.484 2.391,1 3.574,1.364 a 2.3,2.3 0 0 1 1.409,1.59 6.726,6.726 0 0 1 0.164,2.2 q -0.237,6.766 -0.468,13.48"
         transform="translate(-51.698,-130.157)"
         fill="#263238" />
      <path
         id="Path_8407"
         data-name="Path 8407"
         d="m 91.992,123.934 c 4.477,-2.407 8.074,-0.987 9.821,0.378 a 10.825,10.825 0 0 1 3.445,5.576 c 0.626,2.126 0.919,4.336 1.438,6.495 a 26.673,26.673 0 0 1 0.693,3.777 c 0.254,1.844 0.169,5.142 -0.772,6.766 a 11.05,11.05 0 0 1 -3.383,3.9 2.239,2.239 0 0 1 -1.793,0.53 2.159,2.159 0 0 1 -1.015,-0.93 A 86.408,86.408 0 0 1 89.1,127.785"
         transform="translate(-59.298,-122.616)"
         fill="#263238" />
      <path
         id="Path_8408"
         data-name="Path 8408"
         d="m 83.8,131.7 7.758,-3.129 2.035,0.226 c 4.567,0 7.741,5.018 7.792,8.722 a 66.133,66.133 0 0 1 -0.682,12.167 c -1.285,6.1 -6.038,6.647 -6.038,6.647 0,0 0.056,1.663 0.1,3.71 a 6.45,6.45 0 0 1 -6.585,6.608 v 0 a 6.45,6.45 0 0 1 -6.326,-6.433 l -0.1,-26.425 A 2.165,2.165 0 0 1 83.8,131.7 Z"
         transform="translate(-56.091,-125.205)"
         fill="#ffbe9d" />
      <path
         id="Path_8409"
         data-name="Path 8409"
         d="m 111.839,151.075 a 0.789,0.789 0 0 1 -0.8,0.755 0.755,0.755 0 0 1 -0.778,-0.75 0.8,0.8 0 0 1 0.8,-0.761 0.761,0.761 0 0 1 0.778,0.755 z"
         transform="translate(-68.528,-134.693)"
         fill="#263238" />
      <path
         id="Path_8410"
         data-name="Path 8410"
         d="m 111.267,147.455 c -0.1,0.1 -0.677,-0.372 -1.522,-0.412 -0.845,-0.04 -1.494,0.35 -1.584,0.242 -0.09,-0.108 0.068,-0.231 0.35,-0.412 a 2.154,2.154 0 0 1 1.269,-0.327 2.108,2.108 0 0 1 1.212,0.462 c 0.247,0.216 0.326,0.402 0.275,0.447 z"
         transform="translate(-67.601,-133.046)"
         fill="#263238" />
      <path
         id="Path_8411"
         data-name="Path 8411"
         d="m 104.461,154.448 a 5.892,5.892 0 0 1 1.393,-0.18 c 0.214,0 0.423,-0.039 0.468,-0.186 a 1.156,1.156 0 0 0 -0.113,-0.654 c -0.175,-0.53 -0.361,-1.094 -0.564,-1.691 a 28.668,28.668 0 0 1 -1.223,-4.386 28.591,28.591 0 0 1 1.573,4.279 c 0.186,0.564 0.361,1.128 0.53,1.691 a 1.24,1.24 0 0 1 0.073,0.851 0.564,0.564 0 0 1 -0.372,0.3 1.488,1.488 0 0 1 -0.372,0.028 5.282,5.282 0 0 1 -1.393,-0.052 z"
         transform="translate(-65.976,-133.397)"
         fill="#263238" />
      <path
         id="Path_8412"
         data-name="Path 8412"
         d="m 98.364,175.79 a 15.691,15.691 0 0 1 -8.124,-2.61 c 0,0 1.979,4.369 8.164,4.1 z"
         transform="translate(-59.795,-144.664)"
         fill="#eb996e" />
      <path
         id="Path_8413"
         data-name="Path 8413"
         d="m 101.558,162.641 a 1.539,1.539 0 0 0 -1.37,-0.722 1.218,1.218 0 0 0 -0.992,0.474 1.083,1.083 0 0 0 -0.062,1.156 1.128,1.128 0 0 0 1.156,0.451 2.819,2.819 0 0 0 1.128,-0.609 0.925,0.925 0 0 0 0.254,-0.259 0.677,0.677 0 0 0 -0.113,-0.491 z"
         transform="translate(-63.614,-139.752)"
         fill="#eb996e" />
      <path
         id="Path_8414"
         data-name="Path 8414"
         d="m 99.873,160.76 c 0.135,0 0.1,0.919 0.851,1.612 0.751,0.693 1.736,0.643 1.742,0.772 0.006,0.129 -0.231,0.169 -0.643,0.158 a 2.3,2.3 0 0 1 -1.46,-0.592 2.007,2.007 0 0 1 -0.654,-1.347 c 10e-4,-0.389 0.114,-0.609 0.164,-0.603 z"
         transform="translate(-63.926,-139.247)"
         fill="#263238" />
      <path
         id="Path_8415"
         data-name="Path 8415"
         d="m 111.248,143.262 c -0.158,0.186 -0.733,-0.039 -1.438,-0.085 -0.705,-0.046 -1.3,0.062 -1.432,-0.147 -0.056,-0.1 0.051,-0.288 0.316,-0.457 a 2.08,2.08 0 0 1 2.312,0.186 c 0.242,0.182 0.31,0.385 0.242,0.503 z"
         transform="translate(-67.701,-131.198)"
         fill="#263238" />
      <path
         id="Path_8416"
         data-name="Path 8416"
         d="m 96.43,151.026 a 0.784,0.784 0 0 0 0.75,0.806 0.755,0.755 0 0 0 0.823,-0.7 0.789,0.789 0 0 0 -0.75,-0.806 0.75,0.75 0 0 0 -0.823,0.7 z"
         transform="translate(-62.495,-134.694)"
         fill="#263238" />
      <path
         id="Path_8417"
         data-name="Path 8417"
         d="m 93.6,147.376 c 0.1,0.107 0.7,-0.327 1.55,-0.316 0.85,0.011 1.466,0.445 1.556,0.344 0.09,-0.101 -0.051,-0.231 -0.316,-0.434 a 2.125,2.125 0 0 0 -1.252,-0.4 2.1,2.1 0 0 0 -1.235,0.378 c -0.264,0.186 -0.354,0.372 -0.303,0.428 z"
         transform="translate(-61.254,-133.057)"
         fill="#263238" />
      <path
         id="Path_8418"
         data-name="Path 8418"
         d="m 94.245,142.542 c 0.147,0.192 0.739,0 1.443,0 0.704,0 1.3,0.147 1.438,-0.056 0.062,-0.1 -0.034,-0.288 -0.288,-0.474 a 1.979,1.979 0 0 0 -1.167,-0.333 2.035,2.035 0 0 0 -1.156,0.372 c -0.248,0.198 -0.332,0.372 -0.27,0.491 z"
         transform="translate(-61.533,-130.923)"
         fill="#263238" />
      <path
         id="Path_8419"
         data-name="Path 8419"
         d="m 89.887,127.064 a 7.543,7.543 0 0 0 -6.658,0.755 8.7,8.7 0 0 0 -3.123,5.367 18.9,18.9 0 0 0 0.677,7.217 c 3.18,-4.1 6.456,-8.823 9.523,-13.007 z"
         transform="translate(-55.315,-124.353)"
         fill="#263238" />
      <path
         id="Path_8420"
         data-name="Path 8420"
         d="m 99.182,124.032 c 10.78,-1.522 9.782,14.777 9.782,14.777 v 0 c -1.077,-6 -9.432,-12.285 -9.432,-12.285 l -1.691,-0.288 z"
         transform="translate(-63.11,-123.182)"
         fill="#263238" />
      <path
         id="Path_8421"
         data-name="Path 8421"
         d="m 79.486,154.9 c 0,-0.457 -0.451,-1.562 -0.9,-1.658 -1.2,-0.248 -3.383,-0.259 -3.552,2.819 -0.242,4.189 4.014,3.563 4.031,3.445 0.017,-0.118 0.348,-3.021 0.421,-4.606 z"
         transform="translate(-53.157,-135.925)"
         fill="#ffbe9d" />
      <path
         id="Path_8422"
         data-name="Path 8422"
         d="m 79.661,158.859 a 1.373,1.373 0 0 1 -0.2,0.1 0.744,0.744 0 0 1 -0.564,0 1.81,1.81 0 0 1 -0.744,-1.691 2.408,2.408 0 0 1 0.265,-1.032 0.851,0.851 0 0 1 0.564,-0.53 0.366,0.366 0 0 1 0.417,0.226 c 0.051,0.118 0,0.2 0.039,0.209 0.039,0.009 0.1,-0.062 0.073,-0.237 a 0.508,0.508 0 0 0 -0.152,-0.276 0.564,0.564 0 0 0 -0.395,-0.13 1.026,1.026 0 0 0 -0.8,0.609 2.447,2.447 0 0 0 -0.321,1.128 1.924,1.924 0 0 0 0.957,1.865 0.756,0.756 0 0 0 0.671,-0.073 c 0.151,-0.066 0.201,-0.156 0.19,-0.168 z"
         transform="translate(-54.386,-136.952)"
         fill="#eb996e" />
      <path
         id="Path_8423"
         data-name="Path 8423"
         d="m 73.526,131.554 a 15.121,15.121 0 0 1 5.768,-6.985 10.227,10.227 0 0 1 4.51,-1.906 5.187,5.187 0 0 1 4.51,1.511 l 0.3,0.3 c -1.849,4.11 -3.157,7.589 -5.542,11.411 -0.88,1.4 -1.257,6.2 -1.466,7.831 -0.722,5.61 -3.794,8.012 -3.794,8.012 -6.654,0.01 -5.357,-17.298 -4.286,-20.174 z"
         transform="translate(-52.124,-122.602)"
         fill="#263238" />
      <path
         id="Path_8424"
         data-name="Path 8424"
         d="m 77.034,169.89 a 1.832,1.832 0 0 1 -0.829,-0.259 5.671,5.671 0 0 1 -1.691,-1.263 5.44,5.44 0 0 1 -1.128,-1.782 1.843,1.843 0 0 1 -0.186,-0.846 10.938,10.938 0 0 0 1.5,2.43 10.712,10.712 0 0 0 2.334,1.72 z"
         transform="translate(-52.362,-141.419)"
         fill="#455a64" />
      <path
         id="Path_8425"
         data-name="Path 8425"
         d="m 76.369,181.136 a 3.219,3.219 0 0 1 -2.819,-2.126 17.477,17.477 0 0 0 1.274,1.252 15.139,15.139 0 0 0 1.545,0.874 z"
         transform="translate(-52.515,-147.207)"
         fill="#455a64" />
      <path
         id="Path_8426"
         data-name="Path 8426"
         d="m 72.434,190.305 c -0.062,0.051 -0.445,-0.372 -0.857,-0.942 -0.412,-0.57 -0.682,-1.071 -0.615,-1.128 0.067,-0.057 0.445,0.372 0.857,0.942 0.412,0.57 0.681,1.083 0.615,1.128 z"
         transform="translate(-51.381,-151.23)"
         fill="#455a64" />
      <path
         id="Path_8427"
         data-name="Path 8427"
         d="m 68.891,202.187 c -0.062,0.051 -0.355,-0.186 -0.66,-0.536 -0.305,-0.35 -0.5,-0.671 -0.44,-0.727 0.06,-0.056 0.355,0.186 0.66,0.536 0.305,0.35 0.502,0.67 0.44,0.727 z"
         transform="translate(-49.998,-156.763)"
         fill="#455a64" />
      <path
         id="Path_8428"
         data-name="Path 8428"
         d="m 72,141.927 a 6.309,6.309 0 0 1 0.795,-0.462 9.543,9.543 0 0 0 0.93,-0.564 c 0.366,-0.254 0.778,-0.445 1.207,-0.75 a 28.894,28.894 0 0 0 2.954,-2.216 28.551,28.551 0 0 0 5.841,-6.861 29.318,29.318 0 0 0 1.72,-3.27 c 0.231,-0.474 0.389,-0.919 0.564,-1.308 a 10.567,10.567 0 0 0 0.378,-1.009 5.593,5.593 0 0 1 0.333,-0.857 5.875,5.875 0 0 1 -0.226,0.9 10.5,10.5 0 0 1 -0.333,1.026 c -0.141,0.395 -0.288,0.851 -0.507,1.336 a 26.728,26.728 0 0 1 -1.691,3.326 27.267,27.267 0 0 1 -5.9,6.929 26.821,26.821 0 0 1 -3.016,2.182 c -0.44,0.293 -0.868,0.513 -1.235,0.722 -0.367,0.209 -0.693,0.366 -0.964,0.491 a 5.739,5.739 0 0 1 -0.851,0.389 z"
         transform="translate(-51.839,-123.487)"
         fill="#455a64" />
      <path
         id="Path_8429"
         data-name="Path 8429"
         d="m 82.044,146.4 a 3.388,3.388 0 0 1 -0.3,0.4 c -0.209,0.242 -0.564,0.564 -0.958,0.981 a 20.505,20.505 0 0 1 -7.735,4.595 13.531,13.531 0 0 1 -1.319,0.366 1.9,1.9 0 0 1 -0.5,0.079 17.654,17.654 0 0 1 1.748,-0.637 25.976,25.976 0 0 0 4.037,-1.917 25.683,25.683 0 0 0 3.631,-2.61 17.219,17.219 0 0 1 1.396,-1.257 z"
         transform="translate(-51.503,-132.982)"
         fill="#455a64" />
      <path
         id="Path_8430"
         data-name="Path 8430"
         d="m 109.833,141.723 a 7.331,7.331 0 0 1 0.175,-0.919 15.366,15.366 0 0 0 0.276,-2.515 14.614,14.614 0 0 0 -7.995,-13.61 15.28,15.28 0 0 0 -2.334,-0.981 7.729,7.729 0 0 1 -0.885,-0.3 1.3,1.3 0 0 1 0.242,0.034 c 0.158,0.034 0.383,0.068 0.677,0.152 a 13.194,13.194 0 0 1 2.391,0.908 14.405,14.405 0 0 1 8.113,13.8 13.217,13.217 0 0 1 -0.372,2.531 c -0.068,0.293 -0.152,0.519 -0.2,0.671 a 0.869,0.869 0 0 1 -0.088,0.229 z"
         transform="translate(-63.646,-122.95)"
         fill="#455a64" />
      <path
         id="Path_8431"
         data-name="Path 8431"
         d="m 206.565,223.5 a 1.348,1.348 0 0 0 -0.186,1.308 2.126,2.126 0 0 0 0.834,0.851 7.329,7.329 0 0 0 1.387,-1.985"
         transform="translate(-110.415,-166.614)"
         fill="#eb996e" />
      <path
         id="Path_8432"
         data-name="Path 8432"
         d="m 202.04,222.23 a 1.359,1.359 0 0 0 -0.507,1.223 2.092,2.092 0 0 0 0.6,1.032 7.436,7.436 0 0 0 1.838,-1.573"
         transform="translate(-108.337,-166.06)"
         fill="#eb996e" />
      <path
         id="Path_8433"
         data-name="Path 8433"
         d="m 103.82,189.26 c 0,0 18.543,14.591 21.887,15.07 3.344,0.479 18.983,-1.421 25.4,-1.618 l 0.908,5.384 c 0,0 -17.72,6.016 -24.164,6.253 -6.444,0.237 -10.148,-1.5 -10.148,-1.5 l -12.048,-12.342 z"
         transform="translate(-65.718,-151.678)"
         fill="#ffbe9d" />
      <path
         id="Path_8434"
         data-name="Path 8434"
         d="m 187,212.655 c 0,0 8.282,-1.184 9.585,-0.536 a 47.18,47.18 0 0 1 4.984,3.766 c 0,0 1.235,3.467 0.457,3.631 -0.778,0.164 -1.579,-1.128 -1.579,-1.128 l -1.077,-1.911 -4.629,-1.128 -7.673,0.682 z"
         transform="translate(-102.002,-161.565)"
         fill="#ffbe9d" />
      <path
         id="Path_8435"
         data-name="Path 8435"
         d="m 187.194,220.1 a 12.277,12.277 0 0 0 4.584,1.534 c 1.505,-0.039 3.225,-1.218 4.51,-1.037 1.285,0.181 3.98,0.389 4.307,-0.079 a 1.021,1.021 0 0 0 0,-1.421 c -0.44,-0.417 -2.61,-0.829 -4.178,-1.252 a 6.27,6.27 0 0 1 -2.323,-1.066 l -9.117,1 -0.519,2.819 z"
         transform="translate(-100.894,-163.683)"
         fill="#ffbe9d" />
      <path
         id="Path_8436"
         data-name="Path 8436"
         d="m 196.3,216.581 a 1.8,1.8 0 0 1 0.479,-0.034 7.027,7.027 0 0 1 1.291,0.158 36.125,36.125 0 0 1 4.071,1.295 12.573,12.573 0 0 0 2.255,0.53 1.9,1.9 0 0 1 1.009,0.389 1.128,1.128 0 0 1 0.338,0.9 1.009,1.009 0 0 1 -0.378,0.693 1.054,1.054 0 0 1 -0.564,0.209 c -0.327,0 -0.479,-0.1 -0.474,-0.113 a 2.532,2.532 0 0 0 0.462,0 0.885,0.885 0 0 0 0.733,-0.806 0.863,0.863 0 0 0 -0.293,-0.7 1.725,1.725 0 0 0 -0.885,-0.31 11.356,11.356 0 0 1 -2.306,-0.519 c -1.59,-0.53 -2.971,-1.128 -4.026,-1.364 -1.055,-0.236 -1.712,-0.272 -1.712,-0.328 z"
         transform="translate(-106.058,-163.58)"
         fill="#eb996e" />
      <path
         id="Path_8437"
         data-name="Path 8437"
         d="m 205.1,218.264 a 2.65,2.65 0 0 1 -1.342,-0.677 2.916,2.916 0 0 1 -0.97,-1.128 c 0.062,0 0.524,0.423 1.128,0.913 0.604,0.49 1.242,0.813 1.184,0.892 z"
         transform="translate(-108.884,-163.543)"
         fill="#eb996e" />
      <path
         id="Path_8438"
         data-name="Path 8438"
         d="m 62.477,384.513 -16.807,7.482 2.024,8.976 c 0,0 21.131,-6.3 28.043,-7.7 6.912,-1.4 18.115,-3.18 21.278,-9.889 z"
         transform="translate(-40.353,-236.354)"
         fill="#ffbe9d" />
      <path
         id="Path_8439"
         data-name="Path 8439"
         d="m 45.211,407.258 -0.564,0.158 c 0,0 -1.353,11.017 -3.214,11.626 l -5.153,-19.79 6.563,-1.832 a 12.624,12.624 0 0 0 2.368,9.838 z"
         transform="translate(-36.257,-242.478)"
         fill="#87d8ea" />
      <path
         id="Path_8440"
         data-name="Path 8440"
         d="m 36.24,400.4 1.6,-0.35 4.353,19.1 c 0,0 -0.152,0.981 -0.8,1.043 z"
         transform="translate(-36.24,-243.625)"
         fill="#263238" />
      <path
         id="Path_8441"
         data-name="Path 8441"
         d="m 101.237,383.84 a 2.255,2.255 0 0 1 -0.175,0.474 5.722,5.722 0 0 1 -0.806,1.2 18.728,18.728 0 0 1 -4.15,3.3 19.167,19.167 0 0 1 -3.326,1.562 36.878,36.878 0 0 1 -4.054,1.128 c -2.864,0.722 -6.01,1.545 -9.308,2.419 l -16.918,4.463 -5.119,1.331 -1.4,0.338 a 2.925,2.925 0 0 1 -0.5,0.1 3.517,3.517 0 0 1 0.479,-0.158 l 1.387,-0.383 5.108,-1.4 c 4.319,-1.173 10.278,-2.819 16.88,-4.544 3.3,-0.874 6.444,-1.691 9.32,-2.4 a 37.705,37.705 0 0 0 4.031,-1.128 19.552,19.552 0 0 0 7.47,-4.708 6.338,6.338 0 0 0 1.071,-1.59 z"
         transform="translate(-44.637,-236.554)"
         fill="#eb996e" />
      <path
         id="Path_8442"
         data-name="Path 8442"
         d="m 82.994,254.417 0.383,3.309 c 0,0 -5.824,11 -5.824,16.914 0,5.914 -2.684,52.89 -2.684,52.89 0,0 31.573,1.8 34.9,-1.285 l 3.338,-3.078 11.276,-3.078 -17.613,-64.274 v -3.445 z"
         transform="translate(-53.09,-179.207)"
         fill="#263238" />
      <path
         id="Path_8443"
         data-name="Path 8443"
         d="m 127.577,284.24 a 0.457,0.457 0 0 1 0.034,0.135 l 0.062,0.383 c 0.051,0.361 0.118,0.857 0.209,1.483 0.186,1.314 0.445,3.174 0.767,5.458 0.654,4.606 1.635,10.955 2.9,17.94 1.265,6.985 2.577,13.277 3.58,17.822 0.5,2.255 0.908,4.082 1.2,5.379 l 0.321,1.466 c 0.028,0.152 0.056,0.276 0.073,0.378 a 0.418,0.418 0 0 1 0,0.135 0.564,0.564 0 0 1 -0.045,-0.124 l -0.1,-0.378 c -0.1,-0.355 -0.22,-0.84 -0.378,-1.449 -0.321,-1.263 -0.767,-3.09 -1.291,-5.362 -1.054,-4.51 -2.4,-10.825 -3.67,-17.816 -1.27,-6.991 -2.21,-13.351 -2.819,-17.963 -0.3,-2.306 -0.53,-4.178 -0.671,-5.474 -0.068,-0.626 -0.118,-1.128 -0.158,-1.488 a 1.33,1.33 0 0 0 -0.034,-0.389 0.44,0.44 0 0 1 0.017,-0.135 z"
         transform="translate(-76.074,-193.109)"
         fill="#455a64" />
      <path
         id="Path_8444"
         data-name="Path 8444"
         d="m 87.37,294.68 a 2.1,2.1 0 0 1 0.135,0.372 q 0.118,0.417 0.321,1.083 c 0.282,0.975 0.677,2.323 1.161,3.98 1,3.355 2.441,7.966 4.2,13.007 1.759,5.041 3.518,9.551 4.832,12.793 0.654,1.6 1.19,2.9 1.573,3.839 l 0.423,1.043 a 3.147,3.147 0 0 1 0.13,0.372 1.63,1.63 0 0 1 -0.186,-0.35 l -0.474,-1.02 c -0.406,-0.891 -0.975,-2.188 -1.658,-3.806 -1.364,-3.225 -3.146,-7.724 -4.916,-12.77 -1.77,-5.046 -3.174,-9.68 -4.121,-13.052 -0.474,-1.691 -0.84,-3.056 -1.077,-4.009 -0.113,-0.451 -0.2,-0.812 -0.265,-1.094 A 2.373,2.373 0 0 1 87.37,294.68 Z"
         transform="translate(-58.543,-197.663)"
         fill="#455a64" />
      <path
         id="Path_8445"
         data-name="Path 8445"
         d="m 114.651,261.177 a 5.334,5.334 0 0 1 -0.947,0.113 c -0.609,0.062 -1.494,0.124 -2.593,0.192 -2.188,0.13 -5.221,0.248 -8.564,0.265 -3.343,0.017 -6.382,-0.085 -8.575,-0.2 -1.094,-0.056 -1.979,-0.113 -2.593,-0.163 a 5.333,5.333 0 0 1 -0.947,-0.113 7.321,7.321 0 0 1 0.953,0 l 2.6,0.073 c 2.188,0.062 5.215,0.124 8.558,0.113 3.343,-0.011 6.371,-0.1 8.564,-0.18 l 2.593,-0.1 a 5.891,5.891 0 0 1 0.951,0 z"
         transform="translate(-59.878,-183.041)"
         fill="#455a64" />
      <path
         id="Path_8446"
         data-name="Path 8446"
         d="m 89.766,184.6 c -0.152,-0.355 11.2,8.694 12.623,13.1 1.423,4.406 1.691,17.128 1.691,17.128 l 0.795,8.164 -22.682,1.6 -0.609,-1.6 -1.691,-4.55 -2.317,-6.873 c 0,0 -5.587,-8.677 -6.7,-12.4 -1.376,-4.64 0.908,-9.393 0.908,-9.393 L 76.912,184 Z"
         transform="translate(-51.157,-149.384)"
         fill="#87d8ea" />
      <path
         id="Path_8447"
         data-name="Path 8447"
         d="m 81.361,181.876 c 0,0 -1.257,-2.329 -0.485,-3.349 0.62,-0.806 11.53,0.209 13.757,0.677 1.308,0.282 0,3.2 0,3.2 z"
         transform="translate(-55.601,-146.865)"
         fill="#87d8ea" />
      <g
         id="Group_2223"
         data-name="Group 2223"
         transform="translate(26.762,46.005)"
         opacity="0.3">
        <path
           id="Path_8448"
           data-name="Path 8448"
           d="m 89.24,204.2 c 0.953,2.464 -0.395,10.1 -0.6,11.919 a 31.11,31.11 0 0 1 -1.252,5.339 2.908,2.908 0 0 0 0,2.469 c 0.744,1.128 2.661,0.823 3.591,1.838 a 8.936,8.936 0 0 1 -5.582,0.643 1.522,1.522 0 0 1 -0.885,-0.423 1.607,1.607 0 0 1 -0.271,-0.716 21.233,21.233 0 0 1 -0.265,-8.13 c 0.491,-2.678 3.05,-9.105 5.2,-10.8"
           transform="translate(-83.708,-204.2)" />
      </g>
      <path
         id="Path_8449"
         data-name="Path 8449"
         d="m 91.99,210.189 a 7.436,7.436 0 0 1 -1.094,2.616 7.093,7.093 0 0 1 -1.8,2.188 c -0.062,-0.056 0.755,-1.015 1.55,-2.34 0.795,-1.325 1.259,-2.497 1.344,-2.464 z"
         transform="translate(-59.295,-160.808)"
         fill="#263238" />
      <path
         id="Path_8450"
         data-name="Path 8450"
         d="m 95.062,184.619 a 1.691,1.691 0 0 1 -0.519,0.147 c -0.338,0.073 -0.829,0.158 -1.443,0.242 a 26.8,26.8 0 0 1 -9.579,-0.462 c -0.6,-0.141 -1.082,-0.276 -1.409,-0.383 a 1.759,1.759 0 0 1 -0.5,-0.2 c 0,-0.045 0.75,0.147 1.956,0.378 a 34.134,34.134 0 0 0 4.747,0.564 34.828,34.828 0 0 0 4.785,-0.105 c 1.2,-0.108 1.951,-0.226 1.962,-0.181 z"
         transform="translate(-56.03,-149.366)"
         fill="#263238" />
      <path
         id="Path_8451"
         data-name="Path 8451"
         d="m 118.149,215.669 c -0.051,0 0.147,-0.626 0.3,-1.635 a 12.234,12.234 0 0 0 -1.364,-7.7 c -0.491,-0.9 -0.885,-1.4 -0.846,-1.432 0.039,-0.032 0.13,0.107 0.316,0.327 a 7.515,7.515 0 0 1 0.71,1 11.129,11.129 0 0 1 1.393,7.837 7.839,7.839 0 0 1 -0.327,1.184 1.359,1.359 0 0 1 -0.18,0.412 z"
         transform="translate(-71.134,-158.501)"
         fill="#263238" />
      <g
         id="Group_2224"
         data-name="Group 2224"
         transform="translate(26.363,34.842)"
         opacity="0.3">
        <path
           id="Path_8452"
           data-name="Path 8452"
           d="M 88.638,185.2 A 39.313,39.313 0 0 1 83,184.4 a 14.963,14.963 0 0 0 8.671,1.742 4.579,4.579 0 0 0 2.966,-1.274 c -1.663,0.648 -4.217,0.49 -5.999,0.332 z"
           transform="translate(-83,-184.4)" />
      </g>
      <g
         id="Group_2225"
         data-name="Group 2225"
         transform="translate(44.788,51.66)"
         opacity="0.3">
        <path
           id="Path_8453"
           data-name="Path 8453"
           d="m 115.68,222.332 a 9.957,9.957 0 0 0 2.644,-8.1 11.276,11.276 0 0 1 0.423,2.943 4.973,4.973 0 0 1 -0.795,3.259 4.027,4.027 0 0 1 -2.255,1.9"
           transform="translate(-115.68,-214.23)" />
      </g>
      <path
         id="Path_8454"
         data-name="Path 8454"
         d="m 78.6,194.367 a 5.638,5.638 0 0 0 -8.051,0.755 c -0.079,0.1 -0.158,0.214 -0.231,0.321 -1.178,1.765 -4.426,29.25 -3.129,32.543 1.297,3.293 3.174,3.061 3.174,3.061 a 83.294,83.294 0 0 0 14.619,-1.511 c 6.117,-1.415 12.934,-3.727 12.934,-3.727 l -1.128,-6.658 c 0,0 -14.975,1.985 -19.09,1.517 v 0 l 1.573,-13.385 c 0,0 3.58,-4.358 2.554,-8.356 a 9.4,9.4 0 0 0 -3.225,-4.56 z"
         transform="translate(-49.608,-153.318)"
         fill="#ffbe9d" />
      <path
         id="Path_8455"
         data-name="Path 8455"
         d="m 128.29,228.8 3.383,-2.255 2.419,-2.041 a 2.734,2.734 0 0 1 -0.457,2.148 c -0.75,1.128 -2.013,2.819 -2.013,2.819 z"
         transform="translate(-76.392,-167.05)"
         fill="#ffbe9d" />
      <path
         id="Path_8456"
         data-name="Path 8456"
         d="m 131.514,227.249 c -0.028,0 0.192,-0.259 0.428,-0.744 a 3.276,3.276 0 0 0 0.214,-2.154 l 0.2,0.056 -2.407,2.058 v 0 l -0.18,0.118 -2.117,1.417 a 19.955,19.955 0 0 1 -1.77,1.094 12.4,12.4 0 0 1 -1.691,0.88 12.146,12.146 0 0 1 1.6,-1.06 c 0.513,-0.3 1.088,-0.7 1.731,-1.128 l 2.1,-1.426 0.18,-0.124 v 0 l 2.43,-2.024 0.163,-0.13 0.039,0.192 a 3.264,3.264 0 0 1 -0.327,2.295 2.869,2.869 0 0 1 -0.383,0.524 c -0.137,0.107 -0.199,0.167 -0.21,0.156 z"
         transform="translate(-74.604,-166.867)"
         fill="#eb996e" />
      <path
         id="Path_8457"
         data-name="Path 8457"
         d="m 126.13,232.263 c 0.113,-0.226 8.953,-10.075 11.135,-12.505 a 0.936,0.936 0 0 1 1.128,-0.209 v 0 a 0.942,0.942 0 0 1 0.282,1.472 l -11.321,12.59 z"
         transform="translate(-75.45,-164.845)"
         fill="#263238" />
      <path
         id="Path_8458"
         data-name="Path 8458"
         d="m 131.64,233.188 c 0.366,-0.49 -0.175,-1.455 -0.677,-1.72 -0.502,-0.265 -2.5,0.84 -2.5,0.84 l -0.722,0.068 c 0,0 -3.885,-0.789 -4.014,-0.722 a 12.352,12.352 0 0 0 -2.819,1.691 5.514,5.514 0 0 0 -1,1.223 4.2,4.2 0 0 1 -2.712,1.607 l 1.646,6.692 c 0,0 3.614,-0.851 3.885,-0.857 0.271,-0.006 3.3,-0.242 3.7,-0.31 a 10.036,10.036 0 0 0 3.383,-1.562 c 1.3,-0.964 0.693,-1.782 0.693,-1.782 1.336,-0.908 0.293,-1.81 0.293,-1.81 l 0.378,-0.643 a 1.152,1.152 0 0 0 -0.564,-1.584 9.778,9.778 0 0 0 1.03,-1.131 z"
         transform="translate(-71.55,-170.072)"
         fill="#ffbe9d" />
      <path
         id="Path_8459"
         data-name="Path 8459"
         d="m 138.06,237.382 a 4.556,4.556 0 0 1 0.88,-0.564 4.31,4.31 0 0 1 0.9,-0.53 c 0.056,0.034 -0.242,0.445 -0.761,0.761 -0.519,0.316 -0.996,0.406 -1.019,0.333 z"
         transform="translate(-80.654,-172.191)"
         fill="#eb996e" />
      <path
         id="Path_8460"
         data-name="Path 8460"
         d="m 140.063,240.946 c -0.045,-0.062 0.09,-0.254 0.31,-0.428 0.22,-0.174 0.434,-0.276 0.479,-0.22 0.045,0.056 -0.09,0.248 -0.31,0.428 -0.22,0.18 -0.428,0.274 -0.479,0.22 z"
         transform="translate(-81.524,-173.934)"
         fill="#eb996e" />
      <path
         id="Path_8461"
         data-name="Path 8461"
         d="m 139.37,243.775 c 0,-0.079 0.214,-0.158 0.479,-0.259 0.265,-0.101 0.485,-0.186 0.53,-0.13 0.045,0.056 -0.13,0.265 -0.434,0.383 -0.304,0.118 -0.575,0.079 -0.575,0.006 z"
         transform="translate(-81.225,-175.28)"
         fill="#eb996e" />
      <path
         id="Path_8462"
         data-name="Path 8462"
         d="m 134.009,232.94 a 7.453,7.453 0 0 1 -2.041,0.288 13.851,13.851 0 0 1 -2.058,0.113 5.172,5.172 0 0 1 2.035,-0.406 7.121,7.121 0 0 1 2.063,0.006 z"
         transform="translate(-77.099,-170.697)"
         fill="#eb996e" />
      <path
         id="Path_8463"
         data-name="Path 8463"
         d="m 83.9,241.84 a 9.939,9.939 0 0 1 -1.5,1.928 9.973,9.973 0 0 1 -1.72,1.732 10.848,10.848 0 0 1 1.505,-1.928 10.571,10.571 0 0 1 1.72,-1.737 z"
         transform="translate(-55.625,-174.614)"
         fill="#eb996e" />
      <path
         id="Path_8464"
         data-name="Path 8464"
         d="m 83.766,202.292 c 0,0 0.039,-0.3 0.09,-0.834 a 7.369,7.369 0 0 0 -0.107,-2.255 8.3,8.3 0 0 0 -4.572,-5.553 5.379,5.379 0 0 0 -3.947,-0.254 4.426,4.426 0 0 0 -2.577,1.968 7.369,7.369 0 0 0 -0.806,2.114 7.059,7.059 0 0 1 -0.2,0.817 v -0.22 a 3.808,3.808 0 0 1 0.085,-0.62 6.85,6.85 0 0 1 0.677,-2.193 4.318,4.318 0 0 1 1.037,-1.246 5.164,5.164 0 0 1 1.635,-0.88 5.6,5.6 0 0 1 4.172,0.248 8.31,8.31 0 0 1 4.7,5.751 6.579,6.579 0 0 1 0,2.312 4.753,4.753 0 0 1 -0.135,0.62 0.648,0.648 0 0 1 -0.051,0.226 z"
         transform="translate(-51.686,-153.243)"
         fill="#263238" />
    </g>
    <g
       id="freepik--speech-bubble--inject-36"
       transform="translate(81.886,109.92)">
      <path
         id="Path_8465"
         data-name="Path 8465"
         d="M 148.117,162.34 H 125 a 1.725,1.725 0 0 0 -1.691,1.691 v 22.405 a 1.725,1.725 0 0 0 1.691,1.72 h 8.513 l 3.321,4.708 2.887,-4.708 h 8.395 a 1.691,1.691 0 0 0 1.72,-1.72 v -22.377 a 1.691,1.691 0 0 0 -1.72,-1.72 z"
         transform="translate(-123.128,-162.19)"
         fill="#fafafa" />
      <path
         id="Path_8466"
         data-name="Path 8466"
         d="m 147.977,162.224 a 1.449,1.449 0 0 1 0.682,0.113 1.855,1.855 0 0 1 0.682,0.5 1.765,1.765 0 0 1 0.4,1.088 c 0,1.753 0,4.3 0.039,7.487 0.039,3.187 0,7.07 0.034,11.451 v 3.383 a 1.866,1.866 0 0 1 -0.795,1.612 1.832,1.832 0 0 1 -0.9,0.321 h -8.536 l 0.118,-0.068 -2.881,4.713 -0.113,0.186 -0.124,-0.175 -3.332,-4.713 0.124,0.062 h -8.739 a 1.855,1.855 0 0 1 -1.252,-0.716 2,2 0 0 1 -0.389,-1.359 v -22.273 a 1.838,1.838 0 0 1 1.359,-1.691 4.477,4.477 0 0 1 1.082,-0.062 h 6.856 l 11.456,0.045 h 3.924 a 2.513,2.513 0 0 1 0.276,0 h -4.2 l -11.456,0.051 h -6.828 a 4.646,4.646 0 0 0 -1.02,0.062 1.584,1.584 0 0 0 -1.173,1.466 v 22.276 a 1.731,1.731 0 0 0 0.327,1.184 1.579,1.579 0 0 0 1.054,0.6 c 0.874,0.028 1.821,0 2.734,0 h 6.044 l 0.045,0.062 3.321,4.713 h -0.237 l 2.887,-4.708 0.039,-0.068 h 0.079 l 7.673,0.2 h 0.9 a 1.635,1.635 0 0 0 0.772,-0.276 1.607,1.607 0 0 0 0.693,-1.4 v -3.39 c 0,-4.381 0,-8.243 0.034,-11.451 0.034,-3.208 0,-5.728 0.039,-7.487 a 1.691,1.691 0 0 0 -1.015,-1.545 2.254,2.254 0 0 0 -0.683,-0.193 z"
         transform="translate(-122.988,-162.074)"
         fill="#263238" />
      <path
         id="Path_8467"
         data-name="Path 8467"
         d="m 145.117,185.337 h -7.989 v -0.045 c -0.045,-0.3 -0.09,-0.615 -0.135,-0.936 -0.378,-2.734 -0.716,-5.176 -0.936,-6.766 l 0.034,0.034 h 0.023 c 0.231,1.6 0.564,4.037 0.975,6.766 0.045,0.316 0.09,0.637 0.13,0.936 l -0.051,-0.051 h 7.786 a 0.889,0.889 0 0 1 0.163,0.062 z"
         transform="translate(-127.813,-168.842)"
         fill="#263238" />
      <path
         id="Path_8468"
         data-name="Path 8468"
         d="m 137.038,185.47 a 0.1,0.1 0 0 1 -0.085,-0.085 l -1.06,-7.639 h -1.787 c -0.158,0 -0.231,0 -0.237,-0.107 -0.006,-0.107 0.079,-0.113 0.237,-0.118 h 1.934 a 0.1,0.1 0 0 1 0.1,0.09 l 1.094,7.6 7.645,0.034 c 0.186,0 0.254,0 0.259,0.107 v 0 c 0,0.1 -0.073,0.107 -0.259,0.113 h -7.829 z"
         transform="translate(-127.735,-168.811)"
         fill="#263238" />
      <path
         id="Path_8469"
         data-name="Path 8469"
         d="m 139.19,184.718 h 2.3 l 5.852,-0.028 -0.051,0.045 c 0.175,-0.987 0.361,-2.052 0.564,-3.157 0.1,-0.564 0.2,-1.128 0.293,-1.658 l 0.051,0.062 h -6.9 l 6.9,-0.028 h 0.062 v 0.062 c -0.09,0.564 -0.192,1.088 -0.288,1.658 -0.2,1.128 -0.383,2.171 -0.564,3.157 v 0.039 h -8.2 z"
         transform="translate(-130.055,-169.858)"
         fill="#263238" />
      <path
         id="Path_8470"
         data-name="Path 8470"
         d="m 138.576,184.751 a 0.107,0.107 0 0 1 -0.107,-0.107 c 0,-0.1 0.1,-0.1 0.135,-0.107 h 2.255 l 5.728,-0.028 0.789,-4.51 -9.455,-0.034 c -0.051,0 -0.152,0 -0.152,-0.107 0,-0.107 0.1,-0.1 0.147,-0.107 h 9.709 a 0.1,0.1 0 0 1 0.079,0.039 0.1,0.1 0 0 1 0,0.079 l -0.863,4.916 a 0.1,0.1 0 0 1 -0.1,0.085 l -8.175,-0.034 z"
         transform="translate(-129.436,-169.784)"
         fill="#263238" />
      <path
         id="Path_8471"
         data-name="Path 8471"
         d="m 141.813,194.494 a 1.584,1.584 0 0 1 -0.045,-0.186 0.829,0.829 0 0 0 -0.293,-0.412 0.751,0.751 0 1 0 0,1.2 0.818,0.818 0 0 0 0.293,-0.412 1.966,1.966 0 0 1 0.045,-0.192 0.564,0.564 0 0 1 0,0.2 0.8,0.8 0 0 1 -0.288,0.462 0.863,0.863 0 1 1 0.288,-0.863 0.525,0.525 0 0 1 0,0.203 z"
         transform="translate(-130.457,-175.84)"
         fill="#263238" />
      <path
         id="Path_8472"
         data-name="Path 8472"
         d="m 140.842,195.37 a 0.767,0.767 0 0 1 -0.18,-0.045 0.947,0.947 0 0 1 -0.631,-0.885 0.958,0.958 0 0 1 0.631,-0.891 0.93,0.93 0 0 1 0.885,0.147 0.941,0.941 0 0 1 0.327,0.524 0.654,0.654 0 0 1 0,0.214 0.694,0.694 0 0 1 0,0.22 0.913,0.913 0 0 1 -1.032,0.716 z m 0.242,-1.573 a 0.648,0.648 0 0 0 -0.321,0.039 0.645,0.645 0 0 0 0,1.207 0.671,0.671 0 0 0 0.615,-0.085 0.716,0.716 0 0 0 0.254,-0.361 0.224,0.224 0 0 1 0.034,-0.135 v -0.051 l -0.034,-0.135 a 0.665,0.665 0 0 0 -0.254,-0.355 0.632,0.632 0 0 0 -0.293,-0.141 z"
         transform="translate(-130.422,-175.78)"
         fill="#263238" />
      <path
         id="Path_8473"
         data-name="Path 8473"
         d="m 150.914,194.5 a 0.531,0.531 0 0 0 -0.051,-0.186 0.755,0.755 0 1 0 -0.288,0.789 0.818,0.818 0 0 0 0.293,-0.412 c 0.034,-0.118 0.034,-0.192 0.045,-0.192 a 0.565,0.565 0 0 1 0,0.2 0.772,0.772 0 0 1 -0.288,0.462 0.823,0.823 0 0 1 -0.789,0.135 0.84,0.84 0 1 1 0.789,-1.455 0.818,0.818 0 0 1 0.288,0.462 0.525,0.525 0 0 1 0,0.2 z"
         transform="translate(-134.45,-175.851)"
         fill="#263238" />
      <path
         id="Path_8474"
         data-name="Path 8474"
         d="m 149.9,195.359 a 1.208,1.208 0 0 1 -0.18,-0.045 0.942,0.942 0 0 1 0,-1.776 0.919,0.919 0 0 1 0.885,0.147 0.885,0.885 0 0 1 0.321,0.519 0.564,0.564 0 0 1 0,0.22 0.7,0.7 0 0 1 0,0.22 0.925,0.925 0 0 1 -1.032,0.716 z m 0.265,-1.584 a 0.716,0.716 0 0 0 -0.321,0.034 0.648,0.648 0 1 0 0.615,1.128 0.671,0.671 0 0 0 0.254,-0.361 1.168,1.168 0 0 0 0.034,-0.135 v -0.045 a 0.246,0.246 0 0 0 -0.034,-0.135 0.671,0.671 0 0 0 -0.254,-0.361 0.7,0.7 0 0 0 -0.29,-0.125 z"
         transform="translate(-134.376,-175.775)"
         fill="#263238" />
      <path
         id="Path_8475"
         data-name="Path 8475"
         d="m 156.212,179.271 a 2.661,2.661 0 1 1 -2.661,-2.661 2.661,2.661 0 0 1 2.661,2.661 z"
         transform="translate(-135.159,-168.414)"
         fill="#ff970b" />
      <path
         id="Path_8476"
         data-name="Path 8476"
         d="m 152.91,180.527 0.395,-0.4 0.772,0.682 1.505,-1.449 0.372,0.395 -1.934,1.821 z"
         transform="translate(-136.04,-169.614)"
         fill="#ffffff" />
    </g>
  </g>
</svg>
