<svg id="Iconly_Broken_Lock" data-name="Iconly/Broken/Lock" xmlns="http://www.w3.org/2000/svg" width="20" height="23.529" viewBox="0 0 20 23.529">
  <g id="Lock">
    <path id="Lock-2" data-name="Lock" d="M14.533,23.529H10.52a.882.882,0,1,1,0-1.764h4.013a3.612,3.612,0,0,0,3.637-3.579.428.428,0,0,1,.023-.124l.013-.048V13.14a3.613,3.613,0,0,0-3.639-3.579H5.432A3.612,3.612,0,0,0,1.794,13.14v4.875c0,.019.01.038.014.056a.413.413,0,0,1,.021.115,3.612,3.612,0,0,0,3.638,3.579.882.882,0,1,1,0,1.764H5.438a5.449,5.449,0,0,1-3.846-1.566A5.261,5.261,0,0,1,0,18.186V13.14A5.352,5.352,0,0,1,3.65,8.115V6.236A6.314,6.314,0,0,1,9.988,0h.028a6.293,6.293,0,0,1,6.334,6.236V8.115A5.353,5.353,0,0,1,20,13.14v5.046a5.4,5.4,0,0,1-5.433,5.343ZM5.443,6.216V7.8h9.112V6.236a4.513,4.513,0,0,0-4.543-4.471h-.02A4.521,4.521,0,0,0,5.443,6.216ZM9.1,16.969V14.357a.9.9,0,0,1,1.794,0v2.612a.9.9,0,0,1-1.794,0Z" fill="#e2e2e2"/>
  </g>
</svg>
