<svg xmlns="http://www.w3.org/2000/svg" xmlns:xlink="http://www.w3.org/1999/xlink" width="87" height="74" viewBox="0 0 87 74">
  <defs>
    <clipPath id="clip-path">
      <rect id="Rectangle_1337" data-name="Rectangle 1337" width="87" height="74" transform="translate(1544 15924)" fill="#fff"/>
    </clipPath>
  </defs>
  <g id="Mask_Group_5" data-name="Mask Group 5" transform="translate(-1544 -15924)" clip-path="url(#clip-path)">
    <g id="Group_2716" data-name="Group 2716" transform="translate(-33.924 21)">
      <path id="Path_9213" data-name="Path 9213" d="M1200.05,276.836V380.941c0,4.227-5.38,7.656-12.024,7.656h-62.563c-6.643,0-12.029-3.429-12.029-7.656V276.836c0-4.23,5.385-7.656,12.029-7.656h62.563C1194.67,269.18,1200.05,272.606,1200.05,276.836Z" transform="translate(464.489 15605.108)" fill="#bdebf8"/>
      <path id="Path_9161" data-name="Path 9161" d="M-597.565,132.2V129.05l-7.835-.126V117.595h-1.418v11.3l-7.39-.117-19.57-12.46.024-6.217a1.006,1.006,0,0,0-.113-.461,2.411,2.411,0,0,0-2.147-.99,3,3,0,0,0-1.6.421,1.239,1.239,0,0,0-.667,1.018l-.066,18.3-5.759-.1-.775-21.435h45.494a9.147,9.147,0,0,0-1.04-.9h-44.482l-.1-2.7h-4.955l.232,6.3h-20.6l.057-6.3h-1.882c-.241,0-.482.006-.723.015l-.2.009c-.18.009-.359.021-.539.033-.061.006-.128.012-.189.015-.208.021-.416.042-.624.066l-.071.009c-.241.03-.487.066-.728.105l-.062,7.087-8.894,5.663v1.279l8.884-5.657-.142,15.907-8.742-.141V130.8l8.714.141-.1,11.241h-8.61v.9h8.605l-.1,10.75h-8.506v.9h8.5l-.123,13.4-8.378-5.338v1.279l8.369,5.329-.047,5.563-7.239-.337-1.083-7.629v10.738l8.288.385-.1,11.979-8.184.668v3.179l9.073-.741V200.4l-9.073.605v.909l9.073-.605v6.593l-9.073.614v3.17l11.924-.8-1.475,11.717c.241.021.482.036.728.048.028,0,.057,0,.085,0q.383.018.766.018h2.955l.6-4.714,18.984-1.376.534,6.09h1.423l-.544-6.193,9.976-.723,1.234,6.915h4.53a1.38,1.38,0,0,0,0-.2l-2.52-14.113,3.792-.256,1.2,7.349a1,1,0,0,0,.1.3,2.4,2.4,0,0,0,2.118.99l8.213.072.856,5.855h4.549l-1.083-7.409a1.086,1.086,0,0,0-.1-.325,2.4,2.4,0,0,0-2.118-.987l-8.236-.072-.993-6.075,9.092-.614,11.21,7.312-3.688,8.17h.492c.336,0,.667-.012,1-.027l7.475-16.573,1.787-.12,1.163,11.464a5.53,5.53,0,0,0,.444-1.153c0-.006,0-.015,0-.021a5.628,5.628,0,0,0,.109-.557.788.788,0,0,0,.009-.105,4.469,4.469,0,0,0,.038-.563V200.163l-1.324,2.589-16.52,1.117-.014-6.834,15.277-.132,2.582,2.535v-5.8l-2.667-2.619,2.667-11.759V157.255l-7.192-.3.34-11.145h6.851v-.9h-6.823l.251-8.152h6.572v-.9h-6.544L-604,132.1Zm-10.96-.178-.26,8.423h-15.66l-.355-8.688Zm-28.638,56.161a2.466,2.466,0,0,0,2.227.987l14.544-.3.009,4.543-21.069,8.487-.889-24.593h13.433l.388,8.845-6.567.135c-1.248.024-2.227.692-2.189,1.484A1.077,1.077,0,0,0-637.163,188.188Zm9.674-10.874h7.073l.019,8.676-6.709.138Zm7.111,17.175.019,9.715-20.96,1.418-.095-2.661Zm-.038-18.078h-21.958l-.132-4.7,22.17.09Zm-9.371-7.135-.274-10.2,9.612.394.019,9.841Zm3.962-27.922.373,8.986H-633.3l-.175-8.986Zm-7.66-.9-.17-8.833,7.433.12.359,8.712Zm8.071,10.793.2,4.877-7.976-.328-.085-4.549Zm-8.369-33.648,17.513,11.154-17.551-.286Zm-4.331,39.69a1.042,1.042,0,0,0,.123.482,2.56,2.56,0,0,0,2.194,1.075l4.317.178.274,10.251-11.423-.045-1.007-27.871h5.215Zm-.5-25.746.17,8.911h-5.229l-.326-9Zm-7.65,74.416-5.31.361c-.076-1.854-.189-4.871-.321-8.426h5.343Zm-.321-8.968h-5.343c-.118-3.164-.246-6.7-.373-10.184h5.347Zm-1.6-44.326-10.2.084-.506-2.634h10.619Zm-.123-3.453h-10.761l-.44-2.282,2.6-3.224h8.407Zm-11.508-3.88-1.452-7.535h7.523Zm11.277-2.529h-7.645l4.033-5.006h3.433Zm-.213-5.91h-12.69l-1.106-5.738,13.6.22Zm-21.589-26.432h20.634l.643,17.759-21.428-.349Zm-.18,20.565,6.539.105,1.111,5.762h-7.7Zm-.062,6.771h7.887l1.726,8.968-.024.03.028.009.468,2.408h-10.189Zm-.109,12.319h10.364l.51,2.646-10.9.09Zm-.052,5.621,22.667-.187.165,4.585h-22.87Zm-.047,5.3h22.913l.894,24.867h-5.348c-.34-9.354-.653-18.126-.662-18.292a.944.944,0,0,0-.113-.415,2.412,2.412,0,0,0-2.2-.99c-1.248.021-2.236.68-2.208,1.475,0,0,.184,5.271.416,11.572l-13.773-8.77Zm14.411,38.119-9.787.653v-7.318l9.513-.777C-656.554,194.338-656.464,196.876-656.379,199.152Zm-14.506-27.4,13.83,8.806c.094,2.634.194,5.395.288,7.987h-.014l-14.175-9.025Zm-.08,9.037,12.407,7.9-12.487,1.021Zm-2.728,12.313,6.109-.5v7.3l-6.109.406Zm0,8.116,17.348-1.159c.1,2.773.194,5.085.255,6.563l-17.6,1.192Zm5.2,15.823.813-6.467,17.428-1.177.548,6.283Zm20.2-1.463-.548-6.277,9.338-.632,1.106,6.193Zm42.341-2.074-9.863-6.436,13.168-.891Zm-9.475-17.37-.033-16.419,5.073.406.359,15.965Zm5.026-18.921-5.064-.406-.019-7.237,5.622.163Zm.605-8.384-5.688-.166-.01-5.07,6.062.141Zm.43-6-6.132-.142,0-3.01,6.345.259Zm.08-6.057-8.411-.346,8.657-7.728Zm-10.076-.412-4.435-.184-.615-14.824h15.6l-.18,5.747Zm10.752,39.711-.355-15.838,6.062.485-2.364,10.434a1.023,1.023,0,0,0,.1.723,1.508,1.508,0,0,0,.269.361l3.839,3.769Zm6.355-18.21-6.733-.539.544-7.55,7.972.232Zm1.986-8.754-8.109-.238.364-5.106,8.908.2Zm1.976-8.721-.61,2.685-9.045-.208.2-2.866Z" transform="translate(2262.109 15773.039)" fill="#fff"/>
      <path id="Path_9162" data-name="Path 9162" d="M-555.113,126.846h25.593v-.077a4.943,4.943,0,0,0-.07-.826h-25.523Z" transform="translate(2194.065 15757.182)" fill="#fff"/>
      <path id="Path_9700" data-name="Path 9700" d="M0,0,.6,0,.678,18.1l-.6,0Z" transform="translate(1625.769 15943.709) rotate(-89.338)" fill="#ffbe9d"/>
      <path id="Path_9163" data-name="Path 9163" d="M-594.227,284.272l-9.505-.07-.569-18.4.946-.012.551,17.82,8.589.063Z" transform="translate(2219.996 15659.438)" fill="#ffbe9d"/>
      <path id="Path_9701" data-name="Path 9701" d="M0,0,.946.007,1.1,13.8l-.946-.007Z" transform="translate(1615.268 15911.451) rotate(-1.129)" fill="#ffbe9d"/>
      <path id="Path_9164" data-name="Path 9164" d="M-661.1,222.941l-.946,0,.255-33.465,27.289.207.278,8.982-.946.012-.26-8.4-25.421-.193Z" transform="translate(2250.439 15712.777)" fill="#ffbe9d"/>
      <path id="Path_9702" data-name="Path 9702" d="M0,0,11.988.034l0,.946L0,.946Z" transform="translate(1588.299 15947.704) rotate(-89.719)" fill="#ffbe9d"/>
      <path id="Path_9703" data-name="Path 9703" d="M0,0,16.58.046l0,.946L0,.946Z" transform="matrix(0.005, -1, 1, 0.005, 1588.173, 15964.283)" fill="#ffbe9d"/>
      <path id="Path_9165" data-name="Path 9165" d="M-653.944,389.5l-.794.072-29.447,2.679v-.608l10.251-.933.946-.087,18.241-1.659.671-.06Z" transform="translate(2262.109 15573.384)" fill="#ffbe9d"/>
      <path id="Path_9704" data-name="Path 9704" d="M0,0,.946,0,1.02,15.718l-.946,0Z" transform="matrix(1, -0.008, 0.008, 1, 1643.922, 15963.289)" fill="#ffbe9d"/>
      <path id="Path_9705" data-name="Path 9705" d="M0,0,.946,0l.135,28.5-.946,0Z" transform="translate(1643.551 15934.788) rotate(-0.475)" fill="#ffbe9d"/>
      <path id="Path_9166" data-name="Path 9166" d="M-565.244,130.154l-.019.6-.837,27.994-11.489-.665.047,3.664-.946.006-.047-3.718-.009-.6v-.012l.506.03,11.012.638.818-27.347-28.9-.518-.946-.018-10.028-.178-.941-.018-.014-.286-.014-.313-1.121-26.155h.946l.123,2.785.024.6.979,22.774v.006l40.525.726Z" transform="translate(2222.038 15773.039)" fill="#ffbe9d"/>
      <path id="Path_9706" data-name="Path 9706" d="M0,0,.946.01,1.572,37.3l-.946-.01Z" transform="translate(1616.255 15943.351) rotate(-1.689)" fill="#ffbe9d"/>
      <path id="Path_9167" data-name="Path 9167" d="M-581.673,462.979h-.955l-2.9-15.281-.1-.56.941-.072.109.572Z" transform="translate(2210.156 15532.732)" fill="#ffbe9d"/>
      <path id="Path_9707" data-name="Path 9707" d="M0,0,27.088.115l0,.6L0,.6Z" transform="translate(1588.954 15927.093) rotate(-0.67)" fill="#ffbe9d"/>
      <path id="Path_9168" data-name="Path 9168" d="M-672.521,103.276v26.555h-11.664v-.6h10.719V103.315Z" transform="translate(2262.109 15773.025)" fill="#ffbe9d"/>
      <rect id="Rectangle_1319" data-name="Rectangle 1319" width="8.232" height="0.602" transform="translate(1656.312 15903.188)" fill="#ffbe9d"/>
      <path id="Path_9169" data-name="Path 9169" d="M-523.538,352.507v.611l-19.835-1.957-.392-.039.147-.6.241.024Z" transform="translate(2188.082 15600.209)" fill="#ffbe9d"/>
      <path id="Path_9170" data-name="Path 9170" d="M-597.565,438.566v.605L-636.54,441.7l-.946.06L-669.06,443.8l-.955.06-14.17.912v-.605l29.854-1.927.946-.063,9.244-.6.941-.06,25.215-1.635.946-.06Z" transform="translate(2262.109 15538.674)" fill="#ffbe9d"/>
      <path id="Path_9171" data-name="Path 9171" d="M-655.21,454.78l-.043.319-1.8,13.234H-658l1.787-13.174.057-.434Z" transform="translate(2248.302 15527.379)" fill="#ffbe9d"/>
      <path id="Path_9708" data-name="Path 9708" d="M0,0,.946,0l.209,25.643-.946,0Z" transform="matrix(1, -0.014, 0.014, 1, 1607.208, 15955.5)" fill="#ffbe9d"/>
      <path id="Path_9172" data-name="Path 9172" d="M-564.584,220.176l-17.8-.683-.158-27.352.946,0,.155,26.787,16.919.649Z" transform="translate(2208.526 15710.913)" fill="#ffbe9d"/>
      <path id="Path_9173" data-name="Path 9173" d="M-558.619,113.108h-47.816v-.6h47.107A8.78,8.78,0,0,1-558.619,113.108Z" transform="translate(2221.121 15766.573)" fill="#ffbe9d"/>
      <ellipse id="Ellipse_449" data-name="Ellipse 449" cx="1.237" cy="0.787" rx="1.237" ry="0.787" transform="translate(1604.851 15937.998)" fill="#fff"/>
      <g id="Group_2484" data-name="Group 2484" transform="translate(1586.011 15923.085)">
        <path id="Path_9201" data-name="Path 9201" d="M-671.193,215.19c0,2.213-3.944,3.682-3.944,3.682a11.256,11.256,0,0,1-2.5-1.413,3.139,3.139,0,0,1-1.445-2.269c0-1.387,1.766-2.511,3.944-2.511,1.894,0,3.478.85,3.857,1.985A1.653,1.653,0,0,1-671.193,215.19Z" transform="translate(679.082 -212.679)" fill="#ff725e"/>
        <ellipse id="Ellipse_458" data-name="Ellipse 458" cx="1.237" cy="0.787" rx="1.237" ry="0.787" transform="translate(2.707 1.293)" fill="#fff"/>
      </g>
      <text id="Bus_Stop" data-name="Bus Stop" transform="translate(1643.449 15915.64)" font-size="1" font-family="SegoeUI, Segoe UI"><tspan x="0" y="0">Bus Stop</tspan></text>
      <text id="Restaurant" transform="translate(1602.974 15944.673)" font-size="1" font-family="SegoeUI, Segoe UI"><tspan x="0" y="0">Restaurant</tspan></text>
      <text id="School" transform="translate(1649.828 15970.51)" font-size="1" font-family="SegoeUI, Segoe UI"><tspan x="0" y="0">School</tspan></text>
      <text id="Coffee" transform="translate(1594.816 15965.25)" font-size="1" font-family="SegoeUI, Segoe UI"><tspan x="0" y="0">Coffee</tspan></text>
      <text id="Coffee-2" data-name="Coffee" transform="translate(1581.324 15916.905)" font-size="1" font-family="SegoeUI, Segoe UI"><tspan x="0" y="0">Coffee</tspan></text>
      <path id="Path_9211" data-name="Path 9211" d="M-597.565,110.912V215.017c0,4.227-5.385,7.656-12.028,7.656h-62.563c-6.643,0-12.028-3.429-12.028-7.656V110.912c0-3.947,4.69-7.2,10.719-7.61l.946-.039c.123-.006.241-.006.364-.006h62.563a16.4,16.4,0,0,1,8.043,1.963,10.586,10.586,0,0,1,1.234.822,8.749,8.749,0,0,1,.709.6A5.9,5.9,0,0,1-597.565,110.912Z" transform="translate(2262.109 15773.039)" fill="none"/>
      <path id="Path_9212" data-name="Path 9212" d="M912.768,36.632V22.513l-2.078.818h0l-14.832-.34-11.972,9.6v9.67l-25.592-.347.043-21.083-1.417.028v22l28.385.26V33.091l11.3-9.332,14.765.366-.028,11.7-10.572.008.481,12.786,1.413-.078L902.3,36.632Zm-2.107-15.277.706,2.674h0Z" transform="translate(732.188 15908.011)" fill="#ff725e"/>
      <g id="Group_2468" data-name="Group 2468" transform="translate(1631.76 15956.438)">
        <path id="Path_9189" data-name="Path 9189" d="M-514.735,314.973c0,1.325-2.361,2.2-2.361,2.2a6.726,6.726,0,0,1-1.5-.846,1.879,1.879,0,0,1-.865-1.358c0-.83,1.057-1.5,2.361-1.5a2.36,2.36,0,0,1,2.309,1.189A.989.989,0,0,1-514.735,314.973Z" transform="translate(519.457 -313.47)" fill="#ff725e"/>
        <ellipse id="Ellipse_454" data-name="Ellipse 454" cx="0.74" cy="0.471" rx="0.74" ry="0.471" transform="translate(1.62 0.774)" fill="#fff"/>
      </g>
    </g>
  </g>
</svg>
