<svg xmlns="http://www.w3.org/2000/svg" width="18" height="15" viewBox="0 0 18 15">
  <g id="Message" transform="translate(0.772 -0.251)">
    <path id="Message-2" data-name="Message" d="M5.222,15A5.063,5.063,0,0,1,0,10.129V4.871A5.056,5.056,0,0,1,5.222,0h7.556A5.071,5.071,0,0,1,18,4.871V6.089a.617.617,0,0,1-.637.594l-.008-.015a.661.661,0,0,1-.45-.174.575.575,0,0,1-.186-.42v-1.2A3.854,3.854,0,0,0,12.778,1.2H5.222A3.854,3.854,0,0,0,1.281,4.871v5.258A3.854,3.854,0,0,0,5.222,13.8h7.556a3.854,3.854,0,0,0,3.941-3.676.651.651,0,0,1,1.281,0A5.071,5.071,0,0,1,12.778,15ZM7.245,8.317l-3.71-2.77a.574.574,0,0,1-.1-.839.645.645,0,0,1,.426-.219.662.662,0,0,1,.466.13L8.073,7.382a1.364,1.364,0,0,0,1.592,0l3.7-2.763h.008a.677.677,0,0,1,.9.089.564.564,0,0,1,.136.439.585.585,0,0,1-.239.4l-3.7,2.77a2.717,2.717,0,0,1-3.224,0Z" transform="translate(-0.772 0.251)" fill="#cccaca"/>
  </g>
</svg>
