<svg id="Notification" xmlns="http://www.w3.org/2000/svg" width="19" height="23" viewBox="0 0 19 23">
  <path id="Notification-2" data-name="Notification" d="M6.347,21.411a.886.886,0,0,1,.115-1.23.843.843,0,0,1,1.2.117,2.341,2.341,0,0,0,.467.475,2.179,2.179,0,0,0,1.649.422,2.209,2.209,0,0,0,1.454-.9h.01a.844.844,0,0,1,1.205-.117.885.885,0,0,1,.114,1.23A3.936,3.936,0,0,1,9.451,23,3.939,3.939,0,0,1,6.347,21.411Zm-1.834-3.2a5.35,5.35,0,0,1-3.431-1.771A4.776,4.776,0,0,1,0,13.3v-.141a4.931,4.931,0,0,1,.814-2.419l.079-.1a4.457,4.457,0,0,0,.991-2.023V6.527a.852.852,0,0,1,.886-.548.861.861,0,0,1,.75.73V8.793a.509.509,0,0,1,0,.111,6.117,6.117,0,0,1-1.369,2.813,2.97,2.97,0,0,0-.436,1.438v.223a3.015,3.015,0,0,0,.654,1.973,3.668,3.668,0,0,0,2.321,1.133,43.507,43.507,0,0,0,9.6,0,3.677,3.677,0,0,0,2.37-1.184,2.979,2.979,0,0,0,.625-1.913v-.232a3.086,3.086,0,0,0-.425-1.447A6.118,6.118,0,0,1,15.41,8.895a.692.692,0,0,1,0-.112V6.688c-.288-3.055-3.272-4.947-5.869-4.947a6.3,6.3,0,0,0-3.153.839.838.838,0,0,1-.868.006.878.878,0,0,1,.035-1.524A7.917,7.917,0,0,1,9.461,0c3.43,0,7.277,2.489,7.714,6.486V8.571a4.36,4.36,0,0,0,.992,2.023.858.858,0,0,1,.079.112A4.756,4.756,0,0,1,19,13.064l-.03.212a4.849,4.849,0,0,1-1.051,3.167,5.4,5.4,0,0,1-3.49,1.771,44.225,44.225,0,0,1-4.957.279A44.245,44.245,0,0,1,4.514,18.214Z" fill="#ff970b"/>
</svg>
