<svg id="Iconly_Broken_Lock" data-name="Iconly/Broken/Lock" xmlns="http://www.w3.org/2000/svg" width="13.6" height="16" viewBox="0 0 13.6 16">
  <g id="Lock">
    <path id="Lock-2" data-name="Lock" d="M9.883,16H7.154a.6.6,0,1,1,0-1.2H9.883a2.456,2.456,0,0,0,2.473-2.434.291.291,0,0,1,.016-.084l.009-.032V8.935A2.457,2.457,0,0,0,9.906,6.5H3.694A2.456,2.456,0,0,0,1.22,8.935V12.25c0,.013.006.026.009.038a.281.281,0,0,1,.014.078A2.456,2.456,0,0,0,3.717,14.8a.6.6,0,1,1,0,1.2H3.7a3.705,3.705,0,0,1-2.615-1.065A3.578,3.578,0,0,1,0,12.367V8.935A3.64,3.64,0,0,1,2.482,5.518V4.241A4.293,4.293,0,0,1,6.792,0H6.81a4.279,4.279,0,0,1,4.307,4.241V5.518A3.64,3.64,0,0,1,13.6,8.935v3.431A3.669,3.669,0,0,1,9.906,16ZM3.7,4.227V5.3H9.9V4.241A3.069,3.069,0,0,0,6.808,1.2H6.795A3.074,3.074,0,0,0,3.7,4.227ZM6.19,11.539V9.762a.61.61,0,0,1,1.22,0v1.776a.61.61,0,0,1-1.22,0Z" fill="#cccaca"/>
  </g>
</svg>
