<svg id="Iconly_Broken_Profile" data-name="Iconly/Broken/Profile" xmlns="http://www.w3.org/2000/svg" width="17" height="21" viewBox="0 0 17 21">
  <g id="Profile" transform="translate(0 0)">
    <path id="Profile-2" data-name="Profile" d="M7.414,20.985a.757.757,0,0,1-.744-.775.779.779,0,0,1,.788-.732q.514.014,1.042.014c4.621,0,6.964-.789,6.964-2.345,0-1.572-2.344-2.368-6.964-2.368s-6.964.79-6.964,2.346c0,.509.184,1.247,1.78,1.779a.749.749,0,0,1,.481.954.769.769,0,0,1-.973.473C.49,19.555,0,18.16,0,17.125c0-3.454,4.851-3.854,8.5-3.854,2.1,0,8.5,0,8.5,3.875C17,20.6,12.149,21,8.5,21Q7.948,21,7.414,20.985ZM2.776,5.622A5.68,5.68,0,0,1,8.5,0a5.68,5.68,0,0,1,5.723,5.622A5.679,5.679,0,0,1,8.5,11.242,5.679,5.679,0,0,1,2.776,5.622Zm1.537,0a4.189,4.189,0,0,0,8.376,0,4.189,4.189,0,0,0-8.376,0Z" fill="#cccaca"/>
  </g>
</svg>
