<svg xmlns="http://www.w3.org/2000/svg" width="18" height="22.5" viewBox="0 0 18 22.5">
  <g id="Profile" transform="translate(0)">
    <path id="Profile-2" data-name="Profile" d="M7.85,22.484a.807.807,0,0,1-.788-.83.829.829,0,0,1,.834-.785q.544.015,1.1.015c4.892,0,7.374-.845,7.374-2.512,0-1.684-2.482-2.537-7.374-2.537s-7.374.846-7.374,2.514c0,.546.194,1.336,1.884,1.906a.808.808,0,1,1-.521,1.529C.518,20.952,0,19.457,0,18.349c0-3.7,5.136-4.129,9-4.129,2.225,0,9,0,9,4.152,0,3.7-5.136,4.128-9,4.128Q8.415,22.5,7.85,22.484ZM2.939,6.023A6.06,6.06,0,1,1,9,12.045,6.049,6.049,0,0,1,2.939,6.023Zm1.627,0A4.434,4.434,0,1,0,9,1.617,4.424,4.424,0,0,0,4.566,6.023Z" fill="#87d8ea"/>
  </g>
</svg>
