<svg id="Search" xmlns="http://www.w3.org/2000/svg" width="12" height="12" viewBox="0 0 12 12">
  <path id="Search-2" data-name="Search" d="M11.853,11.164,9.791,9.147h0l-.048-.074a.486.486,0,0,0-.682,0h0a4.868,4.868,0,0,1-6.311.2A4.607,4.607,0,0,1,1.725,3.186,4.845,4.845,0,0,1,7.772,1.405,4.645,4.645,0,0,1,10.36,7.037a.467.467,0,0,0,.109.463.493.493,0,0,0,.465.139.482.482,0,0,0,.356-.324h0a5.6,5.6,0,0,0-3-6.75A5.852,5.852,0,0,0,1.013,2.451a5.554,5.554,0,0,0,.816,7.316,5.873,5.873,0,0,0,7.521.309l1.826,1.785a.491.491,0,0,0,.682,0,.47.47,0,0,0,0-.672h0Z" transform="translate(0 0)" fill="#ff725e"/>
</svg>
