<?xml version="1.0" encoding="UTF-8" standalone="no"?>
<svg
   width="349.35001"
   height="145.44099"
   viewBox="0 0 349.35002 145.441"
   version="1.1"
   id="svg84"
   sodipodi:docname="60b5d6154649c18e4f5d9dc56bc09b5b.svg"
   xmlns:inkscape="http://www.inkscape.org/namespaces/inkscape"
   xmlns:sodipodi="http://sodipodi.sourceforge.net/DTD/sodipodi-0.dtd"
   xmlns="http://www.w3.org/2000/svg"
   xmlns:svg="http://www.w3.org/2000/svg">
  <defs
     id="defs88" />
  <sodipodi:namedview
     id="namedview86"
     pagecolor="#ffffff"
     bordercolor="#666666"
     borderopacity="1.0"
     inkscape:pageshadow="2"
     inkscape:pageopacity="0.0"
     inkscape:pagecheckerboard="0" />
  <g
     id="Group_2747"
     data-name="Group 2747"
     transform="translate(-39.744,-243.631)">
    <path
       id="Path_8741"
       data-name="Path 8741"
       d="M 468.45,1573.12 H 120.6 c -0.274,0 -0.5,-0.12 -0.5,-0.266 v 0 c 0,-0.146 0.224,-0.266 0.5,-0.266 h 347.85 c 0.274,0 0.5,0.12 0.5,0.266 v 0 c -10e-4,0.146 -0.225,0.266 -0.5,0.266 z"
       transform="translate(-80.106,-1184.298)"
       stroke="#707070"
       stroke-width="0.5" />
    <path
       id="Path_8742"
       data-name="Path 8742"
       d="m 1030.548,813.4 h -130.59 v 110.575 h 146.316 z"
       transform="translate(-712.352,-569.769)"
       fill="#c26f00" />
    <path
       id="Path_8743"
       data-name="Path 8743"
       d="m 925.755,833.4 h -148 V 940.189 H 941.1 Z"
       transform="translate(-613.276,-585.983)"
       fill="#455a64" />
    <g
       id="Group_2240"
       data-name="Group 2240"
       transform="translate(248.645,333.801)">
      <g
         id="Group_2239"
         data-name="Group 2239">
        <g
           id="Group_2238"
           data-name="Group 2238">
          <g
             id="Group_2237"
             data-name="Group 2237">
            <rect
               id="Rectangle_1205"
               data-name="Rectangle 1205"
               width="20.127001"
               height="20.406"
               transform="rotate(180,10.0635,10.203)"
               fill="#e69d43"
               x="0"
               y="0" />
            <rect
               id="Rectangle_1206"
               data-name="Rectangle 1206"
               width="9.2139997"
               height="20.406"
               transform="rotate(180,14.2515,10.203)"
               fill="#d57912"
               x="0"
               y="0" />
          </g>
        </g>
      </g>
    </g>
    <g
       id="Group_2241"
       data-name="Group 2241"
       transform="translate(247.576,313.953)">
      <rect
         id="Rectangle_1207"
         data-name="Rectangle 1207"
         width="33.375999"
         height="20.127001"
         transform="rotate(180,16.688,10.0635)"
         fill="#e69d43"
         x="0"
         y="0" />
      <rect
         id="Rectangle_1208"
         data-name="Rectangle 1208"
         width="9.2139997"
         height="20.127001"
         transform="rotate(180,20.876,10.0635)"
         fill="#d57912"
         x="0"
         y="0" />
    </g>
    <path
       id="Rectangle_1209"
       data-name="Rectangle 1209"
       d="m 10.033,0 h 26.709 a 10.034,10.034 0 0 1 10.034,10.034 v 0.681 A 10.033,10.033 0 0 1 36.743,20.748 H 10.033 A 10.033,10.033 0 0 1 0,10.714 V 10.033 A 10.033,10.033 0 0 1 10.033,0 Z"
       transform="translate(62.241,341.178)"
       fill="#b65615" />
    <circle
       id="Ellipse_402"
       data-name="Ellipse 402"
       cx="18.750999"
       cy="18.750999"
       r="18.750999"
       transform="matrix(0.999,-0.042,0.042,0.999,218.121,350.82)"
       fill="#263238" />
    <circle
       id="Ellipse_403"
       data-name="Ellipse 403"
       cx="18.750999"
       cy="18.750999"
       r="18.750999"
       transform="rotate(-5.655,3707.6087,-2748.4778)"
       fill="#263238" />
    <circle
       id="Ellipse_404"
       data-name="Ellipse 404"
       cx="18.750999"
       cy="18.750999"
       r="18.750999"
       transform="rotate(-45,475.58422,110.92157)"
       fill="#263238" />
    <circle
       id="Ellipse_405"
       data-name="Ellipse 405"
       cx="9.4639997"
       cy="9.4639997"
       r="9.4639997"
       transform="translate(77.916,359.313)"
       fill="#d36e2a" />
    <circle
       id="Ellipse_406"
       data-name="Ellipse 406"
       cx="9.4639997"
       cy="9.4639997"
       r="9.4639997"
       transform="translate(77.916,359.313)"
       fill="#f59040" />
    <path
       id="Path_8744"
       data-name="Path 8744"
       d="m 339.742,1437.29 a 9.462,9.462 0 0 1 -14.933,10.935 9.463,9.463 0 1 0 14.933,-10.935 z"
       transform="translate(-246.063,-1075.573)"
       fill="#d36e2a" />
    <circle
       id="Ellipse_407"
       data-name="Ellipse 407"
       cx="2.934"
       cy="2.934"
       r="2.934"
       transform="translate(84.446,365.844)"
       fill="#b65615" />
    <circle
       id="Ellipse_408"
       data-name="Ellipse 408"
       cx="1.136"
       cy="1.136"
       r="1.136"
       transform="translate(81.251,372.668)"
       fill="#b65615" />
    <circle
       id="Ellipse_409"
       data-name="Ellipse 409"
       cx="1.136"
       cy="1.136"
       r="1.136"
       transform="translate(79.927,364.234)"
       fill="#b65615" />
    <circle
       id="Ellipse_410"
       data-name="Ellipse 410"
       cx="1.136"
       cy="1.136"
       r="1.136"
       transform="translate(92.418,364.234)"
       fill="#b65615" />
    <circle
       id="Ellipse_411"
       data-name="Ellipse 411"
       cx="1.136"
       cy="1.136"
       r="1.136"
       transform="translate(91.473,372.668)"
       fill="#b65615" />
    <circle
       id="Ellipse_412"
       data-name="Ellipse 412"
       cx="1.136"
       cy="1.136"
       r="1.136"
       transform="translate(86.244,360.41)"
       fill="#b65615" />
    <circle
       id="Ellipse_413"
       data-name="Ellipse 413"
       cx="9.4639997"
       cy="9.4639997"
       r="9.4639997"
       transform="translate(227.821,359.313)"
       fill="#d36e2a" />
    <circle
       id="Ellipse_414"
       data-name="Ellipse 414"
       cx="9.4639997"
       cy="9.4639997"
       r="9.4639997"
       transform="translate(227.821,359.313)"
       fill="#d36e2a" />
    <circle
       id="Ellipse_415"
       data-name="Ellipse 415"
       cx="2.934"
       cy="2.934"
       r="2.934"
       transform="translate(234.351,365.844)"
       fill="#b65615" />
    <circle
       id="Ellipse_416"
       data-name="Ellipse 416"
       cx="1.136"
       cy="1.136"
       r="1.136"
       transform="translate(231.157,372.668)"
       fill="#b65615" />
    <circle
       id="Ellipse_417"
       data-name="Ellipse 417"
       cx="1.136"
       cy="1.136"
       r="1.136"
       transform="translate(229.832,364.234)"
       fill="#b65615" />
    <circle
       id="Ellipse_418"
       data-name="Ellipse 418"
       cx="1.136"
       cy="1.136"
       r="1.136"
       transform="translate(242.324,364.234)"
       fill="#b65615" />
    <circle
       id="Ellipse_419"
       data-name="Ellipse 419"
       cx="1.136"
       cy="1.136"
       r="1.136"
       transform="translate(241.378,372.668)"
       fill="#b65615" />
    <circle
       id="Ellipse_420"
       data-name="Ellipse 420"
       cx="1.136"
       cy="1.136"
       r="1.136"
       transform="translate(236.149,360.41)"
       fill="#b65615" />
    <circle
       id="Ellipse_421"
       data-name="Ellipse 421"
       cx="18.750999"
       cy="18.750999"
       r="18.750999"
       transform="rotate(-2.47,8197.8953,-2633.5806)"
       fill="#263238" />
    <path
       id="Path_8745"
       data-name="Path 8745"
       d="m 369.327,873.4 c 0,0 10.174,-15.346 21.936,-15.473 l -1.049,16.6 z"
       transform="translate(-282.156,-605.872)"
       fill="#71bdce" />
    <path
       id="Path_8746"
       data-name="Path 8746"
       d="m 337.193,1007.439 h -81.432 l 6.778,-55 a 17.838,17.838 0 0 1 17.7,-15.657 h 56.949 z"
       transform="translate(-190.084,-669.795)"
       fill="#87d8ea" />
    <path
       id="Path_8747"
       data-name="Path 8747"
       d="m 338.091,1006.013 h -22.835 l 3.025,-21.719 a 9.05,9.05 0 0 1 8.964,-7.8 H 338.8 Z"
       transform="translate(-238.319,-701.993)"
       fill="#71bdce" />
    <path
       id="Path_8748"
       data-name="Path 8748"
       d="m 346.505,1011.616 h -15.034 a 3.753,3.753 0 0 1 -3.72,-4.247 l 2,-15.027 a 7.786,7.786 0 0 1 7.583,-6.923 h 9.766 z"
       transform="translate(-248.421,-709.229)"
       fill="#dce7f9" />
    <path
       id="Path_8749"
       data-name="Path 8749"
       d="M 600.28,923.975 H 443.652 L 450.639,813.4 h 140.384 z"
       transform="translate(-342.413,-569.769)"
       fill="#c26f00" />
    <path
       id="Path_8750"
       data-name="Path 8750"
       d="M 618.787,937.747 H 474.04 l 6.46,-102.188 h 129.732 l 6.934,82.831 z"
       transform="translate(-367.049,-587.734)"
       fill="#f8a432" />
    <path
       id="Path_8751"
       data-name="Path 8751"
       d="m 266.7,1310.1 h -49.691 c -4.375,0.291 -4.8,2.454 -4.8,2.454 l -4.249,20.55 a 1.367,1.367 0 0 0 1.435,1.277 h 12.493 a 1.946,1.946 0 0 0 1.695,-1.31 20.7,20.7 0 0 1 3.212,-3.225 20.212,20.212 0 0 1 11.916,-3.526 c 6.369,0 12,2.026 15.384,5.122 h 12.6 c 1.521,0 2.765,-0.794 2.765,-1.764 v -17.815 c 0.002,-0.963 -1.242,-1.763 -2.76,-1.763 z"
       transform="translate(-151.333,-972.461)"
       fill="#71bdce" />
    <path
       id="Path_8752"
       data-name="Path 8752"
       d="m 1106.724,1454.45 h -15.747 a 14.623,14.623 0 0 0 -1.973,-5.07 c -4.761,-7.63 -15.894,-9.962 -22.235,-10.675 a 46.21,46.21 0 0 0 -4.639,-0.315 h 27.07 a 19.87,19.87 0 0 1 14.02,8.518 23.124,23.124 0 0 1 3.504,7.542 z"
       transform="translate(-843.828,-1076.465)"
       fill="#455a64" />
    <path
       id="Path_8753"
       data-name="Path 8753"
       d="m 1481.981,1454.45 h -15.747 a 14.63,14.63 0 0 0 -2.369,-5.673 c -7.192,-10.373 -26.478,-10.387 -26.478,-10.387 h 27.071 a 19.756,19.756 0 0 1 12.6,6.7 23.4,23.4 0 0 1 4.923,9.36 z"
       transform="translate(-1148.059,-1076.465)"
       fill="#455a64" />
    <path
       id="Path_8754"
       data-name="Path 8754"
       d="m 1121.453,1446.908 c 0,0 -10.364,-2.187 -14.214,2.471 -4.761,-7.63 -15.894,-9.962 -22.235,-10.675 l -0.382,-0.315 h 22.812 a 19.87,19.87 0 0 1 14.019,8.519 z"
       transform="translate(-862.063,-1076.465)"
       fill="#263238" />
    <path
       id="Path_8755"
       data-name="Path 8755"
       d="m 1477.058,1445.092 v 0 c 0,0 -8.668,-0.195 -13.192,3.683 -7.192,-10.373 -26.478,-10.387 -26.478,-10.387 h 27.071 a 19.756,19.756 0 0 1 12.599,6.704 z"
       transform="translate(-1148.059,-1076.465)"
       fill="#263238" />
    <path
       id="Rectangle_1210"
       data-name="Rectangle 1210"
       d="m 5.362,0 h 224.409 a 5.362,5.362 0 0 1 5.362,5.362 v 0 a 5.362,5.362 0 0 1 -5.362,5.362 H 5.362 A 5.362,5.362 0 0 1 0,5.362 v 0 A 5.362,5.362 0 0 1 5.362,0 Z"
       transform="translate(102.681,354.207)"
       fill="#e68707" />
    <path
       id="Rectangle_1211"
       data-name="Rectangle 1211"
       d="m 10.735,0 h 25.306 a 10.735,10.735 0 0 1 10.735,10.735 v 2.283 A 10.735,10.735 0 0 1 36.04,23.753 H 10.74 A 10.736,10.736 0 0 1 0,13.017 V 10.735 A 10.735,10.735 0 0 1 10.735,0 Z"
       transform="translate(112.629,356.9)"
       fill="#ff970b" />
    <path
       id="Path_8756"
       data-name="Path 8756"
       d="M 619.784,937.747 H 475.038 l 6.457,-102.188 h 25.281 c 7.915,23.344 34.687,78.685 111.387,82.831 z"
       transform="translate(-367.858,-587.734)"
       fill="#ff970b" />
    <g
       id="Group_2246"
       data-name="Group 2246"
       transform="translate(65.22,285.266)">
      <path
         id="Rectangle_1212"
         data-name="Rectangle 1212"
         d="M 3.789,0 V 0 A 3.789,3.789 0 0 1 7.578,3.789 V 12.5 a 3.789,3.789 0 0 1 -3.789,3.79 v 0 A 3.789,3.789 0 0 1 0,12.5 V 3.789 A 3.789,3.789 0 0 1 3.789,0 Z"
         transform="translate(1.856,7.196)"
         fill="#d57912" />
      <path
         id="Rectangle_1213"
         data-name="Rectangle 1213"
         d="M 3.082,0 V 0 A 3.082,3.082 0 0 1 6.164,3.082 V 11.5 a 3.082,3.082 0 0 1 -3.082,3.082 v 0 A 3.082,3.082 0 0 1 0,11.5 V 3.082 A 3.082,3.082 0 0 1 3.082,0 Z"
         transform="translate(2.698,8.109)"
         fill="#dce7f9" />
      <g
         id="Group_2245"
         data-name="Group 2245"
         transform="translate(5.392)">
        <path
           id="Path_8758"
           data-name="Path 8758"
           d="m 282.091,1040.87 a 0.278,0.278 0 0 1 -0.253,-0.3 v -4.6 a 0.339,0.339 0 0 1 0,-0.037 2.908,2.908 0 0 1 3.069,-2.559 c 2.519,0.078 3.6,0 3.615,0 a 0.27,0.27 0 0 1 0.268,0.278 0.284,0.284 0 0 1 -0.236,0.315 c -0.044,0 -1.118,0.08 -3.66,0 a 2.325,2.325 0 0 0 -2.553,2.022 v 4.578 a 0.278,0.278 0 0 1 -0.25,0.303 z"
           transform="translate(-281.838,-1033.376)"
           fill="#b64c41" />
      </g>
    </g>
    <path
       id="Path_8759"
       data-name="Path 8759"
       d="m 399.961,1159.807 h -4.608 a 1.177,1.177 0 0 1 -1.173,-1.173 v 0 a 1.177,1.177 0 0 1 1.173,-1.173 h 4.608 a 1.177,1.177 0 0 1 1.173,1.173 v 0 a 1.177,1.177 0 0 1 -1.173,1.173 z"
       transform="translate(-302.305,-848.709)"
       fill="#263238" />
    <rect
       id="Rectangle_1214"
       data-name="Rectangle 1214"
       width="20.127001"
       height="20.127001"
       transform="rotate(180,151.089,177.1035)"
       fill="#e69d43"
       x="0"
       y="0" />
    <rect
       id="Rectangle_1215"
       data-name="Rectangle 1215"
       width="9.2139997"
       height="20.127001"
       transform="rotate(180,155.2775,177.1035)"
       fill="#d57912"
       x="0"
       y="0" />
    <g
       id="Group_2251"
       data-name="Group 2251"
       transform="translate(137.253,292.625)">
      <path
         id="Path_8760"
         data-name="Path 8760"
         d="m 638.85,1072.256 a 6.866,6.866 0 0 1 2.31,0.351 4.411,4.411 0 0 1 1.636,1 4.342,4.342 0 0 1 1.007,1.565 6.952,6.952 0 0 1 0.423,2.05 24.778,24.778 0 0 1 0,2.661 6.957,6.957 0 0 1 -0.423,2.05 4.4,4.4 0 0 1 -1,1.564 4.341,4.341 0 0 1 -1.609,1 6.582,6.582 0 0 1 -2.257,0.351 h -4.531 a 0.491,0.491 0 0 1 -0.485,-0.486 v -11.616 a 0.491,0.491 0 0 1 0.485,-0.486 z m 2.949,4.963 a 3.63,3.63 0 0 0 -0.225,-1.07 2.444,2.444 0 0 0 -0.557,-0.863 2.536,2.536 0 0 0 -0.926,-0.575 3.833,3.833 0 0 0 -1.331,-0.207 h -2.41 v 8.091 h 2.5 a 3.556,3.556 0 0 0 1.277,-0.207 2.534,2.534 0 0 0 0.9,-0.566 2.4,2.4 0 0 0 0.549,-0.863 3.725,3.725 0 0 0 0.225,-1.079 24.81,24.81 0 0 0 -0.001,-2.661 z"
         transform="translate(-633.923,-1072.256)"
         fill="#ffffff" />
      <path
         id="Path_8761"
         data-name="Path 8761"
         d="m 709.182,1082.595 a 0.491,0.491 0 0 1 0.486,0.486 v 1.277 a 0.491,0.491 0 0 1 -0.486,0.486 h -7.894 a 0.491,0.491 0 0 1 -0.485,-0.486 v -11.616 a 0.491,0.491 0 0 1 0.485,-0.486 h 7.75 a 0.491,0.491 0 0 1 0.486,0.486 v 1.277 a 0.491,0.491 0 0 1 -0.486,0.486 h -5.808 v 2.859 h 5.412 a 0.491,0.491 0 0 1 0.486,0.485 v 1.277 a 0.492,0.492 0 0 1 -0.486,0.485 h -5.412 v 2.985 z"
         transform="translate(-688.144,-1072.256)"
         fill="#ffffff" />
      <path
         id="Path_8762"
         data-name="Path 8762"
         d="m 767.777,1082.595 a 0.491,0.491 0 0 1 0.485,0.486 v 1.277 a 0.491,0.491 0 0 1 -0.485,0.486 H 759.9 a 0.492,0.492 0 0 1 -0.485,-0.486 v -11.616 a 0.492,0.492 0 0 1 0.485,-0.486 h 1.457 a 0.492,0.492 0 0 1 0.486,0.486 v 9.854 z"
         transform="translate(-735.663,-1072.256)"
         fill="#ffffff" />
      <path
         id="Path_8763"
         data-name="Path 8763"
         d="m 815.761,1084.843 a 0.491,0.491 0 0 1 -0.486,-0.486 v -11.616 a 0.491,0.491 0 0 1 0.486,-0.486 h 1.456 a 0.491,0.491 0 0 1 0.485,0.486 v 11.616 a 0.491,0.491 0 0 1 -0.485,0.486 z"
         transform="translate(-780.95,-1072.256)"
         fill="#ffffff" />
      <path
         id="Path_8764"
         data-name="Path 8764"
         d="m 843.636,1081.282 3.021,-8.577 a 0.978,0.978 0 0 1 0.189,-0.3 0.511,0.511 0 0 1 0.4,-0.153 h 1.367 a 0.492,0.492 0 0 1 0.486,0.486 v 0.063 a 0.436,0.436 0 0 1 -0.036,0.117 l -4.028,11.31 a 1.294,1.294 0 0 1 -0.252,0.459 0.566,0.566 0 0 1 -0.432,0.153 h -1.438 a 0.565,0.565 0 0 1 -0.432,-0.153 1.289,1.289 0 0 1 -0.252,-0.459 l -4.028,-11.31 a 0.422,0.422 0 0 1 -0.036,-0.117 v -0.063 a 0.491,0.491 0 0 1 0.486,-0.486 h 1.367 a 0.511,0.511 0 0 1 0.4,0.153 0.98,0.98 0 0 1 0.189,0.3 z"
         transform="translate(-799.511,-1072.256)"
         fill="#ffffff" />
      <path
         id="Path_8765"
         data-name="Path 8765"
         d="m 914.377,1082.595 a 0.491,0.491 0 0 1 0.485,0.486 v 1.277 a 0.491,0.491 0 0 1 -0.485,0.486 h -7.894 a 0.491,0.491 0 0 1 -0.485,-0.486 v -11.616 a 0.491,0.491 0 0 1 0.485,-0.486 h 7.75 a 0.491,0.491 0 0 1 0.485,0.486 v 1.277 a 0.491,0.491 0 0 1 -0.485,0.486 h -5.808 v 2.859 h 5.412 a 0.491,0.491 0 0 1 0.486,0.485 v 1.277 a 0.491,0.491 0 0 1 -0.486,0.485 h -5.412 v 2.985 z"
         transform="translate(-854.501,-1072.256)"
         fill="#ffffff" />
      <path
         id="Path_8766"
         data-name="Path 8766"
         d="m 969.737,1072.256 a 4.979,4.979 0 0 1 3.416,1.043 3.679,3.679 0 0 1 1.169,2.895 4.018,4.018 0 0 1 -0.6,2.239 3.562,3.562 0 0 1 -1.771,1.375 l 2.481,4.441 a 0.449,0.449 0 0 1 0.054,0.2 0.4,0.4 0 0 1 -0.4,0.4 h -1.526 a 0.722,0.722 0 0 1 -0.53,-0.171 1.258,1.258 0 0 1 -0.243,-0.315 l -2.356,-4.189 h -2.391 v 4.189 a 0.491,0.491 0 0 1 -0.485,0.486 H 965.1 a 0.492,0.492 0 0 1 -0.486,-0.486 v -11.616 a 0.492,0.492 0 0 1 0.486,-0.486 z m -2.7,5.664 h 2.607 a 3.211,3.211 0 0 0 1.636,-0.36 1.45,1.45 0 0 0 0.611,-1.367 1.407,1.407 0 0 0 -0.611,-1.349 3.357,3.357 0 0 0 -1.636,-0.341 h -2.607 z"
         transform="translate(-902.021,-1072.256)"
         fill="#ffffff" />
      <path
         id="Path_8767"
         data-name="Path 8767"
         d="m 1031.277,1072.256 a 0.491,0.491 0 0 1 0.485,0.486 0.355,0.355 0 0 1 -0.036,0.162 l -4.261,7.5 v 3.956 a 0.491,0.491 0 0 1 -0.486,0.486 h -1.438 a 0.492,0.492 0 0 1 -0.485,-0.486 v -3.96 l -4.262,-7.5 a 0.354,0.354 0 0 1 -0.036,-0.162 0.492,0.492 0 0 1 0.486,-0.486 h 1.349 a 0.733,0.733 0 0 1 0.539,0.18 1.03,1.03 0 0 1 0.216,0.27 l 2.913,5.089 2.913,-5.089 a 1.019,1.019 0 0 1 0.216,-0.27 0.732,0.732 0 0 1 0.539,-0.18 z"
         transform="translate(-947.54,-1072.256)"
         fill="#ffffff" />
    </g>
    <path
       id="Path_8768"
       data-name="Path 8768"
       d="m 1692.467,1549.47 h -10.473 a 1.791,1.791 0 0 1 1.62,-1.21 c 1.616,-0.263 4.417,-1.2 5.041,-3.268 0.02,-0.066 0.038,-0.135 0.054,-0.2 0.5,-2.209 4.1,0.677 4.1,0.677 0,0 0.01,0.089 0.026,0.239 0.087,0.803 0.3,3.392 -0.368,3.762 z"
       transform="translate(-1346.368,-1162.05)"
       fill="#233862" />
    <path
       id="Path_8769"
       data-name="Path 8769"
       d="m 1692.824,1256.859 c 0,0 0.548,6.835 1.192,15.051 0.875,11.161 1.928,24.871 2.032,27.468 0.18,4.51 0.9,11.724 0.9,11.724 0,0 1.713,1.714 5.14,0.992 a 118.007,118.007 0 0 0 3.927,-21.194 c 0.014,-0.179 0.027,-0.358 0.041,-0.538 0.812,-11.092 2.074,-34.449 2.074,-34.449 z"
       transform="translate(-1355.148,-928.525)"
       fill="#87d8ea" />
    <path
       id="Path_8770"
       data-name="Path 8770"
       d="m 1692.824,1256.859 c 0,0 0.548,6.835 1.192,15.051 l 12,18.989 c 0.014,-0.179 0.027,-0.358 0.041,-0.538 0.812,-11.092 2.074,-34.449 2.074,-34.449 z"
       transform="translate(-1355.148,-928.525)"
       fill="#50818b" />
    <path
       id="Path_8771"
       data-name="Path 8771"
       d="m 1706.042,1246.083 c 0,0 9.875,24.754 16.368,36.387 6.493,11.633 8.522,14.88 8.522,14.88 0,0 3.72,-1.488 4.058,-2.5 0,0 -2.483,-22.458 -6.831,-27.933 -2.457,-3.094 -5.343,-12.377 -5.479,-15.624 -0.136,-3.247 -0.879,-9.672 -0.879,-9.672 z"
       transform="translate(-1365.864,-916.938)"
       fill="#87d8ea" />
    <path
       id="Path_8772"
       data-name="Path 8772"
       d="m 1729.567,1028.437 c 0,0 -6.681,3.274 -10.533,2.059 a 9.123,9.123 0 0 1 2.608,-2.118 c -0.134,-0.785 -0.237,-1.467 -0.3,-2.045 a 19.2,19.2 0 0 1 -0.163,-2.089 l 2.578,-2.059 2.445,-1.971 a 10.059,10.059 0 0 0 3.365,8.223 z"
       transform="translate(-1376.397,-737.44)"
       fill="#ffb27d" />
    <path
       id="Path_8773"
       data-name="Path 8773"
       d="m 1709.46,1091.878 c 0.015,0.415 -0.859,0.889 -1.244,1.067 a 26.969,26.969 0 0 1 -8.548,2.459 c -3.571,0.37 -7.793,-0.444 -9.244,-0.415 a 0.6,0.6 0 0 1 -0.4,-0.163 c -0.1,-0.074 -0.178,-4.444 -0.1,-9.94 0,-0.223 0,-0.445 0.015,-0.667 v -0.074 c 0.03,-2.148 0.1,-4.4 0.207,-6.652 a 75,75 0 0 1 1.244,-12.355 13.414,13.414 0 0 1 4.178,-6.666 l 1.333,-1.185 a 6.316,6.316 0 0 0 4.148,-0.5 c 1.541,-0.755 3.226,-1.6 3.493,-1.4 2.015,1.5 3.351,4.892 4.077,9.188 a 48.366,48.366 0 0 1 0.608,8.148 c 0,1.067 -0.03,2.163 -0.089,3.245 a 103.914,103.914 0 0 0 0.207,13.91 c 0.055,0.86 0.1,1.522 0.115,2 z"
       transform="translate(-1352.77,-765.929)"
       fill="#56b2c6" />
    <path
       id="Path_8774"
       data-name="Path 8774"
       d="m 1723.63,1129.37 c -32.37,-0.044 -5.97,-24.132 -5.97,-24.132 l 5.244,-1.171 a 48.339,48.339 0 0 1 0.608,8.148 c 0,1.067 -0.03,2.163 -0.089,3.245 a 103.89,103.89 0 0 0 0.207,13.91 z"
       transform="translate(-1367.057,-805.421)"
       fill="#984438" />
    <g
       id="Group_2254"
       data-name="Group 2254"
       transform="translate(316.751,303.664)">
      <rect
         id="Rectangle_1216"
         data-name="Rectangle 1216"
         width="20.127001"
         height="20.127001"
         transform="rotate(180,10.0635,10.0635)"
         fill="#e69d43"
         x="0"
         y="0" />
      <rect
         id="Rectangle_1217"
         data-name="Rectangle 1217"
         width="9.2139997"
         height="20.127001"
         transform="rotate(180,14.2515,10.0635)"
         fill="#d57912"
         x="0"
         y="0" />
    </g>
    <path
       id="Path_8775"
       data-name="Path 8775"
       d="m 1648.456,1175.742 -1.2,-0.384 a 2.527,2.527 0 0 0 -3.673,-1.532 c 0,0 -1.151,0.61 -0.644,1.332 0.507,0.722 0.414,0.342 1.107,1.382 a 2.257,2.257 0 0 0 2.663,1.141 l 1,0.029 z"
       transform="translate(-1314.602,-861.717)"
       fill="#ffb27d" />
    <path
       id="Path_8776"
       data-name="Path 8776"
       d="m 1682.783,1063.617 a 25.222,25.222 0 0 1 -0.478,25.13 c -2.437,4.205 -20.848,0.208 -20.848,0.208 0,0 -0.718,-1.3 1.2,-2.662 0,0 12.258,-2.075 13.719,-2.423 1.3,-0.309 0.432,-12.222 1.914,-15.679 a 8.709,8.709 0 0 1 4.493,-4.574 z"
       transform="translate(-1329.612,-772.628)"
       fill="#87d8ea" />
    <path
       id="Path_8777"
       data-name="Path 8777"
       d="m 1735.45,1030.774 a 8.9,8.9 0 0 1 -4.9,4 19.185,19.185 0 0 1 -0.163,-2.089 l 2.578,-2.059 z"
       transform="translate(-1385.599,-745.881)"
       fill="#ed985f" />
    <path
       id="Path_8778"
       data-name="Path 8778"
       d="m 1718.847,995.862 c 0,0 6.374,1.059 6.972,-2.92 0.598,-3.979 1.824,-6.523 -2.22,-7.367 -4.044,-0.844 -5.065,0.555 -5.588,1.835 -0.523,1.28 -0.811,8.074 0.836,8.452 z"
       transform="translate(-1375.237,-709.147)"
       fill="#ffb27d" />
    <path
       id="Path_8779"
       data-name="Path 8779"
       d="m 1720.561,983.443 a 6.6,6.6 0 0 0 -5.936,-6.186 c -3.978,-0.586 -3.647,-3.468 -3.192,-3.994 a 44.862,44.862 0 0 1 8.231,0.821 c 4.673,1.177 1.588,8.566 0.897,9.359 z"
       transform="translate(-1370.022,-699.375)"
       fill="#263238" />
    <path
       id="Path_8780"
       data-name="Path 8780"
       d="m 1831.879,1525.547 -0.309,-0.4 -3.51,1.967 c -0.033,0.672 -0.051,1.448 -0.013,2.128 a 5.814,5.814 0 0 1 -0.084,1.378 c -0.073,0.349 -0.445,1.835 -1.532,2.225 -1.234,0.443 -1.333,1.391 0.773,1.376 l 1.1,-0.01 a 2.928,2.928 0 0 0 2.795,-2.162 4.989,4.989 0 0 1 0.853,-1.651 6.14,6.14 0 0 0 1.416,-1.927 c 0.361,-1.215 -1.489,-2.928 -1.489,-2.928 z"
       transform="translate(-1462.754,-1146.803)"
       fill="#233862" />
  </g>
</svg>
