<svg xmlns="http://www.w3.org/2000/svg" xmlns:xlink="http://www.w3.org/1999/xlink" width="65.23" height="45.842" viewBox="0 0 65.23 45.842">
  <defs>
    <clipPath id="clip-path">
      <path id="Path_13357" data-name="Path 13357" d="M637.824,173.94v8.439a.889.889,0,0,0,.887.887h7.9a.857.857,0,0,1,.634.267l2.06,2.107a.858.858,0,0,0,.634.267h5.114a.887.887,0,0,0,.818-1.23l-4.645-11.08a.872.872,0,0,0-.818-.544H638.711A.889.889,0,0,0,637.824,173.94Z" transform="translate(-637.824 -173.053)" fill="none" clip-rule="evenodd"/>
    </clipPath>
  </defs>
  <g id="Group_1977" data-name="Group 1977" transform="translate(0)">
    <g id="Group_1973" data-name="Group 1973" transform="translate(0 0)">
      <path id="Path_13435" data-name="Path 13435" d="M3.456,0H37.743A3.456,3.456,0,0,1,41.2,3.456V26.24A3.456,3.456,0,0,1,37.743,29.7H3.456A3.456,3.456,0,0,1,0,26.24V3.456A3.456,3.456,0,0,1,3.456,0Z" transform="translate(0.85)" fill="#e4880c"/>
      <path id="Path_13317" data-name="Path 13317" d="M445.225,153.5v1.883h38.8V153.5Zm0,2.529v3.932h38.8v-3.932Zm0,4.577v3.932h38.8v-3.932Zm0,4.578v3.932h38.8v-3.932Zm0,4.578v3.932h38.8v-3.932Zm0,4.578v3.932h38.8v-3.932Zm0,4.577V180.8h38.8v-1.883Z" transform="translate(-443.177 -152.302)" fill="#ff970b" fill-rule="evenodd"/>
      <path id="Path_13318" data-name="Path 13318" d="M500.708,185.687a6.448,6.448,0,0,1,6.348,6.544q0,.228-.015.451l-3.144-1.318,1.308-1.284-7.958-3.336a6.182,6.182,0,0,1,3.461-1.058Zm5.271,10.19a6.293,6.293,0,0,1-5.271,2.9,6.423,6.423,0,0,1-6.31-5.827l3.991.817-1.6,1.567,9.186.546Zm-10.5-8.7-4.112,4.037,9.224,1.887-1.307,1.283,10.51.625-7.811-3.274,1.307-1.283Z" transform="translate(-479.133 -177.383)" fill="#fff" fill-rule="evenodd"/>
      <rect id="Rectangle_585" data-name="Rectangle 585" width="43.194" height="1.643" transform="translate(0.146 30.517)"/>
      <g id="Group_1969" data-name="Group 1969" transform="translate(42.929 3.873)">
        <path id="Path_13319" data-name="Path 13319" d="M630.976,165.619H645.7a.871.871,0,0,1,.818.544l6.1,14.55a.845.845,0,0,1,.069.343v18.836a.589.589,0,0,1-.587.587h-2.494a7.6,7.6,0,1,0-15.2,0h-3.433a.589.589,0,0,1-.587-.587V166.206A.589.589,0,0,1,630.976,165.619Z" transform="translate(-630.389 -165.619)" fill="#87d8ea" fill-rule="evenodd"/>
        <path id="Path_13320" data-name="Path 13320" d="M635.412,172.062a1.422,1.422,0,0,1,1.42-1.42h11.694a1.4,1.4,0,0,1,1.309.871l4.645,11.08a1.419,1.419,0,0,1-1.309,1.968h-5.114a1.389,1.389,0,0,1-1.015-.427l-2.06-2.107a.327.327,0,0,0-.254-.107h-7.9a1.421,1.421,0,0,1-1.42-1.419Z" transform="translate(-634.303 -169.533)" fill="#5492a0" fill-rule="evenodd"/>
        <path id="Path_13321" data-name="Path 13321" d="M637.824,173.94v8.439a.889.889,0,0,0,.887.887h7.9a.857.857,0,0,1,.634.267l2.06,2.107a.858.858,0,0,0,.634.267h5.114a.887.887,0,0,0,.818-1.23l-4.645-11.08a.872.872,0,0,0-.818-.544H638.711A.889.889,0,0,0,637.824,173.94Z" transform="translate(-636.182 -171.412)" fill="#fff" fill-rule="evenodd"/>
        <path id="Path_13322" data-name="Path 13322" d="M639,233.866v15.079a.889.889,0,0,0,.466.781,9.8,9.8,0,0,1,17.444-2.139v-11.08a.889.889,0,0,0-.887-.887h-5.675a.857.857,0,0,1-.634-.267l-2.06-2.107a.856.856,0,0,0-.634-.267h-7.132A.889.889,0,0,0,639,233.866Z" transform="translate(-637.102 -218.107)" fill="#69b9cb" fill-rule="evenodd"/>
        <path id="Path_13323" data-name="Path 13323" d="M725.185,245.795h-1.438a.324.324,0,0,0-.323.323v11.943a.324.324,0,0,0,.323.323h1.438Z" transform="translate(-702.884 -228.094)" fill-rule="evenodd"/>
        <path id="Path_13324" data-name="Path 13324" d="M727.256,249.616h-1a.169.169,0,0,0-.169.169v.4a.169.169,0,0,0,.169.169h1v-.734Zm0,10.9v-.734h-1a.169.169,0,0,0-.169.169v.4a.169.169,0,0,0,.169.169Zm0-1.13v-.734h-1a.169.169,0,0,0-.169.169v.4a.169.169,0,0,0,.169.169Zm0-1.13v-.734h-1a.169.169,0,0,0-.169.169v.4a.169.169,0,0,0,.169.169Zm0-1.13v-.734h-1a.169.169,0,0,0-.169.169v.4a.169.169,0,0,0,.169.169Zm0-1.13v-.734h-1a.169.169,0,0,0-.169.169v.4a.169.169,0,0,0,.169.169Zm0-1.13v-.734h-1a.169.169,0,0,0-.169.169v.4a.169.169,0,0,0,.169.169Zm0-1.13v-.734h-1a.169.169,0,0,0-.169.169v.4a.169.169,0,0,0,.169.169Zm0-1.13v-.733h-1a.169.169,0,0,0-.169.169v.4a.169.169,0,0,0,.169.169Zm0-1.13v-.733h-1a.169.169,0,0,0-.169.169v.4a.169.169,0,0,0,.169.169Z" transform="translate(-704.955 -231.071)" fill="#4e4e4e" fill-rule="evenodd"/>
        <path id="Path_13436" data-name="Path 13436" d="M.484,0H2.01a.484.484,0,0,1,0,.968H.484A.484.484,0,0,1,.484,0Z" transform="translate(3.411 16.087)" fill="#5492a0"/>
        <path id="Path_13325" data-name="Path 13325" d="M727.852,256.669a3.146,3.146,0,0,0,0,4.61Z" transform="translate(-705.551 -236.567)" fill="#eeb400" fill-rule="evenodd"/>
      </g>
      <path id="Path_13326" data-name="Path 13326" d="M573.149,286.3h4.365a3.844,3.844,0,0,1,3.833,3.833h0a3.844,3.844,0,0,1-3.833,3.833h-4.365a3.844,3.844,0,0,1-3.833-3.833h0A3.844,3.844,0,0,1,573.149,286.3Z" transform="translate(-539.871 -255.782)" fill="#ff970b" fill-rule="evenodd"/>
      <path id="Path_13327" data-name="Path 13327" d="M586.749,286.3v7.666h-.985q-.131,0-.259-.009v-7.648q.128-.009.259-.009Zm2.4,0h.985q.13,0,.259.009v7.648q-.128.009-.259.009h-.985Z" transform="translate(-552.487 -255.782)" fill="#be7614" fill-rule="evenodd"/>
      <g id="Group_1970" data-name="Group 1970" transform="translate(47.485 31.699)">
        <path id="Path_13328" data-name="Path 13328" d="M658.1,291.649a7.072,7.072,0,1,1-7.072,7.072,7.072,7.072,0,0,1,7.072-7.072Zm0,2.725a4.346,4.346,0,1,0,4.346,4.346A4.347,4.347,0,0,0,658.1,294.374Z" transform="translate(-651.026 -291.649)" fill="#111c3e" fill-rule="evenodd"/>
        <path id="Path_13329" data-name="Path 13329" d="M667.717,303.993a4.346,4.346,0,1,1-4.347,4.347,4.346,4.346,0,0,1,4.347-4.347Zm-1.556,2.342.625.625a1.654,1.654,0,0,1,.614-.255v-.884a2.526,2.526,0,0,0-1.239.513Zm.176,1.073-.625-.625a2.524,2.524,0,0,0-.513,1.239h.883a1.658,1.658,0,0,1,.255-.614Zm-.255,1.248H665.2a2.524,2.524,0,0,0,.513,1.239l.625-.625a1.658,1.658,0,0,1-.255-.614Zm.7,1.062-.625.625a2.525,2.525,0,0,0,1.239.513v-.884a1.654,1.654,0,0,1-.614-.255Zm1.248.255v.883a2.525,2.525,0,0,0,1.239-.513l-.625-.625a1.657,1.657,0,0,1-.614.255Zm1.062-.7.625.625a2.525,2.525,0,0,0,.513-1.239h-.884a1.655,1.655,0,0,1-.255.614Zm.255-1.248h.884a2.526,2.526,0,0,0-.513-1.239l-.625.625a1.653,1.653,0,0,1,.254.614Zm-.7-1.062.625-.625a2.525,2.525,0,0,0-1.239-.513v.884A1.652,1.652,0,0,1,668.648,306.96Z" transform="translate(-660.645 -301.268)" fill="#90a1a1" fill-rule="evenodd"/>
        <path id="Path_13330" data-name="Path 13330" d="M669.283,306a3.9,3.9,0,1,1-3.9,3.9,3.9,3.9,0,0,1,3.9-3.9Zm0,.614a3.289,3.289,0,1,0,3.289,3.289A3.289,3.289,0,0,0,669.283,306.617Z" transform="translate(-662.211 -302.834)" fill="#979797" fill-rule="evenodd" style="mix-blend-mode: multiply;isolation: isolate"/>
        <path id="Path_13331" data-name="Path 13331" d="M680.445,320.328a.74.74,0,1,1-.74.74A.74.74,0,0,1,680.445,320.328Z" transform="translate(-673.373 -313.996)" fill="#979797" fill-rule="evenodd" style="mix-blend-mode: multiply;isolation: isolate"/>
      </g>
      <g id="Group_1971" data-name="Group 1971" transform="translate(14.464 31.699)">
        <path id="Path_13332" data-name="Path 13332" d="M508.532,291.649a7.072,7.072,0,1,1-7.072,7.072,7.072,7.072,0,0,1,7.072-7.072Zm0,2.725a4.346,4.346,0,1,0,4.346,4.346A4.346,4.346,0,0,0,508.532,294.374Z" transform="translate(-501.46 -291.649)" fill="#111c3e" fill-rule="evenodd"/>
        <path id="Path_13333" data-name="Path 13333" d="M518.151,303.993a4.346,4.346,0,1,1-4.347,4.347,4.346,4.346,0,0,1,4.347-4.347Zm-1.556,2.342.625.625a1.656,1.656,0,0,1,.614-.255v-.884a2.527,2.527,0,0,0-1.239.513Zm.176,1.073-.625-.625a2.521,2.521,0,0,0-.513,1.239h.884a1.653,1.653,0,0,1,.254-.614Zm-.255,1.248h-.884a2.525,2.525,0,0,0,.513,1.239l.625-.625a1.657,1.657,0,0,1-.255-.614Zm.7,1.062-.625.625a2.526,2.526,0,0,0,1.239.513v-.884a1.656,1.656,0,0,1-.614-.255Zm1.248.255v.883a2.525,2.525,0,0,0,1.239-.513l-.625-.625a1.656,1.656,0,0,1-.614.255Zm1.063-.7.625.625a2.524,2.524,0,0,0,.513-1.239h-.884a1.657,1.657,0,0,1-.254.614Zm.255-1.248h.884a2.526,2.526,0,0,0-.513-1.239l-.625.625a1.659,1.659,0,0,1,.255.614Zm-.7-1.062.625-.625a2.528,2.528,0,0,0-1.239-.513v.884A1.651,1.651,0,0,1,519.082,306.96Z" transform="translate(-511.079 -301.268)" fill="#90a1a1" fill-rule="evenodd"/>
        <path id="Path_13334" data-name="Path 13334" d="M519.718,306a3.9,3.9,0,1,1-3.9,3.9,3.9,3.9,0,0,1,3.9-3.9Zm0,.614a3.289,3.289,0,1,0,3.289,3.289A3.289,3.289,0,0,0,519.718,306.617Z" transform="translate(-512.646 -302.834)" fill="#979797" fill-rule="evenodd" style="mix-blend-mode: multiply;isolation: isolate"/>
        <path id="Path_13335" data-name="Path 13335" d="M530.879,320.328a.74.74,0,1,1-.74.74A.74.74,0,0,1,530.879,320.328Z" transform="translate(-523.807 -313.996)" fill="#979797" fill-rule="evenodd" style="mix-blend-mode: multiply;isolation: isolate"/>
      </g>
      <g id="Group_1972" data-name="Group 1972" transform="translate(0 31.699)">
        <path id="Path_13336" data-name="Path 13336" d="M443.021,291.649a7.072,7.072,0,1,1-7.072,7.072,7.072,7.072,0,0,1,7.072-7.072Zm0,2.725a4.346,4.346,0,1,0,4.347,4.346A4.346,4.346,0,0,0,443.021,294.374Z" transform="translate(-435.949 -291.649)" fill="#111c3e" fill-rule="evenodd"/>
        <path id="Path_13337" data-name="Path 13337" d="M452.64,303.993a4.346,4.346,0,1,1-4.346,4.347,4.346,4.346,0,0,1,4.346-4.347Zm-1.556,2.342.625.625a1.656,1.656,0,0,1,.614-.255v-.884a2.527,2.527,0,0,0-1.239.513Zm.176,1.073-.625-.625a2.524,2.524,0,0,0-.513,1.239h.884a1.653,1.653,0,0,1,.254-.614Zm-.255,1.248h-.883a2.522,2.522,0,0,0,.513,1.239l.625-.625a1.657,1.657,0,0,1-.255-.614Zm.7,1.062-.625.625a2.526,2.526,0,0,0,1.239.513v-.884a1.655,1.655,0,0,1-.614-.255Zm1.248.255v.883a2.524,2.524,0,0,0,1.239-.513l-.625-.625a1.655,1.655,0,0,1-.614.255Zm1.062-.7.625.625a2.523,2.523,0,0,0,.513-1.239h-.884a1.652,1.652,0,0,1-.254.614Zm.255-1.248h.884a2.527,2.527,0,0,0-.513-1.239l-.625.625a1.657,1.657,0,0,1,.255.614Zm-.7-1.062.625-.625a2.527,2.527,0,0,0-1.239-.513v.884A1.65,1.65,0,0,1,453.571,306.96Z" transform="translate(-445.568 -301.268)" fill="#90a1a1" fill-rule="evenodd"/>
        <path id="Path_13338" data-name="Path 13338" d="M454.207,306a3.9,3.9,0,1,1-3.9,3.9,3.9,3.9,0,0,1,3.9-3.9Zm0,.614a3.289,3.289,0,1,0,3.289,3.289A3.289,3.289,0,0,0,454.207,306.617Z" transform="translate(-447.135 -302.834)" fill="#979797" fill-rule="evenodd" style="mix-blend-mode: multiply;isolation: isolate"/>
        <path id="Path_13339" data-name="Path 13339" d="M465.368,320.328a.74.74,0,1,1-.74.74A.74.74,0,0,1,465.368,320.328Z" transform="translate(-458.296 -313.996)" fill="#979797" fill-rule="evenodd" style="mix-blend-mode: multiply;isolation: isolate"/>
      </g>
    </g>
    <g id="Group_1976" data-name="Group 1976" transform="translate(44.57 5.515)">
      <g id="Group_1975" data-name="Group 1975" transform="translate(0)" clip-path="url(#clip-path)">
        <g id="Group_1974" data-name="Group 1974" transform="translate(2.652 1.052)">
          <path id="Path_13340" data-name="Path 13340" d="M666.279,215.5a1.508,1.508,0,0,0-.121-.492l-.388-1.049c-.042-.112-.083-.224-.127-.334-.059-.145-.123-.288-.187-.431l-.06-.134-.28-.624a.454.454,0,0,0-.123-.185.513.513,0,0,0-.376-.04,2.224,2.224,0,0,1-1.691-.516,4.987,4.987,0,0,0,.509,2.181,6.109,6.109,0,0,0,1.044,1.541,1.494,1.494,0,0,0,1.207.6C666.022,216.017,666.285,215.869,666.279,215.5Z" transform="translate(-660.036 -204.213)" fill="#7f1111"/>
          <path id="Path_13341" data-name="Path 13341" d="M661.929,189.8c.048.318.154.625.21.942a3.079,3.079,0,0,1-.212,1.761,1.7,1.7,0,0,1-.947.98c-.232.077-.482.079-.719.14a1.512,1.512,0,0,0-1.034.952,6.77,6.77,0,0,1-2.03-1.2,6.988,6.988,0,0,0-.252-3.558.521.521,0,0,1-.017-.45.479.479,0,0,1,.226-.154,7.423,7.423,0,0,1,4.58-.375c.228.055.274.076.215.3A1.638,1.638,0,0,0,661.929,189.8Z" transform="translate(-655.326 -186.244)" fill="#edb38c"/>
          <path id="Path_13342" data-name="Path 13342" d="M670.84,195.521a1.669,1.669,0,0,1,.468,1.14,3.32,3.32,0,0,1-.451,1.448,2.586,2.586,0,0,1-.4.643.873.873,0,0,1-.669.3,1.306,1.306,0,0,1-.752-.435l-.66-.619a.539.539,0,0,1-.195-.287.093.093,0,0,0,.134-.017.267.267,0,0,0,.044-.145c.032-.317.055-.636.07-.955.005-.11-.031-.339.053-.425.069-.071.325-.092.423-.119Z" transform="translate(-664.131 -191.613)" fill="#b7e2e1"/>
          <path id="Path_13343" data-name="Path 13343" d="M657.162,199.987a.058.058,0,0,0-.027.108c.024.013.065,0,.061-.035a.5.5,0,0,0-.105-.251c-.048-.06-.146-.16-.224-.092a.212.212,0,0,0-.016.248.585.585,0,0,0,.223.21c.039.025.081-.031.049-.063a.138.138,0,0,0-.206.028.353.353,0,0,0-.053.126.208.208,0,0,0,0,.124.125.125,0,0,0,.2.033.367.367,0,0,0,.077-.11l.089-.164c.024-.046-.045-.087-.07-.041l-.1.178c-.017.032-.062.119-.113.091s0-.117.011-.148.063-.1.106-.059l.049-.063a.654.654,0,0,1-.161-.13c-.035-.044-.079-.132-.042-.187.021-.03.053.006.073.023a.388.388,0,0,1,.062.07.4.4,0,0,1,.07.178l.061-.035-.013.043C657.213,200.062,657.213,199.981,657.162,199.987Z" transform="translate(-655.276 -194.864)" fill="#b7e2e1"/>
          <path id="Path_13344" data-name="Path 13344" d="M669.445,197.875A.944.944,0,0,0,669.92,199l.521.4a.909.909,0,0,0,.434.219.313.313,0,0,0,.357-.255.459.459,0,0,0-.193-.321l-.471-.434,1.111-.005.027-.534-.9-.069.86-.175a.452.452,0,0,0,.215-.084.3.3,0,0,0,.086-.26.9.9,0,0,0-.088-.269l-.9.255a.22.22,0,0,1-.122.011.076.076,0,0,1-.056-.094l.744-.389a.462.462,0,0,0,.208-.169.159.159,0,0,0-.069-.227,1.252,1.252,0,0,0-.394.075q-.213.043-.424.089-.408.09-.812.195c-.166.043-.41.058-.5.231A2.376,2.376,0,0,0,669.445,197.875Z" transform="translate(-665.093 -192.445)" fill="#a3cecc"/>
          <path id="Path_13345" data-name="Path 13345" d="M658.56,180.46a21.683,21.683,0,0,1,2.945.206.16.16,0,0,0,.12-.282,1.978,1.978,0,0,0-.335-.21,2.053,2.053,0,0,1-.676-.449,3.751,3.751,0,0,1-.38-.818,1.973,1.973,0,0,0-1.262-.988,3.577,3.577,0,0,0-1.638-.012,3.416,3.416,0,0,0-1.859.915,1.843,1.843,0,0,0-.429,1.94,1.041,1.041,0,0,0,.168.271c.1.117.148.064.279.008a6.569,6.569,0,0,1,.71-.252,8.179,8.179,0,0,1,1.494-.282C657.984,180.48,658.272,180.465,658.56,180.46Z" transform="translate(-653.8 -177.819)" fill="#dd8003"/>
          <path id="Path_13346" data-name="Path 13346" d="M661.229,180.314a4.215,4.215,0,0,0-.942-1.33,1.811,1.811,0,0,0-1.512-.467,1.753,1.753,0,0,0-1.246,1.279.864.864,0,0,1-.225.479c-.195.154-.513.084-.687.261-.123.124-.129.329-.248.457a1.014,1.014,0,0,1-.2.145.338.338,0,0,0-.159.188c-.1.41.638,0,.755-.049q.519-.206,1.054-.37a13.844,13.844,0,0,1,2.18-.48q.313-.043.628-.071A2.923,2.923,0,0,1,661.229,180.314Z" transform="translate(-654.636 -178.34)" fill="#ff970b"/>
          <path id="Path_13347" data-name="Path 13347" d="M658.2,191.46l-.31.041a1.526,1.526,0,0,0-.111-.618.6.6,0,0,0-.481-.361.573.573,0,0,0-.518.357,1.124,1.124,0,0,0-.045.657c.04.219.113.431.153.65a1.125,1.125,0,0,1-.044.657,1.227,1.227,0,0,0-.384-.864c.046.007.072-.057.054-.1a.419.419,0,0,0-.091-.1.492.492,0,0,1-.095-.3l-.045-.519a.662.662,0,0,1,.038-.369.636.636,0,0,1,.336-.251,6.47,6.47,0,0,1,1.426-.423c.125-.022.25-.04.375-.054s.194-.041.161.093c-.056.23-.2.453-.271.686A3.891,3.891,0,0,0,658.2,191.46Z" transform="translate(-654.854 -187.193)" fill="#2d1416"/>
          <path id="Path_13348" data-name="Path 13348" d="M675.181,192.961l.325.058c.071.012.155.016.185-.063a.112.112,0,0,0-.052-.147c-.06-.019-.17.032-.227.052S675.224,192.968,675.181,192.961Z" transform="translate(-669.585 -189.495)" fill="#e5e2da"/>
          <path id="Path_13349" data-name="Path 13349" d="M675.291,190.948a.47.47,0,0,0-.254-.114.549.549,0,0,0-.255,0,.871.871,0,0,0-.405.275s0,0,0,0a.565.565,0,0,1,.415-.19,1.267,1.267,0,0,1,.218,0,.605.605,0,0,1,.115.029c.044.016.084.04.128.057S675.314,190.973,675.291,190.948Z" transform="translate(-668.958 -187.949)" fill="#2d1416"/>
          <path id="Path_13350" data-name="Path 13350" d="M675.655,192.012a.973.973,0,0,0-.118.017.2.2,0,0,0,.084-.144c0-.022-.032-.021-.034,0v.008a.173.173,0,0,1-.093.135.01.01,0,0,0-.005.012l0,0c-.06.014-.119.032-.176.05a3.052,3.052,0,0,0-.334.126.024.024,0,0,0,0,.042.367.367,0,0,0,.145.033l.185.013c.054,0,.11.006.164.011a.01.01,0,0,0,.016,0h0a.164.164,0,0,1,.081.028c.019.014.03.034.049.048a.007.007,0,0,0,.011,0,.1.1,0,0,0-.055-.092.168.168,0,0,0-.058-.022.276.276,0,0,0,.017-.2c.043-.013.086-.026.128-.041C675.666,192.027,675.666,192.011,675.655,192.012Zm-.178.074a.224.224,0,0,1-.005.066.222.222,0,0,1-.011.033c-.026,0-.034-.026-.034-.052s.017-.029.023-.04Zm-.272.163a1.042,1.042,0,0,1-.152-.014c.091-.038.182-.074.276-.1l.027-.009a.155.155,0,0,0,0,.12.125.125,0,0,0,.012.02Z" transform="translate(-669.415 -188.767)" fill="#2d1416"/>
          <path id="Path_13351" data-name="Path 13351" d="M664.454,195.9l-.034.059-1.3-.658c-.036-.018-.134-.077-.089-.131s.147.038.18.054c.144.068.286.14.427.214C663.706,195.474,664.462,195.887,664.454,195.9Z" transform="translate(-660.108 -191.33)" fill="#b7e2e1"/>
          <path id="Path_13352" data-name="Path 13352" d="M658.312,201.242l1.8.728.506.2a.061.061,0,0,0,.074-.042.062.062,0,0,0-.042-.074l-1.8-.728-.506-.2a.061.061,0,0,0-.074.042A.062.062,0,0,0,658.312,201.242Z" transform="translate(-656.406 -195.978)" fill="#b7e2e1"/>
          <path id="Path_13353" data-name="Path 13353" d="M659.8,194.188a.26.26,0,0,0-.3-.115.386.386,0,0,0-.237.244.77.77,0,0,0-.026.348,1.565,1.565,0,0,0,.248.679c.051.077.133.158.221.132.214-.064.1-.465.052-.6C659.673,194.641,659.906,194.4,659.8,194.188Z" transform="translate(-657.151 -190.476)" fill="#c48d69"/>
          <path id="Path_13354" data-name="Path 13354" d="M654.118,207.5a1.54,1.54,0,0,0,.158.554,1.519,1.519,0,0,1,.156.554.519.519,0,0,1-.258.484l.6,0q.143,1.21.284,2.421l-4.884-.2c-.053-.619-.25-1.218-.319-1.836a2.19,2.19,0,0,1,.441-1.751c.252-.268.6-.435.827-.726a2.282,2.282,0,0,0,.315-.674c.031-.092.095-.451.185-.49.117-.051.225.148.281.218a4.239,4.239,0,0,0,1.378,1.124C653.356,207.217,654.118,207.494,654.118,207.5Z" transform="translate(-649.835 -199.646)" fill="#ff970b"/>
          <path id="Path_13355" data-name="Path 13355" d="M651.132,215.651a6.1,6.1,0,0,0,.5,1.955,9.5,9.5,0,0,0,2.651.076,4.817,4.817,0,0,0-.3-1.8c-.086-.219-.192-.429-.3-.64a3.083,3.083,0,0,0-.311-.526,1.586,1.586,0,0,0-1.243-.58.857.857,0,0,0-.884.54A1.855,1.855,0,0,0,651.132,215.651Z" transform="translate(-650.834 -206.119)" fill="#ca0007"/>
          <path id="Path_13356" data-name="Path 13356" d="M700.708,225.858h0a.383.383,0,0,1-.236-.488l1.215-3.5a.383.383,0,0,1,.488-.236h0a.383.383,0,0,1,.236.487l-1.215,3.5A.383.383,0,0,1,700.708,225.858Z" transform="translate(-689.276 -211.946)" fill="#0b0c0c"/>
        </g>
      </g>
    </g>
    <path id="Path_13358" data-name="Path 13358" d="M639.829,208.715l14.825.028a.872.872,0,0,1,.817.544l1.345,3.207c.12.286.339.55.17.8a.864.864,0,0,1-.739.4h-5.114a.858.858,0,0,1-.634-.267l-2.06-2.107a.857.857,0,0,0-.634-.267h-7.9a.881.881,0,0,1-.548-.19v-1.68A.471.471,0,0,1,639.829,208.715Z" transform="translate(-594.451 -195.327)" fill="#cbd7d7" fill-rule="evenodd" style="mix-blend-mode: multiply;isolation: isolate"/>
  </g>
</svg>
